<svg enable-background="new 0 0 32 32" height="24" viewBox="0 0 32 32" width="24" xmlns="http://www.w3.org/2000/svg"><g id="Layer_1" fill="white"><path d="m20 30.1798c0 .453.3672.8202.8202.8202h6.1798 3.0059c.549 0 .9941-.4451.9941-.9941v-3.0059-6.1798c0-.453-.3672-.8202-.8202-.8202h-2.3596c-.453 0-.8202.3672-.8202.8202v5.7804c0 .2206-.1788.3994-.3994.3994h-5.7804c-.453 0-.8202.3672-.8202.8202z"/><path d="m1.8202 20c-.453 0-.8202.3672-.8202.8202v6.1798 3.0059c0 .549.4451.9941.9941.9941h3.0059 6.1798c.453 0 .8202-.3672.8202-.8202v-2.3596c0-.453-.3672-.8202-.8202-.8202h-5.7804c-.2206 0-.3994-.1788-.3994-.3994v-5.7804c0-.453-.3672-.8202-.8202-.8202z"/><path d="m12 1.8202c0-.453-.3672-.8202-.8202-.8202h-6.1798-3.0059c-.549 0-.9941.4451-.9941.9941v3.0059 6.1798c0 .453.3672.8202.8202.8202h2.3596c.453 0 .8202-.3672.8202-.8202v-5.7804c0-.2206.1788-.3994.3994-.3994h5.7804c.453 0 .8202-.3672.8202-.8202z"/><path d="m30.1798 12c.453 0 .8202-.3672.8202-.8202v-6.1798-3.0059c0-.549-.4451-.9941-.9941-.9941h-3.0059-6.1798c-.453 0-.8202.3672-.8202.8202v2.3596c0 .453.3672.8202.8202.8202h5.7804c.2206 0 .3994.1788.3994.3994v5.7804c0 .453.3672.8202.8202.8202z"/></g></svg>