<svg xmlns="http://www.w3.org/2000/svg" version="1.1" xmlns:xlink="http://www.w3.org/1999/xlink" width="512" height="512" x="0" y="0" viewBox="0 0 24 24" style="enable-background:new 0 0 512 512" xml:space="preserve" class=""><g><path d="M18 2H6a3 3 0 0 0-3 3v14.8a2 2 0 0 0 2.86 1.81c.24-.12.45-.25.67-.38A2.35 2.35 0 0 1 8 20.76a2.38 2.38 0 0 1 1.48.47A4.29 4.29 0 0 0 12 22a4.28 4.28 0 0 0 2.52-.77 2.37 2.37 0 0 1 1.48-.47 2.33 2.33 0 0 1 1.47.47 7.19 7.19 0 0 0 .67.37A2 2 0 0 0 21 19.8V5a3 3 0 0 0-3-3zm-6 14H8a1 1 0 0 1 0-2h4a1 1 0 0 1 0 2zm4-4H8a1 1 0 0 1 0-2h8a1 1 0 0 1 0 2zm0-4H8a1 1 0 0 1 0-2h8a1 1 0 0 1 0 2z" data-name="Layer 2" fill="#ffffff" opacity="1" data-original="#000000" class=""></path></g></svg>