<?xml version="1.0" encoding="UTF-8"?><svg id="Layer_2" xmlns="http://www.w3.org/2000/svg" viewBox="0 0 131.05 76"><defs><style>.cls-1{fill:#fff;}.cls-2{fill:none;stroke:#fff;stroke-miterlimit:10;stroke-width:3px;}.cls-3{fill:#f7f8fc;}</style></defs><g id="Icons"><path class="cls-1" d="m123.05,24.04h-30c-7.73,0-14,6.27-14,14s6.27,14,14,14h30c6,0,8-6.27,8-14s-2-14-8-14Zm-30,20c-3.31,0-6-2.69-6-6s2.69-6,6-6,6,2.69,6,6-2.69,6-6,6Z"/><path class="cls-3" d="m93.05,20h30v-4c0-8.84-7.16-16-16-16H35.05c-8.76,0-15.87,7.05-15.99,15.78,1.49-.4,3.03-.65,4.58-.73,14.08-.73,24.08,10.32,24.39,22.23h0c.35,13.21-10.17,23.74-23,23.71-2.07,0-4.08-.27-5.98-.78.11,8.74,7.22,15.79,15.99,15.79h72c8.84,0,16-7.16,16-16v-4h-30c-9.93,0-18-8.07-18-18s8.07-18,18-18Z"/><path class="cls-2" d="m24.5,15.02C11.8,15.02,1.5,25.32,1.5,38.02s10.3,23,23,23,23-10.3,23-23-10.3-23-23-23Z"/><path class="cls-1" d="m34.98,39.68c-2.68.01-5.36,0-8.04,0-.51,0-.77.25-.77.76,0,2.59,0,5.18,0,7.78,0,.79-.26,1.41-1.01,1.78-.84.41-2.04-.15-2.23-1.06-.06-.28-.08-.56-.08-.84,0-2.61,0-5.22,0-7.82,0-.55-.04-.59-.58-.59-1.39,0-2.77,0-4.16,0h0c-1.33,0-2.65-.02-3.98,0-1.01.02-1.75-.77-1.74-1.65.01-.86.56-1.66,1.72-1.67,2.67-.03,5.33-.01,8-.01.74,0,.74,0,.74-.73v-7.73c0-.82.21-1.52,1.07-1.87.87-.35,1.97.21,2.16,1.13.05.25.08.5.08.75,0,2.62.01,5.25,0,7.87,0,.46.15.59.58.59,2.7-.01,5.39,0,8.09,0,.89,0,1.52.49,1.73,1.31.25.99-.53,2-1.58,2h0Z"/></g></svg>