<svg xmlns="http://www.w3.org/2000/svg" width="25" height="24" viewBox="0 0 25 24" fill="none">
    <path d="M12.5 23.5156C14.0781 23.5156 15.5586 23.2148 16.9414 22.6133C18.332
    22.0117 19.5586 21.1797 20.6211 20.1172C21.6836 19.0625 22.5156 17.8398
    23.1172 16.4492C23.7188 15.0586 24.0195 13.5742 24.0195 11.9961C24.0195
    10.418 23.7148 8.9375 23.1055 7.55469C22.5039 6.16406 21.6719 4.9375 20.6094
    3.875C19.5547 2.8125 18.332 1.98438 16.9414 1.39062C15.5508 0.789063 14.0664
    0.488281 12.4883 0.488281C10.918 0.488281 9.4375 0.789063 8.04688
    1.39062C6.65625 1.98438 5.42969 2.8125 4.36719 3.875C3.3125 4.9375 2.48438
    6.16406 1.88281 7.55469C1.28125 8.9375 0.980469 10.418 0.980469
    11.9961C0.980469 13.5742 1.28125 15.0586 1.88281 16.4492C2.48438 17.8398
    3.3125 19.0625 4.36719 20.1172C5.42969 21.1797 6.65625 22.0117 8.04688
    22.6133C9.4375 23.2148 10.9219 23.5156 12.5 23.5156ZM12.5 21.0898C11.2422
    21.0898 10.0625 20.8555 8.96094 20.3867C7.85938 19.918 6.89062 19.2695
    6.05469 18.4414C5.22656 17.6055 4.57812 16.6367 4.10938 15.5352C3.64062
    14.4336 3.40625 13.2539 3.40625 11.9961C3.40625 10.7383 3.64062 9.55859
    4.10938 8.45703C4.57812 7.35547 5.22656 6.39063 6.05469 5.5625C6.89062
    4.72656 7.85547 4.07422 8.94922 3.60547C10.0508 3.13672 11.2305 2.90234
    12.4883 2.90234C13.7539 2.90234 14.9336 3.13672 16.0273 3.60547C17.1289
    4.07422 18.0938 4.72656 18.9219 5.5625C19.7578 6.39063 20.4102 7.35547
    20.8789 8.45703C21.3555 9.55859 21.5938 10.7383 21.5938 11.9961C21.6016
    13.2539 21.3672 14.4336 20.8906 15.5352C20.4219 16.6367 19.7734 17.6055
    18.9453 18.4414C18.1172 19.2695 17.1523 19.918 16.0508 20.3867C14.9492
    20.8555 13.7656 21.0898 12.5 21.0898ZM12.4883 13.7773C13.1445 13.7773
    13.4844 13.4375 13.5078 12.7578L13.6836 7.57812C13.6992 7.23438 13.5898
    6.95313 13.3555 6.73438C13.1211 6.51562 12.8281 6.40625 12.4766
    6.40625C12.125 6.40625 11.8359 6.51562 11.6094 6.73438C11.3828 6.94531
    11.2773 7.22266 11.293 7.56641L11.4453 12.7695C11.4688 13.4414 11.8164
    13.7773 12.4883 13.7773ZM12.4883 17.4805C12.8633 17.4805 13.1797 17.3672
    13.4375 17.1406C13.7031 16.9062 13.8359 16.6055 13.8359 16.2383C13.8359
    15.8789 13.7031 15.582 13.4375 15.3477C13.1797 15.1133 12.8633 14.9961
    12.4883 14.9961C12.1133 14.9961 11.7969 15.1133 11.5391 15.3477C11.2812
    15.582 11.1523 15.8789 11.1523 16.2383C11.1523 16.5977 11.2812 16.8945
    11.5391 17.1289C11.8047 17.3633 12.1211 17.4805 12.4883 17.4805Z" fill="rgb(250, 80, 81)" />
</svg>