<svg xmlns="http://www.w3.org/2000/svg" width="24" height="24" viewBox="0 0 24 24" fill="none">
    <path d="M11.5195 23.5137C13.0977 23.5137 14.5781 23.2129 15.9609 22.6113C17.3516
    22.0098 18.5781 21.1777 19.6406 20.1152C20.7031 19.0605 21.5352 17.8379
    22.1367 16.4473C22.7383 15.0566 23.0391 13.5723 23.0391 11.9941C23.0391
    10.416 22.7344 8.93555 22.125 7.55273C21.5234 6.16211 20.6914 4.93555
    19.6289 3.87305C18.5742 2.81055 17.3516 1.98242 15.9609 1.38867C14.5703
    0.787109 13.0859 0.486328 11.5078 0.486328C9.9375 0.486328 8.45703 0.787109
    7.06641 1.38867C5.67578 1.98242 4.44922 2.81055 3.38672 3.87305C2.33203
    4.93555 1.50391 6.16211 0.902344 7.55273C0.300781 8.93555 0 10.416 0
    11.9941C0 13.5723 0.300781 15.0566 0.902344 16.4473C1.50391 17.8379 2.33203
    19.0605 3.38672 20.1152C4.44922 21.1777 5.67578 22.0098 7.06641
    22.6113C8.45703 23.2129 9.94141 23.5137 11.5195 23.5137ZM11.5195
    21.0879C10.2617 21.0879 9.08203 20.8535 7.98047 20.3848C6.87891 19.916
    5.91016 19.2676 5.07422 18.4395C4.24609 17.6035 3.59766 16.6348 3.12891
    15.5332C2.66016 14.4316 2.42578 13.252 2.42578 11.9941C2.42578 10.7363
    2.66016 9.55664 3.12891 8.45508C3.59766 7.35352 4.24609 6.38867 5.07422
    5.56055C5.91016 4.72461 6.875 4.07227 7.96875 3.60352C9.07031 3.13477 10.25
    2.90039 11.5078 2.90039C12.7734 2.90039 13.9531 3.13477 15.0469
    3.60352C16.1484 4.07227 17.1133 4.72461 17.9414 5.56055C18.7773 6.38867
    19.4297 7.35352 19.8984 8.45508C20.375 9.55664 20.6133 10.7363 20.6133
    11.9941C20.6211 13.252 20.3867 14.4316 19.9102 15.5332C19.4414 16.6348
    18.793 17.6035 17.9648 18.4395C17.1367 19.2676 16.1719 19.916 15.0703
    20.3848C13.9688 20.8535 12.7852 21.0879 11.5195 21.0879ZM10.3359
    17.2676C10.7578 17.2676 11.0938 17.0723 11.3438 16.6816L16.2539
    9.04102C16.332 8.91602 16.3984 8.79102 16.4531 8.66602C16.5078 8.5332
    16.5352 8.40039 16.5352 8.26758C16.5352 7.98633 16.4258 7.75586 16.207
    7.57617C15.9961 7.39648 15.7539 7.30664 15.4805 7.30664C15.1211 7.30664
    14.8203 7.50195 14.5781 7.89258L10.2891 14.7598L8.28516 12.2285C8.15234
    12.0566 8.01562 11.9355 7.875 11.8652C7.73438 11.7949 7.57812 11.7598
    7.40625 11.7598C7.11719 11.7598 6.875 11.8613 6.67969 12.0645C6.48438
    12.2598 6.38672 12.502 6.38672 12.791C6.38672 13.0488 6.48828 13.3066
    6.69141 13.5645L9.26953 16.6934C9.42578 16.8887 9.58594 17.0332 9.75
    17.127C9.92188 17.2207 10.1172 17.2676 10.3359 17.2676Z" fill="#30b715" />
</svg>