<svg xmlns="http://www.w3.org/2000/svg" width="32" height="32" viewBox="0 0 32 32">
<path id="rocket-path" fill="#FFF" fill-rule="evenodd" d="M15.12 25.698a8.414 8.414 0 0 1-.759.638c-.523.402-1.083.745-1.66 1.049a14.289 14.289 0 0 1-3.664 1.283c-.314.072-.637.118-.955.176l-.482.063-.24.031-.243.023-.485.047-.487.026c-.323.025-.65.023-.974.032-.951.01-1.905-.038-2.857-.13.11-.158.22-.315.326-.477.305-.474.578-.97.819-1.478.474-1.02.818-2.069 1.112-3.116a31.649 31.649 0 0 1 1-3.035c.39-.994.821-1.98 1.329-2.937-.356.41-.675.852-.978 1.304-.305.452-.587.92-.852 1.397a21.709 21.709 0 0 0-1.359 2.986c-.38 1-.771 1.985-1.256 2.898-.479.916-1.073 1.75-1.75 2.555l-.705.84 1.095.157c1.352.193 2.725.295 4.102.245.344-.019.687-.024 1.031-.061l.515-.049.513-.07c.342-.039.681-.116 1.02-.177.337-.081.677-.146 1.008-.249.334-.09.662-.203.99-.313.323-.124.646-.249.96-.394a11.82 11.82 0 0 0 1.806-1.014 9.885 9.885 0 0 0 1.573-1.33c.467-.5.897-1.04 1.192-1.651a6.506 6.506 0 0 1-.685.73m7.561-18.226a2.016 2.016 0 0 1 1.43-.593c.519 0 1.037.198 1.432.593.788.79.788 2.077 0 2.867a2.023 2.023 0 0 1-3.455-1.433c0-.542.211-1.051.593-1.434m1.43 4.7c.836 0 1.67-.32 2.306-.956a3.276 3.276 0 0 0 0-4.62 3.26 3.26 0 0 0-5.565 2.31c0 .872.339 1.693.954 2.31.636.636 1.471.955 2.306.955m.952 4.678c-4.663 4.11-6.608 4.504-8.538 3.604l2.106-2.667a3.45 3.45 0 0 0 .653-1.339l.85-3.557-3.55.852a3.43 3.43 0 0 0-1.333.653l-2.663 2.112c-.899-1.933-.506-3.883 3.595-8.556C20.06 3.535 28.26 2.52 30.69 2.314c-.207 2.435-1.219 10.651-5.625 14.534zm-3.104 6.37a.77.77 0 0 1-.32.485c-.492.338-1.248.808-1.92 1.215l.033-.126c.327-1.285.323-2.275-.008-2.95.883-.268 1.838-.763 2.92-1.503-.262.995-.565 2.182-.705 2.879zm-7.376-2.305c-.278.351-.71.548-1.157.524h-.017l-1.06.001 3.676-4.431-4.422 3.683.002-1.045-.001-.033a1.392 1.392 0 0 1 .524-1.16l3.893-3.088c.248-.199.543-.343.852-.418l1.589-.38-.38 1.591c-.075.31-.219.605-.419.857l-3.08 3.899zm-6.326-7.64c-.043.01-.085.02-.127.032.407-.673.875-1.43 1.213-1.923a.766.766 0 0 1 .484-.321c.695-.14 1.88-.444 2.873-.707-.74 1.085-1.232 2.04-1.5 2.927-.673-.332-1.661-.336-2.943-.009zM31.33 1.026c-.453.018-11.167.513-16.074 6.104-.5.57-.95 1.106-1.359 1.617-.711.195-3.21.874-4.313 1.098a2 2 0 0 0-1.26.834c-.75 1.096-2.063 3.349-2.119 3.444l-.951 1.635 1.733-.755c1.135-.494 3.04-1.002 3.72-.584.11.069.227.182.246.503h.004c.013.806.233 1.577.64 2.37l-.236.187a2.634 2.634 0 0 0-.992 2.178l-.006 3.024 3.017-.006a2.618 2.618 0 0 0 2.175-.994l.186-.236c.79.407 1.56.626 2.366.64v.005c.319.019.432.136.5.247.418.681-.09 2.59-.582 3.727l-.757 1.739 1.635-.956c.095-.055 2.343-1.37 3.437-2.124.433-.298.729-.745.833-1.261.222-1.107.9-3.61 1.096-4.322.51-.409 1.044-.861 1.612-1.362 5.58-4.917 6.074-15.653 6.092-16.107L32 1l-.67.027z"></path>
</svg>