<svg xmlns="http://www.w3.org/2000/svg" width="18" height="20" viewBox="0 0 18 20" fill="none">
    <path
        d="M15.2923 5.29492C13.9928 5.29492 12.9393 6.34837 12.9393 7.64786V11.7655C12.9393 12.8577 12.5055 13.9049 11.7332 14.677C10.9612 15.4493 9.91392 15.8832 8.82169 15.8832H8.23346C7.25884 15.8832 6.46875 16.6732 6.46875 17.6479C6.46875 18.2718 6.71665 18.8703 7.15783 19.3117C7.59926 19.7529 8.19776 20.0008 8.82169 20.0008H15.2923C15.9162 20.0008 16.5147 19.7529 16.9561 19.3117C17.3973 18.8703 17.6452 18.2718 17.6452 17.6479V7.64786C17.6452 7.02392 17.3973 6.42541 16.9561 5.984C16.5147 5.54282 15.9162 5.29492 15.2923 5.29492Z"
        fill="white" />
    <path
        d="M2.35294 0H8.82353C10.1229 0 11.1765 1.29936 11.1765 2.35294V11.7647C11.1765 13.0641 10.1229 14.1176 8.82353 14.1176H2.35294C1.05358 14.1176 0 12.8183 0 11.7647V2.35294C0 1.05358 1.05358 0 2.35294 0Z"
        fill="white" />
</svg>