<svg xmlns="http://www.w3.org/2000/svg" width="16" height="17" viewBox="0 0 16 17" fill="none">
    <path
        d="M7.99663 0.5C3.5833 0.5 0 4.0833 0 8.50337C0 12.9167 3.5833 16.5 7.99663 16.5C12.4167 16.5 16 12.9167 16 8.50337C16 4.0833 12.4167 0.5 7.99663 0.5ZM9.14382 2.59869C9.67018 2.59869 10.0953 3.02383 10.0953 3.55019C10.0953 4.07655 9.67018 4.50169 9.14382 4.50169C8.61746 4.50169 8.19232 4.07655 8.19232 3.55019C8.19232 3.02383 8.61746 2.59869 9.14382 2.59869ZM8.14509 4.87959C8.51624 4.86609 8.87389 4.96057 9.19106 5.19C10.6892 6.31021 8.52299 10.3794 8.25981 11.1824C7.71995 12.856 8.38127 13.2406 9.31253 12.9302L9.25179 13.6927C7.53775 15.0086 5.14213 14.6375 6.14087 11.4321C6.51202 10.2579 7.85491 8.00401 7.46352 6.7151C7.30156 6.18874 6.7617 6.18199 6.23534 6.40468L6.29608 5.70287C6.85618 5.24399 7.5175 4.91333 8.14509 4.87959Z"
        fill="#00BC3D" />
</svg>