<svg width="33" height="30" viewBox="0 0 33 30" fill="none" xmlns="http://www.w3.org/2000/svg">
<g clip-path="url(#clip0_9991_45472)">
<g filter="url(#filter0_d_9991_45472)">
<path fill-rule="evenodd" clip-rule="evenodd" d="M8.60208 27.4264C10.242 28.5574 12.0496 29.3167 14.0122 29.69L14.013 29.6908C13.9879 29.5772 13.9085 29.5055 13.8297 29.4345C13.8076 29.4145 13.7855 29.3946 13.7647 29.3738C12.6658 28.2744 11.5663 27.1753 10.4668 26.0763C9.36756 24.9775 8.26832 23.8787 7.16967 22.7796C7.14949 22.7594 7.12824 22.7399 7.10694 22.7204C7.02076 22.6414 6.93382 22.5616 6.91436 22.4336C6.15468 21.9061 5.84612 21.1813 5.85238 20.2577C5.85525 19.8137 5.85848 19.3697 5.86171 18.9256C5.88139 16.2213 5.90107 13.5162 5.83985 10.8129C5.80069 9.08707 7.0193 7.79405 8.79396 7.98894C9.15176 7.98807 9.5096 7.98713 9.86747 7.98618C11.1208 7.98287 12.3745 7.97955 13.6277 7.97955C14.4052 7.97901 15.1827 7.98184 15.9602 7.98468C16.3058 7.98594 16.6513 7.9872 16.9968 7.98816C17.4946 7.98722 17.9923 7.98607 18.49 7.98492C19.6507 7.98223 20.8113 7.97955 21.9723 7.97955C22.7215 7.97901 23.4711 7.98184 24.2209 7.98468C24.5542 7.98594 24.8875 7.9872 25.2209 7.98816C26.297 7.87936 27.16 8.24097 27.7795 9.14264C27.7893 9.15596 27.7989 9.16928 27.8085 9.1826C27.8177 9.19541 27.827 9.2082 27.8364 9.22101C27.8339 9.22094 27.8314 9.22091 27.8288 9.22091L27.8333 9.22173C27.8316 9.2217 27.8299 9.22168 27.8281 9.22168C28.0944 9.74765 28.1453 10.3081 28.143 10.8904C28.1375 12.3906 28.1375 13.891 28.1374 15.3915C28.1373 17.1263 28.1373 18.8612 28.1289 20.5958C28.1234 21.82 27.1374 22.7467 25.9078 22.7428C25.88 22.745 25.8522 22.7479 25.8243 22.7508C25.7652 22.757 25.7061 22.7631 25.647 22.7631C22.8503 22.7647 20.0536 22.7647 17.2569 22.7631C17.1961 22.7631 17.135 22.7557 17.074 22.7483C17.0485 22.7453 17.0231 22.7422 16.9977 22.7396C16.1208 22.7405 15.2439 22.7417 14.3671 22.7429C12.9066 22.745 11.446 22.747 9.98523 22.7475C9.54245 22.748 9.10006 22.7432 8.65751 22.7384C8.46759 22.7363 8.27764 22.7342 8.08761 22.7326C7.65922 22.7811 7.28565 22.6105 6.91443 22.4336C6.93384 22.5613 7.02036 22.6404 7.10631 22.719C7.12784 22.7387 7.14934 22.7584 7.16974 22.7788C8.11192 23.7211 9.05425 24.6631 9.99653 25.605C11.2528 26.8609 12.5091 28.1167 13.7648 29.373C13.7855 29.3937 13.8074 29.4135 13.8294 29.4334C13.9083 29.5047 13.9879 29.5768 14.0131 29.69C14.438 29.8103 14.8746 29.861 15.3112 29.9118C15.3944 29.9214 15.4775 29.9311 15.5606 29.9412C15.58 29.9436 15.6007 29.942 15.6216 29.9404C15.6767 29.9362 15.7327 29.9318 15.7673 29.9999H18.1701L18.1685 30.0007C18.401 29.9207 18.6423 29.9 18.8835 29.8793C19.0057 29.8689 19.1277 29.8584 19.2485 29.8403C21.5996 29.4865 23.7502 28.6294 25.6736 27.2409C29.0373 24.813 31.0767 21.5413 31.8129 17.4596C31.841 17.3031 31.8571 17.1448 31.8732 16.9865C31.8988 16.7345 31.9244 16.4825 31.9985 16.2378V13.7778C31.9329 13.6631 31.9273 13.537 31.9217 13.4108C31.9166 13.2974 31.9116 13.184 31.863 13.0788C31.7569 13.056 31.6891 12.9817 31.6223 12.9083C31.6043 12.8885 31.5863 12.8688 31.5677 12.8503C31.0801 12.3639 30.5929 11.8771 30.1057 11.3904C29.4559 10.7412 28.8062 10.0921 28.1555 9.44397C28.1371 9.42544 28.1194 9.40557 28.1017 9.38561C28.0311 9.30629 27.9592 9.22554 27.837 9.22181C27.8368 9.22155 27.8366 9.22127 27.8364 9.22101C27.9581 9.22418 28.0295 9.30402 28.0998 9.38262C28.1184 9.40338 28.1369 9.42405 28.1562 9.44319C28.8069 10.0913 29.4566 10.7404 30.1063 11.3895C30.5936 11.8763 31.0808 12.3631 31.5685 12.8495C31.5871 12.8681 31.605 12.8878 31.623 12.9075C31.6898 12.9809 31.7576 13.0552 31.8637 13.078C31.6898 11.544 31.2411 10.0905 30.6028 8.68789C27.9173 2.78792 21.4069 -0.7757 14.9872 0.143187C11.9791 0.57367 9.29205 1.74067 7.05689 3.79838C2.84345 7.67665 1.23718 12.484 2.33518 18.099C3.10738 22.0509 5.29163 25.1425 8.60208 27.4264Z" fill="#A01E16" fill-opacity="0.13" shape-rendering="crispEdges"/>
</g>
<path d="M18.1702 29.9999H15.7675C15.7197 29.906 15.6312 29.9498 15.5607 29.9412C15.0415 29.8778 14.5191 29.8332 14.0132 29.69C13.9811 29.5452 13.8597 29.4677 13.7649 29.373C11.5673 27.1744 9.36821 24.9774 7.16986 22.7788C7.06805 22.677 6.93883 22.5933 6.91455 22.4336C7.28577 22.6105 7.65934 22.7811 8.08774 22.7326C8.72053 22.7381 9.35255 22.7483 9.98535 22.7475C12.3231 22.7467 14.6601 22.742 16.9978 22.7396C17.084 22.7483 17.1709 22.7631 17.2571 22.7631C20.0537 22.7647 22.8504 22.7647 25.6471 22.7631C25.7341 22.7631 25.821 22.7498 25.9079 22.7428C27.1375 22.7467 28.1235 21.82 28.129 20.5958C28.1446 17.3609 28.1313 14.1253 28.1431 10.8904C28.1454 10.3081 28.0945 9.74765 27.8282 9.22168C27.9872 9.22168 28.0624 9.35004 28.1556 9.44397C29.2943 10.5781 30.4299 11.7154 31.5679 12.8503C31.6556 12.9379 31.7284 13.0499 31.8631 13.0788C31.9657 13.3011 31.8741 13.5602 31.9986 13.7778V16.2378C31.878 16.6362 31.8858 17.0541 31.813 17.4596C31.0768 21.5413 29.0375 24.813 25.6738 27.2409C23.7503 28.6294 21.5997 29.4865 19.2487 29.8403C18.8892 29.8943 18.5187 29.8802 18.1687 30.0007L18.1702 29.9999Z" fill="#107A66"/>
<path d="M14.0122 29.69C12.0496 29.3167 10.242 28.5574 8.60208 27.4264C5.29163 25.1425 3.10738 22.0509 2.33518 18.099C1.23718 12.484 2.84345 7.67665 7.05689 3.79838C9.29205 1.74067 11.9791 0.57367 14.9872 0.143187C21.4069 -0.7757 27.9173 2.78792 30.6028 8.68789C31.2411 10.0905 31.6898 11.544 31.8637 13.078C31.729 13.0491 31.6562 12.9372 31.5685 12.8495C30.4305 11.7146 29.2949 10.5773 28.1562 9.44319C28.0622 9.35005 27.9878 9.22091 27.8288 9.22091L27.8374 9.22247C27.8179 9.19586 27.7991 9.16925 27.7795 9.14264C27.16 8.24097 26.297 7.87936 25.2209 7.98816C24.1378 7.98503 23.0546 7.97877 21.9723 7.97955C20.3136 7.97955 18.6556 7.98503 16.9968 7.98816C15.8738 7.98503 14.7507 7.97877 13.6277 7.97955C12.0167 7.97955 10.4049 7.98503 8.79396 7.98894C7.0193 7.79405 5.80069 9.08707 5.83985 10.8129C5.91112 13.9601 5.87274 17.1097 5.85238 20.2577C5.84612 21.1813 6.15468 21.9061 6.91436 22.4336C6.93863 22.5933 7.06786 22.6778 7.16967 22.7796C9.36724 24.9782 11.5672 27.1752 13.7647 29.3738C13.8595 29.4685 13.9809 29.5452 14.013 29.6908L14.0122 29.69Z" fill="#16A085"/>
<path d="M16.9987 22.74C14.6609 22.7432 12.324 22.7471 9.98621 22.7479C9.35341 22.7479 8.72139 22.7377 8.08859 22.733C8.08859 18.7045 8.08859 14.6751 8.08859 10.6466C8.08859 10.494 8.05413 10.3241 8.23348 10.2357C8.41909 10.1449 8.52482 10.2905 8.63916 10.3867C9.97133 11.5013 11.3027 12.6166 12.6317 13.7336C14.0877 14.9577 15.5412 16.1842 16.9963 17.4091C16.9963 19.1858 16.9979 20.9625 16.9979 22.7393L16.9987 22.74Z" fill="#FDFEFE"/>
<path d="M16.9986 22.7398C16.9986 20.963 16.9971 19.1863 16.9971 17.4096C17.0166 17.3892 17.0354 17.3697 17.055 17.3493C19.2847 15.4834 21.5136 13.6166 23.7433 11.7507C24.3119 11.2748 24.8796 10.7982 25.449 10.3223C25.5383 10.2479 25.626 10.1642 25.7607 10.2409C25.8782 10.3082 25.9119 10.4099 25.9072 10.5352C25.904 10.6228 25.9072 10.7105 25.9072 10.7989C25.9079 14.7805 25.9087 18.7621 25.9095 22.7445C25.8226 22.7515 25.7356 22.7648 25.6487 22.7648C22.852 22.7656 20.0553 22.7656 17.2586 22.7648C17.1725 22.7648 17.0856 22.7492 16.9994 22.7413L16.9986 22.7398Z" fill="#E8ECF4"/>
<path d="M25.9086 22.7436C25.9079 18.762 25.9071 14.7804 25.9063 10.7981C25.9063 10.7104 25.9039 10.622 25.9063 10.5343C25.911 10.4083 25.8773 10.3073 25.7598 10.24C25.6251 10.1633 25.5374 10.2471 25.4481 10.3214C24.8788 10.7965 24.311 11.2732 23.7424 11.7498C21.5135 13.6166 19.2838 15.4825 17.0542 17.3485C16.9735 17.2459 16.9993 17.1246 16.9986 17.0103C16.9946 16.2214 16.9931 15.4324 16.9907 14.6435C16.9946 14.6302 16.9978 14.6176 17.0009 14.6043C17.0643 14.5621 17.134 14.5261 17.1912 14.4768C19.3488 12.6218 21.5088 10.7707 23.6586 8.9063C24.1262 8.50086 24.6015 8.12752 25.2202 7.98898C26.2963 7.88019 27.1594 8.24179 27.7788 9.14346C27.7984 9.17007 27.8172 9.19668 27.8368 9.22329L27.8282 9.22173C28.0937 9.7477 28.1446 10.3081 28.143 10.8904C28.1313 14.1253 28.1446 17.361 28.1289 20.5959C28.1227 21.82 27.1374 22.7467 25.9079 22.7428L25.9086 22.7436Z" fill="#838F99"/>
<path d="M16.9905 14.6437C16.9929 15.4326 16.9936 16.2216 16.9983 17.0105C16.9983 17.1248 16.9733 17.2461 17.054 17.3487C17.0344 17.369 17.0156 17.3886 16.996 17.4089C15.5409 16.1832 14.0873 14.9568 12.6314 13.7334C11.3024 12.6157 9.97099 11.5004 8.63882 10.3866C8.5237 10.2903 8.41797 10.1447 8.23314 10.2355C8.05301 10.324 8.08826 10.4938 8.08826 10.6464C8.08826 14.675 8.08826 18.7043 8.08826 22.7328C7.65908 22.7814 7.28629 22.6107 6.91507 22.4339C6.1554 21.9063 5.84683 21.1815 5.85231 20.258C5.87268 17.11 5.91105 13.9596 5.83978 10.8132C5.80063 9.0873 7.01923 7.79429 8.79389 7.98918C9.27475 8.14963 9.7102 8.37192 10.1018 8.71161C12.3902 10.6981 14.6927 12.6681 16.9905 14.6437Z" fill="#C6D4DF"/>
<path d="M16.9906 14.6434C14.6928 12.6678 12.3902 10.6978 10.1018 8.71131C9.71025 8.37162 9.27403 8.14934 8.79395 7.98888C10.4049 7.98575 12.0167 7.98027 13.6277 7.97949C14.7507 7.97949 15.8738 7.98497 16.9968 7.9881C16.9984 10.193 17 12.3978 17.0015 14.6035C16.9984 14.6168 16.9945 14.6301 16.9914 14.6426L16.9906 14.6434Z" fill="#FDFEFE"/>
<path d="M17.0018 14.6044C17.0002 12.3996 16.9986 10.1947 16.9971 7.98908C18.6558 7.98595 20.3138 7.98047 21.9725 7.98047C23.0557 7.98047 24.1388 7.98595 25.2211 7.98908C24.6016 8.12762 24.127 8.50096 23.6595 8.9064C21.5097 10.77 19.3497 12.6219 17.1921 14.4769C17.1341 14.5262 17.0652 14.5622 17.0018 14.6044Z" fill="#E8ECF4"/>
</g>
<defs>
<filter id="filter0_d_9991_45472" x="-13" y="-15.0005" width="59.9985" height="60.0012" filterUnits="userSpaceOnUse" color-interpolation-filters="sRGB">
<feFlood flood-opacity="0" result="BackgroundImageFix"/>
<feColorMatrix in="SourceAlpha" type="matrix" values="0 0 0 0 0 0 0 0 0 0 0 0 0 0 0 0 0 0 127 0" result="hardAlpha"/>
<feOffset/>
<feGaussianBlur stdDeviation="7.5"/>
<feComposite in2="hardAlpha" operator="out"/>
<feColorMatrix type="matrix" values="0 0 0 0 0 0 0 0 0 0 0 0 0 0 0 0 0 0 0.06 0"/>
<feBlend mode="normal" in2="BackgroundImageFix" result="effect1_dropShadow_9991_45472"/>
<feBlend mode="normal" in="SourceGraphic" in2="effect1_dropShadow_9991_45472" result="shape"/>
</filter>
<clipPath id="clip0_9991_45472">
<rect width="33" height="30" fill="white"/>
</clipPath>
</defs>
</svg>
