<svg width="8" height="6" viewBox="0 0 8 6" fill="none" xmlns="http://www.w3.org/2000/svg">
<path d="M7.51294 0.87394C7.52234 1.23771 7.37724 1.47357 7.16693 1.68244C6.5031 2.34309 5.84161 3.00549 5.17896 3.66731C4.65083 4.19477 4.12505 4.72399 3.59399 5.24852C3.07761 5.75897 2.56064 5.75427 2.04662 5.24148C1.4615 4.65769 0.874043 4.07567 0.293044 3.48778C0.0251615 3.21671 -0.0705942 2.8858 0.0539476 2.52027C0.177314 2.15886 0.441671 1.93884 0.821759 1.88192C1.13958 1.8344 1.41216 1.94588 1.63715 2.17118C1.98376 2.51793 2.33388 2.86116 2.67226 3.21612C2.78682 3.3364 2.84909 3.34696 2.97363 3.22082C3.94529 2.23689 4.92165 1.25765 5.90389 0.284874C6.43612 -0.242001 7.29617 -0.00320655 7.48592 0.714938C7.50413 0.784758 7.50942 0.858098 7.51235 0.875113L7.51294 0.87394Z" fill="#FDFEFD"/>
</svg>
