<svg width="30" height="30" viewBox="0 0 30 30" fill="none" xmlns="http://www.w3.org/2000/svg">
<path d="M15.2371 30H13.7722C13.7381 29.9115 13.6572 29.9431 13.5965 29.938C11.6652 29.7434 9.83755 29.2075 8.1072 28.3202C1.86203 25.1186 -1.34714 17.8117 0.536145 11.0534C2.69371 3.31419 10.4569 -1.37759 18.2327 0.361608C24.3401 1.72794 28.9485 6.68515 29.8408 12.8431C29.8889 13.173 29.8737 13.5143 29.9976 13.8328V15.2383C29.904 15.1549 29.8054 15.074 29.7157 14.9855C26.8541 12.1265 23.9951 9.26487 21.1322 6.40582C21.0324 6.30596 20.9553 6.1644 20.7821 6.16946L20.7973 6.16693C20.7909 6.10879 20.7543 6.07087 20.7075 6.04054C20.317 5.44901 19.7545 5.22276 19.0606 5.22529C16.3494 5.23414 13.637 5.24298 10.9258 5.2215C9.79331 5.21265 9.05896 5.98871 9.06401 7.07445C9.0855 12.3603 9.07792 17.6474 9.06907 22.9332C9.06781 23.6625 9.33071 24.2149 9.95636 24.5915C9.97659 24.7533 10.1068 24.838 10.2079 24.9391C11.8055 26.5393 13.4057 28.1382 15.0033 29.7383C15.0855 29.8205 15.1588 29.9115 15.2359 29.9987L15.2371 30Z" fill="#16A085"/>
<path d="M15.2375 30C15.1604 29.9128 15.0871 29.8218 15.005 29.7397C13.4073 28.1395 11.8072 26.5406 10.2095 24.9404C10.1084 24.8393 9.97823 24.7546 9.95801 24.5929C10.2563 24.7256 10.5698 24.7799 10.8959 24.7799C13.6374 24.7787 16.3789 24.7799 19.1204 24.7799C19.3264 24.7799 19.5312 24.7622 19.7283 24.7079C20.4943 24.4955 20.9304 23.8585 20.9304 22.951C20.9304 17.6538 20.9304 12.3553 20.9329 7.05808C20.9329 6.7522 20.8937 6.45644 20.7825 6.17079C20.9556 6.16573 21.0327 6.30729 21.1326 6.40714C23.9942 9.2662 26.8545 12.1265 29.7161 14.9868C29.8045 15.0753 29.9031 15.1549 29.9979 15.2396V16.2356C29.9373 16.2546 29.9423 16.3051 29.9398 16.3532C29.9082 16.9472 29.8121 17.535 29.6845 18.1138C28.8907 21.6896 27.0618 24.6245 24.1699 26.8755C22.1349 28.4605 19.832 29.4414 17.2788 29.8345C16.911 29.8913 16.5318 29.8774 16.1741 30H15.2375Z" fill="#107A66"/>
<path d="M20.7823 6.17069C20.8922 6.45635 20.9327 6.75085 20.9327 7.05799C20.9302 12.3552 20.9314 17.6537 20.9302 22.9509C20.9302 23.8597 20.4941 24.4954 19.7281 24.7078C19.5297 24.7621 19.3262 24.7798 19.1202 24.7798C16.3787 24.7798 13.6372 24.7786 10.8957 24.7798C10.5696 24.7798 10.2561 24.7255 9.9578 24.5928C9.33215 24.2161 9.06925 23.6638 9.07051 22.9345C9.07936 17.6486 9.08694 12.3615 9.06546 7.07568C9.0604 5.99121 9.79475 5.21388 10.9273 5.22273C13.6384 5.24422 16.3496 5.23411 19.062 5.22652C19.7572 5.22399 20.3184 5.45024 20.709 6.04177C20.7304 6.0898 20.738 6.14794 20.7987 6.16817L20.7835 6.17069H20.7823ZM10.0084 14.1702C10.0084 16.6981 10.0109 19.226 10.0033 21.7539C10.0033 21.9751 10.0475 22.0497 10.2877 22.0497C13.4299 22.0408 16.5733 22.0408 19.7155 22.0497C19.9544 22.0497 19.9999 21.9751 19.9999 21.7539C19.9936 16.6981 19.9936 11.6423 19.9999 6.58653C19.9999 6.33627 19.9215 6.28571 19.6852 6.28571C16.5721 6.2933 13.4577 6.29582 10.3446 6.28318C10.0475 6.28318 9.99951 6.37545 10.0008 6.64467C10.0109 9.15362 10.0071 11.6613 10.0071 14.1702H10.0084ZM12.31 23.0318C12.1053 23.0318 11.9005 23.028 11.697 23.033C11.5415 23.0368 11.4341 23.1114 11.4278 23.2783C11.4215 23.4489 11.5352 23.5323 11.6844 23.5361C12.0926 23.5462 12.5021 23.545 12.9117 23.5374C13.0621 23.5348 13.1821 23.4552 13.1834 23.2896C13.1834 23.1102 13.0646 23.0331 12.8952 23.0305C12.7006 23.028 12.5059 23.0305 12.3113 23.0305L12.31 23.0318ZM15.03 23.0318C14.8253 23.0318 14.6205 23.0305 14.417 23.0318C14.2489 23.0331 14.1288 23.1051 14.125 23.2858C14.1225 23.4539 14.2388 23.5348 14.3892 23.5374C14.7975 23.5462 15.207 23.5462 15.6165 23.5374C15.7669 23.5336 15.8832 23.4514 15.8794 23.2833C15.8744 23.1026 15.753 23.0331 15.5849 23.0305C15.4004 23.0293 15.2146 23.0305 15.03 23.0305V23.0318ZM17.7324 23.0318C17.5175 23.0318 17.3039 23.028 17.0903 23.0343C16.9335 23.0381 16.8261 23.1203 16.8236 23.2833C16.8198 23.4502 16.9361 23.5348 17.0865 23.5374C17.4947 23.5462 17.9043 23.5462 18.3138 23.5374C18.4629 23.5348 18.5805 23.4577 18.5792 23.2871C18.5767 23.1038 18.4566 23.0343 18.2898 23.0318C18.1052 23.0293 17.9194 23.0318 17.7349 23.0318H17.7324Z" fill="#DFE2E1"/>
<path d="M20.7973 6.16839C20.7379 6.1469 20.729 6.09002 20.7075 6.04199C20.7543 6.07233 20.7897 6.11025 20.7973 6.16839Z" fill="#107A66"/>
<path d="M10.0083 14.1703C10.0083 11.6613 10.0121 9.15365 10.002 6.64471C10.002 6.37548 10.0487 6.28195 10.3457 6.28322C13.4589 6.29586 16.5732 6.29333 19.6863 6.28574C19.9214 6.28574 20.0011 6.33504 20.0011 6.58656C19.9935 11.6424 19.9947 16.6982 20.0011 21.754C20.0011 21.9752 19.9568 22.0497 19.7167 22.0497C16.5745 22.0409 13.431 22.0409 10.2889 22.0497C10.05 22.0497 10.0045 21.9752 10.0045 21.754C10.0121 19.2261 10.0095 16.6982 10.0095 14.1703H10.0083Z" fill="#606B74"/>
<path d="M12.3095 23.0319C12.5042 23.0319 12.6988 23.0294 12.8935 23.0319C13.0628 23.0344 13.1817 23.1115 13.1817 23.291C13.1817 23.4566 13.0603 23.5349 12.9099 23.5387C12.5017 23.5463 12.0921 23.5476 11.6826 23.5375C11.5335 23.5337 11.4197 23.4503 11.426 23.2796C11.4324 23.1128 11.5398 23.0382 11.6953 23.0344C11.9 23.0294 12.1048 23.0331 12.3083 23.0331L12.3095 23.0319Z" fill="#3B4044"/>
<path d="M15.0301 23.0303C15.2146 23.0303 15.4004 23.0291 15.585 23.0303C15.7531 23.0316 15.8744 23.1011 15.8795 23.2831C15.8832 23.4512 15.767 23.5334 15.6166 23.5372C15.2083 23.546 14.7988 23.546 14.3893 23.5372C14.2388 23.5347 14.1213 23.4538 14.1251 23.2857C14.1276 23.1049 14.249 23.0329 14.4171 23.0316C14.6218 23.0291 14.8266 23.0316 15.0301 23.0316V23.0303Z" fill="#3B4044"/>
<path d="M17.7321 23.0307C17.9167 23.0307 18.1025 23.0281 18.287 23.0307C18.4551 23.0332 18.5739 23.1027 18.5765 23.286C18.579 23.4566 18.4602 23.5337 18.311 23.5362C17.9028 23.5451 17.4933 23.5451 17.0837 23.5362C16.9333 23.5325 16.8183 23.449 16.8208 23.2822C16.8234 23.1191 16.9321 23.0382 17.0875 23.0332C17.3011 23.0269 17.516 23.0319 17.7296 23.0319L17.7321 23.0307Z" fill="#3B4044"/>
</svg>
