<svg width="22" height="22" viewBox="0 0 22 22" fill="none" xmlns="http://www.w3.org/2000/svg">
<path d="M14.0706 2.94786L14.0654 2.94261L14.0602 2.93744L12.9038 1.78809C12.9035 1.78771 12.9031 1.78733 12.9027 1.78695C11.8521 0.737302 10.1417 0.737683 9.09154 1.78809L9.08928 1.79036L7.94757 2.93968C7.94728 2.93997 7.94699 2.94027 7.9467 2.94056C7.81486 3.07196 7.63535 3.14548 7.45948 3.14548H5.83887C4.34489 3.14548 3.14493 4.35909 3.14493 5.83985V7.46088C3.14493 7.64731 3.07168 7.81975 2.94725 7.94138L2.94721 7.94133L2.93908 7.94946L1.78779 9.10105C0.737405 10.1517 0.737405 11.863 1.78779 12.9136L2.93175 14.0579L3.63894 13.3509L2.93175 14.0579C3.06367 14.1898 3.13759 14.3699 3.13759 14.5465V16.1675C3.13759 17.6612 4.35053 18.8619 5.83154 18.8619H7.45215C7.6383 18.8619 7.81057 18.935 7.93216 19.0595L7.93211 19.0595L7.94024 19.0677L9.0842 20.2119C10.1347 21.2627 11.846 21.2627 12.8965 20.2119L14.0405 19.0677C14.1724 18.9357 14.3523 18.8619 14.5286 18.8619H16.1492C17.6432 18.8619 18.8431 17.6482 18.8431 16.1675V14.5465C18.8431 14.36 18.9164 14.1876 19.0408 14.066L19.0408 14.066L19.049 14.0579L20.1896 12.917C21.2636 11.8611 21.2681 10.1545 20.2149 9.10105L19.071 7.9568C18.939 7.82484 18.8651 7.64476 18.8651 7.46822V5.83985C18.8651 4.34612 17.6522 3.14548 16.1712 3.14548H14.5506C14.3644 3.14548 14.1921 3.07231 14.0706 2.94786Z" fill="#3CCD53" stroke="#26262C" stroke-width="2"/>
<path d="M10.1031 11.7641L10.1031 11.7641C10.3573 11.4766 10.6101 11.1877 10.8635 10.8981C10.885 10.8735 10.9066 10.8489 10.9281 10.8243L10.9281 10.8243C11.2862 10.4153 11.6441 10.0061 12.002 9.59675L12.002 9.59666C12.0475 9.54467 12.0932 9.49242 12.1389 9.44004C12.2698 9.29002 12.4017 9.13892 12.5347 8.98971L10.1031 11.7641ZM10.1031 11.7641C10.0625 11.8101 10.0216 11.8546 9.97963 11.8996L9.77652 11.7115L9.41001 11.372C9.41 11.372 9.40999 11.372 9.40998 11.372C9.36459 11.33 9.31836 11.2866 9.27147 11.2427C9.15884 11.137 9.04238 11.0278 8.92451 10.9249L8.92446 10.9249C8.54305 10.5921 7.99297 10.7657 7.8069 11.2057L7.80668 11.2063C7.74993 11.3413 7.74997 11.4749 7.75 11.5617C7.75 11.5635 7.75 11.5654 7.75 11.5672C7.75 11.7911 7.84062 11.9753 7.98911 12.1126L8.15884 11.9291L10.1031 11.7641ZM12.995 8.4854L12.9952 8.48522C13.3078 8.14861 13.8289 8.17463 14.0984 8.55493L14.0985 8.55511C14.2901 8.82602 14.3035 9.1708 14.1184 9.45745M12.995 8.4854L10.0005 13.4991L9.98542 13.7486C9.98546 13.7486 9.9855 13.7486 9.98553 13.7486C10.207 13.762 10.4041 13.6781 10.5547 13.5158L10.5547 13.5158C10.6604 13.4019 10.763 13.2853 10.8631 13.1713C11.3065 12.6674 11.7497 12.1634 12.1925 11.6587C12.3298 11.5023 12.4655 11.3469 12.6009 11.1918C12.7697 10.9984 12.938 10.8056 13.1086 10.612L13.1086 10.612C13.2603 10.4398 13.4115 10.2698 13.5633 10.0992C13.6777 9.97076 13.7923 9.84199 13.9075 9.71168L13.9076 9.7116C13.9176 9.70025 13.9297 9.68711 13.9432 9.6725C13.9945 9.61666 14.0656 9.53926 14.1184 9.45745M12.995 8.4854C12.8413 8.65122 12.6869 8.81881 12.5348 8.98964L12.7214 9.15598C12.8719 8.98706 13.0249 8.82093 13.1783 8.65536M12.995 8.4854L13.7203 9.54604C13.7362 9.52799 13.7526 9.51019 13.7689 9.49239C13.8187 9.43805 13.8685 9.38367 13.9084 9.32183M14.1184 9.45745L13.9084 9.32183M14.1184 9.45745C14.1184 9.45741 14.1185 9.45738 14.1185 9.45734L13.9084 9.32183M13.9084 9.32183C14.0369 9.12276 14.0283 8.88878 13.8944 8.69948C13.7185 8.45126 13.3853 8.43255 13.1783 8.65536M13.1783 8.65536L13.1783 8.65536L13.1783 8.65536Z" fill="white" stroke="white" stroke-width="0.5"/>
</svg>
