<svg width="13" height="11" viewBox="0 0 13 11" fill="none" xmlns="http://www.w3.org/2000/svg">
<path d="M4.31899 8.0008C4.53685 7.7847 4.7547 7.57641 4.96262 7.35919C5.56103 6.73433 6.15612 6.10612 6.75177 5.47791C7.52777 4.65984 8.30321 3.84121 9.07866 3.02258C9.46197 2.61829 9.84307 2.21233 10.2297 1.81195C10.5556 1.47411 10.8871 1.14186 11.2197 0.81072C11.6681 0.365109 12.39 0.402522 12.7711 0.898948C13.0612 1.27755 13.08 1.7455 12.8015 2.14364C12.6867 2.30782 12.534 2.44574 12.3939 2.59205C11.8175 3.19345 11.2368 3.79095 10.6621 4.39348C9.99805 5.08925 9.33953 5.79062 8.67659 6.48751C7.71749 7.49656 6.75729 8.50449 5.79653 9.51242C5.57923 9.74081 5.36138 9.9692 5.13801 10.1914C4.9163 10.412 4.64439 10.5153 4.33444 10.498C4.1028 10.4852 3.89377 10.4031 3.71563 10.2478C3.46248 10.0278 3.20988 9.8067 2.95507 9.58836C2.08477 8.84456 1.21225 8.10411 0.344152 7.35807C0.126299 7.17212 0 6.93424 0 6.63437C0 6.45289 0.00275763 6.27699 0.0805227 6.10612C0.356285 5.50415 1.12897 5.30927 1.64685 5.7264C2.00093 6.01175 2.34067 6.31496 2.68703 6.61092C3.21649 7.06323 3.74541 7.5161 4.27487 7.96841C4.29031 7.98126 4.30686 7.99243 4.31899 8.00136V8.0008Z" fill="#00BC3D"/>
</svg>
