<svg width="50" height="50" xmlns="http://www.w3.org/2000/svg" fill="none">
    <g>
        <title>Layer 1</title>
        <ellipse stroke="null" fill="green" cx="24.87204" cy="25.09834" id="svg_2" rx="24.93319" ry="24.78746" />
        <path
            d="m11.41072,37.89262c0,1.3359 0.38086,2.3555 1.14258,3.0586c0.76172,0.7148 1.81055,1.0723 3.14649,1.0723l7.8574,0l0,-14.9063l-12.14647,0l0,10.7754zm14.74807,4.1309l7.8398,0c1.3477,0 2.3965,-0.3575 3.1465,-1.0723c0.7617,-0.7031 1.1426,-1.7227 1.1426,-3.0586l0,-10.7754l-12.1289,0l0,14.9063zm-17.17385,-19.0547c0,0.8554 0.23438,1.4765 0.70313,1.8633c0.48047,0.3867 1.14844,0.58 2.0039,0.58l11.86522,0l0,-8.85934l-2.4785,0c-1.3359,0 -2.3848,-0.35156 -3.14648,-1.05468c-0.75,-0.70313 -1.125,-1.53516 -1.125,-2.4961c0,-0.89062 0.28711,-1.58789 0.86133,-2.0918c0.58593,-0.5039 1.33595,-0.75586 2.24995,-0.75586c1.0196,0 1.8809,0.36915 2.584,1.10743c0.7032,0.72656 1.0547,1.71679 1.0547,2.9707l0,2.32031l2.6016,0l0,-2.32031c0,-1.25391 0.3515,-2.24414 1.0547,-2.9707c0.7031,-0.73828 1.5644,-1.10743 2.584,-1.10743c0.9023,0 1.6406,0.25196 2.2148,0.75586c0.5859,0.50391 0.8789,1.20118 0.8789,2.0918c0,0.96094 -0.375,1.79297 -1.125,2.4961c-0.75,0.70312 -1.7988,1.05468 -3.1465,1.05468l-2.4609,0l0,8.85934l11.8476,0c0.8672,0 1.5352,-0.1933 2.0039,-0.58c0.4688,-0.3868 0.7032,-1.0079 0.7032,-1.8633l0,-3.9551c0,-0.8672 -0.2344,-1.4941 -0.7032,-1.8809c-0.4687,-0.3867 -1.1367,-0.58004 -2.0039,-0.58004l-4.0957,0c0.5039,-0.45703 0.8965,-0.99609 1.1778,-1.61718c0.2929,-0.6211 0.4394,-1.30665 0.4394,-2.05665c0,-1.04296 -0.2519,-1.96289 -0.7558,-2.75976c-0.4922,-0.80859 -1.1602,-1.44141 -2.0039,-1.89844c-0.8321,-0.45703 -1.7754,-0.68555 -2.8301,-0.68555c-1.1836,0 -2.2266,0.31055 -3.1289,0.93164c-0.8907,0.6211 -1.541,1.49415 -1.9512,2.61915c-0.4102,-1.125 -1.0664,-1.99805 -1.9688,-2.61915c-0.9023,-0.62109 -1.9394,-0.93164 -3.1113,-0.93164c-1.0429,0 -1.99217,0.22852 -2.84763,0.68555c-0.84375,0.45703 -1.51758,1.08985 -2.02149,1.89844c-0.49219,0.79687 -0.73828,1.7168 -0.73828,2.75976c0,0.75 0.14648,1.43555 0.43945,2.05665c0.29297,0.62109 0.69141,1.16015 1.19532,1.61718l-4.11329,0c-0.83203,0 -1.49414,0.19334 -1.98632,0.58004c-0.48047,0.3868 -0.72071,1.0137 -0.72071,1.8809l0,3.9551z"
            fill="white" id="svg_1" />
        <ellipse id="svg_3" cy="30.11111" cx="41.66667" stroke="#000" fill="#fff" />
    </g>

</svg>