<svg width="15" height="15" viewBox="0 0 15 15" fill="none" xmlns="http://www.w3.org/2000/svg">
    <circle cx="7.5" cy="7.5" r="7.15" transform="rotate(180 7.5 7.5)" stroke="#ffffffa1" stroke-width="0.7" />
    <path
        d="M7.28226 4.21441C7.65096 4.21441 7.94985 4.5133 7.94985 4.882L7.94985 8.36099C7.94985 8.72969 7.65096 9.02858 7.28226 9.02858V9.02858C6.91356 9.02858 6.61467 8.72969 6.61467 8.36099L6.61467 4.882C6.61467 4.5133 6.91356 4.21441 7.28226 4.21441V4.21441ZM7.27913 9.64915C7.47763 9.64915 7.64792 9.71497 7.79001 9.84661C7.93 9.98033 8 10.1402 8 10.3261C8 10.51 7.93 10.6678 7.79001 10.7994C7.64792 10.9331 7.47763 11 7.27913 11C7.08063 11 6.91138 10.9331 6.77139 10.7994C6.6293 10.6678 6.55826 10.51 6.55826 10.3261C6.55826 10.1402 6.6293 9.98033 6.77139 9.84661C6.91138 9.71497 7.08063 9.64915 7.27913 9.64915Z"
        fill="#ffffffa1" />
</svg>