<svg width="100%" height="100%" fill="none" xmlns="http://www.w3.org/2000/svg" viewBox="0 0 32 32"><rect width="32" height="32" rx="16" fill="#13C270"></rect><path fill-rule="evenodd" clip-rule="evenodd" d="M10.77 6.324c.519-.14 1.018.167 1.169.73l.546 2.036 1.58-.423-.547-2.037c-.156-.584.15-1.083.691-1.228.541-.145 1.02.167 1.17.73l.556 2.076c2.237-.328 4.05.746 4.603 2.806.296 1.104.112 2.15-.471 3.002 1.81.094 3.16 1.148 3.635 2.922.66 2.466-.77 4.658-3.517 5.395l-.434.116.546 2.037c.15.563-.107 1.073-.648 1.218-.54.145-1.056-.135-1.213-.719l-.546-2.037-1.579.423.546 2.037c.15.563-.129 1.078-.648 1.217-.54.145-1.056-.134-1.213-.718l-.546-2.038-2.395.64a1.04 1.04 0 1 1-.538-2.008l2.006-.538-2.75-10.26-2.009.538a1.04 1.04 0 1 1-.538-2.008l2.398-.643-.546-2.038c-.156-.584.15-1.084.691-1.228Zm7.482 5.419c-.325-1.212-1.311-1.69-2.696-1.319l-2.531.678 1.032 3.852 2.531-.679c1.363-.365 1.994-1.3 1.664-2.532Zm-2.48 9.615 3.68-.985c1.557-.418 2.267-1.49 1.896-2.874-.371-1.385-1.528-1.98-3.085-1.562l-3.679.986 1.189 4.435Z" fill="#fff"></path></svg>