<svg width="100%" height="100%" fill="none" xmlns="http://www.w3.org/2000/svg" viewBox="0 0 32 32"><rect width="32" height="32" rx="16" fill="#FFAC05"></rect><g fill="#fff"><path d="M16.43 20.096a.608.608 0 0 1-.86 0l-2.817-2.817a.608.608 0 0 0-.86 0l-1.968 1.968a.608.608 0 0 0 0 .86l5.645 5.645a.608.608 0 0 0 .86 0l5.645-5.645a.608.608 0 0 0 0-.86l-1.968-1.968a.608.608 0 0 0-.86 0l-2.817 2.817ZM22.924 18.399a.608.608 0 0 0 .86 0l1.968-1.97a.608.608 0 0 0 0-.859l-1.968-1.968a.608.608 0 0 0-.86 0l-1.969 1.968a.608.608 0 0 0 0 .86l1.969 1.969ZM22.076 11.893a.608.608 0 0 1 0 .86l-1.97 1.969a.608.608 0 0 1-.859 0l-2.817-2.817a.608.608 0 0 0-.86 0l-2.817 2.817a.608.608 0 0 1-.86 0l-1.969-1.969a.608.608 0 0 1 0-.86l5.646-5.645a.608.608 0 0 1 .86 0l5.646 5.645ZM9.076 13.602a.608.608 0 0 0-.86 0L6.248 15.57a.608.608 0 0 0 0 .86l1.968 1.969a.608.608 0 0 0 .86 0l1.968-1.969a.608.608 0 0 0 0-.86l-1.968-1.968Z"></path><path d="M16.43 18.399a.608.608 0 0 1-.86 0l-1.969-1.969a.608.608 0 0 1 0-.86l1.969-1.968a.608.608 0 0 1 .86 0l1.968 1.968a.608.608 0 0 1 0 .86L16.43 18.4Z"></path></g></svg>