<svg width="100%" height="100%" fill="none" xmlns="http://www.w3.org/2000/svg" viewBox="0 0 32 32"><rect width="32" height="32" rx="16" fill="#FF7A05"></rect><path fill-rule="evenodd" clip-rule="evenodd" d="M16.308 5.005c.52.139.799.654.648 1.217l-.546 2.036 1.58.424.545-2.037c.157-.584.672-.864 1.213-.719.541.145.799.655.648 1.218L19.84 9.22c2.101.834 3.135 2.67 2.583 4.731-.296 1.104-.978 1.918-1.91 2.364 1.522.987 2.163 2.574 1.688 4.348-.66 2.467-2.995 3.65-5.743 2.914l-.434-.116-.546 2.037c-.15.563-.629.875-1.17.73-.54-.145-.847-.644-.69-1.228l.545-2.038-1.58-.423-.545 2.037c-.15.563-.65.87-1.17.73-.54-.144-.848-.644-.691-1.228l.546-2.038-2.394-.644a1.04 1.04 0 1 1 .538-2.008l2.006.538 2.75-10.261-2.01-.539a1.04 1.04 0 0 1 .538-2.008l2.398.643.546-2.038c.157-.584.672-.863 1.213-.718Zm3.77 8.434c.325-1.212-.29-2.119-1.674-2.49l-2.532-.678-1.032 3.851 2.532.679c1.363.365 2.376-.129 2.707-1.362Zm-6.954 7.088 3.678.985c1.558.418 2.709-.155 3.08-1.54.37-1.385-.333-2.478-1.891-2.895l-3.678-.986-1.189 4.436Z" fill="#fff"></path></svg>