<svg width="100%" height="100%" fill="none" xmlns="http://www.w3.org/2000/svg" viewBox="0 0 32 32"><rect width="32" height="32" rx="16" fill="#FFAC05"></rect><g fill="#fff"><path d="M13.03 14.728a.6.6 0 0 1-.848 0l-2.122-2.122a.6.6 0 0 1 0-.849l5.516-5.515a.6.6 0 0 1 .848 0l2.122 2.122a.6.6 0 0 1 0 .848l-5.515 5.516ZM21.94 11.758a.6.6 0 0 1 0 .849l-9.33 9.33a.6.6 0 0 1-.849.001l-1.699-1.695a.6.6 0 0 1 0-.849l9.333-9.333a.6.6 0 0 1 .848 0l1.697 1.697ZM15.576 25.757a.6.6 0 0 0 .849 0l9.333-9.333a.6.6 0 0 0 0-.848l-2.12-2.12a.6.6 0 0 0-.85 0l-9.33 9.33a.6.6 0 0 0 0 .848l2.118 2.123ZM8.363 13.454a.6.6 0 0 1 .849 0l2.122 2.122a.6.6 0 0 1 0 .849l-2.122 2.121a.6.6 0 0 1-.848 0l-2.122-2.122a.6.6 0 0 1 0-.848l2.121-2.122Z"></path></g></svg>