<svg width="100%" height="100%" fill="none" xmlns="http://www.w3.org/2000/svg" viewBox="0 0 32 32"><g clip-path="url(#DOGE_svg__a)"><path d="M16 32c8.837 0 16-7.163 16-16S24.837 0 16 0 0 7.163 0 16s7.163 16 16 16Z" fill="#C5983D"></path><path fill-rule="evenodd" clip-rule="evenodd" d="m11.962 22.612-.536-1.014.312-1.267 2.221-.858-.945-1.94.467-1.96.877-1.753 2.71-.427 1.992-1.898 4.3.325.845 4.598-1.626 5.79-.926 2.997-3.754.142-1.743-1.207-2.041-.853-2.153-.675Z" fill="#EACA89"></path><path fill-rule="evenodd" clip-rule="evenodd" d="M18.547 22.58s-.52.237-1.405.182c-.257-.344-2.052-.505-2.052-.505s-.224-.069-.62.095c-.399.163-.776.142-1.128.23-.353.087-.703-.372-.973-.467-.27-.101-.628-.345-.628-.345l-.757-.073-1.519-.642-2.413-2.405-.656 1.027-.202 1.27.73 1.506 1.964 1.79 3.83.972 2.271-.669 2.844-1.202.714-.765Z" fill="#F2D393"></path><path fill-rule="evenodd" clip-rule="evenodd" d="m4.937 14.082.486-1.473.58-.95 1.866-.156-.56 1.634-1.56 2.776.647 2.478-1.147.573-.353-.54-.284-1.24-.019-1.394.344-1.708Z" fill="#FCE6BD"></path><path fill-rule="evenodd" clip-rule="evenodd" d="m7.03 22.478-.358-.5s-.095-.238-.04-.445c.053-.21.046-.224.018-.304-.027-.079-.256-.352-.243-.587.014-.238-.019-.317.156-.505.183-.183.128-.5.128-.5l.238.147.054-.082s.087.068.087.175c.02-.147-.06-.83.12-.986.18-.156.5.73.5.73l-.196-1.285-.506-1.317-.899-1.202-.054-1.325v-.115s-.412.634-.527 1.135c-.082.344.115.762.074 1.256-.033.492-.074.454.046.649s.413.595.298.885c-.101.249-.445.074-.445.074s-.069.202-.162.276a.612.612 0 0 0-.133-.27c-.006.046-.02.11-.02.11s-.06-.19-.12-.427c-.082-.317-.17-.735-.248-.96-.033.13-.115.52-.115.52l.046.601.224.825.216.54.21.662.184.444.147.339.129.762.62.656.33.147.24-.123h.001Z" fill="#F9DDA6"></path><path fill-rule="evenodd" clip-rule="evenodd" d="M5.262 12.88s-.445.756-.573 1.519c-.129.762-.244 1.568-.162 2.606.081 1.047.237 1.689.363 2.148.216.762.776 1.823.776 1.823l.019-.041a2.88 2.88 0 0 1-.224-.56c-.074-.29-.101-.634-.17-.79-.06-.156-.16-.29-.21-.481-.046-.183-.054-.473-.197-.688-.06-.088-.134-.317-.155-.547-.028-.344.013-.73-.02-1.046-.06-.528-.1-.886-.046-1.162.055-.276.339-1.06.514-1.683.115-.399.046-.735.257-1.082.21-.344.338-.647.385-.858.054-.19-.557.842-.557.842Z" fill="#F2E8B0"></path><path fill-rule="evenodd" clip-rule="evenodd" d="M7.374 12.576s-.23.069-.338.19c-.11.114-.156.21-.304.403-.147.194-.156.353-.276.596-.12.238-.385.596-.418.724-.033.128-.087.73-.155 1.014-.06.284.068.634.068.634l.155-.033s0 .202.156.339c.156.133.183-.454.183-.454l.582-1.964.877-.596.096-.481-.626-.372Z" fill="#F7E7C7"></path><path fill-rule="evenodd" clip-rule="evenodd" d="M7.8 13.467s-.412.027-.614.175c-.082.06-.115.11-.202.183-.161.134-.326.257-.405.432-.087.175-.183.44-.248.94-.028.21-.028.405-.047.574-.027.23-.068.412-.046.54.027.263.298.4.324.697l.56-.284.527-2.08 1.12-.702-.633-.71-.336.234v.001Z" fill="#F6DBA2"></path><path fill-rule="evenodd" clip-rule="evenodd" d="m4.845 27.47.008-.063c.081-.702.095-1.235.155-1.568.087-.473.148-.649.134-.825-.02-.284-.04-.492-.014-.71.041-.29.326-.635.317-.872-.005-.189-.1-.312-.183-.426-.082-.115-.147-.21-.147-.21s.56-.386.554-1.938a.155.155 0 0 1 .033.014l.276.784.189.229.724 1.35.932.904 1.376.926.864.94.087 2.506-1.128 1.464-.185.335a16.049 16.049 0 0 1-3.992-2.841Z" fill="#E8C783"></path><path fill-rule="evenodd" clip-rule="evenodd" d="M8.292 29.866s.02-.311.276-.514c.041.069.069.134.06.183a1.63 1.63 0 0 1 1.107-.743c.735-.134.913-.67.913-.67l1.56-1.417 1.784-1.642 2.17-.762 1.013-.25s.02.075-.02.239c.19-.014.607-.11 1.042-.263.175-.068.339-.095.426-.005.128.12.148.404.156.574.21-.047.453-.25.648-.23.312.033.588.399.905.399.418 0 .606-.257.898-.46.175-.12.427-.27.569-.37.339-.25 3.923-1.345 3.923-1.345l1.257.082.202 1.35-.108 3.528-.04.039-5.714 2.985-7.922 1.214a15.887 15.887 0 0 1-5.064-1.742l-.04-.18Z" fill="#DFBE79"></path><path fill-rule="evenodd" clip-rule="evenodd" d="M5.326 27.918c.112-.235.214-.432.231-.503.014.142.04.454.092.785a16.995 16.995 0 0 1-.323-.282Z" fill="#F1D789"></path><path fill-rule="evenodd" clip-rule="evenodd" d="m11.112 31.238 1.025-.284.087.027s.046.027.046.12c.129-.074.238-.06.317-.109.041.087.082.377.263.412.188.041.39-.081.595-.237.202-.161.433-.364.607-.446.064.118.12.24.17.364.229-.183.628-.926 1.196-.913.164-.388.439-.72.79-.953.527-.358.857-.386 1.27-.353.163-.213.365-.393.595-.533.069.028.257.143.492.033.238-.109.505-.533.858-.587a.829.829 0 0 1 .546.114s1.027-1.019 1.735-1.358c-.027-.081-.082-.39.749-1.073.046.04.014.155.046.162.014 0 .216-.087.473-.284.317-.238.697-.487.926-.555.432-.128.89.134.89.134a.41.41 0 0 1 .13-.06c.108-.02.188-.033.248-.054-.006.142.074.385 0 .595.085.048.176.087.27.115-.046.101-.147.358-.317.48.142.07.161.148.364.217a4.025 4.025 0 0 0-.276.432c-.06.129-.277.662-.372.864-.101.202-.238.573-.303.648-.066.075-.304.39-.487.546.162-.06.825-.262 1.107-.339l-.917 1.359a16.032 16.032 0 0 1-13.124 1.52l.001-.004Z" fill="#E8C887"></path><path fill-rule="evenodd" clip-rule="evenodd" d="M7.868 13.393s-.238 0-.284.033c-.046.033.238.101.325.134.087.033.276.183.325.303.047.115 1.708.785 1.708.785l1.175-.06.405-.56-.77-.675.54-1.593-.716.115L8.855 12.9l-.864.331-.123.161Z" fill="#DFC57C"></path><path fill-rule="evenodd" clip-rule="evenodd" d="M10.448 13.92a.184.184 0 0 0 .162.088c.243 0 .467.06.56.183.156.197.588.825.588.825l1.032.372.067-1.216-1.128-.784-1.284.473v.06h.003Z" fill="#E8C785"></path><path fill-rule="evenodd" clip-rule="evenodd" d="M10.245 14.372s.189.013.427-.074c.237-.088.628-.276.797-.202.238.1.189.418.446.702.156.175.44.17.601.358.161.189.716.101.716.101l.21 1.135-.844 1.082-.276 1.344H11.18l-1.043-.414-.513-1.242.257-1.257.364-1.533Z" fill="#DCBC7C"></path><path fill-rule="evenodd" clip-rule="evenodd" d="M12.454 14.426a.312.312 0 0 0 .087.014c-.033.027-.101.087-.074.243.027.156.115.353.041.473a.59.59 0 0 1 .129.224c.046.134.06.256.363.276a.637.637 0 0 0-.12.095 2 2 0 0 0 .317.353c.109-.005.399-.095.399-.095l.06.041.128-.054s-.12-.046-.033-.339c.082-.257.156-.243.162-.262.007-.02.06-.29.06-.399.041-.142.074-.574.074-.574l-.087-.953-.492-.298-.4-.386-.377.71-.248.248-.02.615.03.068Z" fill="#E2C270"></path><path fill-rule="evenodd" clip-rule="evenodd" d="M13.637 13.629s.087.248.12.44a.426.426 0 0 0 .019-.115s.068.377.082.532c.027-.005.054-.013.06.014.006.027.068.33.054.5.114-.188.271-.345.459-.459.11-.068.238-.142.372-.148.21-.005.363.134.614.134.607 0 1.156-.445 1.56-.582.298-.1.555-.174.735-.338.088-.074.244-.238.386-.481.188-.325.385-.607.582-.642-.09.016-.18.023-.27.019 0 0 .06-.06.162-.142.102-.082.224-.183.398-.183.312 0 .468.046.642.046.175-.005.276-.046.276-.046s.183.128.596.128c.413.006.688.041.904.06.216.02.94-.06 1.148-.054.135.006.268.038.39.096l-.669-1.945-2.405-2.102-1.431 1.013-2.203 2.203-2.13.79-.446.5v.761h-.005Z" fill="#D9AE5B"></path><path fill-rule="evenodd" clip-rule="evenodd" d="M18.418 12.514s.06-.06.161-.142c.101-.082.224-.184.4-.184.31 0 .466.047.641.047.175-.005.276-.046.276-.046s.183.128.596.128c.412.005.688.04.904.06.216.019.94-.06 1.148-.054a1 1 0 0 1 .39.095l-.303-.877-.352-.67-1.006-1.1-1.216-.716a16.533 16.533 0 0 0-.418-.115l-1.093.661-.991 2.566-.02.54.642.304c.162-.27.34-.487.506-.514-.15.016-.265.016-.265.016Z" fill="#DAB05D"></path><path fill-rule="evenodd" clip-rule="evenodd" d="M18.404 12.697c-.095.005-.174-.014-.196-.082-.082-.23-.148-.262-.216-.262-.069 0-.162.147-.216.16-.055.014-.12-.169-.12-.169l-.06-.027s-.353.23-.602.5c-.248.27-.656.73-.839.811-.183.082-.811.11-1.026.156a1.331 1.331 0 0 0-.486.238c-.033.035.095.073.114.109.02.033-.21.02-.23.054-.013.027.055.183.088.262a.445.445 0 0 1 .189-.046c.21-.006.363.134.614.134.607 0 1.156-.446 1.56-.582.298-.101.555-.175.736-.34.087-.073.243-.237.385-.48.104-.167.205-.322.306-.437Z" fill="#D9AE5B"></path><path fill-rule="evenodd" clip-rule="evenodd" d="M9.705 26.219s-.054-.203-.555-.724c-.142-.148-.229-.27-.325-.358-.237-.224-.377-.284-.546-.413-.372-.276-.776-.276-1.087-.615-.312-.338-.675-.986-.927-1.647-.248-.661-.317-.872-.317-.89 0-.02.069-.148.156-.13.087.02.087.19.11.23.043.067.092.13.147.189.128.147.311.324.404.587a2.654 2.654 0 0 0-.096-.473s.481.304.891.62c.413.318.582.427.702.629.121.202.405.735.54.89.137.157 2 .744 2 .744l.886.66.44.965-.344.54-.661.143-1.074-.481-.344-.466Z" fill="#D9B05D"></path><path fill-rule="evenodd" clip-rule="evenodd" d="M7.32 22.896s.224.358.77.697c.492.298 1.27.568 1.965.73.399.095.797.169 1.155.174.965.014 1.629-.262 2.451-.352.446-.047.992-.082 1.56-.216.73-.175 1.162-.372 1.75-.649.425-.196.816-.344 1.133-.532.445-.263.77-.555 1.148-.642-.047.128-.096.358-.468.595.197-.005.468-.019.468-.019s-.263.156-.724.506c-.285.216-.662.582-1.047.825-.249.155-.52.27-.697.363-.432.238-.606.358-.89.649.1-.006.109 0 .109 0s-.358.046-.615.183c-.054 0-.147-.02-.311.027-.129.04-.298.134-.473.183-.249.074-.33.041-.33.041l.04.082s-.324-.006-.432.005c.02.006.014.014.014.014a.167.167 0 0 0-.054.02.564.564 0 0 1-.17.073c-.032.005-.06.005-.1.014.013.032.12.216.169.324-.041.027-.656.492-.656.492.019.03.035.062.046.095.02.06.028.148.047.189.046.082.073.095.073.095s-.073.014-.202.047c-.109.027-.243.073-.432.1a1.705 1.705 0 0 1-.175.014c.027.06.148.29-.074.555-.221.265-.29.303-.358.473a.736.736 0 0 0-.109-.069c-.074-.032-.175-.081-.21-.147a1.76 1.76 0 0 1-.082.257c-.069.183-.17.363-.189.5-.073-.082-.21-.243-.399-.21-.188.032-.338.289-.371.363 0-.047-.033-.082-.041-.028-.006.06-.11.689-.689 1.197-.005-.128-.005-.413-.019-.505-.054.054-.12.133-.513.303-.386.17-.325.339-.325.339s-.032-.27.175-.555c.21-.284.34-.418.34-.44a.121.121 0 0 0-.028-.06c-.028-.027-.082-.06-.082-.082.033-.014.358-.17.339-.492a.872.872 0 0 0-.23-.546c-.013-.014.129-.115.11-.148-.014-.019-.189-.147-.21-.216a.627.627 0 0 1 .026-.12c.02-.06.033-.101.028-.142a1.136 1.136 0 0 0-.11-.276c.02.006.156 0 .156 0s-.109-.175-.128-.257c-.02-.082-.06-.298-.082-.339.046.006.161.014.161 0 .006-.04-.101-.109-.054-.162.033.006.096.033.156.11-.033-.088-.088-.257-.203-.325a.496.496 0 0 1 .4.027c.16.095.215.23.215.23s.096.073.244.182c.169.134.385.325.73.46.073.04.261.04.398.013a.613.613 0 0 0 .17-.068.316.316 0 0 1 .06-.028 1.3 1.3 0 0 0-.101-.17c.046 0 .1.007.1.007s.033-.074-.114-.217c.033-.032.074-.054.074-.109-.047-.005-.129-.074-.148-.101.027-.02.068-.082.115-.101-.041-.033-.142-.17-.189-.183a.857.857 0 0 0 .129-.06s-.23-.06-.304-.11c-.073-.054-.183-.147-.248-.174-.069-.028-.189-.041-.238-.096.046.014.12 0 .175 0 .04 0 .06.005.074.005-.006-.019-.006-.06.1-.073a.5.5 0 0 0 .148-.047s-.1-.005-.216-.115c-.115-.109-.21-.196-.276-.21-.068-.014-.196.047-.276.041-.109-.014-.155-.068-.155-.068s-.364.032-1.17-.46c-.697-.425-1-.803-1-.803a1.19 1.19 0 0 1-.188-.087c-.262-.137-.626-.42-.615-.793l-.001.003Z" fill="#CBA04C"></path><path fill-rule="evenodd" clip-rule="evenodd" d="M17.372 6.497c.063.02.119.059.162.11.128.147.21.426-.082.724.114.04.162.054.262.04-.101.12-.33.378-.344.602-.014.183.1.237.1.237s-.174.203-.182.54c.082-.092.173-.178.27-.256.202-.161.48-.344.67-.459a.384.384 0 0 0 .018.142s.353-.29.649-.161c.134.06.073.248.073.248s.184-.068.312.06c.128.129.31.46.403.589.041.06.148.175.257.352.149.249.273.511.372.784.005-.142.04-.363.445-.224.404.142.863.44 1.248 1.027.386.586.481 1.249.675 1.5.197.244.4.648.413.818.014.17-.06.716.344 2.194.115-.46.29-1.479.29-1.479l.095-.898.11-2.782-2.905-2.413-2.27-1.647-1.478.142.092.21Z" fill="#CAA13E"></path><path fill-rule="evenodd" clip-rule="evenodd" d="M22.768 10.636s-.041-.27-.724-.729c-.683-.453-1.216-.453-1.708-.839-.377-.303-.77-1-1.026-1.23-.25-.226-.29-.882-.29-.882l.839-.702 1.247-1.803 1.055-1.162.505.703.703.825.39 1.656.142 2.423-1.134 1.74Z" fill="#B59544"></path><path fill-rule="evenodd" clip-rule="evenodd" d="M23.612 13.541a3.079 3.079 0 0 0-.134-1.087c-.18-.56-.574-1.555-.756-1.927-.074-.413-.02-.445.06-.492.08-.046.377-.216.54-.811.163-.596.67-.615.67-.615l.311-.23.473 1.184.412 1.068.129.817.095.697-.224 1.472-1.106 1-.47-1.076Z" fill="#C89D3A"></path><path fill-rule="evenodd" clip-rule="evenodd" d="M8.172 29.956v-.03a.234.234 0 0 0 .06-.054c.02-.027.033-.06.047-.068a.515.515 0 0 1 .224-.041c.068.013.248.087.344.082.197-.006.426-.156.79-.088.546.101.675.473.992.683.216.148.44.082.472.082h.074c.013 0 .115-.114.17-.109.109.006.12.096.188.101.16.02.473-.082.628-.04a.3.3 0 0 1 .123.5c-.17.155-.33.302-.363.431.042.032.082.066.12.102a15.905 15.905 0 0 1-3.869-1.549v-.002Z" fill="#D7AC57"></path><path fill-rule="evenodd" clip-rule="evenodd" d="M22.721 24.497s.427-.568.574-.85c.148-.29-.467-3.964-.467-3.964l1.235-4.046-.033-1.317s.06-1.216.202-1.743c.17.303.697.67.812.863.054-.372.237-1.156.21-1.992.101.156.344 1.722.344 1.722l.244 1.054.317 1.12.352 1.184.21.817.12.196.102.344.095.372.276.872.162.715.129 1.298c.028.1.048.201.06.304.005.142-.02.224-.02.248 0 .025.047.312.028.528-.027.216-.027.385-.197.54-.17.155-.276 1.082-.276 1.082l-.303-.202s.06-.276-.082-.527a.533.533 0 0 0-.574-.263c-.155.033-.467.082-.568.17-.095.087-.33.358-.546.48-.27.163-.71.175-.945.23-.238.054-.5.216-.777.404a4.34 4.34 0 0 1-.683.36v.001Z" fill="#CFA44D"></path><path fill-rule="evenodd" clip-rule="evenodd" d="M22.721 30.467s.018.012.053.031a16.05 16.05 0 0 0 5.115-3.791 26.157 26.157 0 0 0-.058-1.33c-.046-.445-.014-.899-.027-1.161-.014-.262-.162-1.33-.23-1.607-.074-.276-.216-.412-.238-.412-.019.005-.134.519-.134.648 0 .13-.027.44-.027.52-.019-.006-.027-.055-.027-.074-.027.068-.06.188-.074.202-.014.013.02-.115 0-.142-.02-.028-.054-.014-.047-.082a.8.8 0 0 1 .02-.12s-.082.12-.142.426c-.06.303-.06.311-.082.338-.02.033-.129.143-.134.184-.006.073.101.147.11.188.005.069-.097.385-.13.54-.032.155-.018.46-.053.615-.028.142-.054.224-.148.284.068.014.134.033.134.033s.096.404-.148.749c-.087.12-.109.174-.202.284-.183.202-.325.432-.339.582a.974.974 0 0 1-.019-.134s-.284.33-.404.519c-.156.243-.372.23-.432.29-.061.06-.074.169-.054.256-.054.014-.156.033-.224.244a.512.512 0 0 1-.244.29c-.128.073-.284.095-.363.114.068.019.096.019.128.04-.04.07-.229.176-.44.312a.92.92 0 0 0-.363.44c-.054.115-.134.189-.262.203.054.032.134.109.175.133-.06.014-.162.014-.344.17-.192.158-.257.205-.345.218Z" fill="#BC9340"></path><path fill-rule="evenodd" clip-rule="evenodd" d="M18.92 31.733c.104-.073.217-.133.337-.178.426-.17.877-.203 1.054-.257.17-.054.304-.129.514-.17l-.015.136c-.62.195-1.252.352-1.891.47Z" fill="#D2BA6B"></path><path fill-rule="evenodd" clip-rule="evenodd" d="M26.78 20.525s-.088.472-.244.77c-.155.298-.324.71-.324.71.001-.092.012-.185.033-.276-.197.115-.675.391-.81.514-.129.115-.345.317-.4.413.129-.377.263-.716.285-.872-.197.142-1.115.9-1.593 1.4l-1.49 1.204a5.141 5.141 0 0 1-.53.248c-.256.11-.56.202-.783.29.06-.161.155-.304.29-.44.141-.134.568-.596.633-.81.06-.225.074-.359-.005-.547-.074.019-.243.027-.358.06-.115.033-.238.156-.238.156s.087-.5.276-.973c-.142.005-.385.046-.385.046s.338-.568.918-.964a2.99 2.99 0 0 0-.519.161c-.339.142-.71.353-.986.467.155-.216 1.248-1.776 1.899-3.23.648-1.45.89-1.822 1.032-2.6.074-.385.055-.955.074-1.465.02-.505.082-.959.041-1.262.17.21.803.803.825 2.128.02 1.325-.606 3.115-1.27 4.08.162.046.582.1 1.014-.649.431-.75.426-.959.582-1.27.019.155.013.21.013.21s.629-.762.926-1.721c.06.412.238.776-.04 1.533-.25.683-.574.85-.574.85s.16-.028.399-.17c.04.1.032.216.1.257.069.04.162.11.176.175.073-.11.188-.25.224-.353-.028.216-.047 1.161.054 1.642.21-.019.426-.033.574-.412-.102.371-.102.595-.033.912.112-.076.213-.213.213-.213Z" fill="#C39841"></path><path fill-rule="evenodd" clip-rule="evenodd" d="M19.68 5.464s-.21.088-.568.088c-.311 0-.224-.12-.71-.12-.749 0-3.364.432-3.823.426-.298-.006 1.006.128 1.006.128l3.33.047.67-.054.248-.506-.153-.009Z" fill="#B08839"></path><path fill-rule="evenodd" clip-rule="evenodd" d="M11.044 11.975s-.427.325-.607.574c-.18.249-.276.413-.48.615a.42.42 0 0 0 .141-.02s0 .055-.032.07a.191.191 0 0 1 .155.053c-.06.033-.224.197-.095.391.095.148.297.161.297.161s-.046.134.148.12c.418-.019.885-.202 1.101-.155.216.054.339.073.492.338.162.263.303.304.303.304s.096-.244.074-.607c.078-.196.122-.404.128-.615l-.142-1.046-.62-.784-.803.445-.06.156Z" fill="#E3C571"></path><path fill-rule="evenodd" clip-rule="evenodd" d="M11.806 11.82s.06.142.312.155c-.028.06-.028.069-.02.115l.014.115a.254.254 0 0 0 .074-.054c.014.06-.014.155 0 .224a.501.501 0 0 0 .04.12.247.247 0 0 1 .014-.027c.006-.014.054.147.189.27 0-.019.005-.038.014-.054a.19.19 0 0 0 .032.096.1.1 0 0 1-.027-.02s.014.433.087.656a.306.306 0 0 0 .033-.046c0-.014-.005.12-.019.216-.019.095-.005.23-.005.23a.718.718 0 0 1 .16-.096c.083-.033.217-.134.299-.358.047-.127.084-.258.109-.391.026.05.045.105.054.162.006.068.134.033.134.033l.027-.298.162-.675.148-.418.71-1.106 1.284-.989 1.12.257.945-1.284-1.628-.978-1.541.16-1.399 1.938-1.12 1.757-.202.29Z" fill="#D8B65B"></path><path fill-rule="evenodd" clip-rule="evenodd" d="M19.877 9.016s-.096.02-.371.163c-.276.143-.468.188-.574.398-.107.21-.115.377-.115.377s.189-.082.298-.109c.115-.027.243-.019.23.027a.317.317 0 0 1-.055.088s.216-.006.21.101a.564.564 0 0 1-.081.276c-.041.054-.21.134-.23.197-.046.128.02.134-.005.237-.02.102-.11.298-.405.643-.303.344-.432.587-.432.587s-.147-.276-.224-.514c-.054.027-.344.189-.344.189l-.672-2.342.013-.155s.06-.074.074-.21c-.1-.034-.115-.061-.249-.19-.134-.127-.243-.283-.467-.39-.032-.06-.074-.142-.237-.175-.164-.033-.263-.06-.263-.06s.088-.033.129-.101c-.101.014-.183.046-.404.04-.225-.005-.25-.013-.372.006-.123.02-.27.074-.325-.114-.06-.047-.189-.006-.298.155-.11.161-.148.29-.358.353a.73.73 0 0 1-.096.262c-.06.101-.155.202-.284.352-.202.238-.17.629-.492.927-.325.297.054-.826.054-.826l.52-1.242L15.53 6.52l2.295-.155.224 1.188 1.12.386.708 1.079v-.002Z" fill="#D3AE4D"></path><path fill-rule="evenodd" clip-rule="evenodd" d="m20.24 9.279-.964-1.39-.675-.52s-.48-.885-.514-.913c-.027-.019-.48-.068-.77-.087l.054.134c.063.02.12.058.162.11.128.147.21.425-.082.723.115.041.162.054.262.041-.1.12-.33.377-.344.601-.014.183.101.238.101.238s-.175.202-.183.54a2.19 2.19 0 0 1 .27-.257c.203-.162.481-.344.67-.459a.385.385 0 0 0 .019.142s.352-.29.648-.16c.134.06.074.248.074.248s.183-.068.312.06c.128.128.311.459.404.588.04.06.147.174.257.352.149.249.273.511.371.784.006-.11.028-.262.216-.262l-.286-.514h-.002Z" fill="#CAA13E"></path><path fill-rule="evenodd" clip-rule="evenodd" d="M5.782 13.23s-.069-.17 0-.5c.068-.33.174-.487.21-.973.035-.486.352-1.093.352-1.093l.877-.399.62.17.184.83-.785.432s-.04.184-.262.331c-.221.148-.527.262-.6.413-.045.092-.077.19-.097.29 0 0-.224-.047-.357.1-.143.15-.137.285-.143.4v-.001Z" fill="#FAE9CA"></path><path fill-rule="evenodd" clip-rule="evenodd" d="M7.552 13.008s-.074.047-.128.162c-.054-.087-.184-.606-.189-1.073-.005-.468-.033-.583.075-.745.108-.16.532-.33.471-.62-.06-.276-.311-.39-.62-.312-.216.055-.377.514-.6.744-.17.174-.372.147-.427.243-.074.128-.006.257-.027.338a1.635 1.635 0 0 1-.197.353c-.249.358-.67.863-.724 1.317.019-.257.005-.262.074-.546l-.042-.069.27-.885.176-.73.39-1.221.689-1.248.67-.75.696.047.082 1.047.399 1.964.839 1.033-1.345.905-.533.046h.001Z" fill="#EBCC73"></path><path fill-rule="evenodd" clip-rule="evenodd" d="M7.97 13.38s-.115.027-.156.005c-.04-.022-.082-.046-.068-.074.013-.027.087-.073.087-.095a.076.076 0 0 0-.068-.082c-.063-.009-.082.032-.082.032s-.06-.046-.11-.054a.75.75 0 0 1 .088-.005.853.853 0 0 0-.237-.069c.068-.04.202-.16.29-.16.087 0 .141-.014.128-.06-.014-.047-.082-.115-.156-.143.027-.033.046-.082-.02-.216-.068-.134-.04-.224-.018-.257.019-.04.087-.114.12-.16.033-.047.06-.11.115-.143.027-.019.114-.054.202-.087.096-.033.175-.074.23-.033.06.04.032.096.032.096s.189-.069.358.019c.17.081.582.133.582.133l.148.298-.978.84-.405.201-.081.014H7.97Z" fill="#E5C66B"></path><path fill-rule="evenodd" clip-rule="evenodd" d="M9.328 12.008s-.303.203-.372.276c.041.006.11.033.082.074-.033.04-.23.183-.339.317a2.087 2.087 0 0 0-.262.385c-.04.074-.352.29-.459.317.224 0 .675-.276.844-.276-.005.082.047.175.142.183.096.008.372.06.744-.17.371-.223.248-.39.404-.5.298-.196.418-.37.582-.48.164-.11.248-.134.248-.134s.006-.082.055-.074a.074.074 0 0 1 .06.047s.284-.203.648-.257a.038.038 0 0 1-.019-.02s.027-.013.033-.027c0 0 .019-.027.033-.013.013.013.032.114.06.156.06-.028.175-.285.175-.285l.276-.79v-.72l-.216.04-1.621.689-.984 1.02-.115.242Z" fill="#E6BD62"></path><path fill-rule="evenodd" clip-rule="evenodd" d="M13.995 8.47a.915.915 0 0 0 .249-.101c-.033.087-.033.183-.175.39-.142.208-.148.238-.262.454-.115.224-.129.547-.238.688a.5.5 0 0 1 .156-.046s-.11.096-.156.197c-.046.1-.128.311-.33.44-.203.128-.46.21-.736.513-.276.298-.56.675-.702.811.074-.128.175-.385.202-.555.028-.169-.005-.371.041-.595.047-.224.047-.385.27-.776.224-.391.607-1.749.607-1.749l.825-.262.249.59v.001Z" fill="#B9903F"></path><path fill-rule="evenodd" clip-rule="evenodd" d="M13.399 7.97s-.249.358-.317.675c-.068.317-.006.29-.046.445a.58.58 0 0 0 0 .29c.086-.139.204-.255.343-.34.236-.141.427-.242.54-.362.115-.129.211-.34.46-.5-.101-.014-.243-.06-.27-.054.1-.115.404-.29.71-.5.303-.216.284-.304.776-.52-.161.028-.238-.013-.372 0 .054-.114.243-.169.432-.357.19-.189-.12-.468-.12-.468l-1.44.872-.697.82V7.97Z" fill="#C59A42"></path><path fill-rule="evenodd" clip-rule="evenodd" d="m9.49 7.32.032-.263.412-.66.432-1.162V3.648l-.033-.918.069-.602.052-.19.054-.075.353.183.486.662.046 1.276-.472 2.013L9.57 7.47l-.082-.15Z" fill="#DFC068"></path><path fill-rule="evenodd" clip-rule="evenodd" d="M10.563 1.79s-.216.005-.262.904c-.046.899-.069 1.372-.102 1.817-.032.445-.109.716-.147.978-.038.263-.06.62-.183.839-.054.101-.17.418-.44.656a2.712 2.712 0 0 1-.825.459c-.12.027-.73.087-.978.224-.088.046-.238.1-.405.257-.33.297-.77.83-1.087 1.472-.486.96-.973 3.667-.973 3.667l.11-.183s.013-.243.256-.67c.238-.426.17-.904.5-1.72.129-.312.29-.717.487-1.06.311-.561.688-1.042 1.068-1.304.62-.426 1.303-.52 1.303-.52l.735-.486s.129-.248.298-.532c.238-.4.54-.845.607-1.492.1-.96-.142-1.587-.129-2.156.014-.568.02-.986.134-1.087.115-.101.033-.063.033-.063Z" fill="#AE8739"></path><path fill-rule="evenodd" clip-rule="evenodd" d="M10.563 6.08s.324-.799.472-1.506c.028-.142.082-.284.096-.4.068-.669.087-.945 0-1.31-.068-.27-.33-.514-.467-.703-.134-.197-.197-.27-.17-.312a.303.303 0 0 1 .238-.1.814.814 0 0 1 .582.27c.21.243.377 1.068.377 1.068l.175 1.089.446 1.371-1.749.533Z" fill="#C99E3D"></path><path fill-rule="evenodd" clip-rule="evenodd" d="M13.61 5.249s-.061.027-.17 0a.243.243 0 0 1-.11.23c-.114-.047-1.188.046-1.188.046s-.5-.088-.656-.749c-.11-.44.082-1.046.02-1.445-.097-.588-.23-.703-.244-.886-.014-.182-.027-.23-.027-.344-.06-.014-.096-.033-.156-.033-.014-.054.013-.1-.046-.196.032.013.256.04.519.29.216.201.216.275.248.316.041.041.372.324.514.607.142.282.418 1.183.48 1.33.02.06.061.12.163.257.159.197.39.522.653.576Z" fill="#B18A3C"></path><path fill-rule="evenodd" clip-rule="evenodd" d="M11.839 2.492c.165.267.314.545.445.83.161.364.257.662.46.905-.11-.317-.304-.94-.419-1.161-.128-.234-.39-.487-.486-.574Z" fill="#A88F33"></path><path fill-rule="evenodd" clip-rule="evenodd" d="M9.98 6.984s-.275.068-.789.338c-.17.088-.33.162-.486.23a8.487 8.487 0 0 1-1.183.445.79.79 0 0 0 .04.047s0 .134.075.21c-.041.041-.588.413-.427 1.656.11-.041.238-.096.257-.096.033.006.041.096.082.096s.175-.054.317-.238c-.005.074-.087.817.353 1.317.081-.096.29-.413.29-.413l.005-.1s.019-.353.134-.676c.114-.322.338-.56.338-.56l1.17-1.67-.175-.586Z" fill="#E6C367"></path><path fill-rule="evenodd" clip-rule="evenodd" d="M8.888 9.435a.646.646 0 0 1-.175.087.676.676 0 0 1 .115-.532c.188-.277.6-.634.716-.919.073-.183.04-.642.696-1.23.656-.587.913-.79.913-.79l1.06-.532 1.303.514-.647 2.537-.503 1.19-2-.378-1.478.053Z" fill="#DCB463"></path><path fill-rule="evenodd" clip-rule="evenodd" d="m9.651 8.746.249-.312v-.22s.276-.075.573-.378c.298-.303.71-.885 1.074-.85.364.041.4.79.413 1 .014.21.06.689.134.946.082.257-.885 1.23-.885 1.23l-.657.5-.9-1.916Z" fill="#E8C784"></path><path fill-rule="evenodd" clip-rule="evenodd" d="M10.42 11.339s.203-.317.055-.386c.087-.196.248-.404.248-.404s.115-.284.487-.634c.371-.35.6-.582.661-.817.037-.153.057-.31.06-.467.04.033.083.062.129.088.06.027.344.262.303.735-.041.472-.216.669-.216.669s-.17.17-.29.257c-.128.087-.175.188-.39.196a.258.258 0 0 1 .073-.04s-.224-.028-.344.081c-.12.11-.376.446-.505.547l-.27.175Z" fill="#CDAE50"></path><path fill-rule="evenodd" clip-rule="evenodd" d="M19.506 6.024a3.29 3.29 0 0 0-1.006-.196c-.574-.02-1.413.013-2.235.019-.885.005-1.688-.303-2.803-.358-.183-.11-.649-.588-2.101.426.087-.005 1.054-.224 1.39.197.34.418.244 1.128.197 1.298-.087.377-.372.926-.486 1.311-.115.385-.088.588-.17.858-.082.27-.262.404-.155.716.142-.088.216-.088.453-.62.238-.533.189-.913.582-1.364.385-.453 1.027-1.074 1.27-1.23.245-.155 2.181-1.16 4.209-.201.489-.052.855-.856.855-.856Z" fill="#CEA24B"></path><path fill-rule="evenodd" clip-rule="evenodd" d="M12.178 5.653a.248.248 0 0 0-.014-.06.436.436 0 0 0-.074-.11s-.48-.087-.724-.06c-.426.047-.811.574-.992.844-.18.271-.404.689-.647.905a.09.09 0 0 0-.014-.06s.014.019-.013.046c-.028.027-.028.041-.014.054l.041.041c.013 0 .39-.17.904-.648.547-.5.965-.757 1.183-.845.117-.05.239-.085.364-.107Z" fill="#C29637"></path><path fill-rule="evenodd" clip-rule="evenodd" d="M21.506 3.598s-.088.11-.197.23c-.244.257-.56.546-.831.844-.257.284-.546.506-.872.877-.325.372-.702.784-.797.904a.89.89 0 0 0-.156.419c-.046-.033-.101-.069-.101-.069.023.043.05.083.082.12.068.096.175.217.23.29.066.094.115.2.141.312.033.005.243.046.506-.386.262-.431.606-.904.606-.904l.547-.812.344-.688.432-.77.066-.367Z" fill="#A98439"></path><path fill-rule="evenodd" clip-rule="evenodd" d="M22.066 3.047s-.331.27-.46.432a23.04 23.04 0 0 0-.432.587l.11-.013.554-.492.216-.385.012-.129Z" fill="#A88F33"></path><path fill-rule="evenodd" clip-rule="evenodd" d="M21.965 24.76s-.006-.225.12-.358c.128-.134.453-.331.77-1.069.317-.737.353-.904.353-.904s-.569.486-.919.601c.082-.17.128-.29.17-.377-.047-.041-.244-.087-.263-.11.11-.109.17-.376.39-.554.285-.216.804-.588 1.208-.919.403-.33 1.196-1.1 1.297-1.325.06.088.074.142.074.142s-.399.52-.606.85c-.183.284-.17.446-.17.446l.377-.163s.11.405-.385 1.02c.216-.082.303-.033.426-.102-.202.129-.48.304-.743.785-.257.48-.606 1.04-1.196 1.39-.574.37-.905.645-.905.645l.002.002Z" fill="#A58139"></path><path fill-rule="evenodd" clip-rule="evenodd" d="M20.484 6.309s-.225.467-.257.83c-.006.088-.028.156-.028.257-.005.325.02.689-.054.858-.027-.068-.04-.115-.068-.142-.041.115-.115.473-.175.607a2.85 2.85 0 0 1-.082-.749c.006-.358.014-.426.014-.5-.014.11-.088.257-.115.344-.04-.073-.087-.17-.142-.248-.033.054-.074.133-.11.175a2.494 2.494 0 0 1-.027-.244c-.005-.142-.013-.325-.005-.363.014-.074.128-.363.372-.628.29-.317.587-.927.674-1.115.088-.189.46-.973.46-.973h.284l-.413.94s-.249.514-.377.703c-.128.188-.399.73-.52.94.088-.115.162-.175.25-.285.084-.076.319-.407.319-.407Z" fill="#866B34"></path><path fill-rule="evenodd" clip-rule="evenodd" d="M22.071 3.01c-.046.144-.12.276-.216.392-.17.202-.533.472-.71.688-.162.21-.487.784-.34 1.465.055-.148.156-.44.427-.771.27-.33.56-.71.702-1.005.142-.298.161-.533.161-.533l.054-.068-.032-.156-.047-.011h.001Z" fill="#CBA94C"></path><path fill-rule="evenodd" clip-rule="evenodd" d="M27.604 21.134s-.11-.298-.142-.568c-.033-.27.054-.325-.047-.634-.06-.189-.169-.162-.196-.189-.028-.026-.047-.311-.041-.467a1.748 1.748 0 0 0-.033-.445c-.041-.033-.069-.06-.129-.263-.068-.202-.1-.303-.133-.363s-.13-.115-.13-.175c0-.12.11-.183.11-.216-.005-.068-.087-.014-.11-.033-.026-.032.07-.23.034-.257-.014-.013-.11.102-.134.069-.027-.033-.06-.358-.11-.574-.046-.21-.095-.363-.1-.426-.006-.06-.378-1.12-.468-1.377a6.542 6.542 0 0 1-.183-.661c-.027-.129-.046-.391-.06-.364-.014.027-.005.161-.027.156-.02-.006-.087-.473-.11-.546-.018-.074-.133-.325-.161-.506-.028-.183-.088-.661-.129-.986-.04-.325-.06-.46-.06-.54.007-.2-.004-.4-.033-.596a5.552 5.552 0 0 0-.257-1.006c-.183-.459-.67-1.634-.756-1.926 0-.074.096-.033.096-.033s.237.596.412 1.055c.17.459.33.863.372.904.032.041.29.492.404 1.23.115.737.156 1.418.224 1.871.033.216.06.446.129.675.073.249.188.506.338.9.129.33.224.606.276.843.06.304.06.533.096.684.033.128.082.385.197.756s.284.85.399 1.147c.224.596.324 1.093.358 1.358.03.274.13 1.22.103 1.503Z" fill="#AF8839"></path><path fill-rule="evenodd" clip-rule="evenodd" d="m22.085 2.978-.014.033s.041.014.033.068c0 .075-.004.15-.014.224-.013.096-.04.17-.046.23 0 .128.019.276-.162.642-.054.1-.088.188-.115.248-.068.148-.082.17-.142.238.096-.054.44-.27.615-.238-.12.069-.304.203-.418.378a.94.94 0 0 0 .324 0c.303-.047.642-.156.94-.134.325.019.197-.391.197-.391l-.376-.825-.71-.5-.112.027Z" fill="#BE9C44"></path><path fill-rule="evenodd" clip-rule="evenodd" d="M23.937 9.159s-.317-.317-.445-1.405c-.129-1.093-.101-2.702-.101-2.702l-.257-.628s-.054-.418-.189-.574c-.134-.156-.398-.418-.519-.546-.12-.129-.256-.304-.338-.331.04-.068.224-.454.926-.459.702-.005.918.385.992.527.073.142.404.757.527 1.927.114 1.17.12 1.257.1 1.662a9.404 9.404 0 0 1-.215 1.297c-.118.47-.246.995-.481 1.233v-.001Z" fill="#A38038"></path><path fill-rule="evenodd" clip-rule="evenodd" d="M22.943 10.09a.536.536 0 0 0 .303-.068c.102-.006.468.04.749-.317.02.082.069.303-.06.5.068-.068.17-.096.183-.115.005.101.101.413-.303 1.17.109-.12.237-.115.352-.129.006.142.082.62-.12.877-.134.175-.353.12-.353.12a.686.686 0 0 0 0-.114c-.005-.074-.032-.148-.013-.197a.98.98 0 0 1-.284-.197c-.238-.224-.547-.606-.569-.89-.027-.318.257-.386.257-.386a.306.306 0 0 1-.06-.074c-.014-.046-.027-.12-.082-.18Z" fill="#866B34"></path><path fill-rule="evenodd" clip-rule="evenodd" d="M20.836 6.653s-.014-.02-.087.068c.013-.087.027-.17.032-.248a.859.859 0 0 1 .134-.203c-.04.082-.068.156-.068.156s.101-.188.249-.303c.1-.082.23-.12.284-.197.06-.082.046-.096.06-.11 0 0 .134-.087.339-.344.027-.032.068-.068.095-.1.047-.02.156-.069.285-.135.134-.073.284-.174.377-.216.183-.082.377-.073.467-.202.068-.02.142-.224.128-.399.101.041.62.364.798 1.068.129.5-.101 1.27-.197 1.643-.095.371-.109.647-.243.816-.17.225-.716.54-.85.697-.114.129-.459.454-.445.689.014.175.23.27.276.303.047.033.046.074.134.054.087-.02.12-.06.156-.06.04.005.04.014.06.014a.196.196 0 0 0 .04-.006s-.013.249-.595.324c-.041.006-.082.02-.134.028.069-.033.11-.033.183-.134-.082-.014-.317-.028-.377-.047a.729.729 0 0 1 .134-.16c.046-.042-.006-.055-.046-.034-.07.048-.138.1-.203.156-.068.06-.128.142-.237.216a.533.533 0 0 1 .1-.467c-.032.005-.095.1-.155.082-.01-.1-.004-.2.02-.298.032-.123.21-.339.21-.339l.857-1.533.183-1.161-1.964.382Z" fill="#92723A"></path><path fill-rule="evenodd" clip-rule="evenodd" d="M20.79 6.719s-.047.032.046.095c-.014.02-.046.088-.087.134-.047.054-.096.088-.115.134-.041.096-.074.161-.074.202 0 .041-.013.304-.128.473-.041.06-.088.161-.12.23-.069.12-.129.216-.143.27a2.832 2.832 0 0 0-.046.357l.082-.1c-.033.068-.068.141-.12.196.032-.027.128-.096.29-.238.223-.188.573-.505 1-.756-.13.046-.238.046-.326.06.069-.068.683-.79 1.006-.858a.129.129 0 0 0 .027-.087l-.276-.028-.56.12-.082-.432-.374.227Z" fill="#B18E3E"></path><path fill-rule="evenodd" clip-rule="evenodd" d="M21.68 9.178s-.073.073-.142.256a.86.86 0 0 1-.134-.183c-.1-.169-.256-.385-.62-.262-.005-.115-.013-.175 0-.257.06-.013.243-.16.426-.377.129-.147.25-.317.331-.533.054-.04.148-.109.27-.188.175-.12.386-.284.418-.467-.082.033-.257.114-.519.101.101-.047.257-.096.238-.298.04-.027.074-.046.074-.046a.27.27 0 0 0-.096-.014c-.006-.02-.014-.046-.06-.033-.047.014-.054.014-.06.033-.02.005-.082 0-.129.033-.046.033-.175.142-.224.16.02-.032.047-.08.047-.08s-.134.013-.23.053c-.175.06-.377.17-.582.276.02-.033.027-.054.041-.06.014-.006.046-.014.046-.02 0-.005-.013-.053-.005-.073.061-.13.134-.254.216-.371a.724.724 0 0 0 .115-.312l.418-.21 1.175-.27.762.046-.096.527-.45.921-.385.839-.44.514-.404.295Z" fill="#543E26"></path><path fill-rule="evenodd" clip-rule="evenodd" d="M23.585 6.895s-.46.569-.588.656c.082-.175.588-1.216.77-1.505-.04-.033-.095-.033.034-.54-.11.256-.148.39-.238.458-.09.069-.101.047-.162.047a.114.114 0 0 0 .013-.069s-.385-.046-.648-.046-.784.142-1.074.257c-.23.096-.358.096-.44.155-.082.069-.128.143-.17.162-.032.019-.188.068-.223.12-.033.054-.088.115-.088.128 0 .014-.013.033.028.02.013-.006.114-.06.23-.13.155-.086.343-.187.48-.248.39-.155.514-.128.689-.16.183-.034.445-.11.62-.11.174-.006.505 0 .582.014-.033.027-.06.06-.047.174 0 .033-.027.069-.054.148-.081.224-.237.596-.324.784-.12.257-.257.473-.324.607-.068.133-.216.486-.363.674-.148.189-.224.304-.27.345-.047.04-.378.284-.353.371.06-.019.44-.162.716-.472.275-.31.33-.5.546-.67.216-.17.385-.453.486-.688.085-.219.066-.287.172-.481Z" fill="#806031"></path><path fill-rule="evenodd" clip-rule="evenodd" d="M13.691 11.137s-.06.248-.197.371c-.133.12-.371.224-.398.427-.033.202.238.303.238.303s-.148.243-.148.426c0 .189-.006.224.014.404a.178.178 0 0 0-.054.054s.013.175.147.284c.134.11.248.175.317.148.01.022.02.045.027.068 0 0 .101-.256.17-.48.068-.23.128-.197.155-.506.027-.309.324-.839.324-.839l.203-.453-.33-.257-.468.05Z" fill="#B6903C"></path><path fill-rule="evenodd" clip-rule="evenodd" d="M14.306 11.582c-.068.07-.131.145-.188.224-.088.12-.156.23-.284.276-.129.047-.21.046-.202.175.008.129.128.183.196.248a.32.32 0 0 1 .102.312c.04-.019.114-.041.183-.188.068-.148.545-1.047.545-1.047h-.352Z" fill="#685026"></path><path fill-rule="evenodd" clip-rule="evenodd" d="M16.19 9.508s.04-.109 0-.188c-.042-.082-.29-.11-.414-.203-.128-.095-.284-.162-.412-.12.019-.046.095-.147.033-.17-.06-.018-.284.083-.345.13-.06.046-.196.1-.224.133-.027.033-.073.096-.1.069-.028-.02-.042-.069-.088-.042-.047.028-.27.21-.312.317a1.623 1.623 0 0 1-.412.615c-.279.27-.4.446-.317.547.082.1.12.027.134.114a.737.737 0 0 1-.014.257c-.033.142-.087.276-.014.303.189.06.372-.053.413-.019.082.074-.046.34.147.391.197.054.391-.046.391-.046l.716-.386.689-.363.352-.697-.189-.582-.036-.06h.001Z" fill="#D4B968"></path><path fill-rule="evenodd" clip-rule="evenodd" d="M15.514 11.172s-.12-.183.027-.344c.148-.162.358-.23.44-.33a.126.126 0 0 0-.06-.041.544.544 0 0 1 .238-.225.227.227 0 0 0-.156-.073c-.134 0-.216.082-.34.082-.12 0-.133-.06-.133-.06s.202-.02.183-.11c-.019-.096-.054-.096-.054-.096s.39-.162.459-.248c.068-.087.06-.189.074-.23.046 0 .317-.142.426-.082.11.06.033.224.033.224s.33-.248.5-.492c.147.014.215-.101.323-.101.134 0 .345.183.386.573.027.225.068.353.027.75-.02.223-.014.702.054.939.046.189.156.17.156.17a.306.306 0 0 1-.096.147c-.074.068-.082.249-.074.317.011.05.025.1.041.147 0 0-.087.101-.11.17-.018.068-.108.115-.174.115-.066 0-.033-.006-.12 0-.087.005-.115.019-.17 0-.054-.02-.095-.041-.073-.216.019-.175-.675-.582-.675-.582l-1.135-.405.003.001Z" fill="#CCA849"></path><path fill-rule="evenodd" clip-rule="evenodd" d="M14.21 12.899s.249.33 1.27.33c.487 0 .657-.046.757-.073.11-.028.52-.189.932-.675.372-.44.29-.62.29-.62l-.216-.033-.703.096-2.078.885-.252.09Z" fill="#585136"></path><path fill-rule="evenodd" clip-rule="evenodd" d="M14.973 12.98s-.886.198-.886-.362c0-.547.547-1.12.684-1.222.142-.101.48-.216.48-.216h.817l.156.413-.068.89-1.183.498Z" fill="#252211"></path><path fill-rule="evenodd" clip-rule="evenodd" d="M15.79 11.347s-.17-.156-.555.054-.697.648-.716 1.047c-.019.352.29.614.77.628.359.014.575-.027.684-.054l-.17-.21-.013-1.465Z" fill="#C3B378"></path><path fill-rule="evenodd" clip-rule="evenodd" d="M15.623 11.434s-.04-.033-.162.033c-.101.054-.249.197-.363.298-.074.06-.12.087-.162.134-.17.202-.312.533-.23.697.082.163.353.352 1.041.224l-.126-1.386h.002Z" fill="#E6D89C"></path><path fill-rule="evenodd" clip-rule="evenodd" d="M15.399 11.773s-.11.17-.11.44c0 .276.156.716.73.749.44.027.735-.634 1.055-.89.243-.198.39-.203.39-.203s-.248-.27-.912-.62c-.656-.353-1.39-.4-1.79.142.189-.014.798-.17.798-.17l.298.096-.459.456Z" fill="#302716"></path><path fill-rule="evenodd" clip-rule="evenodd" d="M16.257 12.131c-.02-.04-.033-.096.046-.11.08-.013.115-.005.142.055.028.06.054.11.014.134-.041.022-.148 0-.202-.08v.001Zm-.129-.385s-.027.019-.013-.02c.005-.046.04-.128.128-.108.088.019.069.114.054.142-.014.027-.087.073-.142.054a.046.046 0 0 1-.031-.027.047.047 0 0 1-.003-.022c0-.007.003-.014.007-.02Z" fill="#6F674D"></path><path fill-rule="evenodd" clip-rule="evenodd" d="M8.733 11.92s.216.163.467.156c.248-.005.568-.262.716-.426.087-.096.162-.197.243-.276.068-.068.114-.101.147-.148.047-.054.096-.155.12-.188-.06.046-.147.129-.237.183a2.811 2.811 0 0 1-.353.183c-.073.027-.838.432-.838.432l-.265.085Z" fill="#AC924C"></path><path fill-rule="evenodd" clip-rule="evenodd" d="M9.063 9.902s.12-.082.352-.134c.224-.054.675-.096.675-.096l.372.162.147.56-.27.582-.344.216-.39-.628-.541-.661-.001-.001Z" fill="#9F8E57"></path><path fill-rule="evenodd" clip-rule="evenodd" d="m8.577 10.402-.129.096s.033-.06.06-.243c.027-.184.17-.629.377-.886.208-.257.203-.243.203-.243a.137.137 0 0 0-.11.027c.028-.06.203-.276.377-.384.175-.108.244-.143.427-.054.183.088.229.133.363.128.134-.005.248-.148.248-.148s.028.088-.073.29c-.101.202-.5.615-.5.615l-.83.568-.413.234Z" fill="#EAC970"></path><path fill-rule="evenodd" clip-rule="evenodd" d="M9.191 9.833s.601.082.784-.087c.006.02.028.02.028.033a.048.048 0 0 1-.014.027.44.44 0 0 1 .06-.005.354.354 0 0 0 .074.013c.02 0 .04-.002.06-.005a.103.103 0 0 1-.04.068c.026 0 .053.006.053.027 0 .022.005.088-.027.102a.124.124 0 0 1-.082-.006.337.337 0 0 0 .04.148c.055.1.17.216.325.183 0 0 .082.196-.262.633-.047.06-.096.143-.156.21a.799.799 0 0 0-.054.162s.582-.224.749-.735c.17-.514.202-1.019.17-1.492a.768.768 0 0 0-.061-.298c-.082-.169-.312-.142-.404-.046-.134.134-.358.467-.67.697-.317.23-.33.27-.574.371h.001Z" fill="#D7BC6B"></path><path fill-rule="evenodd" clip-rule="evenodd" d="M8.47 10.571s-.115.068-.175.324c-.06.263.054.582.12.683.066.101.216.377.528.391a.58.58 0 0 0 .224-.046c.108-.05.21-.114.303-.189.134-.101.243-.188.23-.197-.033-.013-.826-.67-.826-.67l-.298-.332-.106.037Z" fill="#585136"></path><path fill-rule="evenodd" clip-rule="evenodd" d="M9.219 11.659s.161-.014.257-.074c.095-.06-.56-.71-.56-.71l.046.702.257.082Z" fill="#453A25"></path><path fill-rule="evenodd" clip-rule="evenodd" d="M8.522 10.522s-.082.156-.082.197c-.014.133.027.554.06.688.033.142.21.358.44.358.142 0 .339-.087.339-.11 0-.027-.202-.053-.257-.155-.033-.054-.046-.188-.054-.324-.005-.088-.005-.183.027-.216.074-.082.088-.317.088-.317l.262-.488H9l-.413.257-.065.11Z" fill="#84754B"></path><path fill-rule="evenodd" clip-rule="evenodd" d="M8.42 10.672s.271-.358.515-.44c.243-.082.352-.033.352-.033l-.142.364-.202.224.013.115s-.033.303.17.513c.202.21.352.203.44.203.087 0 .338-.074.467-.378.115-.284.21-.648-.02-1.013-.224-.364-.62-.378-.696-.378-.077 0-.678.03-.896.823Z" fill="#252211"></path><path fill-rule="evenodd" clip-rule="evenodd" d="M15.358 11.888c-.101-.046-.006-.33.095-.418a.712.712 0 0 1 .454-.202c.082-.006.161.046.148.1-.02.102-.161.244-.29.345-.178.14-.292.227-.407.175Z" fill="#F7F7E7"></path><path fill-rule="evenodd" clip-rule="evenodd" d="M9.893 10.339c.074-.006.17.054.189.134.02.087-.046.262-.189.262-.114 0-.174-.142-.174-.183a.209.209 0 0 1 .027-.096c.005-.008.019-.104.147-.117Z" fill="#F8F6DE"></path><path fill-rule="evenodd" clip-rule="evenodd" d="M8.828 10.402s-.189.087-.276.27a.717.717 0 0 0-.054.432c.014.068.082.238.128.298.047.06.11.101.156.096.047-.006.142-.129.142-.203 0-.073.006-.385.096-.554.079-.17-.192-.34-.192-.34Z" fill="#D4C38B"></path><path fill-rule="evenodd" clip-rule="evenodd" d="M8.855 10.388c-.033.02-.087.046-.074.082.014.033.129.054.17.134.046.082.046.17.033.21a.334.334 0 0 0 .095-.068c.06-.068.134-.161.197-.161.041 0 .082.019.12.019.06 0 .12-.02.129-.082.013-.082-.115-.156-.189-.142.014-.054.033-.134-.027-.189-.06-.055-.249.041-.29.069a3.708 3.708 0 0 0-.164.128Z" fill="#E2D59D"></path><path fill-rule="evenodd" clip-rule="evenodd" d="m13.197 16.128.404-.119.115.082s.082.175.21.197c-.04.087-.148.162-.142.224a.19.19 0 0 0 .06.109s-.363.601.353 1.207c-.17.068-.385.162-.5.216.082.019.256.054.33.12.074.066.074.088.142.129.069.04.11.095.096.12-.046-.028-.202-.11-.23-.033-.027.076-.674.047-.674.047l-1.093.21s.04-.11-.074-.21c-.134-.12-.298.005-.473-.129-.23-.175-.237-.377-.311-.453.074-.047.224-.115.582-.163-.014-.027-.06-.109-.033-.183.033-.095.17-.155.129-.27.06-.013.087-.013.237-.202.142-.189.23-.23.339-.243.11-.014.175 0 .377-.189.142-.133.096-.248.096-.248s.093-.03.06-.219Z" fill="#D1AA5D"></path><path fill-rule="evenodd" clip-rule="evenodd" d="M12.003 16.19c.005-.028.027-.042.175-.028.147.013 1.082-.088 1.336-.101.257-.02 1.16-.006 1.6.087.44.093.886.202 1.102.257.216.06.284.082.276.109-.006.027-.054.054-.082.046-.027-.005-.743-.224-.964-.27-.222-.046-.987-.17-1.405-.162-.39.006-.547-.005-.877.033-.33.041-.877.096-1.041.074-.162-.02-.129-.02-.12-.047v.001Z" fill="#DEBE7E"></path><path fill-rule="evenodd" clip-rule="evenodd" d="M14.202 18.33s.56.304.762.676c.148.275-.087.412-.087.412s.317 0 .276.175c-.019.11-.546.404-.899.56-.358.156-.344.148-.519.175-.17.027-.634-.054-.73.082-.095.136-.054.276-.027.298.027.019.249.046.249.046s-.047.129-.506.142c-.459.014-.573.046-.6.096-.028.046.087.019.297.054a7.6 7.6 0 0 0 .506.054s-.096.082-.345.147c-.284.074-.73.143-.863.224.068.047.17.115.216.12a1.37 1.37 0 0 0-.303.11c.04.027.095.06.095.06s-.23.276-.363.345c-.134.068-.904.426-1.17.357-.66-.175-.743-.899-.904-.953-.243-.082-.358.082-.574-.033.096-.068.148-.11.249-.156-.11-.054-.675-.412-.675-.412a4.198 4.198 0 0 0-.197-.377c-.109-.189-.27-.44-.39-.662-.263-.486-.276-.71-.514-.986.041-.054.183-.046.183-.046l1.992.655 3.532.103.919-1.312.39.047Z" fill="#E5C37F"></path><path fill-rule="evenodd" clip-rule="evenodd" d="M8.97 20.33a.312.312 0 0 0 .074.06c.068.047.17.102.237.184.028-.041.096-.115.216 0 .121.114.27.033.364.06.095.033.1.046.1.046s.055-.046.176-.095c.073-.028.16-.047.256-.074.088-.02.183-.046.25-.046.06.04.275.27 1.141-.069.817-.317 1.006-.352 1.142-.303.014-.033.028-.096.238-.088 0-.087-.175-.385-.175-.385l-.964-.33h-.528l-1.582.29-.876.5-.069.252v-.002Z" fill="#CCA75D"></path><path fill-rule="evenodd" clip-rule="evenodd" d="M8.443 19.776s.019.148.237.303c.216.156.284.249.284.249s.041-.054.074-.11c.033-.06.06-.128.115-.147.11-.046.358.041.413.027.046-.013.032-.109.082-.109.114-.005.188.074.229.074.041 0 .142-.005.156-.027.013-.022.019-.249.175-.358a.468.468 0 0 1 .432-.041c0 .04.005.142.114.147.11.006.12-.013.217.02.096.032.21-.006.262.155.046-.014.156-.027.128-.183.054-.04.101-.068.216-.23.028-.04.074-.087.11-.147.095 0 .21-.02.363.115-.046.033-.074.054-.087.087.04.04.076.083.109.129.04.053.068.12.12.133.115.033.303-.013.514 0 .202.014.371.088.445.134.028-.013.028-.019.096-.005.068.014.12.019.046-.068.041.019.088.06.129.019.04-.041.073-.101.188-.115.115-.014.156.005.202-.115.06-.147-.147-.147-.147-.147s.096-.088.202-.203c.129-.12.276-.275.312-.467.06-.352-.284-.398-.284-.398l-1.67.513-2.04-.101-1.741.866h-.001Z" fill="#9D7B37"></path><path fill-rule="evenodd" clip-rule="evenodd" d="M6.943 14.954s-.054.068-.088.229c-.033.161-.019.142-.046.257-.028.115-.364 1.257-.238 1.642s.345.527.481.839c.028.068.054.109.068.17.047.201.006.357.06.56a.62.62 0 0 0 .143.229c.162.169.426.33.54.445.161.17.39.514.683.546.156.02.377-.046.56-.155.162-.101.262-.243.432-.324.12-.06.249-.082.364-.11.237-.046.453-.054.582-.027.197.041.661.183.918.183a2.5 2.5 0 0 0 .596-.082c.39-.115.863-.312 1.175-.399.183-.054.33-.068.48-.1.258-.061.473-.143.596-.299-.082-.095-.183-.243-.73-.238-.62.014-1.335.358-1.688.413-.352.055-.505.101-.899-.04-.386-.145-.398-.24-.398-.24s-.405-.283-.575-1.005c-.17-.722 0-1.248.44-1.749.115-.128.088-.243.088-.243s.29-.39.21-.756c-.087-.364-.648-.29-.648-.29l-3.106.543Z" fill="#7E6533"></path><path fill-rule="evenodd" clip-rule="evenodd" d="M7.41 16.17a.283.283 0 0 0-.033.147c.005.074.027.17.249.385.188.189.147.399.147.399s.095.02.353-.101c.202-.096.27.073.27.073a.572.572 0 0 1 .188-.06.413.413 0 0 0 .17-.054s.237.243.445.358c.189.101.298.17.39.101.088-.06.088-.183.083-.237a.707.707 0 0 0-.082-.143c-.06-.087-.156-.188-.162-.27-.014-.188.142-.412.109-.467-.033-.054-.156-.068-.459.041-.314.104-1.67-.172-1.67-.172h.002Z" fill="#39331F"></path><path fill-rule="evenodd" clip-rule="evenodd" d="M8.126 17.39s-.156-.147-.101-.863a.884.884 0 0 1 .196.02s.085.554-.095.844Z" fill="#292311"></path><path fill-rule="evenodd" clip-rule="evenodd" d="M7.017 14.407a.421.421 0 0 0 .06-.054c-.054.101-.304.505-.102 1.142.203.634.71 1.107 1.337 1.129.625.021.954-.285 1.33-.744.148-.183.317-.412.467-.568.224-.243.4-.311.4-.546 0-.481-.493-.697-1.217-.913-.724-.216-1.377-.189-1.716-.041-.33.16-.472.33-.56.595Z" fill="#302716"></path><path fill-rule="evenodd" clip-rule="evenodd" d="m9.342 17.607.054-.028s.013-.216.1-.21c.088.014.129.128.12.17-.005.04-.026.109-.114.1-.115.003-.161-.032-.161-.032Z" fill="#3F3824"></path><path fill-rule="evenodd" clip-rule="evenodd" d="M9.098 16.689s.054-.02.12.046c.055 0 .29-.027.364.02a.276.276 0 0 1 .096.086s-.276.06-.427 0c-.153-.052-.153-.152-.153-.152Z" fill="#2D2815"></path><path fill-rule="evenodd" clip-rule="evenodd" d="M10.314 16.73c0-.014-.147-.115-.303-.148-.027-.006-.033.013-.054.013-.014-.005-.02-.046-.02-.046l-.088.047s-.013.019.033.054c.04.032.11.06.129.114.019.055.019.074.027.082.005.006.1 0 .147-.027.047-.027.134-.072.129-.09Z" fill="#82764F"></path><path fill-rule="evenodd" clip-rule="evenodd" d="M8.935 17.284s.027-.188.21-.197c.188-.013.224.17.224.17l-.11.11c0-.004-.081-.118-.324-.083Z" fill="#2D2816"></path><path fill-rule="evenodd" clip-rule="evenodd" d="M10.123 16.473s-.101.109-.325.142c-.02-.028-.06-.082 0-.17.06-.087.128-.114.197-.087a.159.159 0 0 1 .128.115Z" fill="#574F35"></path><path fill-rule="evenodd" clip-rule="evenodd" d="M10.536 16.607c.005-.028-.014-.033 0-.047.013-.014.087-.04.1-.027.006.005 0 .027 0 .054 0 .026 0 .054-.013.073-.02.028-.074.041-.101.033-.027-.008-.033-.046-.033-.054.014-.005.046-.019.046-.032Zm.466-.295c0-.014.046-.042.074-.042.04 0 .04.033.046.042.014.005.014-.006.027.019.014.024.033.068.02.095-.014.028-.069.047-.082.041a.728.728 0 0 1-.085-.155Z" fill="#82764F"></path><path fill-rule="evenodd" clip-rule="evenodd" d="M10.063 16.67s.06.013.143.082c-.028.02-.069.041-.069.041s-.005-.063-.074-.124Z" fill="#6E6342"></path><path fill-rule="evenodd" clip-rule="evenodd" d="M9.929 16.068c-.014-.013.04-.046.074-.04.033.005.046.027.082.032.035.006.04-.014.054-.027.013-.014.06-.006.068 0l.014.019a.076.076 0 0 1 .027-.054.087.087 0 0 1 .074-.014c.005.02.033.088.027.101-.005.014-.087.033-.101.02.014.032.074.1.082.114.008.014-.06.046-.088.041a1.116 1.116 0 0 1-.314-.191h.001Zm.358-.453a.063.063 0 0 0-.028-.033c-.019-.006-.081 0-.081.033s.054.216.114.311c.069.096.115.175.162.197a.064.064 0 0 0 .082-.027c.005-.014.019-.115.013-.353-.005-.238-.013-.467-.027-.48-.014-.014-.069-.014-.088.013-.019.027-.142.298-.147.339Z" fill="#585136"></path><path fill-rule="evenodd" clip-rule="evenodd" d="M10.044 17.014s-.096-.06-.189-.02c-.087.042-.082.203-.082.203a.13.13 0 0 0 .12-.014c.06-.04.137-.109.15-.17Z" fill="#574F35"></path><path fill-rule="evenodd" clip-rule="evenodd" d="M10.224 17.23c-.005-.054-.054-.054-.054-.082a.061.061 0 0 1 .06-.047c.027 0 .054.033.088.054.032.02.082.054.087.096.005.041-.054.155-.12.155s-.047-.122-.06-.177h-.001Zm.527-.074s-.109.033-.1 0c.007-.033.032-.041.068-.041a.108.108 0 0 1 .068-.033.06.06 0 0 1 .04.014s.075-.033.096-.014c.022.019.006.019.02.041a.192.192 0 0 1 .033.082c0 .022-.083.068-.148.06-.077-.016-.063-.096-.077-.11Zm.637-.123s.033.019.005.04a.444.444 0 0 1-.196.061c-.082 0-.156.014-.156-.014 0-.027.068-.082.11-.095a.088.088 0 0 1 .068-.033c.032 0 .16-.014.196-.02.033-.005.06.014.041.042-.008.019-.068.019-.068.019Zm.188-.844s-.04.087-.087.087c-.046-.005-.046-.019-.046-.032 0-.02.046-.069.04-.082-.013 0-.046 0-.04-.033 0-.027.046-.06.087-.054a.18.18 0 0 1 .11-.04c.046 0 .087.013.087.04 0 .027-.054.087-.074.101-.022.022-.05.036-.077.014Zm-.623 1.615s-.053.005-.053.033c0 .013.013.013.032.005a.152.152 0 0 0 .033-.005c.005.005.005.032.046.032a.26.26 0 0 0 .096-.032c.033-.014.06-.028.06-.054-.013-.047-.04-.069-.082-.069a.109.109 0 0 0-.06.014s-.014-.028-.06 0c-.046.027-.041.027-.027.04.024.023.016.037.016.037v-.001Zm-.308.284c0-.014.068-.041.087-.033.02.006.074.11.074.12 0 .014-.068.047-.096.047-.027 0-.074-.047-.074-.054 0-.006.033-.014.033-.02.008-.013-.024-.046-.024-.06Zm-.216-.399c.013-.005.013-.019.032-.033a.048.048 0 0 1 .041-.005.067.067 0 0 1 .047-.033c.033-.005.06 0 .054.014 0 .04.027.068.027.1 0 .033-.019.075-.087.102a.483.483 0 0 1-.175.014c-.014-.006-.027-.06-.014-.088a.227.227 0 0 1 .074-.07Z" fill="#82764F"></path><path fill-rule="evenodd" clip-rule="evenodd" d="M10.516 17.708s-.047.027-.047.041a.124.124 0 0 0-.005.041c0 .008.06-.005.069-.014.002-.005-.017-.054-.017-.068Z" fill="#6E6342"></path><path fill-rule="evenodd" clip-rule="evenodd" d="M10.11 17.58c.027.005.073 0 .109.013.027.014.046.041.019.074-.028.032-.054.082-.115.073-.068-.005-.134-.04-.134-.068a.13.13 0 0 1 .033-.096c.027-.021.04-.008.087.003Z" fill="#585136"></path><path fill-rule="evenodd" clip-rule="evenodd" d="M10.076 17.607s-.087.068-.109.1c-.027.034-.161.203-.202.238a.514.514 0 0 1 .046-.068.28.28 0 0 0-.114.148c-.033.1.183.155.325.197.142.04.197.053.197.053a1.511 1.511 0 0 1-.134-.248c-.054-.129-.082-.142-.047-.202.028-.06.069-.101.069-.148a.825.825 0 0 0-.03-.07Z" fill="#574F35"></path><path fill-rule="evenodd" clip-rule="evenodd" d="M6.962 17.823c.02.003.04.003.06 0 .04-.006.467-.163.913-.134.333.02.663.074.986.162.56.147 1.257.44 1.707.606.12.046.238.129.325.161.344.134.357.134.56.17.238.032.48-.047.735-.101.311-.069.844-.102 1.311-.17.151-.02.3-.055.446-.1 0 0-.372.37-1.263.505-.36.054-.726.059-1.087.013a3.319 3.319 0 0 1-.615-.11c-.161-.046-.492-.169-.899-.27-.284-.073-.6-.128-.964-.196-.896-.164-1.869-.352-2.216-.535v-.002Z" fill="#302716"></path><path fill-rule="evenodd" clip-rule="evenodd" d="M5.956 16.134a15.64 15.64 0 0 1-.67.527l-.674.519c-.23.169-.453.344-.683.513-.23.17-.459.33-.703.487.217-.183.446-.353.675-.52.23-.166.468-.33.689-.498l.675-.52c.232-.169.456-.344.691-.508Zm-1.194 1.913s.243-.203.547-.487c.377-.352.838-.803.986-.885l-1.533 1.372ZM6.396 16.953c-.08.093-.166.18-.257.263l-.27.257c-.087.087-.17.175-.262.262-.096.082-.183.162-.285.238l.263-.257c.087-.088.183-.161.276-.249l.262-.257c.09-.09.178-.177.273-.257Zm.041.473c-.082.23-.179.453-.29.67-.229.459-.573 1.032-.724 1.325l1.014-1.995Z" fill="#CFB66C"></path><g fill="#D6B26C"><path d="m6.382 14.093.115.104a8.636 8.636 0 0 1-.284-.27 8.943 8.943 0 0 0-.284-.271l-.284-.262c-.023-.024-.048-.046-.072-.068a2.339 2.339 0 0 1-.07-.066l-.134-.134c-.385-.358-.762-.708-1.148-1.06.29.278.584.557.877.835l.252.239.078.068.07.06c.023.024.047.046.071.068.024.021.047.043.07.066l.285.27.284.262c.056.053.115.106.174.159Z"></path><path fill-rule="evenodd" clip-rule="evenodd" d="M5.809 14.722c-.563-.086-1.803-.275-2.276-.342a73.805 73.805 0 0 0-2.031-.236l.016.002-.026-.003h.007c.383.033.766.074 1.149.114l.329.035.244.025.29.033.168.024.116.017 1.148.183.573.096.226.04.067.012Zm-4.307-.578-.01-.001h.01Z"></path><path d="m5.927 14.743.166.022-.284-.043.118.021ZM4.492 14.549l.45.066.574.082c.189.028.386.055.574.074a19.05 19.05 0 0 1-.163-.028l-1.435-.194ZM1.518 14.146l1.037.14a32.297 32.297 0 0 1-1.037-.14ZM2.555 14.287l1.937.262-.697-.103a4.501 4.501 0 0 1-.14-.023 4.474 4.474 0 0 0-.144-.024l-.29-.033c-.117-.012-.238-.027-.358-.042l-.216-.026-.092-.011ZM5.956 15.123l-.011.003c-.321.095-.641.187-.967.273l-.208.056-1.5.42-.243.07-.486.134c-.079.023-.158.044-.239.066l-.264.074.085-.026-.074.02.014-.004c.157-.053.316-.107.473-.151l.486-.156c.16-.05.322-.1.482-.148l.49-.15c.139-.034.276-.07.413-.105.191-.049.382-.098.574-.144.312-.079.641-.157.97-.23l.003-.001.002-.001Z"></path><path fill-rule="evenodd" clip-rule="evenodd" d="m2.244 17.12.007-.003c.065-.025.128-.052.19-.08l.146-.062c.159-.069.318-.137.479-.202l.825-.363c.073-.032.147-.063.22-.093.204-.086.406-.172.605-.27.127-.06.256-.114.386-.17.148-.063.296-.126.44-.194l-.103.029.1-.044-.2.072-.014.003-.216.069a5.44 5.44 0 0 0-.426.155c-.175.076-.345.16-.513.245-.1.05-.198.099-.298.146l-.812.39-.364.17-.152.07-.3.132Zm.3-.132.06-.026-.038.017-.124.058-.124.052.226-.101Z"></path><path d="m2.424 17.877.899-.486.445-.243c.15-.08.293-.162.44-.249a7.68 7.68 0 0 0 .265-.149l.175-.1c.074-.04.148-.08.223-.118.074-.04.149-.078.222-.12l.128-.068c.255-.138.51-.274.758-.431-.292.117-.57.252-.847.387l-.08.039-.23.115c-.077.032-.152.07-.223.114-.116.064-.227.13-.34.197l-.1.06-.094.055c-.116.067-.23.133-.346.202l-.432.262c-.228.142-.456.282-.68.42l-.183.113ZM4.571 17.194c.339-.257 1.385-1.06 1.385-1.06l-2.721 2.038s.997-.721 1.336-.978ZM6.437 17.426a.767.767 0 0 1-.06.276 2.72 2.72 0 0 1-.11.257c-.04.082-.087.17-.133.249l-.047.077c-.034.055-.068.11-.095.166l-.276.486-.06.101a9.75 9.75 0 0 1-.23.38c.06-.155.14-.301.219-.445l.03-.055c.096-.162.183-.324.27-.492.043-.083.08-.169.115-.256l.035-.074c.028-.06.056-.119.08-.175l.043-.096a2.72 2.72 0 0 1 .071-.153l.027-.05a1.22 1.22 0 0 1 .121-.196ZM5.14 17.694a9.516 9.516 0 0 0-.378.352c.08-.066.16-.133.24-.202l.162-.14c.064-.056.126-.116.188-.175.062-.06.124-.12.189-.177.081-.072.165-.141.247-.21l.144-.12.068-.06a2.27 2.27 0 0 0 .208-.197c.012-.016.025-.028.038-.04a.31.31 0 0 0 .049-.056c-.033.005-.061.024-.086.042l-.029.018a.508.508 0 0 0-.109.074 2.288 2.288 0 0 0-.188.175l-.155.161c-.067.071-.135.142-.203.21a4.203 4.203 0 0 1-.171.16l-.018.016-.197.169ZM6.396 16.953s-.89.872-1.074 1.014l1.074-1.014Z"></path></g><path fill-rule="evenodd" clip-rule="evenodd" d="M7.41 19.667s-.27.357-.243.811c.073-.238.166-.601.243-.811Zm.257.358s-.096.973-.175 1.451c.112-.553.134-.506.175-1.45Zm1.79 1.509s-.405 1.188-.413 1.519c.087-.34.256-1.034.412-1.52Z" fill="#DEC270"></path><path fill-rule="evenodd" clip-rule="evenodd" d="M10.402 19.593s.655 1.082 1.147 2.006c-.133-.465-.439-1.317-1.147-2.006Z" fill="#CBAF59"></path><path fill-rule="evenodd" clip-rule="evenodd" d="M12.164 21.186c.36.636.685 1.292.973 1.964-.055-.464-.203-1.26-.973-1.964Z" fill="#E3C677"></path><path fill-rule="evenodd" clip-rule="evenodd" d="M17.344 22.781c.11-.068.325-.44.514-.533.188-.095.33-.114.5-.303.17-.197.216-.317.587-.473.52-.224.162-.513.162-.513.058-.057.119-.109.183-.156.134-.101.29-.224.277-.44-.02-.363-.088-.89-.386-1.197.29-.06.844-.1 1.189-.188.399-.101.582-.243.582-.243s-.23-.391.142-.784c.372-.394.675-.629.899-1.069-.257-.033-.648-.17-1.648.21.054.026.106.055.156.088 0 0-.615.17-.839.358-.39.33-.44.601-.863.803-.424.203-.85.148-1.202.312-.353.164-.405.303-.533.363.027.033-.006.088.046.134-.032.046-.224.358-.418.358.02.074.183.128.183.128s-.12.088-.426.11c.156.162.303.338.71.595-.032.069-.169.17-.114.298.06.128.216.303.838.445-.316.014-.688.088-1.188.02-.5-.06-.582-.096-.89-.02.032.033.12.033.196.12-.082.006-.596-.06-.77.17-.184.238-.263.629-.25.89-.095.047-.188.13-.141.299.046.17.29.224.445.33.156.115.17.156.317.129.156-.033.385-.189.52-.189.133 0 .229.101.229.101s.363-.175.399-.142c.032.033.005.243.04.276.037.025.446-.218.555-.287Z" fill="#F3D393"></path><path fill-rule="evenodd" clip-rule="evenodd" d="M8.908 9.692c0-.595.482-1.076 1.076-1.076h6.644c4.838 0 8.064 2.934 8.064 7.37 0 4.412-3.293 7.414-8.064 7.414H9.97a1.063 1.063 0 1 1 0-2.125h2.044V10.768h-2.03a1.076 1.076 0 0 1-1.076-1.076Zm7.698 1.074-2.218.002v10.504h2.218c3.382 0 5.622-2.106 5.622-5.286 0-3.204-2.173-5.22-5.622-5.22Z" fill="#fff" fill-opacity="0.8"></path></g><defs><clipPath id="DOGE_svg__a"><rect width="32" height="32" rx="16" fill="#fff"></rect></clipPath></defs></svg>