
<svg width="100%" height="100%" fill="none" xmlns="http://www.w3.org/2000/svg" viewBox="0 0 32 32"><rect width="32" height="32" rx="16" fill="#2D2D3B"></rect><g fill="#fff"><path d="M15.659 6.592a.397.397 0 0 1 .68 0l5.553 9.207a.397.397 0 0 1-.139.547l-5.45 3.22a.596.596 0 0 1-.607 0l-5.451-3.22a.397.397 0 0 1-.138-.546l5.552-9.208Z"></path><path d="M16.323 25.433a.397.397 0 0 1-.648 0l-5.667-7.982c-.025-.035.015-.08.052-.058l5.636 3.328c.187.11.42.11.606 0l5.64-3.328c.037-.021.077.023.052.058l-5.671 7.982Z"></path></g></svg>



