<svg width="100%" height="100%" fill="none" xmlns="http://www.w3.org/2000/svg" viewBox="0 0 32 32"><rect width="32" height="32" rx="16" fill="#13C270"></rect><path d="M20.804 19.003c0-1.859-1.255-3.024-3.338-3.83l-1.658-.627c-1.008-.448-1.792-.874-1.792-1.837 0-1.098 1.076-1.501 2.061-1.501.986 0 1.747.38 2.464 1.232.224.246.493.358.762.358.515 0 1.03-.425 1.03-1.075 0-.224-.067-.403-.246-.65-.65-.918-1.635-1.657-3.024-1.903V7.422c0-.65-.448-1.142-1.075-1.142-.628 0-1.098.493-1.098 1.142v1.792c-1.86.381-3.226 1.658-3.226 3.517 0 1.904 1.434 3.024 3.248 3.741l1.546.605c1.165.515 1.994.985 1.994 1.971 0 1.12-1.03 1.725-2.352 1.725-1.367 0-2.308-.56-3.226-1.658-.18-.246-.47-.336-.74-.336-.537 0-1.074.381-1.074 1.03 0 .202.044.404.246.673.806 1.164 2.038 1.993 3.584 2.262v1.837c0 .65.47 1.142 1.098 1.142.627 0 1.075-.515 1.075-1.142v-1.792c2.15-.314 3.74-1.68 3.74-3.786Z" fill="#fff"></path></svg>