<svg width="100%" height="100%" fill="none" xmlns="http://www.w3.org/2000/svg" viewBox="0 0 32 32"><rect width="32" height="32" rx="16" fill="#144BFF"></rect><g fill="#fff"><path d="M8.24 12.785a8.4 8.4 0 0 0 3.99 10.721 1 1 0 0 1-.861 1.806 10.41 10.41 0 0 1-4.976-5.332 10.4 10.4 0 0 1 4.976-13.292 1 1 0 0 1 .862 1.806 8.4 8.4 0 0 0-3.99 4.291Z"></path><path d="M20.177 18.573c0-1.594-1.075-2.592-2.861-3.283l-1.42-.538c-.865-.384-1.537-.749-1.537-1.574 0-.941.922-1.287 1.766-1.287.845 0 1.498.327 2.113 1.056a.873.873 0 0 0 .652.307.902.902 0 0 0 .883-.921c0-.192-.057-.346-.21-.557a3.934 3.934 0 0 0-2.593-1.632V8.646c0-.556-.384-.979-.921-.979-.538 0-.941.423-.941.98v1.535c-1.594.327-2.765 1.421-2.765 3.015 0 1.632 1.229 2.592 2.784 3.206l1.325.519c.998.441 1.709.844 1.709 1.69 0 .96-.884 1.478-2.016 1.478-1.171 0-1.978-.48-2.765-1.421-.154-.211-.403-.288-.634-.288-.46 0-.921.326-.921.883 0 .173.038.346.21.576.692.998 1.748 1.709 3.073 1.94v1.574c0 .556.403.979.94.979.538 0 .922-.442.922-.98v-1.535c1.844-.27 3.207-1.44 3.207-3.245Z"></path><path d="M24.4 16a8.4 8.4 0 0 0-4.63-7.506 1 1 0 0 1 .861-1.806 10.408 10.408 0 0 1 4.977 5.332 10.4 10.4 0 0 1-4.977 13.292 1.002 1.002 0 0 1-1.429-.85.998.998 0 0 1 .567-.956A8.398 8.398 0 0 0 24.4 16Z"></path></g></svg>