<svg width="100%" height="100%" fill="none" xmlns="http://www.w3.org/2000/svg" viewBox="0 0 32 32"><rect width="32" height="32" rx="16" fill="#0A7C80"></rect><path fill-rule="evenodd" clip-rule="evenodd" d="M21.54 13.6a.5.5 0 0 1 .5.5v1.259a.5.5 0 0 1-.5.5h-4.036v1.574c3.19.16 5.584.867 5.584 1.689v1.734c-.023.821-2.416 1.505-5.584 1.688V25.9a.5.5 0 0 1-.5.5h-2.008a.5.5 0 0 1-.5-.5v-3.356c-3.19-.16-5.584-.867-5.584-1.688V19.12c.023-.82 2.416-1.505 5.584-1.688V15.86H10.46a.5.5 0 0 1-.5-.5V14.1a.5.5 0 0 1 .5-.5h11.08ZM16 21.358c3.396 0 6.245-.594 6.928-1.37-.592-.661-2.712-1.186-5.424-1.323v1.143a.5.5 0 0 1-.5.5h-2.008a.5.5 0 0 1-.5-.5v-1.143c-2.712.137-4.832.662-5.424 1.324.706.775 3.532 1.369 6.928 1.369Z" fill="#fff"></path><path d="M30.669 9.6H1.33C3.801 3.95 9.44 0 16 0s12.2 3.95 14.669 9.6Z" fill="#2D2D3B"></path><g fill="#fff"><path d="M16.804 6.366a.46.46 0 0 1 .342-.163c.234 0 .418.188.418.413a.487.487 0 0 1-.129.316c-.303.372-.795.591-1.316.591-1.014 0-1.805-.77-1.805-1.761 0-.991.796-1.762 1.81-1.762.516 0 1.007.22 1.315.59.08.092.13.196.13.317a.42.42 0 0 1-.423.413.452.452 0 0 1-.34-.165v-.002a.856.856 0 0 0-.683-.313c-.526 0-.902.38-.902.926 0 .54.375.917.902.917a.86.86 0 0 0 .678-.314l.003-.003Z"></path><path fill-rule="evenodd" clip-rule="evenodd" d="M13.961 6.794c.063.095.111.2.111.312a.423.423 0 0 1-.422.417.463.463 0 0 1-.386-.219l-.675-.957h-.37v.725a.44.44 0 0 1-.441.451.442.442 0 0 1-.447-.451V4.504c0-.255.195-.446.452-.446h.864c.362 0 .677.11.902.312.227.203.355.49.355.825a1.1 1.1 0 0 1-.444.905l.501.694Zm-1.32-1.925h-.421v.667h.422a.377.377 0 0 0 .269-.09A.327.327 0 0 0 13 5.2a.318.318 0 0 0-.092-.24.379.379 0 0 0-.267-.091ZM22.356 4c-.428 0-.778.166-1.019.475-.238.306-.359.74-.359 1.263 0 .53.124.975.362 1.29.24.319.59.495 1.016.495.423 0 .772-.177 1.012-.495.237-.315.36-.76.36-1.29 0-.524-.12-.957-.358-1.263-.24-.309-.589-.475-1.014-.475Zm0 .84a.39.39 0 0 1 .198.047c.052.03.099.076.138.145.082.142.13.372.13.71 0 .343-.05.584-.133.736-.078.141-.185.205-.333.205-.148 0-.257-.064-.336-.206-.085-.151-.135-.392-.135-.735 0-.338.048-.568.13-.71a.375.375 0 0 1 .14-.145.4.4 0 0 1 .2-.047Z"></path><path d="m18.012 4.997.005-.032v-.001c.097-.569.605-.964 1.227-.964.69 0 1.205.485 1.205 1.152 0 .467-.24.833-.797 1.297l-.199.167h.674c.244 0 .437.178.437.422a.431.431 0 0 1-.437.432h-1.723a.442.442 0 0 1-.442-.441c0-.14.062-.264.177-.36l.97-.821c.174-.149.282-.263.346-.366a.524.524 0 0 0 .086-.296.364.364 0 0 0-.086-.257.304.304 0 0 0-.23-.089.307.307 0 0 0-.213.076.352.352 0 0 0-.105.217 1.774 1.774 0 0 1-.02.138v.003a.434.434 0 0 1-.44.387c-.24 0-.426-.22-.447-.461-.01-.07-.001-.126.012-.203ZM8.866 7.466h1.608a.409.409 0 0 0 .417-.413.409.409 0 0 0-.417-.413H9.312v-.562h.72a.393.393 0 0 0 .403-.393.394.394 0 0 0-.403-.399h-.72v-.403h1.104a.412.412 0 0 0 .418-.413.406.406 0 0 0-.418-.412h-1.55a.436.436 0 0 0-.442.441v2.525c0 .249.193.442.442.442Z"></path></g></svg>