<svg width="100%" height="100%" fill="none" xmlns="http://www.w3.org/2000/svg" viewBox="0 0 32 32"><rect width="32" height="32" rx="16" fill="#0A7C80"></rect><path fill-rule="evenodd" clip-rule="evenodd" d="M21.54 13.6a.5.5 0 0 1 .5.5v1.259a.5.5 0 0 1-.5.5h-4.036v1.574c3.19.16 5.584.867 5.584 1.689v1.734c-.023.821-2.416 1.505-5.584 1.688V25.9a.5.5 0 0 1-.5.5h-2.008a.5.5 0 0 1-.5-.5v-3.356c-3.19-.16-5.584-.867-5.584-1.688V19.12c.023-.82 2.416-1.505 5.584-1.688V15.86H10.46a.5.5 0 0 1-.5-.5V14.1a.5.5 0 0 1 .5-.5h11.08ZM16 21.358c3.396 0 6.245-.594 6.928-1.37-.592-.661-2.712-1.186-5.424-1.323v1.143a.5.5 0 0 1-.5.5h-2.008a.5.5 0 0 1-.5-.5v-1.143c-2.712.137-4.832.662-5.424 1.324.706.775 3.532 1.369 6.928 1.369Z" fill="#fff"></path><path d="M30.669 9.6H1.33C3.801 3.95 9.44 0 16 0s12.2 3.95 14.669 9.6Z" fill="#FF4754"></path><g fill="#fff"><path d="M9.525 7.523c.256 0 .447-.2.447-.451V4.883h.633a.412.412 0 0 0 .418-.413.406.406 0 0 0-.418-.412H8.45a.409.409 0 0 0-.417.412c0 .231.184.413.417.413h.634v2.189c0 .25.19.451.441.451Z"></path><path fill-rule="evenodd" clip-rule="evenodd" d="M14.072 7.106a.573.573 0 0 0-.111-.312l-.5-.694a1.1 1.1 0 0 0 .443-.905c0-.334-.128-.622-.355-.825-.225-.202-.54-.312-.902-.312h-.864a.439.439 0 0 0-.451.446v2.568c0 .251.19.451.446.451a.44.44 0 0 0 .441-.451v-.725h.37l.675.957c.094.135.223.22.386.22a.423.423 0 0 0 .422-.418ZM12.22 4.869h.422a.38.38 0 0 1 .267.09.318.318 0 0 1 .093.241.327.327 0 0 1-.091.246.377.377 0 0 1-.27.09h-.421v-.667Z"></path><path d="M17.146 6.203a.461.461 0 0 0-.342.163l-.003.003a.86.86 0 0 1-.677.314c-.528 0-.903-.377-.903-.917 0-.546.376-.926.902-.926.273 0 .499.1.682.313l.001.002c.09.102.208.165.34.165a.42.42 0 0 0 .422-.413.474.474 0 0 0-.13-.318C17.132 4.22 16.64 4 16.125 4c-1.014 0-1.81.77-1.81 1.762 0 .99.79 1.761 1.805 1.761.521 0 1.013-.22 1.316-.59a.487.487 0 0 0 .129-.317.415.415 0 0 0-.418-.413Z"></path><path fill-rule="evenodd" clip-rule="evenodd" d="M22.356 4c-.428 0-.778.166-1.019.475-.238.306-.359.74-.359 1.263 0 .53.124.975.361 1.29.241.319.591.495 1.017.495.423 0 .772-.177 1.012-.495.237-.315.36-.76.36-1.29 0-.524-.12-.957-.358-1.263-.24-.309-.589-.475-1.014-.475Zm0 .84c.081 0 .145.017.198.047.052.03.099.076.138.145.082.142.13.372.13.71 0 .343-.05.584-.133.736-.078.141-.185.205-.333.205-.148 0-.257-.064-.336-.206-.085-.151-.135-.392-.135-.735 0-.338.048-.568.13-.71a.376.376 0 0 1 .14-.145.4.4 0 0 1 .2-.047Z"></path><path d="M18.012 4.997A.625.625 0 0 0 18 5.2c.02.241.207.46.447.46a.434.434 0 0 0 .44-.386v-.003l.009-.058.011-.08a.352.352 0 0 1 .105-.217.307.307 0 0 1 .213-.076c.103 0 .179.035.23.089.051.054.086.14.086.257a.524.524 0 0 1-.085.296 1.724 1.724 0 0 1-.348.366l-.969.82a.463.463 0 0 0-.177.36c0 .245.198.442.442.442h1.723a.431.431 0 0 0 .437-.432.422.422 0 0 0-.437-.422h-.674l.199-.167c.556-.464.797-.83.797-1.297 0-.667-.516-1.152-1.205-1.152-.622 0-1.13.395-1.227.964v.001l-.005.032Z"></path></g></svg>