<svg width="14" height="12" viewBox="0 0 14 12" fill="none" xmlns="http://www.w3.org/2000/svg">
<path d="M13.2822 8.04298C13.3706 9.5553 12.6813 11.0352 10.7325 11.4073C10.4413 11.463 10.1395 11.4931 9.84231 11.4943C7.79377 11.5015 5.74493 11.5029 3.69639 11.4943C3.00196 11.4914 2.33771 11.3453 1.74082 10.9938C0.90769 10.5031 0.494934 9.76375 0.362023 8.86991C0.327576 8.63906 0.316601 8.40361 0.315992 8.17046C0.312029 6.70437 0.313858 5.23856 0.314162 3.77276C0.314162 3.12844 0.429393 2.50795 0.777218 1.94316C1.28295 1.12254 2.07859 0.711653 3.04463 0.562919C3.31838 0.52071 3.59945 0.504057 3.87685 0.503482C5.87479 0.498601 7.87273 0.499463 9.87066 0.502334C10.4605 0.503195 11.0309 0.606563 11.565 0.848901C12.5173 1.28075 13.0337 2.01982 13.2187 2.97884C13.269 3.23898 13.2815 3.50573 13.3136 3.7897C13.2239 3.7897 13.1697 3.7897 13.1154 3.7897C12.3143 3.7897 11.5128 3.78137 10.7117 3.79286C10.2856 3.79889 9.86762 3.86378 9.47833 4.05128C8.61746 4.46618 8.1227 5.35227 8.26719 6.23749C8.41474 7.13966 9.18995 7.87357 10.1462 8.00881C10.3157 8.03264 10.4892 8.04068 10.6608 8.04154C11.4772 8.04499 12.2935 8.04326 13.1099 8.04326C13.1645 8.04326 13.2191 8.04326 13.2818 8.04326L13.2822 8.04298ZM5.2398 2.87634C4.63195 2.87634 4.0244 2.87375 3.41654 2.8772C3.0739 2.87921 2.85685 3.11236 2.90654 3.41442C2.94312 3.63637 3.15682 3.78769 3.44123 3.78769C4.62128 3.78826 5.80102 3.78826 6.98106 3.78683C7.05148 3.78683 7.12373 3.78137 7.1914 3.76501C7.40388 3.71418 7.54197 3.54104 7.54258 3.33488C7.5435 3.06642 7.33285 2.87863 7.01703 2.87691C6.42442 2.87375 5.83211 2.87605 5.2395 2.87605L5.2398 2.87634Z" fill="white"/>
<path d="M11.6575 4.6957C12.0272 4.6957 12.397 4.69483 12.7668 4.6957C13.1018 4.69656 13.296 4.87429 13.2984 5.191C13.3021 5.6728 13.3021 6.15432 13.299 6.63613C13.2972 6.95082 13.1024 7.13602 12.7707 7.13717C12.0413 7.14004 11.3121 7.1432 10.5826 7.1366C9.90431 7.13057 9.31749 6.66685 9.23823 6.08857C9.14586 5.41467 9.66257 4.77408 10.3823 4.71666C10.8045 4.68277 11.2322 4.71063 11.6575 4.71063V4.6957ZM10.7655 5.41984C10.7097 5.41984 10.6539 5.4164 10.5984 5.42041C10.2424 5.44626 10.0573 5.80316 10.222 6.09919C10.3902 6.40126 11.1569 6.4024 11.2865 6.09977C11.3179 6.02626 11.3508 5.94701 11.3526 5.86978C11.3593 5.58408 11.1389 5.41869 10.7655 5.41984Z" fill="white"/>
<path d="M5.23943 2.87581C5.83205 2.87581 6.42435 2.87351 7.01697 2.87667C7.33278 2.87839 7.54343 3.06617 7.54252 3.33464C7.54191 3.5408 7.40381 3.71394 7.19134 3.76477C7.12366 3.78113 7.05111 3.78659 6.981 3.78659C5.80095 3.78802 4.62121 3.78802 3.44117 3.78745C3.15675 3.78745 2.94275 3.63613 2.90647 3.41418C2.85679 3.11212 3.07383 2.87897 3.41648 2.87696C4.02403 2.87351 4.63188 2.87609 5.23974 2.87609L5.23943 2.87581Z" fill="white"/>
</svg>
