<svg id="Layer_1" enable-background="new 0 0 450 450" fill='white' height="512" viewBox="0 0 450 450" width="512" xmlns="http://www.w3.org/2000/svg"><g><g><g><g><g id="XMLID_1_"><path d="m376.8 272.67c4.06 0 7.37 3.31 7.37 7.38 0 4.06-3.31 7.37-7.37 7.37s-7.37-3.31-7.37-7.37c0-4.07 3.31-7.38 7.37-7.38z"/><path d="m339.47 245.95v68.19h100.53v-68.19zm37.33 51.71c-9.72 0-17.61-7.9-17.61-17.61 0-9.72 7.89-17.62 17.61-17.62 9.71 0 17.61 7.9 17.61 17.62 0 9.71-7.9 17.61-17.61 17.61z"/><path d="m378.99 75.9v44.2h-13.29l-14.66-44.2z"/><path d="m354.91 120.1h-39.05l-39.33-59.19 53.51-15.82 9 27.15c.03.07.05.15.07.22z"/><path d="m303.58 120.1h-222.48l156.11-99.86 26.82 40.35c.08.13.16.26.25.39z"/><path d="m329.23 240.83v78.43c0 2.83 2.3 5.12 5.12 5.12h89.07v91.97c0 7.39-6.01 13.41-13.4 13.41h-386.62c-7.39 0-13.4-6.02-13.4-13.41v-272.61c0-7.39 6.01-13.4 13.4-13.4h386.62c7.39 0 13.4 6.01 13.4 13.4v91.97h-89.07c-2.82 0-5.12 2.29-5.12 5.12z"/></g></g></g></g></g></svg>