<svg xmlns="http://www.w3.org/2000/svg" viewBox="0 0 188 89" xmlns:v="https://vecta.io/nano"><path d="M96.6 3.9c22.3-.2 41.2 17.9 41.2 41 0 22.9-18.6 41-41 41s-41.1-18-41.1-41c-.1-22.7 18.4-41.1 40.9-41zm.1 1.6c-10.9.2-20.2 4-27.9 11.6-7.6 7.6-11.5 16.9-11.5 27.7.1 22 17.8 39.4 39.4 39.3 10.8 0 20-3.9 27.7-11.4 7.7-7.6 11.6-17 11.6-27.7 0-10.8-3.9-20.3-11.5-27.9-7.6-7.7-17-11.4-27.8-11.6z" fill="#717273"/><path d="M96.7 5.5c10.8.2 20.2 3.9 27.8 11.5 7.7 7.6 11.6 17.1 11.5 27.9 0 10.8-3.9 20.2-11.6 27.7-7.6 7.5-16.9 11.4-27.7 11.4-21.7.1-39.4-17.3-39.4-39.3 0-10.7 3.9-20.1 11.5-27.7C76.5 9.4 85.9 5.6 96.7 5.5zm30.1 61.7c-2.9.7-5.7 1.4-8.7 1.6-2.7.2-5.4.3-8.2.1-3.6-.2-7.3-.7-10.9-1.2-3.2-.5-6.4-.9-9.6-1.3-.4-.1-.8-.2-1.2.1.4.1.4.1.7.3l.5.1c.6.2 1.2.3 1.7.5 6.2 2 12.3 4.2 18.7 5.6 3.3.7 6.6 1.2 9.9 1 .6 0 1.2 0 1.6-.4 2-1.8 4-3.7 5.5-6 .1-.1.3-.1.1-.3.1-.3 0-.2-.1-.1zM58.9 44.4c.1 2.1.1 3.8.4 5.5.8 6 3 11.5 6.4 16.5.6.9.6.9 1.5.5 4-1.6 8.2-2.4 12.5-2.5 4.7-.1 9.3.4 13.9 1l11 1.5c2.7.4 5.5.6 8.3.7 1.7.1 3.4 0 5.1-.2 3.2-.2 6.2-.9 9.2-1.9 1.2-.4 2-1.1 2.7-2.3 2.3-4.3 3.9-8.9 4.5-13.8.5-4.7.4-9.3-.8-13.8-3.1-11.6-10-20-20.9-25.1-7.2-3.4-14.7-4.3-22.5-2.9-6.9 1.2-13.1 4.2-18.4 8.9-8.5 7.5-12.8 17-12.9 27.9zm22.9 24.1h-.5c-.1 0-.4 0-.4.1 0 .2.2.2.4.3 3.7 1.1 7.1 3 10.4 5 4 2.3 7.8 4.8 11.9 7.1 1 .6 1.9.7 3.1.4 2.8-.8 5.4-1.8 8-3.1.3-.2.6-.4 1-.6.1 0 .2-.1.2-.2 0-.2-.2-.1-.3-.1-1.2-.1-2.4-.2-3.5-.4-3.7-.7-7.4-1.7-11-2.9-4.7-1.5-9.3-3.1-14.1-4.4-1.9-.6-3.6-.9-5.2-1.2zm-7.5 6c-.2 0-.4.1-.7.1.1.2.3.4.5.5 2.9 2.1 6 3.8 9.3 5.1 2.7 1 5.5 1.7 8.4 2.1.1 0 .4.1.4-.1 0-.1-.1-.2-.2-.3-1.4-1.1-2.9-2-4.4-3a27.32 27.32 0 0 0-13.3-4.4z" fill="#fdfafa"/><g fill="#df031a"><path d="M133.4 35.7c-3.1-11.6-10-20-20.9-25.1-7.1-3.5-14.7-4.4-22.5-3-6.9 1.2-13.1 4.2-18.4 8.9-8.4 7.6-12.6 17.1-12.8 27.9.1 2.1.1 3.8.4 5.5.8 6 3 11.5 6.4 16.5.6.9.6.9 1.5.5 4-1.6 8.2-2.4 12.5-2.5 4.7-.1 9.3.4 13.9 1l11 1.5c2.7.4 5.5.6 8.3.7 1.7.1 3.4 0 5.1-.2 3.2-.2 6.2-.9 9.2-1.9 1.2-.4 2-1.1 2.7-2.3 2.3-4.3 3.9-8.9 4.5-13.8.5-4.5.3-9.2-.9-13.7zM122.2 27c-.1 0-.1-.1-.2-.1.3-.2.3-.1.2.1zm-13.3-6.7c0-.1.3 0 .4-.1l2.3.3c.5.1.7-.1.9-.5.3-.7.6-1.4 1-2 .1-.1.1-.3.3-.2.2 0 .2.2.2.3l.3 1.9c.2.9.2 1 1.1 1.1.8.1 1.6.1 2.4.5-.5.5-1.3.8-1.9 1.1-.9.5-.9.5-.8 1.5l.3 1.8c0 .1 0 .3-.1.4-.1-.1-.3-.1-.4-.2-.5-.5-1.1-.9-1.5-1.5-.4-.4-.7-.4-1.2-.2-.8.4-1.4 1-2.3 1.1.2-.8.7-1.5 1-2.3.2-.5.2-1-.3-1.3-.5-.4-.9-.8-1.3-1.3-.2 0-.5-.1-.4-.4zm-21.6-4.9c0-.3.3-.2.4-.2h5.9c.6 0 .8-.2 1-.7.5-1.8 1.2-3.7 1.8-5.5.1-.2.2-.3.2-.5.2.1.2.4.3.6.5 1.6 1 3.2 1.6 4.8.4 1.3.4 1.3 1.8 1.3h5.1c.2 0 .5-.1.6.1.1.3-.2.4-.4.5-1.3.9-2.6 1.9-3.9 2.8-1.4 1-1.4 1-.8 2.6l1.5 4.4c.1.2.1.4 0 .5-.2.2-.4 0-.6-.1-1.5-1-2.9-2-4.4-3.1-.6-.5-1-.4-1.6 0-1.3 1-2.6 1.9-4 2.9-.3.2-.6.6-.8.4-.3-.2 0-.6.1-.9.5-1.6 1-3.2 1.6-4.8.2-.7.1-1-.4-1.4-1.6-1.1-3.1-2.2-4.7-3.4-.2 0-.3-.1-.3-.3zm-11.5 6c.7-.1 1.4-.3 2.1-.3.6 0 1-.3 1.1-.9.1-.8.1-1.7.6-2.5.6.6.8 1.5 1.2 2.2.3.5.6.7 1.1.6l2.2-.3h.4c-.1.1-.1.2-.2.3-.6.5-1.2 1.1-1.8 1.6-.3.3-.4.5-.2 1 .4.7.7 1.4 1.1 2.1.1.1.1.3 0 .4s-.2 0-.4 0c-.5-.3-1.1-.6-1.6-.9-1-.5-1-.5-1.8.2l-1.2 1.2c-.1.1-.3.3-.5.1-.1-.1-.1-.3-.1-.4l.3-1.8c.1-1 .1-1-.8-1.5-.5-.3-1.1-.6-1.6-.9l-.3-.3c.2.2.3.1.4.1zm-9 7.7c-.1 0-.3-.1-.4-.1l.3-.3c.2-.1.3-.1.5-.2.7-.2 1-.7.8-1.4v-.6c0-.3.1-.3.3-.2.1 0 .2.1.2.2.5.9 1.1 1 2 .6.1-.1.4-.1.5.1 0 .1 0 .3-.1.4-.8.9-.3 1.5.3 2.2.1.1.3.2.2.4-.1.1-.3 0-.4 0s-.3-.1-.4-.1c-1-.2-.9-.4-1.6.6-.1.2-.2.3-.3.5 0 .1-.2.1-.2.1-.1 0-.1-.1-.2-.2V31c.3-1.3-.4-1.8-1.5-1.9zm22.8 26.1c-1.4 3.1-3.9 4.7-7.2 5.2-1.6.2-3.2.3-4.8.3-3.2.1-6-.9-8.7-2.4-.7-.4-.9-.8-.9-1.6V36.3c0-.8.3-1.4.8-2 1.6-1.8 3.6-2.9 5.9-3.3 2.4-.4 4.9-.5 7.3 0 3.2.6 6.7 3.8 6.5 7.9-.1 1.8-.8 3.1-2.1 4.3-.9.8-.9.8.1 1.3 3.8 2.1 4.8 7 3.1 10.7zM100 36.9c-.5 0-.7.1-.7.6v22.6c0 .4-.2.6-.6.6h-5.1a.47.47 0 0 1-.5-.5V38.1c0-.9.2-1.1-1-1.1-.5 0-1-.1-1.6 0-.8 0-1.2-.3-1.5-1a8.79 8.79 0 0 0-2.4-3.6l-1.2-.9c-.3-.2-.7-.2-.9-.7.4 0 .7-.1 1.1-.1h23.5c.1 0 .3-.1.4.1 0 0-.2.1-.3.2-2.5 1.2-4.6 3-6.2 5.2-.3.5-.7.7-1.3.7-.5-.1-1.1 0-1.7 0zm25.3 21.5c-1.9 1.3-4 1.9-6.1 2.3-2.7.5-5.4.6-8.1-.2-4.1-1.2-6.8-3.9-8.3-7.8-1.7-4.8-1.8-9.6.5-14.2 2-4.1 5.3-6.6 9.8-7.5 2.5-.5 4.9-.5 7.4.2 1.5.4 2.9 1.2 4.1 2.1.4.3.6.6.3 1.2-.7 1.3-1.4 2.6-2 3.9-.2.5-.4.5-.8.2-1-.9-2.2-1.4-3.5-1.8-2.9-1.1-7.7-.3-9.6 4.3-1.3 3.1-1.4 6.2-.3 9.4 1.5 4.4 5.9 5.8 9.7 4.8.4-.1.8-.3 1.2-.5.3-.2.5-.4.5-.8v-4.4c0-.5-.3-.5-.6-.5h-2.4c-.8 0-.9-.1-.9-.9v-4c0-.6.2-.7.7-.7h8.6c.6 0 .8.2.8.8v12.5c.1.7-.3 1.2-1 1.6zm1.1-29.4c-.2.1-.4.2-.7.2-.6 0-.7.3-.7.8 0 .3 0 .7-.1 1 0 .2-.3.2-.3.1-.5-1.2-1.3-1.6-2.5-1h-.3c0-.1.1-.2.1-.2 0-.1.1-.2.2-.2.8-.7.9-1.4.2-2.2-.1-.1-.1-.2-.1-.4 1.1.2 2.2.5 2.8-.9 0-.1.2-.1.2-.1v.6c-.2 1 0 1.8 1.2 1.9.2 0 .3.2.4.3 0 0-.2 0-.4.1zm-11 48.3l-3.5-.4c-3.7-.7-7.4-1.7-11-2.9-4.7-1.5-9.3-3.1-14.1-4.4-1.7-.5-3.4-.8-5.1-1.1h-.5c-.1 0-.4 0-.4.1 0 .2.2.2.4.3 3.7 1.1 7.1 3 10.4 5 4 2.3 7.8 4.8 11.9 7.1 1 .6 1.9.7 3.1.4 2.8-.8 5.4-1.8 8-3.1.3-.2.6-.4 1-.6.1 0 .2-.1.2-.2-.1-.2-.3-.2-.4-.2zm11.4-9.9s-.1-.1-.2 0c-2.8.7-5.6 1.4-8.6 1.6-2.7.2-5.4.3-8.2.1-3.6-.2-7.3-.7-10.9-1.2-3.1-.5-7.4-1.1-10.6-1.5-.1 0-.1 0-.2.1s0 .2.1.3c.8.2 2.3.6 2.8.8 6.2 2 12.3 4.2 18.7 5.6 3.3.7 6.6 1.2 9.9 1 .6 0 1.2 0 1.6-.4 2-1.8 3.9-3.6 5.4-5.9.3-.4.3-.5.2-.5zM92 82c-1.4-1.1-2.9-2-4.4-3-4.1-2.6-8.5-4.1-13.3-4.4-.2 0-.4.1-.7.1.1.2.3.4.5.5 2.9 2.1 6 3.8 9.3 5.1 2.7 1 5.5 1.7 8.4 2.1.1 0 .4.1.4-.1.1-.1-.1-.2-.2-.3z"/><path d="M126.8 67.3c.1-.1.2-.2.3-.1s0 .2-.1.3l-.2-.2z"/></g><path d="M68 46.6V36.4c0-.8.3-1.4.8-2 1.6-1.8 3.6-2.9 5.9-3.3 2.4-.4 4.9-.5 7.3 0 3.2.6 6.7 3.8 6.5 7.9-.1 1.8-.8 3.1-2.1 4.3-.9.8-.9.8.1 1.3 3.9 2.1 4.9 6.9 3.2 10.7-1.4 3.1-3.9 4.7-7.2 5.2-1.6.2-3.2.3-4.8.3-3.2.1-6-.9-8.7-2.4-.7-.4-.9-.8-.9-1.6-.1-3.4-.1-6.8-.1-10.2zm9.6.5h-2.1c-.6 0-.7.2-.7.8v5.5c0 1.1 0 1.1 1.1 1.4 1.6.5 3.3.3 4.9.1.3 0 .6-.2.9-.4 1.4-1.1 1.7-2.5 1.6-4.1-.2-1.6-1.1-2.5-2.6-3-1.1-.4-2.2-.3-3.1-.3zm-.7-4.8c.5-.1 1-.2 1.3-.2.7-.1 1.5-.1 2.2-.5.8-.5 1.3-1.5 1.2-2.4s-.7-1.8-1.5-2.3-1.8-.6-2.8-.4c-.9.2-1.9.7-2.2 1.5-.4.8-.2 1.8-.3 2.7 0 .3-.1.5 0 .8.1.9 1.1.9 2.1.8zm49.4 8.2v6.1c0 .9-.3 1.4-1 1.8-1.9 1.3-4 1.9-6.1 2.3-2.7.5-5.4.6-8.1-.2-4.1-1.2-6.8-3.9-8.3-7.8-1.7-4.8-1.8-9.6.5-14.2 2-4.1 5.3-6.6 9.8-7.5 2.5-.5 4.9-.5 7.4.2 1.5.4 2.9 1.2 4.1 2.1.4.3.6.6.3 1.2-.7 1.3-1.4 2.6-2 3.9-.2.5-.4.5-.8.2-1-.9-2.2-1.4-3.5-1.8-2.9-1.1-7.7-.3-9.6 4.3-1.3 3.1-1.4 6.2-.3 9.4 1.5 4.4 5.9 5.8 9.7 4.8.4-.1.8-.3 1.2-.5.3-.2.5-.4.5-.8v-4.4c0-.5-.3-.5-.6-.5h-2.4c-.8 0-.9-.1-.9-.9v-4c0-.6.2-.7.7-.7h8.6c.6 0 .8.2.8.8v6.2zM97 30.7h12.1c.1 0 .3-.1.4.1 0 0-.2.1-.3.2-2.5 1.2-4.6 3-6.2 5.2-.3.5-.7.7-1.3.7-.6-.1-1.2 0-1.8 0-.5 0-.7.1-.7.6v22.6c0 .4-.2.6-.6.6h-5.1a.47.47 0 0 1-.5-.5V38.1c0-.9.2-1.1-1-1.1-.5 0-1-.1-1.6 0-.7 0-1.1-.3-1.4-1a8.79 8.79 0 0 0-2.4-3.6l-1.2-.9c-.3-.2-.7-.2-.9-.7.4 0 .7-.1 1.1-.1H97zm-6.2-15.5h2.8c.6 0 .8-.2 1-.7L96.4 9c.1-.2.2-.3.2-.5.2.1.2.4.3.6l1.6 4.8c.4 1.3.4 1.3 1.8 1.3h5.1c.2 0 .5-.1.6.1.1.3-.2.4-.4.5l-3.9 2.8c-1.4 1-1.4 1-.8 2.6l1.5 4.4c.1.2.1.4 0 .5-.2.2-.4 0-.6-.1l-4.4-3.1c-.6-.5-1-.4-1.6 0l-4 2.9c-.3.2-.6.6-.8.4-.3-.2 0-.6.1-.9l1.6-4.8c.2-.7.1-1-.4-1.4l-4.7-3.4c-.1-.1-.2-.2-.2-.3 0-.3.3-.2.4-.2h3zm18.5 5l2.3.3c.5.1.7-.1.9-.5.3-.7.6-1.4 1-2 .1-.1.1-.3.3-.2.2 0 .2.2.2.3l.3 1.9c.2.9.2 1 1.1 1.1.8.1 1.6.1 2.4.5-.5.5-1.3.8-1.9 1.1-.9.5-.9.5-.8 1.5l.3 1.8c0 .1 0 .3-.1.4-.1-.1-.3-.1-.4-.2-.5-.5-1.1-.9-1.5-1.5-.4-.4-.7-.4-1.2-.1-.8.4-1.4 1-2.3 1.1.2-.8.7-1.5 1-2.3.2-.5.2-1-.3-1.3-.5-.4-.9-.8-1.3-1.3-.1-.1-.4-.3-.3-.5-.1-.1.2 0 .3-.1zM77.9 26l.3-1.8c.1-1 .1-1-.8-1.5l-1.6-.9-.3-.3c.1 0 .2-.1.3-.1.7-.1 1.4-.3 2.1-.3.6 0 1-.3 1.1-.9.1-.8.1-1.7.6-2.5.6.6.8 1.5 1.2 2.2.3.5.6.7 1.1.6l2.2-.3h.4c-.1.1-.1.2-.2.3l-1.8 1.6c-.3.3-.4.5-.2 1l1.1 2.1c.1.1.1.3 0 .4s-.2 0-.4 0l-1.6-.9c-1-.5-1-.5-1.8.2l-1.2 1.2c-.1.1-.3.3-.5.1 0 .1 0 0 0-.2zm44.3 1c1.1.2 2.2.5 2.8-.9 0-.1.2-.1.2-.1v.6c-.2 1 0 1.8 1.2 1.9.2 0 .3.2.4.3-.2.1-.4.1-.5.2-.2.1-.4.2-.7.2-.6 0-.7.3-.7.8 0 .3 0 .7-.1 1 0 .2-.3.2-.3.1-.5-1.2-1.3-1.6-2.5-1h-.3c0-.1.1-.2.1-.2 0-.1.1-.2.2-.2.8-.7.9-1.4.2-2.2.1-.2.1-.4 0-.5h0zM71 30.1c-.1 0-.3-.1-.4-.1-1-.2-.9-.4-1.6.6-.1.2-.2.3-.3.5 0 .1-.2.1-.2.1-.1 0-.1-.1-.2-.2v-.1c.2-1.2-.4-1.7-1.5-1.8-.1 0-.3-.1-.4-.1l.3-.3c.2-.1.3-.1.5-.2.7-.2 1-.7.8-1.4v-.6c0-.3.1-.3.3-.2.1 0 .2.1.2.2.5.9 1.1 1 2 .6.1-.1.4-.1.5.1 0 .1 0 .3-.1.4-.8.9-.3 1.5.3 2.2.1.1.3.2.2.4 0 0-.2-.1-.4-.1zm51.3-3.1c-.1 0-.1-.1-.2-.1.2-.2.2-.1.2.1h0z" fill="#fdfafa"/><path d="M77.6 47.1c.9 0 2-.1 3 .3 1.5.5 2.4 1.4 2.6 3s-.2 3.1-1.6 4.1c-.3.2-.6.3-.9.4-1.6.2-3.3.4-4.9-.1-1.1-.3-1.1-.3-1.1-1.4v-5.5c0-.5.1-.8.7-.8h2.2zm-.6-5c-.7-.1-1.5.3-2-.1-.5-.5-.2-1.4-.2-2.2 0-1.9.4-2.6 1.9-3.1 1.6-.5 3.4-.1 4.4 1.1s.5 3.6-1.1 4.1c-1.1.2-2 .1-3 .2z" fill="#df031a"/></svg>