<svg id="Layer_1" data-name="Layer 1" xmlns="http://www.w3.org/2000/svg" viewBox="0 0 27.27 7.79">
  <defs>
    <style>
      .cls-1 {
        fill: #fff;
      }

      .cls-2 {
        fill: #ec1c24;
      }
    </style>
  </defs>
  <title>Booming</title>
  <g>
    <g>
      <path class="cls-1" d="M7.62,5.86H8.75V7.21a1.69,1.69,0,0,1-.52.26,2.25,2.25,0,0,1-.58.08,1.88,1.88,0,0,1-.72-.13,1.59,1.59,0,0,1-.56-.34A1.45,1.45,0,0,1,6,6.56a1.71,1.71,0,0,1-.13-.65A1.76,1.76,0,0,1,6,5.25a1.39,1.39,0,0,1,.34-.51,1.5,1.5,0,0,1,.54-.34,1.9,1.9,0,0,1,.7-.12,2.22,2.22,0,0,1,.37,0,1.59,1.59,0,0,1,.33.09,1.74,1.74,0,0,1,.27.14,1.84,1.84,0,0,1,.22.17L8.56,5a.2.2,0,0,1-.13.09.23.23,0,0,1-.17,0L8.09,5a.44.44,0,0,0-.16-.06l-.17,0h-.2A1.12,1.12,0,0,0,7.18,5a.83.83,0,0,0-.28.21.92.92,0,0,0-.18.32,1.16,1.16,0,0,0-.07.42,1.52,1.52,0,0,0,.07.45,1,1,0,0,0,.2.34,1,1,0,0,0,.31.21,1.24,1.24,0,0,0,.4.07.88.88,0,0,0,.24,0l.21-.07V6.4H7.77a.16.16,0,0,1-.11,0,.13.13,0,0,1,0-.1Z"/>
      <path class="cls-1" d="M12.08,7.51H11.5a.24.24,0,0,1-.25-.16l-.18-.55H9.85l-.19.55a.31.31,0,0,1-.09.11.2.2,0,0,1-.15,0H8.84l1.24-3.2h.76ZM10.9,6.29l-.3-.88a2,2,0,0,1-.07-.19c0-.08,0-.16-.08-.25a1.82,1.82,0,0,1-.07.25.93.93,0,0,1-.07.2L10,6.29Z"/>
      <path class="cls-1" d="M15.93,4.31v3.2h-.66V5.67a.71.71,0,0,1,0-.14.76.76,0,0,1,0-.15L14.44,7a.23.23,0,0,1-.11.11.24.24,0,0,1-.15,0h-.1a.29.29,0,0,1-.16,0,.22.22,0,0,1-.1-.11L13,5.38s0,.1,0,.15v2h-.65V4.31H13l.06,0a.43.43,0,0,1,0,.07L14,6.05a1.3,1.3,0,0,0,.08.17c0,.06,0,.13.08.19a1.08,1.08,0,0,1,.08-.19A1.42,1.42,0,0,1,14.29,6l.82-1.61.05-.07.05,0h.72Z"/>
      <path class="cls-1" d="M17.29,4.88v.75h1v.55h-1v.76h1.32v.57H16.55V4.31h2.06v.57Z"/>
      <path class="cls-1" d="M20.83,5a.19.19,0,0,1-.07.08.12.12,0,0,1-.09,0l-.11,0L20.43,5l-.17-.08a.66.66,0,0,0-.21,0,.44.44,0,0,0-.31.09.3.3,0,0,0-.11.24.21.21,0,0,0,.06.16.71.71,0,0,0,.17.11l.22.09.27.08.26.11a1,1,0,0,1,.23.17.72.72,0,0,1,.16.24.83.83,0,0,1,.06.34A.94.94,0,0,1,21,6.9a1,1,0,0,1-.22.34,1.11,1.11,0,0,1-.36.23,1.44,1.44,0,0,1-.49.08,1.53,1.53,0,0,1-.3,0l-.3-.09A1.69,1.69,0,0,1,19,7.3a1,1,0,0,1-.22-.17L19,6.78a.17.17,0,0,1,.06-.06.17.17,0,0,1,.1,0,.33.33,0,0,1,.13,0l.15.1.2.09a.68.68,0,0,0,.26,0,.48.48,0,0,0,.31-.09.32.32,0,0,0,.11-.28.24.24,0,0,0-.06-.18.4.4,0,0,0-.16-.12,1.23,1.23,0,0,0-.23-.08l-.26-.08L19.39,6a1,1,0,0,1-.23-.17A.89.89,0,0,1,19,5.61a1.08,1.08,0,0,1-.06-.38A.84.84,0,0,1,19,4.88a1,1,0,0,1,.21-.31,1,1,0,0,1,.35-.21A1.16,1.16,0,0,1,20,4.28l.28,0,.27.07a1,1,0,0,1,.23.11,1,1,0,0,1,.2.14Z"/>
    </g>
    <g>
      <path class="cls-2" d="M3.76.34A2.23,2.23,0,0,1,4.32.4,1,1,0,0,1,4.7.58a.64.64,0,0,1,.22.27A1,1,0,0,1,5,1.21a.76.76,0,0,1,0,.21.76.76,0,0,1-.09.18.87.87,0,0,1-.17.16,1.46,1.46,0,0,1-.25.13.91.91,0,0,1,.47.24.68.68,0,0,1,.15.45A1,1,0,0,1,5,3a.76.76,0,0,1-.23.3,1.07,1.07,0,0,1-.38.21,1.61,1.61,0,0,1-.51.07H2.58V.34ZM3.32.9v.79h.39l.22,0a.43.43,0,0,0,.17-.06.29.29,0,0,0,.1-.12.38.38,0,0,0,0-.19.5.5,0,0,0,0-.19A.25.25,0,0,0,4.12,1,.34.34,0,0,0,4,.92a.68.68,0,0,0-.21,0ZM3.85,3a.88.88,0,0,0,.24,0,.39.39,0,0,0,.14-.1.27.27,0,0,0,.07-.14.39.39,0,0,0,0-.15.41.41,0,0,0,0-.16.21.21,0,0,0-.08-.11.31.31,0,0,0-.15-.08.79.79,0,0,0-.23,0H3.32V3Z"/>
      <path class="cls-2" d="M16.28.34v3.2h-.66V1.7a.71.71,0,0,1,0-.14.76.76,0,0,1,0-.15l-.85,1.65a.23.23,0,0,1-.11.11.24.24,0,0,1-.15,0h-.1a.29.29,0,0,1-.16,0,.22.22,0,0,1-.1-.11l-.85-1.65c0,.05,0,.1,0,.15v2h-.65V.34h.65l.07,0,0,0a.43.43,0,0,1,0,.07l.83,1.62a1.3,1.3,0,0,0,.08.17c0,.06,0,.12.08.19a1.08,1.08,0,0,1,.08-.19,1.42,1.42,0,0,1,.08-.18L15.46.46l0-.07a.09.09,0,0,1,.05,0l.07,0h.65Z"/>
      <path class="cls-2" d="M17.64,3.54H16.9V.34h.74Z"/>
      <path class="cls-2" d="M21.06.34v3.2h-.39l-.14,0a.35.35,0,0,1-.12-.1L18.9,1.51a1,1,0,0,1,0,.17.76.76,0,0,1,0,.15V3.54h-.66V.34h.53l.06,0,0,.06,1.52,1.92c0-.06,0-.12,0-.18a.92.92,0,0,1,0-.16V.34Z"/>
      <path class="cls-2" d="M23.22,1.88h1.13V3.24a1.81,1.81,0,0,1-.52.26,2.25,2.25,0,0,1-.58.08,1.81,1.81,0,0,1-.72-.13A1.59,1.59,0,0,1,22,3.11a1.45,1.45,0,0,1-.35-.52,1.54,1.54,0,0,1-.13-.65,1.76,1.76,0,0,1,.12-.66A1.39,1.39,0,0,1,22,.77a1.55,1.55,0,0,1,.53-.34,2,2,0,0,1,.7-.12,2.25,2.25,0,0,1,.38,0,1.35,1.35,0,0,1,.32.09,1.47,1.47,0,0,1,.28.14,1.2,1.2,0,0,1,.21.17l-.21.32a.18.18,0,0,1-.13.1.23.23,0,0,1-.17,0L23.69,1A.44.44,0,0,0,23.53,1l-.17,0h-.2a.92.92,0,0,0-.38.07.83.83,0,0,0-.28.21.92.92,0,0,0-.18.32,1.16,1.16,0,0,0-.07.42,1.52,1.52,0,0,0,.07.45,1,1,0,0,0,.2.34,1,1,0,0,0,.31.21,1.24,1.24,0,0,0,.4.07.88.88,0,0,0,.24,0l.21-.07V2.42h-.32a.2.2,0,0,1-.11,0,.17.17,0,0,1,0-.1Z"/>
      <g>
        <path class="cls-2" d="M11.59,2.1a1,1,0,0,1-1,.84h0a.75.75,0,0,1-.34-.08,1.25,1.25,0,0,1-.37-.24c-.08-.06-.2-.18-.31-.28-.12.12-.37.4-.4.42a3.85,3.85,0,0,0,.44.39h0a1.58,1.58,0,0,0,.75.35l.25,0h.21a1.61,1.61,0,0,0,1.35-1.15Z"/>
        <path class="cls-2" d="M9.8,1.24a1,1,0,0,1,.78-.36,1,1,0,0,1,.65.23L11,1.29l1.13.52L12,.57l-.3.21A1.55,1.55,0,0,0,10.58.31,1.59,1.59,0,0,0,9.35.89h0S8.45,2,8.09,2.35L8,2.4H8l-.07.07h0l-.07.06h0l0,0h0l-.07,0h0l-.06,0h0l0,0h0l0,0-.27.11A.6.6,0,0,1,7,3a1,1,0,0,1,0-2.06,1.07,1.07,0,0,1,.82.33,5.63,5.63,0,0,1,.39.42l.38-.44c0-.07-.27-.3-.29-.32A1.65,1.65,0,0,0,7,.32a1.6,1.6,0,0,0-.09,3.2h.24a1.06,1.06,0,0,0,.2,0l.18-.07h0l0,0,0,0,.06,0h0l.18-.1,0,0L8,3.15l0,0,.07,0,0,0L8.18,3l0,0h0l.11-.09,0,0,.08-.07,0,0h0l.06-.06s.34-.33.55-.59S9.56,1.52,9.8,1.24Z"/>
      </g>
    </g>
  </g>
</svg>
