<svg id="aa878161-bb9f-4fc3-949d-434dcb7a39d4" data-name="Layer 1" xmlns="http://www.w3.org/2000/svg" viewBox="0 0 79.34 22.59"><defs><style>.e0523137-555e-4683-a7b2-bd804fa61187,.f7fd3357-6a2f-4a20-af50-56043efa9d29{fill:#259bff;}.e0523137-555e-4683-a7b2-bd804fa61187{fill-rule:evenodd;}</style></defs><path class="f7fd3357-6a2f-4a20-af50-56043efa9d29" d="M13.33379,22.28055c1.07539,0,1.46968-.59745,1.46968-1.171,0-1.48761-2.35988-.97383-2.35988-1.87,0-.37637.34653-.63326.8185-.63326a1.50365,1.50365,0,0,1,1.153.47793l.29872-.36441a1.87264,1.87264,0,0,0-1.41-.5616c-.7886,0-1.37409.454-1.37409,1.11124,0,1.42186,2.35988.84834,2.35988,1.87594,0,.31067-.227.693-.938.693a1.64362,1.64362,0,0,1-1.24862-.57352l-.29873.38237A1.98264,1.98264,0,0,0,13.33379,22.28055Z"/><path class="f7fd3357-6a2f-4a20-af50-56043efa9d29" d="M21.76948,22.20885V18.66607H23.036V18.224H20.013v.44211h1.26056v3.54278Z"/><path class="f7fd3357-6a2f-4a20-af50-56043efa9d29" d="M30.09755,22.28055a1.47994,1.47994,0,0,0,1.631-1.625V18.224H31.2267v2.42557a1.12781,1.12781,0,1,1-2.25231,0V18.224h-.50186V20.6615A1.47913,1.47913,0,0,0,30.09755,22.28055Z"/><path class="f7fd3357-6a2f-4a20-af50-56043efa9d29" d="M38.802,22.20885a1.99308,1.99308,0,1,0,0-3.98489H37.43982v3.98489Zm0-.44208h-.86627v-3.1007H38.802a1.55049,1.55049,0,0,1,0,3.1007Z"/><path class="f7fd3357-6a2f-4a20-af50-56043efa9d29" d="M46.89708,22.20885V18.224h-.49585v3.98489Z"/><path class="f7fd3357-6a2f-4a20-af50-56043efa9d29" d="M54.42467,22.28055a1.95094,1.95094,0,0,0,1.98351-2.06117,1.98208,1.98208,0,1,0-3.961,0A1.94622,1.94622,0,0,0,54.42467,22.28055Zm0-.44211A1.47535,1.47535,0,0,1,52.961,20.21938a1.47389,1.47389,0,1,1,2.93345,0A1.48319,1.48319,0,0,1,54.42467,21.83844Z"/><path class="f7fd3357-6a2f-4a20-af50-56043efa9d29" d="M63.24867,22.28055c1.07539,0,1.46968-.59745,1.46968-1.171,0-1.48761-2.35987-.97383-2.35987-1.87,0-.37637.34652-.63326.81849-.63326a1.50368,1.50368,0,0,1,1.15305.47793l.29874-.36441a1.87273,1.87273,0,0,0-1.41-.5616c-.78861,0-1.3741.454-1.3741,1.11124,0,1.42186,2.35988.84834,2.35988,1.87594,0,.31067-.227.693-.938.693a1.64364,1.64364,0,0,1-1.24864-.57352l-.29875.38237A1.98275,1.98275,0,0,0,63.24867,22.28055Z"/><path class="e0523137-555e-4683-a7b2-bd804fa61187" d="M57.6265,7.65757,66.54981.28H56.28507L52.00064,3.35008,52.01533.28H44.55172V8.57753H35.03557V.21357s-20.05035.018-20.07307.018A4.64627,4.64627,0,0,0,11.659,1.54472a4.953,4.953,0,0,0-1.28337,3.46705l-.00212,5.6043a4.859,4.859,0,0,0,1.30385,3.24873,4.75769,4.75769,0,0,0,3.41133,1.37539c.07037,0,15.00476-.00337,15.00476-.00337v-.00069l17.24473-.04432h4.66524L52.01,11.78505l4.06774,3.40676H66.60424ZM51.12894,9.89321l-.00847,4.41393h-4.667l-17.24473.04432v.00069H15.23892c-.03361.00164-.08475.00337-.15024.00337A3.86878,3.86878,0,0,1,12.32,13.25685,3.96225,3.96225,0,0,1,11.25817,10.621l.00212-5.62766a4.10113,4.10113,0,0,1,1.04933-2.84921A3.74835,3.74835,0,0,1,14.9625,1.11625c.02056,0,19.18841-.018,19.18841-.018v8.364H45.43639V1.16463h5.69l-.01875,3.91371L56.5693,1.16463h7.5221L56.24429,7.65247l7.92962,6.65467H56.39928Z"/><path class="e0523137-555e-4683-a7b2-bd804fa61187" d="M28.3241,2.00574V5.10351H16.9045a.74876.74876,0,0,0-.55035.20907.78341.78341,0,0,0-.17953.51631l-.00079.4252H28.302V9.2855H16.16936l.003.41542a.73932.73932,0,0,0,.19362.46831.68936.68936,0,0,0,.48544.20047H28.3241v3.09781H15.21416a3.0813,3.0813,0,0,1-2.25144-.81858,3.10833,3.10833,0,0,1-.81989-2.0208L12.145,4.97a3.253,3.253,0,0,1,.81526-2.22642,2.96957,2.96957,0,0,1,2.03889-.74227Z"/><path class="e0523137-555e-4683-a7b2-bd804fa61187" d="M29.26125,1.98291h4.005v8.36395H45.56879v3.11993H29.26125Z"/><path class="e0523137-555e-4683-a7b2-bd804fa61187" d="M56.85354,2.04929H61.633L54.86212,7.64741l6.88146,5.7751H56.72079L50.2479,8.00141l-.01033,5.4211H46.3211V2.04929h3.91647l-.02285,4.75726Z"/></svg>