<?xml version="1.0" encoding="utf-8"?>
<!-- Generator: Adobe Illustrator 25.3.1, SVG Export Plug-In . SVG Version: 6.00 Build 0)  -->
<svg version="1.1" id="Layer_3" xmlns="http://www.w3.org/2000/svg" xmlns:xlink="http://www.w3.org/1999/xlink" x="0px" y="0px"
	 viewBox="0 0 61.8 28.5" style="enable-background:new 0 0 61.8 28.5;" xml:space="preserve">
<style type="text/css">
	.st0{clip-path:url(#SVGID_2_);}
	.st1{fill:#2899D5;}
	.st2{fill:#FBAD18;}
	.st3{fill:#EE212E;}
	.st4{fill:#FFFFFF;}
</style>
<g>
	<defs>
		<path id="SVGID_1_" d="M6.4,24.7c-0.9-1.3-0.9-2.6,0.1-4.3c1-1.8,4.4-4,4.4-4s1.9-1,1.9-2c0,0,0,0,0-0.1c0,0,0,0,0-0.1
			c0-1-1.9-2-1.9-2s0,0,0,0c-0.2-0.1-3.4-2.3-4.4-4c-1-1.8-0.9-3.1-0.1-4.3s3-2,6.2-1.8s6.8,1.2,9.5,3.6c0,0-2.3-4.1-8.1-5.2
			S3.8,1.6,1.2,3.9C0.5,4.5,0.2,5.1,0,5.7c-0.3,1.6,1.2,2.9,2.4,4.1c1.6,1.6,2.4,3.1,2.4,4.5c0,1.4-0.7,2.9-2.4,4.5
			c-1.2,1.2-2.7,2.5-2.4,4.1c0.1,0.6,0.5,1.2,1.1,1.8c2.6,2.3,7,4.6,12.9,3.5c5.8-1.1,8.1-5.2,8.1-5.2c-2.7,2.4-6.2,3.4-9.5,3.6
			C9.4,26.7,7.3,25.9,6.4,24.7z"/>
	</defs>
	<clipPath id="SVGID_2_">
		<use xlink:href="#SVGID_1_"  style="overflow:visible;"/>
	</clipPath>
	<g class="st0">
		<path class="st1" d="M4.1,9l6.8,3.2c-0.2-0.1-3.4-2.3-4.4-4c-1-1.8-0.9-3.1-0.1-4.3s3-2,6.2-1.8s6.8,1.2,9.5,3.6
			c0,0-2.3-4.1-8.1-5.2S3.8,1.6,1.2,3.9C0.5,4.5,0.2,5.1,0,5.7C0.1,7.4,4.1,9,4.1,9z"/>
		<path class="st2" d="M6.4,24.7c-0.9-1.3-0.9-2.6,0.1-4.3c1-1.8,4.4-4,4.4-4l-6.8,3.2c0,0-4,1.6-4.1,3.3c0.1,0.6,0.5,1.2,1.1,1.8
			c2.6,2.3,7,4.6,12.9,3.5c5.8-1.1,8.1-5.2,8.1-5.2c-2.7,2.4-6.2,3.4-9.5,3.6C9.4,26.7,7.3,25.9,6.4,24.7z"/>
		<path class="st3" d="M4.1,19.5l6.8-3.2c0,0,1.9-1,1.9-2c0,0,0,0,0-0.1c0,0,0,0,0-0.1c0-1-1.9-2-1.9-2s0,0,0,0L4.1,9
			c0,0-4-1.6-4.1-3.3c-0.3,1.6,1.2,2.9,2.4,4.1c1.6,1.6,2.4,3.1,2.4,4.5c0,1.4-0.7,2.9-2.4,4.5c-1.2,1.2-2.7,2.5-2.4,4.1
			C0.1,21.1,4.1,19.5,4.1,19.5z"/>
	</g>
</g>
<g>
	<path class="st4" d="M16.6,14.9c0,0.2,0.1,0.3,0.2,0.4c0.2,0.1,0.4,0.1,0.6,0.1c0.2,0,0.5,0,0.7,0c0.2,0,0.5-0.1,0.7-0.1
		c0.2,0,0.3,0,0.4,0c0,0.5-0.1,0.8-0.3,1c-0.2,0.2-0.6,0.3-1.2,0.3c-0.8,0-1.4-0.2-1.8-0.5c-0.4-0.3-0.6-0.9-0.6-1.8
		c0-0.4,0.1-0.8,0.2-1.1c0.1-0.3,0.3-0.5,0.5-0.7c0.2-0.2,0.4-0.3,0.7-0.3c0.3-0.1,0.5-0.1,0.9-0.1c0.6,0,1.1,0.1,1.4,0.4
		c0.3,0.3,0.5,0.7,0.5,1.3c0,0.2,0,0.4-0.1,0.6c-0.1,0.1-0.2,0.2-0.3,0.3c-0.1,0-0.3,0.1-0.5,0.1c-0.2,0-0.4,0-0.6,0
		c-0.2,0-0.4,0-0.6,0C17,14.8,16.8,14.9,16.6,14.9z M16.6,14.1c0.1-0.1,0.2-0.1,0.4-0.1c0.2,0,0.4,0,0.6,0c0.2,0,0.3,0,0.5-0.1
		c0.1-0.1,0.2-0.2,0.2-0.3c0-0.1-0.1-0.2-0.3-0.3c-0.3-0.1-0.6-0.1-0.9,0C16.6,13.3,16.5,13.6,16.6,14.1z"/>
	<path class="st4" d="M24.4,13.6v2.8c-0.2,0-0.3,0-0.5,0c-0.1,0-0.3,0-0.4-0.1c-0.1,0-0.2-0.1-0.3-0.2c-0.1-0.1-0.1-0.2-0.1-0.4V14
		v0v-0.4c-0.1-0.4-0.4-0.5-1.1-0.5c-0.3,0-0.5,0.1-0.6,0.1c0,0.1,0,0.2,0,0.3v2.1c0,0.2,0,0.3-0.1,0.4c-0.1,0.1-0.1,0.2-0.3,0.2
		c-0.1,0-0.2,0.1-0.4,0.1c-0.1,0-0.3,0-0.5,0v-3.8c0-0.3,0.5-0.5,1.6-0.5C23.7,12,24.4,12.5,24.4,13.6z"/>
	<path class="st4" d="M28.5,10.4c0.1,0.1,0.2,0.1,0.3,0.1c0.1,0,0.2,0,0.3,0c0.1,0,0.2,0,0.3,0c0.1,0,0.2,0.1,0.2,0.2
		c0,0.1,0.1,0.3,0.1,0.5v4.6c0,0,0,0-0.1,0.1c0,0.1-0.1,0.1-0.1,0.1c0,0-0.1,0.1-0.2,0.1c-0.1,0.1-0.2,0.1-0.3,0.1
		c-0.1,0-0.3,0.1-0.5,0.1c-0.2,0-0.4,0-0.7,0c-0.8,0-1.4-0.2-1.7-0.5c-0.3-0.3-0.5-0.9-0.5-1.7c0-0.3,0-0.6,0.1-0.8
		c0.1-0.2,0.2-0.4,0.3-0.6c0.1-0.2,0.3-0.3,0.5-0.4c0.2-0.1,0.4-0.2,0.6-0.2c0.2,0,0.4-0.1,0.6-0.1c0.4,0,0.7,0.1,0.9,0.2V10.4z
		 M28.5,14.3v-1.1c-0.1,0-0.1,0-0.2-0.1c-0.1,0-0.2,0-0.3,0c-0.1,0-0.2,0-0.3,0c-0.1,0-0.2,0-0.3,0.1c-0.1,0.1-0.2,0.1-0.3,0.2
		c-0.1,0.1-0.2,0.2-0.2,0.4c-0.1,0.2-0.1,0.3-0.1,0.5c0,0.2,0,0.4,0.1,0.5c0.1,0.1,0.1,0.3,0.2,0.3c0.1,0.1,0.2,0.1,0.3,0.2
		c0.1,0,0.3,0.1,0.4,0.1c0.1,0,0.2,0,0.3,0c0.1,0,0.2,0,0.3,0c0,0,0.1,0,0.1,0h0C28.5,15.3,28.5,15,28.5,14.3z"/>
	<path class="st4" d="M30.8,14.3c0,0,0-0.1,0-0.1c0-0.1,0-0.2,0-0.3c0-0.2,0-0.3,0.1-0.4c0-0.1,0.1-0.3,0.2-0.5
		c0.1-0.2,0.2-0.3,0.4-0.4c0.2-0.1,0.4-0.2,0.6-0.3c0.3-0.1,0.6-0.1,0.9-0.1c0.2,0,0.5,0,0.6,0.1c0.2,0,0.4,0.1,0.5,0.1
		c0.1,0.1,0.3,0.1,0.4,0.2c0.1,0.1,0.2,0.2,0.3,0.3c0.1,0.1,0.1,0.2,0.2,0.3c0,0.1,0.1,0.2,0.1,0.3c0,0.1,0,0.2,0.1,0.3
		c0,0.1,0,0.2,0,0.3c0,0.1,0,0.1,0,0.2c0,0.1,0,0.1,0,0.2c0,0.1,0,0.2,0,0.2c0,0.1,0,0.2,0,0.3c0,0.1-0.1,0.3-0.1,0.4
		c0,0.1-0.1,0.2-0.2,0.4c-0.1,0.1-0.2,0.2-0.4,0.3c-0.1,0.1-0.3,0.2-0.5,0.2c-0.2,0.1-0.5,0.1-0.7,0.1c-0.3,0-0.5,0-0.8-0.1
		c-0.2,0-0.4-0.1-0.6-0.1c-0.2-0.1-0.3-0.1-0.4-0.2c-0.1-0.1-0.2-0.2-0.3-0.3c-0.1-0.1-0.1-0.2-0.2-0.4c0-0.2-0.1-0.3-0.1-0.5
		C30.8,14.6,30.8,14.5,30.8,14.3z M32,14.3c0,0.2,0,0.3,0.1,0.4c0,0.1,0.1,0.2,0.2,0.3c0.1,0.1,0.2,0.2,0.3,0.2
		c0.2,0,0.3,0.1,0.6,0.1c0.2,0,0.3,0,0.5-0.1c0.1-0.1,0.2-0.1,0.3-0.2c0.1-0.1,0.1-0.2,0.1-0.3c0-0.1,0.1-0.2,0.1-0.2
		c0-0.1,0-0.1,0-0.2c0,0,0,0,0-0.1c0,0,0-0.1,0-0.1c0,0,0-0.1,0-0.2c0-0.1,0-0.1,0-0.2c0,0,0-0.1-0.1-0.2c0-0.1-0.1-0.1-0.1-0.2
		c0,0-0.1-0.1-0.1-0.2c-0.1-0.1-0.1-0.1-0.2-0.1c-0.1,0-0.1-0.1-0.2-0.1c-0.1,0-0.2,0-0.3,0c-0.2,0-0.4,0-0.5,0.1
		c-0.1,0.1-0.3,0.1-0.3,0.2c-0.1,0.1-0.1,0.2-0.2,0.3C32,13.9,32,14,32,14C32,14.1,32,14.2,32,14.3C32,14.3,32,14.3,32,14.3z"/>
	<path class="st4" d="M39.2,12.1c0,0,0,0.1,0,0.2c0,0.1,0,0.2,0,0.3c0,0.1,0,0.2-0.1,0.3c0,0.1-0.1,0.2-0.2,0.2
		c-0.1,0.1-0.2,0.1-0.4,0.1c-0.2,0-0.4,0-0.5,0c-0.1,0-0.2,0.1-0.3,0.1c-0.1,0.1-0.2,0.2-0.2,0.3c0,0.1,0,0.3,0,0.5v2.5
		c-0.1-0.1-0.2-0.1-0.4-0.2c-0.2,0-0.3-0.1-0.4-0.1c-0.1,0-0.2-0.1-0.3-0.2c-0.1-0.1-0.1-0.2-0.1-0.4v-2.1c0,0,0-0.1,0-0.1
		c0-0.1,0-0.1,0-0.2c0-0.1,0-0.2,0.1-0.3c0-0.1,0.1-0.2,0.2-0.3c0.1-0.1,0.2-0.2,0.3-0.3c0.1-0.1,0.2-0.1,0.4-0.2
		c0.2-0.1,0.3-0.1,0.6-0.1c0.3,0,0.6,0,0.8,0c0.2,0,0.3,0,0.3,0c0,0,0,0,0.1,0C39,12.1,39.1,12.1,39.2,12.1z"/>
	<path class="st4" d="M41.3,18.2c-0.1-0.1-0.2-0.1-0.4-0.1c-0.2,0-0.3,0-0.4,0c-0.1,0-0.2-0.1-0.3-0.2c-0.1-0.1-0.1-0.3-0.1-0.6
		v-4.6c0,0,0,0,0.1-0.1c0-0.1,0.1-0.1,0.1-0.1c0,0,0.1-0.1,0.2-0.1c0.1-0.1,0.2-0.1,0.3-0.1c0.1,0,0.3-0.1,0.5-0.1
		c0.2,0,0.4,0,0.7,0c0.8,0,1.4,0.2,1.7,0.5c0.3,0.3,0.5,0.9,0.5,1.7c0,0.4-0.1,0.7-0.2,1c-0.1,0.3-0.3,0.5-0.5,0.7
		c-0.2,0.2-0.4,0.3-0.7,0.3c-0.2,0.1-0.5,0.1-0.8,0.1c-0.4,0-0.6,0-0.9-0.1V18.2z M41.3,14.3v1.1c0.1,0,0.2,0,0.3,0.1
		c0.1,0,0.2,0,0.4,0c0.1,0,0.3,0,0.4,0c0.1,0,0.2-0.1,0.4-0.2c0.1-0.1,0.2-0.2,0.3-0.4c0.1-0.2,0.1-0.4,0.1-0.6c0-0.2,0-0.4-0.1-0.5
		c-0.1-0.1-0.1-0.3-0.2-0.3c-0.1-0.1-0.2-0.1-0.3-0.2c-0.1,0-0.3-0.1-0.4-0.1c-0.1,0-0.2,0-0.4,0c-0.1,0-0.2,0-0.3,0
		c0,0-0.1,0-0.1,0h0C41.3,13.2,41.3,13.6,41.3,14.3z"/>
	<path class="st4" d="M46.5,12.2c0.3-0.1,0.7-0.2,1.3-0.2c0.3,0,0.5,0,0.7,0.1c0.2,0.1,0.4,0.2,0.5,0.3c0.1,0.1,0.2,0.3,0.2,0.4
		c0,0.2,0.1,0.3,0.1,0.4c0,0.1,0,0.1,0,0.2v2.8c-0.8,0.1-1.2-0.1-1.2-0.7c0-0.2,0-0.5,0-0.9c0-0.8,0-1.2-0.1-1.4
		c-0.1-0.2-0.3-0.3-0.7-0.3c-0.3,0-0.5,0-0.8,0.1v2.4c0,0.3-0.1,0.5-0.3,0.6c-0.2,0.1-0.5,0.1-0.9,0.1v-6.1c0.1,0.1,0.2,0.1,0.4,0.1
		c0.2,0,0.3,0,0.4,0c0.1,0,0.2,0.1,0.3,0.2c0.1,0.1,0.1,0.3,0.1,0.6V12.2z"/>
	<path class="st4" d="M50.6,11.7c-0.1-0.1-0.2-0.3-0.2-0.4c0-0.2,0.1-0.3,0.2-0.4c0.1-0.1,0.3-0.2,0.4-0.2c0.2,0,0.3,0.1,0.4,0.2
		c0.1,0.1,0.2,0.3,0.2,0.4c0,0.2-0.1,0.3-0.2,0.4c-0.1,0.1-0.3,0.2-0.4,0.2C50.9,11.8,50.8,11.8,50.6,11.7z M51.7,12.9
		c0-0.3,0-0.4-0.1-0.6c-0.1-0.1-0.2-0.2-0.3-0.2c-0.1,0-0.2,0-0.4,0c-0.2,0-0.3-0.1-0.4-0.1v4.4c0.4,0,0.7,0,0.9-0.1
		c0.2-0.1,0.3-0.3,0.3-0.6V12.9z"/>
	<path class="st4" d="M56.8,13.6v2.8c-0.2,0-0.3,0-0.5,0c-0.1,0-0.3,0-0.4-0.1c-0.1,0-0.2-0.1-0.3-0.2c-0.1-0.1-0.1-0.2-0.1-0.4V14
		v0v-0.4c-0.1-0.4-0.4-0.5-1.1-0.5c-0.3,0-0.5,0.1-0.6,0.1c0,0.1,0,0.2,0,0.3v2.1c0,0.2,0,0.3-0.1,0.4c-0.1,0.1-0.1,0.2-0.3,0.2
		c-0.1,0-0.2,0.1-0.4,0.1c-0.1,0-0.3,0-0.5,0v-3.8c0-0.3,0.5-0.5,1.6-0.5C56,12,56.8,12.5,56.8,13.6z"/>
	<path class="st4" d="M58.2,13.2C58.2,13.2,58.2,13.2,58.2,13.2c0-0.1,0-0.1,0-0.2c0-0.1,0-0.1,0-0.2c0-0.1,0-0.1,0.1-0.2
		c0-0.1,0.1-0.2,0.2-0.2c0.1-0.1,0.2-0.1,0.3-0.2c0.1,0,0.2-0.1,0.4-0.1c0,0,0.1,0,0.2,0c0.1,0,0.3,0,0.4,0c0.1,0,0.3,0,0.4,0
		c0.1,0,0.3,0,0.4,0.1c0.1,0,0.3,0.1,0.4,0.1c0.1,0.1,0.2,0.1,0.3,0.2c0.1,0.1,0.2,0.2,0.3,0.3c0.1,0.1,0.1,0.3,0.2,0.5
		c0,0.2,0.1,0.4,0.1,0.6V14v0.1v0.1v0.1v0.1v0.1v0.1v0.1v0.1v0.1v0.1v0.1c0,0.2,0,0.4-0.1,0.6c0,0.2-0.1,0.3-0.2,0.4
		c-0.1,0.1-0.2,0.2-0.3,0.3c-0.1,0.1-0.2,0.1-0.3,0.2c-0.1,0-0.2,0.1-0.3,0.1c-0.1,0-0.2,0-0.3,0c-0.1,0-0.1,0-0.2,0h-1.1
		c0,0,0,0-0.1,0c0,0-0.1,0-0.2,0c-0.1,0-0.2,0-0.2-0.1c-0.1,0-0.2-0.1-0.3-0.1c-0.1-0.1-0.2-0.1-0.2-0.2c-0.1-0.1-0.1-0.2-0.2-0.3
		c0-0.1-0.1-0.3-0.1-0.4c0-0.3,0-0.5,0.1-0.7c0.1-0.2,0.2-0.3,0.3-0.5c0.1-0.1,0.3-0.2,0.5-0.2c0.2,0,0.4-0.1,0.7-0.1
		c0.5,0,0.8,0,0.9-0.1c0.2-0.1,0.2-0.2,0.2-0.3c0-0.2-0.2-0.3-0.5-0.4C59.8,13,59.4,13,59,13C58.6,13.1,58.4,13.1,58.2,13.2z
		 M60.7,14.4C60.6,14.4,60.6,14.4,60.7,14.4c-0.1,0.1-0.2,0.2-0.4,0.2c-0.1,0.1-0.3,0.1-0.4,0.1c-0.3,0-0.5,0-0.6,0.1
		c-0.2,0.1-0.2,0.2-0.2,0.3c0,0.1,0.1,0.2,0.2,0.3c0.1,0.1,0.3,0.1,0.7,0.1c0.1,0,0.2,0,0.3,0c0.1,0,0.1,0,0.2-0.1
		c0.1,0,0.1-0.1,0.1-0.1c0,0,0-0.1,0.1-0.2c0-0.1,0-0.2,0-0.3C60.7,14.7,60.7,14.6,60.7,14.4z"/>
</g>
</svg>
