<svg id="Layer_1" data-name="Layer 1" xmlns="http://www.w3.org/2000/svg" viewBox="0 0 110 28"><defs><style>.cls-1{fill:#00b8ff;}.cls-2{fill:#fff;}</style></defs><polygon class="cls-1" points="4.67 22.71 14.94 22.71 16.43 19.18 4.67 19.18 4.67 22.71"/><polygon class="cls-1" points="4.67 18.48 17.33 16.71 18.86 12.95 4.67 14.95 4.67 18.48"/><polygon class="cls-1" points="4.67 14.24 20.04 10.33 21.76 6.13 4.67 10.6 4.67 14.24"/><polygon class="cls-2" points="29.25 16.09 32.62 16.09 33.75 13.46 29.25 13.46 29.25 11.62 34.5 11.62 35.71 8.84 35.71 8.8 25.95 8.8 25.95 20.87 35.71 20.87 35.71 18.01 29.25 18.01 29.25 16.09"/><path class="cls-2" d="M71.34,9.93A5.64,5.64,0,0,0,67.69,8.8H62.52v12h3.33V17.38H67.5a6,6,0,0,0,3.76-1.14A3.89,3.89,0,0,0,72.67,13a3.72,3.72,0,0,0-1.33-3.1m-2.51,4.43a2.22,2.22,0,0,1-1.41.43H65.85V11.62h1.57a2.15,2.15,0,0,1,1.41.39,1.41,1.41,0,0,1,.51,1.18,1.38,1.38,0,0,1-.51,1.17"/><polygon class="cls-2" points="77.17 8.8 73.84 8.8 73.84 20.87 81.25 20.87 82.47 17.93 77.17 17.93 77.17 8.8"/><path class="cls-2" d="M88.19,8.72,83.88,18.91l-.83,1.92h3.53l.86-2.16h4.63l.86,2.16H96.5L91.36,8.68H88.19Zm.19,7.37,1.38-3.41,1.33,3.41Z"/><polygon class="cls-2" points="103.28 8.8 100.77 13.19 98.3 8.8 94.5 8.8 99.08 16.32 99.08 20.87 102.42 20.87 102.42 16.28 107 8.8 103.28 8.8"/><polygon class="cls-2" points="45.59 8.8 42.84 16.44 40.1 8.8 36.38 8.8 41.28 20.95 44.37 20.95 49.27 8.8 45.59 8.8"/><path class="cls-2" d="M54.91,8.6a6.27,6.27,0,1,0,6.28,6.27A6.27,6.27,0,0,0,54.91,8.6m0,9.52a3.29,3.29,0,1,1,3.3-3.29,3.29,3.29,0,0,1-3.3,3.29"/></svg>