<svg id="Layer_1" data-name="Layer 1" xmlns="http://www.w3.org/2000/svg" viewBox="0 0 18.82 12.95"><defs><style>.cls-1{fill:#0f1e38;fill-opacity:0.67;}.cls-2{fill:#11203d;fill-opacity:0.73;}.cls-3{fill:#0b162a;fill-opacity:0.5;}.cls-4{fill:#0a1325;fill-opacity:0.44;}.cls-17,.cls-5{fill:#050a14;}.cls-5{fill-opacity:0.24;}.cls-6{fill:#060d19;fill-opacity:0.3;}.cls-7{fill:#132647;}.cls-14,.cls-7{fill-opacity:0.85;}.cls-8{fill:#0e1b33;fill-opacity:0.61;}.cls-9{fill:#03060c;fill-opacity:0.15;}.cls-10{fill:#0e1c36;}.cls-10,.cls-252{fill-opacity:0.64;}.cls-11{fill:#152a4f;fill-opacity:0.94;}.cls-12{fill:#122342;fill-opacity:0.78;}.cls-13,.cls-26{fill:#03060d;}.cls-13{fill-opacity:0.17;}.cls-14{fill:#142648;}.cls-15{fill:#0d192f;}.cls-15,.cls-34{fill-opacity:0.56;}.cls-16,.cls-29{fill:#0f1d37;}.cls-16{fill-opacity:0.66;}.cls-17{fill-opacity:0.25;}.cls-18{fill:#0f1e39;}.cls-18,.cls-25{fill-opacity:0.68;}.cls-19{fill:#0c182d;fill-opacity:0.54;}.cls-20{fill:#0d1930;fill-opacity:0.58;}.cls-21{fill:#0d1b33;fill-opacity:0.6;}.cls-22{fill:#081020;fill-opacity:0.38;}.cls-23{fill:#0c172c;fill-opacity:0.52;}.cls-24{fill:#050b16;fill-opacity:0.27;}.cls-25{fill:#101e39;}.cls-26{fill-opacity:0.16;}.cls-27{fill:#02040a;fill-opacity:0.13;}.cls-28{fill:#08101e;fill-opacity:0.36;}.cls-29{fill-opacity:0.65;}.cls-30{fill:#0e1b34;fill-opacity:0.62;}.cls-252,.cls-31{fill:#0e1c35;}.cls-31{fill-opacity:0.63;}.cls-32{fill:#10203c;fill-opacity:0.72;}.cls-33{fill:#0f1e3a;fill-opacity:0.69;}.cls-34{fill:#0c192f;}.cls-35{fill:#182e55;}.cls-36{fill:#fed462;}.cls-37{fill:#fada79;}.cls-38{fill:#807879;}.cls-39{fill:#fed35d;}.cls-40{fill:#59596c;}.cls-41{fill:#b0a08a;}.cls-42{fill:#fdd979;}.cls-43{fill:#fecf6d;}.cls-44{fill:#fdb725;}.cls-45{fill:#fed67f;}.cls-46{fill:#fbb215;}.cls-47{fill:#fec50d;}.cls-48{fill:#787376;}.cls-49{fill:#fed565;}.cls-50{fill:#fbb216;}.cls-51{fill:#fde5a2;}.cls-52{fill:#fec40c;}.cls-53{fill:#866d51;}.cls-54{fill:#fde5a3;}.cls-55{fill:#554f56;}.cls-56{fill:#927d61;}.cls-57{fill:#fecf49;}.cls-58{fill:#fcdc7a;}.cls-59{fill:#e8b428;}.cls-60{fill:#877762;}.cls-61{fill:#948063;}.cls-62{fill:#8b7a62;}.cls-63{fill:#988363;}.cls-64{fill:#907d63;}.cls-65{fill:#fdd359;}.cls-66{fill:#fecf43;}.cls-67{fill:#fecb34;}.cls-68{fill:#fecf46;}.cls-69{fill:#fecf47;}.cls-70{fill:#fdd356;}.cls-71{fill:#9c7d49;}.cls-72{fill:#a58347;}.cls-73{fill:#a68447;}.cls-74{fill:#fdc43f;}.cls-75{fill:#fdc03b;}.cls-76{fill:#fdc33f;}.cls-77{fill:#fecd3b;}.cls-78{fill:#fdd150;}.cls-79{fill:#fecd3d;}.cls-80{fill:#fecc39;}.cls-81{fill:#fece3f;}.cls-82{fill:#fedd86;}.cls-83{fill:#fdcc3a;}.cls-84{fill:#b48e42;}.cls-85{fill:#585156;}.cls-86{fill:#6e5e54;}.cls-87{fill:#fdd358;}.cls-88{fill:#fecb32;}.cls-89{fill:#182e56;}.cls-90{fill:#fecf44;}.cls-91{fill:#a99065;}.cls-92{fill:#8d7b63;}.cls-93{fill:#917e63;}.cls-94{fill:#968263;}.cls-95{fill:#897862;}.cls-96{fill:#52505a;}.cls-97{fill:#fec50c;}.cls-98{fill:#ffc81e;}.cls-99{fill:#fdd86b;}.cls-100{fill:#feca30;}.cls-101{fill:#544e56;}.cls-102{fill:#4a4857;}.cls-103{fill:#323b57;}.cls-104{fill:#434457;}.cls-105{fill:#d4b984;}.cls-106{fill:#4a4b5d;}.cls-107{fill:#e8c76f;}.cls-108{fill:#ae9771;}.cls-109{fill:#39415d;}.cls-110{fill:#d8bc77;}.cls-111{fill:#38415d;}.cls-112{fill:#e4c371;}.cls-113{fill:#9f7f4a;}.cls-114{fill:#383e57;}.cls-115{fill:#736154;}.cls-116{fill:#4c4a56;}.cls-117{fill:#fed04a;}.cls-118{fill:#fed049;}.cls-119{fill:#f9b116;}.cls-120{fill:#9a7b4b;}.cls-121{fill:#fdd96d;}.cls-122{fill:#fecb35;}.cls-123{fill:#fdcf65;}.cls-124{fill:#fdce64;}.cls-125{fill:#7d6851;}.cls-126{fill:#625755;}.cls-127{fill:#8b734c;}.cls-128{fill:#8b734b;}.cls-129{fill:#8d744b;}.cls-130{fill:#fec40d;}.cls-131{fill:#fdd55f;}.cls-132{fill:#feca2d;}.cls-133{fill:#fed04b;}.cls-134{fill:#fdd55e;}.cls-135{fill:#fdd661;}.cls-136{fill:#feca2c;}.cls-137{fill:#e6c160;}.cls-138{fill:#f2cc60;}.cls-139{fill:#fdd86c;}.cls-140{fill:#fbb315;}.cls-141{fill:#feca2b;}.cls-142{fill:#feca2e;}.cls-143{fill:#feca2f;}.cls-144{fill:#e7c365;}.cls-145{fill:#eac668;}.cls-146{fill:#b79b65;}.cls-147{fill:#997c49;}.cls-148{fill:#977b49;}.cls-149{fill:#b48e40;}.cls-150{fill:#645855;}.cls-151{fill:#fcdc79;}.cls-152{fill:#fecf42;}.cls-153{fill:#7b684f;}.cls-154{fill:#806c4e;}.cls-155{fill:#8d734c;}.cls-156{fill:#aa8745;}.cls-157{fill:#eecb6d;}.cls-158{fill:#eac76c;}.cls-159{fill:#fab215;}.cls-160{fill:#9f7f49;}.cls-161{fill:#b68f41;}.cls-162{fill:#a99265;}.cls-163{fill:#baa068;}.cls-164{fill:#b79e67;}.cls-165{fill:#9d7e49;}.cls-166{fill:#a48347;}.cls-167{fill:#fed14b;}.cls-168{fill:#ad9665;}.cls-169{fill:#b19866;}.cls-170{fill:#bea367;}.cls-171{fill:#bda166;}.cls-172{fill:#ba9f64;}.cls-173{fill:#b89d62;}.cls-174{fill:#b69b60;}.cls-175{fill:#b79c61;}.cls-176{fill:#c9aa62;}.cls-177{fill:#c7a75f;}.cls-178{fill:#c6a65e;}.cls-179{fill:#c5a55d;}.cls-180{fill:#d7b45f;}.cls-181{fill:#fece40;}.cls-182{fill:#fed048;}.cls-183{fill:#fed047;}.cls-184{fill:#d2af5c;}.cls-185{fill:#ceac5b;}.cls-186{fill:#d9b55e;}.cls-187{fill:#dcb85f;}.cls-188{fill:#c5a55e;}.cls-189{fill:#d0a237;}.cls-190{fill:#605656;}.cls-191{fill:#313a57;}.cls-192{fill:#a2814a;}.cls-193{fill:#2d3857;}.cls-194{fill:#fdd45b;}.cls-195{fill:#fddc7a;}.cls-196{fill:#ffc719;}.cls-197{fill:#fec92a;}.cls-198{fill:#ffc81f;}.cls-199{fill:#ba9c65;}.cls-200{fill:#695e5c;}.cls-201{fill:#6c605e;}.cls-202{fill:#f4d16e;}.cls-203{fill:#ccac67;}.cls-204{fill:#e4c169;}.cls-205{fill:#fec721;}.cls-206{fill:#fec822;}.cls-207{fill:#fece42;}.cls-208{fill:#fec823;}.cls-209{fill:#4d4a57;}.cls-210{fill:#c1a25d;}.cls-211{fill:#c9a960;}.cls-212{fill:#d0b063;}.cls-213{fill:#c0a260;}.cls-214{fill:#ccad62;}.cls-215{fill:#b29861;}.cls-216{fill:#ad9461;}.cls-217{fill:#c0a364;}.cls-218{fill:#b29963;}.cls-219{fill:#bca166;}.cls-220{fill:#a89163;}.cls-221{fill:#ad9563;}.cls-222{fill:#ae9665;}.cls-223{fill:#bca268;}.cls-224{fill:#74644f;}.cls-225{fill:#7e6a4d;}.cls-226{fill:#76654f;}.cls-227{fill:#b89e67;}.cls-228{fill:#b49a67;}.cls-229{fill:#4b4957;}.cls-230{fill:#91754d;}.cls-231{fill:#fec926;}.cls-232{fill:#fecb2f;}.cls-233{fill:#eecc6e;}.cls-234{fill:#dcbb6b;}.cls-235{fill:#706561;}.cls-236{fill:#d6b66b;}.cls-237{fill:#e3c16d;}.cls-238{fill:#726761;}.cls-239{fill:#988365;}.cls-240{fill:#e0c37a;}.cls-241{fill:#776d6a;}.cls-242{fill:#8c7e6e;}.cls-243{fill:#fed14e;}.cls-244{fill:#bfa15f;}.cls-245{fill:#967f5e;}.cls-246{fill:#fcb315;}.cls-247{fill:#b09564;}.cls-248{fill:#ffc71a;}.cls-249{fill:#7d694d;}.cls-250{fill:#dcab31;}.cls-251{fill:#fecd3c;}.cls-253{fill:#081120;fill-opacity:0.39;}.cls-254{fill:#fdc349;}.cls-255{fill:#2e3756;}.cls-256{fill:#dfc282;}.cls-257{fill:#fdc85a;}.cls-258{fill:#716c75;}</style></defs><g id="Layer0_0_FILL" data-name="Layer0 0 FILL"><path class="cls-1" d="M8.61,10.22h0a0,0,0,0,0,0-.05v.05M2.35,6.62h0v0Z"/><path class="cls-2" d="M6.49,10.72h0M8.56,3h0V2.92h0Z"/><path class="cls-3" d="M5,2.48H5m3.66.64v0h0v0h0M8.56,2.5h0v.06h0Z"/><path class="cls-4" d="M6.69,2.19h0m7.66,2.17h0v0h0V4.35Z"/><path class="cls-5" d="M8.69,3.66h0v0h0Z"/><path class="cls-6" d="M8.58,3.73h0v0Z"/><path class="cls-7" d="M8.57,3.64h0V3.59h0v.05h0M8.7,2.59h0v.1h0Z"/><path class="cls-8" d="M8.57,3.54h0v0h0v0M14.35,4.6h0v0h0v0M11.53,2h0m.59,0Z"/><path class="cls-9" d="M8.57,3.48a0,0,0,0,0,0,0v0Z"/><path class="cls-10" d="M8.57,3.35h0V3.3h0v0h0M9.45,2h0m1.83,0h0m.34,0h0M12.21,2Z"/><path class="cls-11" d="M8.7,3.46h0v0h0Z"/><path class="cls-12" d="M8.7,3.32h0v.09h0V3.32m-.14-.94h0V2.32h0v.05Z"/><path class="cls-13" d="M8.57,3.18v0Z"/><path class="cls-14" d="M8.56,3h0v.08h0V3m5,7.57Z"/><path class="cls-15" d="M8.56,2.5h0v0h0v0h0m5.8,1.63h0v0h0A0,0,0,0,0,14.36,4.13Z"/><path class="cls-16" d="M8.56,2.38h0v.06h0V2.38m2,7.45h0v0m.31-7.74Z"/><path class="cls-17" d="M8.56,2.21a0,0,0,0,0,0,0h0v0h0M15.93,7.7h0v0h0Z"/><path class="cls-18" d="M8.57,2.11v0Z"/><path class="cls-19" d="M9.37,2h0M14,7.63v0h0Z"/><path class="cls-20" d="M9.8,2a0,0,0,0,0,0,0Z"/><path class="cls-21" d="M9.91,2h0Z"/><path class="cls-22" d="M15.93,7.79h0v0h0Z"/><path class="cls-23" d="M15.93,7.35h0v0Z"/><path class="cls-24" d="M13.44,10.56h0m.36-8.37Z"/><path class="cls-25" d="M13.63,10.56h0m.68-5.66h0V5h0Z"/><path class="cls-26" d="M11.32,10.38h0Z"/><path class="cls-27" d="M14.31,5.09h0v0h0A0,0,0,0,0,14.31,5.09Z"/><path class="cls-28" d="M14.32,4.76h0v0h0Z"/><path class="cls-8" d="M10.62,2.11h0M12.48,2Z"/><path class="cls-29" d="M10.66,2.11h0M12,2Z"/><path class="cls-30" d="M10.78,2.1h0M12,2h0m2.67.5h0a.11.11,0,0,0,0-.08Z"/><path class="cls-31" d="M10.9,2.08h0M11.79,2h0M12.41,2Z"/><path class="cls-32" d="M13.29,2h0m.57.16Z"/><path class="cls-33" d="M14.07,2.16h0m-.62,5.78h0V7.86h0v.08Z"/><path class="cls-34" d="M14.35,4.21h0v0h0A0,0,0,0,0,14.35,4.21Z"/><path class="cls-35" d="M14.63,2.52h0V2.45h0a.3.3,0,0,0-.33-.28h-.79A.19.19,0,0,0,13.36,2h-.8a.12.12,0,0,0-.08,0h-2s-.06,0-.06.05h0a3.18,3.18,0,0,0-.51-.13h0a0,0,0,0,1,0,0h0a0,0,0,0,1,0,0H9.29A3,3,0,0,0,8.77,2h0a.06.06,0,0,0,0,.06h0v0h0v.08h0v.05h0v0h0v0h0v.05h0v.32h0v.09h0v0h0v0h0v.05h0V3h0V3h0v0h0v0h0v0h0v.1h0v0h0v.1h0v0h0a0,0,0,0,1,0,0v.06h0v0h0v0h0a0,0,0,0,1,0,0h0s-.07,0-.1,0h0a0,0,0,0,1,0,0h0a0,0,0,0,1,0-.05h0v0h0V3.48h0V3.41h0V3.36h0V3.3h0v0h0V3.18h0v0h0V3.07h0V3h0V2.92h0V2.84h0V2.75h0V2.57h0V2.5h0v0h0V2.38h0V2.32h0V2.21h0v0h0V2.11h0V2.05h0a2.57,2.57,0,0,0-.4.06c-.29.08-.58.15-.89.21h0A1.19,1.19,0,0,0,7,2.23H6.64a1.32,1.32,0,0,0-.33.08,1.35,1.35,0,0,0-.61.47h0A1.33,1.33,0,0,0,5,2.51H4.86a1.65,1.65,0,0,0-.58.14,1.48,1.48,0,0,0-.58.53A2.13,2.13,0,0,0,3.41,4h0V4h0v.1h0v.18h0v.05h0v0h0v0h0A1.72,1.72,0,0,0,3.52,5,2,2,0,0,0,4,5.61l-.22.13L2.94,6l-.2.07a.47.47,0,0,0-.39.37v.07h0v0h0l.18.92.21.91c.07.31.14.61.2.91s.13.61.19.91.14.61.21.9a.33.33,0,0,0,.07.13.3.3,0,0,0,.15.05h.09c.26-.1.51-.22.77-.34s.43-.2.66-.3a.3.3,0,0,0,.25.28h.08l.77-.34h.08a.21.21,0,0,0,.16.13h.07l.87-.28.85-.24.23-.07h.18a0,0,0,0,1,0,0h0a.31.31,0,0,0,.39.23h.11l.88-.21a1.71,1.71,0,0,0,.38-.13.33.33,0,0,0,.19-.25h0V9.76h0V9.67a.09.09,0,0,1,.08.05l.1.17a2.94,2.94,0,0,0,.35.44h0l.15,0h.05a.49.49,0,0,0,.32-.16l.1-.09.31-.26a2.12,2.12,0,0,0,.61.5,1.79,1.79,0,0,0,.72.19h.35a1.74,1.74,0,0,0,.83-.27,2.61,2.61,0,0,0,.58-.52,3.18,3.18,0,0,0,.43-.67,2.73,2.73,0,0,0,.29-.83.88.88,0,0,0,0-.23h0V8h0v0h0V7.86h0V7.79h0v0h0v0h0V7.63h0V7.46h0v0h0V7.35h0V7.29h0V7.22a2.39,2.39,0,0,0-.23-.83,2.56,2.56,0,0,0-.44-.68,2,2,0,0,0-.65-.45l-.21-.07a.09.09,0,0,1-.08-.05h0V5.08h0V5h0V5h0V4.9h0V4.81h0V4.75h0v0h0V4.64h0v0h0V4.52h0v-.1h0V4.34h0v0h0V4.21h0V4.13h0v0h0V4h0q.06-.48.15-1l.11-.55m.15,3.24a2.22,2.22,0,0,1,.66,1.06c0,.1.05.2.07.3v0h0v0h0v0h0v0h0v0h0v.14h0v0h0v0h0v0h0a3.41,3.41,0,0,1-.15.72h0a3.34,3.34,0,0,1-.37.73,2.9,2.9,0,0,1-.54.57,1.73,1.73,0,0,1-.8.3h-.26a1.57,1.57,0,0,1-.78-.28A1.62,1.62,0,0,1,12,9l-.2.15-.58.53h-.06l-.28-.41-.45-.66L10,8h0v.08h0v.08h0v.08h0v.23h0v.1h0v0h0a0,0,0,0,1,0,0h0V8.7h0v.05h0v0h0v0h0v0h0v.05h0V9h0V9h0a0,0,0,0,1,0,.05h0v0h0a0,0,0,0,1,0,0h0v0h0v0h0v0h0l-.24.08-.89.21h0v0h0v.4h0V9.86h0v0h0V9.77h0v0h0V9.67h0V9.61l-.66.15-.71.15-.86.27h0V10h0v0h0V9.91h0a3.89,3.89,0,0,0-.38.16l-.76.34h0c-.06-.25-.12-.5-.17-.76l-.22-.9h0L4.53,9h0l.24.92a2.22,2.22,0,0,0,.09.37l-.39.17-.75.34a6,6,0,0,1-.16-.72l-.21-.88-.2-.91L3,7.37l-.2-.91h0l.81-.29L4,6a.24.24,0,0,1,0,.12l.13,1,.13,1h0l.57-.22h0L4.69,7l-.14-.91h0l.8-.29.49-.17a0,0,0,0,0,0,0h0v0h0v0h0v0h0a.06.06,0,0,1,.07,0,.06.06,0,0,1,0,.08h0a0,0,0,0,1,0,0h0V6h0a.38.38,0,0,0,0,.15h0v0h0c0,.33.08.66.13,1s.11.63.17.94.12.61.2.91.11.45.18.67h0a.08.08,0,0,1,0-.07h0V9.5h0a.08.08,0,0,1,0-.07h0a0,0,0,0,1,0,0h0V9.33h0v0h0v-.1h0v0h0a.06.06,0,0,1,0-.06h0A0,0,0,0,1,6.6,9h0V9h0V8.93h0v0h0v0h0a0,0,0,0,1,0-.05h0a0,0,0,0,1,0,0h0V8.69h0V8.54h0V8.46h0v0h0V8.36h0a0,0,0,0,1,0,0h0a0,0,0,0,1,0-.05h0v0h0V8.13h0V8.08h0V8h0V8h0a0,0,0,0,1,0,0h0a.06.06,0,0,1,0-.06h0V7.81h0V7.74h0V7.68h0v0h0a.2.2,0,0,1,0-.11h0a0,0,0,0,1,0,0h0v0h0a.09.09,0,0,1,0-.07h0V7.29h0V7.23h0V7.18h0a0,0,0,0,1,0,0h0a0,0,0,0,1,0,0h0V7h0V7h0v0h0V6.85h0V6.78h0a0,0,0,0,1,0,0h0a0,0,0,0,1,0,0h0V6.64h0V6.55h0v0h0V6.44h0V6.39h0a0,0,0,0,1,0,0h0a0,0,0,0,1,0,0h0v0h0V6.16h0V6.1h0v0h0V6h0a0,0,0,0,1,0,0h0a.06.06,0,0,1,0-.06h0v0h0l.49-.27L8,5.38l.61-.13.19.92,0,.21h0l-.2,0H8.44l-.92.18h0v.12h0v.11h0v0h0a0,0,0,0,1,0,0h0V7h0v0h0v.05h0v0h0v0h0L8.43,7h.13c.06.27.12.55.19.82h0a.7.7,0,0,1-.23.08l-.88.23h0v0h0v0h0v0h0v.05h0a0,0,0,0,1,0,0h0a0,0,0,0,1,0,0h0l1,.05.46-.1h0v0h0V8.28h0V8.22h0V8.16h0V8.08h0V8h0V8h0V7.92h0V7.86h0v0h0V7.74h0V7.66h0V7.6h0V7.54h0V7.28h0V7.22h0V7.16h0V7.1h0V7h0V6.93h0v0h0V6.82h0v-.1h0v0h0v0h0v0h0V6.52h0V6.44h0V6.39h0V6.33h0v0h0v0h0v0h0V6.14h0v0h0V6h0V6h0V5.92h0v0h0V5.76h0V5.68h0v-.1h0v0h0q.43-.12.9-.21l.54-.08h.64a1.19,1.19,0,0,1,.78.32.85.85,0,0,1,.23.55v0h0a.11.11,0,0,1,0,.08h0v0h0v0a1.5,1.5,0,0,1-.31.78,1.93,1.93,0,0,1-.59.51h0q.22.31.48.63l.24.28h0a.14.14,0,0,1,0-.09h0v0h0a0,0,0,0,1,0-.05h0a0,0,0,0,1,0-.05h0V8.2h0v0h0V8.1h0V8h0V8h0V7.89h0v0h0v-.1h0V7.68h0V7.62h0a3,3,0,0,1,.25-.84,2.53,2.53,0,0,1,.43-.68,1.67,1.67,0,0,1,.57-.52,1.41,1.41,0,0,1,.45-.15H14a1.52,1.52,0,0,1,.81.3m-.93-3.21h.33c0,.23-.09.47-.13.72a9.6,9.6,0,0,0-.13,1v0h0v0h0v.1h0v.09h0a0,0,0,0,1,0,0v.06h0v0h0v0h0v0h-.14a4.18,4.18,0,0,0-.51.06l-.06.09-.38-.73h0a.74.74,0,0,1,0,.21v.07h0a0,0,0,0,1,0,0h0v.1h0v0h0v0h0v0h0v0h0a0,0,0,0,1,0,0h0v0h0l-.62.08h0a.06.06,0,0,1,0-.06V4.64h-.43l-1,.13h0v0h0v0h0V4.63h0v0h0v0h0V4.48h0V4.43h0v0h0v0h0v0h0V4.23h0V4.18h0v0h0V4.05h0V4h0V3.9h0V3.84h0v0h0a1.11,1.11,0,0,1-.14.29,1.81,1.81,0,0,1-.57.53,2.16,2.16,0,0,1-.89.25H9.05V4.79h0V4.72h0a.14.14,0,0,0,0-.09l-.38.08-.86.22h0V4.86h0V4.81h0V4.72h0V4.63h0a0,0,0,0,1,0,0h0v0h0V4.39h0V4.31h0V4.23h0a.74.74,0,0,1-.12.31l-.06.13A.87.87,0,0,1,7,5.12H6.75A.84.84,0,0,1,6.44,5a1.06,1.06,0,0,1-.52-.58,1.77,1.77,0,0,1-.18.45,1,1,0,0,1-.62.49h0a1,1,0,0,1-.25,0h-.3a.8.8,0,0,1-.42-.18,1.12,1.12,0,0,1-.34-.77h0v0h0v0h0V4.34h0V4.27h0V4.13h0V4.05h0V4h0a1.53,1.53,0,0,1,.32-.79,1,1,0,0,1,.72-.36h.27A.72.72,0,0,1,5.48,3h0c-.07.13-.14.26-.21.37v.06s0,0,0,0a.38.38,0,0,0-.13-.06.28.28,0,0,0-.28,0,.83.83,0,0,0-.4.72h0V4.2h0a.55.55,0,0,0,.37.66H5a.53.53,0,0,0,.39-.47h0l-.54.22h0a4,4,0,0,0-.08-.48h0l.8-.36.23-.08h0V3.62h0a1.57,1.57,0,0,1,.31-.78.82.82,0,0,1,.54-.3H6.8a.86.86,0,0,1,.56.26,1.56,1.56,0,0,1,.27.4h0V3.14h0V3.07h0V3h0a0,0,0,0,1,0-.05h0a0,0,0,0,1,0,0h0V2.84h0V2.69h0V2.58h0l.65-.16h0v.09h0v0h0V2.6h0v.09h0v.09h0V3h0V3h0v.1h0v0h0v.06h0v0h0v.06h0v.05h0v0h0v0h0v0h0v0h0v0h0v0h0v0h0v.05h0v0h0v0h0v.05h0v.28h0L9,4H9V4H9V3.86H9v0H9V3.76H9V3.69H9v0H9V3.59H9v0H9v0H9V3.41H9V3.33H9V3.28H9v0H9V3.18H9v0H9V3.08H9V3H9A.06.06,0,0,1,9,3H9v0H9V2.86H9V2.8H9a.06.06,0,0,1,0-.06H9V2.69H9V2.63H9v0H9V2.53H9V2.44H9l.34-.07h.47a1.24,1.24,0,0,1,.8.32,1.23,1.23,0,0,1,.23.4h0V3h0V3h0V2.92h0v0h0V2.82h0v0h0V2.69h0V2.63h0v0h0V2.5h0V2.44h1.4v0h0v0h0v0h0v0h0v0h0v0h0v0h0v0h0v0h0v0h-.73a1.43,1.43,0,0,1,0,.29h0A5,5,0,0,0,12,3.08h0v.06h0v0h0v.23h0v0h0a0,0,0,0,1,0,0h0a0,0,0,0,1,0,0h0v0h0v0h0l-.63.08h0v.08h0a0,0,0,0,1,0,0h0s0,0,0,0v.06h.8V4c0-.32.08-.66.11-1a4,4,0,0,1,.07-.59h.72a.09.09,0,0,1,0,.07h0a0,0,0,0,1,0,0h0a0,0,0,0,1,0,.05h0v0h0a.09.09,0,0,1,.06.07h0c0,.32.09.63.16,1a1.59,1.59,0,0,0,.07.2h0c.05-.33.08-.67.11-1a.57.57,0,0,1,0-.26h.35M12.22,5.46h0a5,5,0,0,1,.66-.08h0a.35.35,0,0,1-.11.1.41.41,0,0,0-.11.07l-.26.21Z"/><path class="cls-36" d="M4.77,5.19h0Z"/><path class="cls-37" d="M4.84,4.58h0m-.08-.49h0a2.67,2.67,0,0,0,.08.48L5,4.28H5A2.48,2.48,0,0,1,4.76,4.09Z"/><path class="cls-38" d="M3.81,4.51h0v0Z"/><path class="cls-39" d="M4.09,4.13h0v0m1.7-.32h0v.16h0V3.77m-.72-.65Z"/><path class="cls-40" d="M3.8,4.39h0v.05h0Z"/><path class="cls-41" d="M3.8,4.39h0v0Z"/><path class="cls-42" d="M3.8,4.13h0v0h0A0,0,0,0,0,3.8,4.13Z"/><path class="cls-43" d="M5.6,4.37h0v0h0Z"/><path class="cls-44" d="M5.6,4.34h0a.14.14,0,0,0,0-.09Z"/><path class="cls-45" d="M5.6,4.22v0h0Z"/><path class="cls-46" d="M5.59,4.08h0v.08h0v0h0v.08h0v.1A.8.8,0,0,1,5.11,5v.06h0v.08h0V5.3h0a1.06,1.06,0,0,0,.62-.48,2,2,0,0,0,.19-.36h0a1.26,1.26,0,0,1-.1-.33h0l-.23-.08m-.09-1h0l-.34.06h0l0,.4h0a.06.06,0,0,1,0-.06l.21-.37M7.71,4h0l-.24-.16h0V3.9a.92.92,0,0,1-.11.43.8.8,0,0,1-.72.42l.22.34h0a.87.87,0,0,0,.65-.45l.07-.13a2.83,2.83,0,0,0,.11-.31h0V4.13h0v0h0V4m1.61.29h0L9,4.39l-.9.2h0L7.77,5l.87-.23L9,4.68H9a4.39,4.39,0,0,0,.28-.36m2-.72H11.1a1.8,1.8,0,0,1,.29.26h0L12,3.78h0l-.21-.2h-.57m1.24.81h-.55a.43.43,0,0,1-.16,0h-.66l-.35.47h0c.32-.06.64-.1,1-.13h.43l.33-.31h0m-3,4.45h0L8.93,9l-.85.23-.87.23h0a.1.1,0,0,0,0,0l-.53.63h0l.86-.26.87-.23L9,9.52H9l.5-.62h0M8.75,7.82h0L8.28,7.5l-.34.07L7,7.74H7c.21.12.41.25.61.38h0l.87-.23a.63.63,0,0,0,.23-.08h0M6,9.79H6c-.16.21-.33.41-.5.61h0l.76-.34a3.89,3.89,0,0,1,.38-.16h0L6,9.79m-1.79.39h0l-.48.6h0l.74-.33.4-.2h0l-.66-.07M7.53,6.64h0l.92-.18h.21l.2,0h0L8.29,6l-.51.11-.9.2.65.42m6,2.78h-.37l.26.66h.26a1.63,1.63,0,0,0,.8-.3A2.44,2.44,0,0,0,15,9.25a3.27,3.27,0,0,0,.37-.72h0l-.48-.43a2.08,2.08,0,0,1-.3.72,1.93,1.93,0,0,1-.27.3,1.49,1.49,0,0,1-.81.3m-1.36-.23h0a4.15,4.15,0,0,0-.61-.14c0,.21-.1.43-.14.65a1.72,1.72,0,0,1-.07.21h.06L12,9.38l.2-.15m0-3.06h0l-.72-.09a.48.48,0,0,1,.12.26h0a.17.17,0,0,1,0,.1h0a.71.71,0,0,1-.06.24,1.38,1.38,0,0,1-.36.47,2.53,2.53,0,0,1-.68.43h0l.76.07h0a2.26,2.26,0,0,0,.6-.51,2,2,0,0,0,.27-.55,2.81,2.81,0,0,0,0-.29h0V6.22h0V6.15m-1.38-.36H10l-.42.06h0l.53.43h0l.4,0h.14a.23.23,0,0,1,.21.16h0L11.38,6h0a.89.89,0,0,0-.56-.24h-.1Z"/><path class="cls-47" d="M5.79,3.77h0v0h0l-.2.36h0l.22,0h0V4h0v0h0V3.77Z"/><path class="cls-48" d="M5.8,3.63h0v0h0A0,0,0,0,0,5.8,3.63Z"/><path class="cls-49" d="M6.06,3.8v0h0v.05h0Z"/><path class="cls-50" d="M5,4.27H5a1.75,1.75,0,0,0-.18.29h0l.54-.22h0a1.73,1.73,0,0,1,.19-.28h0Z"/><path class="cls-51" d="M4.76,4.08h0A1.44,1.44,0,0,0,5,4.26H5l.56-.18h0a1.31,1.31,0,0,0-.19.27h0A.53.53,0,0,1,5,4.86H5c0,.08.08.16.12.25h0a.8.8,0,0,0,.48-.64v0h0V4.36h0V4.25h0a0,0,0,0,1,0,0h0V4.11h0l.2-.36h0l-.23,0-.8.31M8.28,2.41h0l-.65.15L8,2.69H8l.32-.27h0M9,4H9l-.67.13h0c-.07.13-.15.26-.23.39h0l.9-.2.31-.06h0L9,4m3.46.37h0a1.86,1.86,0,0,0-.26-.31h-.79c-.12.12-.24.24-.35.37h1.38m1.4-1.9H13.5l.35.16h0l.33-.2h-.32Z"/><path class="cls-52" d="M5,3.12H4.84a.73.73,0,0,0-.42.18,1.36,1.36,0,0,0-.34.77h0v.06h0v0h0v.24h0v0h0a.83.83,0,0,0,.45.65.76.76,0,0,0,.2.06h.16a.4.4,0,0,0,.23-.08h0C5.12,5,5,4.93,5,4.85H4.78a.56.56,0,0,1-.39-.57h0V4.21h0a.89.89,0,0,1,.41-.72.32.32,0,0,1,.27,0l.13,0h0l-.08-.39H5m1.74-.61h0l.2.31H6.73a.84.84,0,0,0-.24.07.92.92,0,0,0-.43.68h0v.05h0v.08h0v0h0a1.21,1.21,0,0,0,.32.79.61.61,0,0,0,.29.14h0l.18-.33H6.77a.43.43,0,0,1-.34-.42h0V3.84h0V3.78a.81.81,0,0,1,.21-.55h.09c0-.11.08-.21.13-.32h0a.78.78,0,0,1,.57.5.89.89,0,0,1,0,.23,0,0,0,0,1,0,0h0v.06h0v0h0L7.68,4h0V3.9h0v0h0V3.79h0V3.73h0V3.65h0V3.56h0a0,0,0,0,1,0,0h0V3.41h0V3.36h0v0h0V3.23h0a1.51,1.51,0,0,0-.32-.43.88.88,0,0,0-.56-.27H6.71m3,.5h0l-.35-.34v.09h0v.07h0a0,0,0,0,1,0,0h0V3h0V3h0v.05h0v.07h0V3.2h0v0h0v0h0v.11h0v.07h0v0h0v0h0v.06h0v.05h0v.06h0v0h0v0h0v.05h0v0h0V4h0v0h0v.08h0v0h0v.1h0v0h0v0h0v0h0l.35-.28h0a0,0,0,0,1,0,0h0V4h0V3.92h0V3.84h0v0h0V3.72h0V3.53h0v0h0V3.41h0V3.35h0v0h0v0h0v0h0V3.17h0V3.1h0V3.05h0m1.1.42h0V3.41h0l-.28.08h0v.08h0v0a.83.83,0,0,1-.25.52,1.29,1.29,0,0,1-.79.32H9.37l-.3.34h.15a2,2,0,0,0,.85-.26A1.92,1.92,0,0,0,10.64,4a1.08,1.08,0,0,0,.13-.29h0V3.64h0V3.59h0V3.5h0v0m.35.13h0v0h0v0h0a0,0,0,0,1,0,.05h0v0h0a0,0,0,0,1,0,0h0v.05h0v0h0v.16h0v.07h0v.1h0v0h0v0h0v0h0v0h0c.1-.1.21-.19.32-.28h0v0h0V4h0V3.94h0v0h0v0h0a1.48,1.48,0,0,0-.3-.26h0M11.5,3h0l-.32-.33h0v0h0v0h0v.05h0v0h0a0,0,0,0,1,0,0h0V3h0a0,0,0,0,1,0,0V3h0v0h0v.06h0v.26h0V3.5h0l.32-.22h0a2.4,2.4,0,0,0,0-.28m.72-.68h0L12,2.63h0l.27.28h0V2.84h0v0h0v0h0V2.69h0v0h0V2.57h0V2.5h0V2.43h0V2.37h0m2,.16h0l-.46.16q-.09.36-.15.72c0,.25-.09.64-.14,1h0a0,0,0,0,1,0,0h0s0,0,0,0h0v0h0c-.07-.25-.13-.5-.2-.72a.68.68,0,0,1-.07-.2,8.74,8.74,0,0,1-.17-.89h0v0h0v0h0V2.55h0v0h0a.08.08,0,0,0,0-.07h0l-.37.26c0,.25-.07.5-.1.72s-.1.65-.15,1h0a1.07,1.07,0,0,1,0,.25h0l.3.22h0V4.75h0v0h0v0h0V4.59h0v0h0V4.49h0v0h0V4.38h0V4.31a.67.67,0,0,0,0-.2h0V3.84h0V3.78h0V3.72h0V3.64h0v-.1h0V3.48h0v-.1h0a2.93,2.93,0,0,0,.43.75,1.59,1.59,0,0,0,.36.45h0l.34.2h0V4.72h0v0h0V4.62h0V4.56h0v0h0V4.45h0v0h0V4.3h0v0h0v0c0-.34.08-.67.13-1s.09-.5.14-.72M8.56,7h0c-.09.17-.17.33-.27.5h0l.46.32h0c-.06-.28-.13-.55-.18-.83m1,.88v.05h0V8h0V8h0V8.1h0v.05h0v.1h0v0h0v0h0v.05h0v.08h0v0h0v.05h0a.06.06,0,0,1,0,.06h0v.07h0v.07h0v0h0v0h0a0,0,0,0,1,0,.05h0v0h0V9h0v.21h0v0h0v0h0v0h0v0h0l.58.27h0V9.59h0V9.54h0v0h0V9.44h0v0h0v0h0V9.19h0V9.13h0v0h0V8.9h0V8.85h0v0h0V8.75h0V8.68h0v0h0V8.54h0V8.46h0V8.33h0V8.25h0V8.17h0L9.6,7.86h0M4.55,9h0l-.62-.31c0,.31.11.62.18.92l.1.57.67.07h0a1.33,1.33,0,0,0-.09-.37L4.55,9m5.1-3.13h0v0h0a0,0,0,0,1,0,0V6h0v.14h0v0h0v.1h0v0h0v.09h0v0h0v.12h0v0h0v.11h0v0h0a0,0,0,0,1,0,0h0v0h0V7h0v0h0v.05h0v0h0v.1h0v0h0v.08h0v.09h0v0h0v.06h0v0h0v.11h0v0h0v0h0l.5-.6a.12.12,0,0,1,0,0h0V7.14h0v0h0V7h0V6.94h0V6.86h0V6.81h0V6.72h0v0h0v0h0v-.1h0v0h0V6.32h0l-.53-.43m-1.34,0h0l.57.46h0l-.1-.18-.21-.9h0l-.32.62h0m2.16,1.64h0l.47.64.47.63.15.23a2.38,2.38,0,0,1,.6.13h0a2,2,0,0,1-.2-.65l-.23-.28c-.17-.2-.32-.41-.48-.62h0l-.76-.07m2,0h0l0,.31h0a0,0,0,0,1,0,0h0v.05h0V8h0V8h0a.09.09,0,0,1,0,.07h0v.05h0v0h0a0,0,0,0,1,0,.05h0a1.32,1.32,0,0,0,.32.78,1.13,1.13,0,0,0,.45.29h0c.16-.17.31-.35.45-.52h-.14A.67.67,0,0,1,13,8.14h0v0h0V8.11h0v0h0V8h0V7.89h0l-.62-.33M15.3,6.38a2,2,0,0,0-.49-.62,1.52,1.52,0,0,0-.81-.3c.09.22.17.43.24.65h0a1.41,1.41,0,0,1,.57.54,1.6,1.6,0,0,1,.18.67,0,0,0,0,1,0,0h0V7.5h0v.08h0v0h0v0h0a1.6,1.6,0,0,1-.07.33h0l.47.44h0a3.08,3.08,0,0,0,.15-.72h0v0h0V7.62h0v0h0V7.42h0v0h0v0h0V7.25h0V7.18h0V7.11a1.59,1.59,0,0,0-.06-.3A1.63,1.63,0,0,0,15.3,6.38Z"/><path class="cls-53" d="M4.93,2.81h0m3.37.32h0v.05h0Z"/><path class="cls-54" d="M5.49,3.07h0a.72.72,0,0,0-.36-.23H4.87a1,1,0,0,0-.72.36A1.72,1.72,0,0,0,3.83,4h0V4h0v.1h0a.09.09,0,0,1,0,.07v.08h0v.07h0a0,0,0,0,1,0,0h0v.05h0a0,0,0,0,1,0,0h0a1.12,1.12,0,0,0,.34.77.83.83,0,0,0,.42.18h.3l.25,0h0V5.26h0V5.18h0V5.12h0a.48.48,0,0,1-.23.07H4.73a.54.54,0,0,1-.21-.05.84.84,0,0,1-.44-.66h0V4.43h0V4.31h0v0h0V4.13h0v0h0a1.19,1.19,0,0,1,.34-.76.68.68,0,0,1,.42-.21h.31l.34-.05m1.26.11h0a.44.44,0,0,1,.27.28,1.58,1.58,0,0,1,.11.44V4h0V4h0a.4.4,0,0,1-.31.39h0l-.18.32h0a.8.8,0,0,0,.72-.42.92.92,0,0,0,.11-.43h0V3.78h0V3.7h0a0,0,0,0,1,0-.05,1,1,0,0,0,0-.24.77.77,0,0,0-.53-.57h0l-.14.33h0m-.12-.63h0a.85.85,0,0,0-.55.29,1.61,1.61,0,0,0-.31.78h0a0,0,0,0,1,0,.05h0v0h0v.15h0v0h.07L6,3.83a.26.26,0,0,0,.1-.07h0v0h0v0h0v0h0a.92.92,0,0,1,.43-.68l.24-.08h.15l-.2-.3h0m3.82.94h0l-.31-.12h0v0h0a.11.11,0,0,1,0,.08h0a.77.77,0,0,1-.49.61h0l-.31.35h.08a1.31,1.31,0,0,0,.82-.32.81.81,0,0,0,.24-.53h0v0h0V3.48m.78.08h.58L12,3.3h0c-.18,0-.37.05-.57.07h0l-.31.22h.12m-.46-.44h0a1.15,1.15,0,0,0-.25-.46,1.21,1.21,0,0,0-.76-.34H9.34L9,2.42H9l.33.25h0l.21,0h.23a.79.79,0,0,1,.67.42.66.66,0,0,1,.09.33h0l.26,0h0V3.33h0V3.28h0V3.22h0v0h0V3.12h0M12,2.34H10.83l.34.28H12l.22-.3H12m1,0h-.64l.34.24h0l.38-.2h0m-4,6-.46.08-.89.22h0l-.07.09-.43.67h0l.88-.18L9,9l.6-.16h0l-.47-.49M8.55,7H8.42l-.87.23h0L7,7.74H7l.92-.17.34-.07h0c.1-.16.18-.33.27-.49m-3,1h0l-.63-.16h0l-.57.22h0l-.44.6h0l.78-.3c.26-.11.52-.21.78-.33h.08M5.24,6.22h0l.56-.54,0,0-.48.17-.81.29.17,0,.51.09M4,6H4l-.47.17-.81.3.72.13h0L4,6.05m2.84.2h0l.9-.2.52-.11h0l.31-.62h0L8,5.46l-.9.12-.91.19h0l.73.41h0m6.83,2.67h-.09l-.46.52h.35a1.52,1.52,0,0,0,.81-.3,2.73,2.73,0,0,0,.23-.25,2,2,0,0,0,.32-.76h0l-.54,0a1.43,1.43,0,0,1-.15.44.63.63,0,0,1-.5.33m.1-3.43h-.14a1.7,1.7,0,0,0-.45.15,1.82,1.82,0,0,0-.62.48,3.71,3.71,0,0,0-.43.68,3.53,3.53,0,0,0-.25.84h0v.05h0v.09h0l.49-.18h0a1.87,1.87,0,0,1,.31-.81,1.81,1.81,0,0,1,.58-.52,1.26,1.26,0,0,1,.43-.13H14l.2.05h0c-.08-.21-.15-.43-.24-.65h-.17m-3.16-.25h-.2l-.53.09c-.31.06-.62.12-.91.2.2.12.41.25.62.36h0L10,5.84h.79a.9.9,0,0,1,.56.23h0l-.49.39h0a.06.06,0,0,1,0,.06.55.55,0,0,1-.12.24,2.15,2.15,0,0,1-.66.45h0l0,0-.5.6h0a4.7,4.7,0,0,0,.82-.29h0a2.3,2.3,0,0,0,.68-.43,1.19,1.19,0,0,0,.35-.47.67.67,0,0,0,.07-.24h0V6.3h0A.57.57,0,0,0,11.34,6l.73.1h0a.88.88,0,0,0-.23-.56,1.26,1.26,0,0,0-.78-.32h-.44Z"/><path class="cls-55" d="M9.15,4.86h0M8.3,3.41h0v0h0m1.83,5.93h0a0,0,0,0,0,0-.05Z"/><path class="cls-56" d="M9.05,4.63h0a.14.14,0,0,1,0,.09h0Z"/><path class="cls-57" d="M9.37,4.42h0v.06h0A.06.06,0,0,1,9.37,4.42Z"/><path class="cls-58" d="M6.64,4.75a.51.51,0,0,1-.29-.13A1.24,1.24,0,0,1,6,3.82a.39.39,0,0,1-.1.08L5.83,4H5.76v.17h0a1.37,1.37,0,0,0,.16.32h0A1.09,1.09,0,0,0,6.45,5a.82.82,0,0,0,.3.07h.14l-.25-.35m.94-2.16h0v0h0v.05h0a0,0,0,0,1,0,0h0a0,0,0,0,1,0,0h0v.05h0v0h0a0,0,0,0,1,0,0h0a0,0,0,0,1,0,0h0V3h0a0,0,0,0,1,0,0h0a0,0,0,0,1,0,0h0v.35h0a0,0,0,0,1,0,0h0v0h0v0h0v0h0v0h0v0h0v.05h0v0h0a0,0,0,0,1,0,0h0a0,0,0,0,1,0,.05h0v0h0v.24h0v0h0v0h0v0h0v0h0a0,0,0,0,1,0,0h0a0,0,0,0,1,0,0h0a0,0,0,0,1,0,.05h0a0,0,0,0,1,0,0h0s0,0,0,0h0v.34h0s0,0,0,0h0l.5-.36h0v0h0V4.31h0v0h0v0h0V4.13h0v0h0V4h0V4h0V3.92h0V3.75h0V3.66h0V3.58h0V3.49h0V3.44h0v-.1h0v0h0v-.1h0V3.13h0v0h0V3h0V3h0V2.89h0V2.84h0V2.78h0v0h0V2.69h0l-.34-.11h0m1.38,0h0a0,0,0,0,1,0,0h0v.07h0v.05h0a0,0,0,0,1,0,0h0v0h0v.05h0v0h0V3h0a0,0,0,0,1,0,0h0v0h0v.05h0v0h0v.05h0v.19h0v.07h0v0h0v0h0v.07h0v0h0v.07h0a0,0,0,0,1,0,0h0v0h0v.05h0v0h0l.3.27h0l-.28.36h0v.08h0v0h0v0h0c.1-.11.21-.22.3-.34h0v0h0v0h0a0,0,0,0,1,0,0h0v-.1h0V4.17h0v0h0V4.06h0V4h0V3.93h0V3.87h0V3.82h0v0h0V3.69h0v0h0V3.58h0V3.53h0V3.47h0V3.41h0V3.35h0V3.28h0V3.22h0V3.17h0V3.1h0V3.05h0V3h0V2.93h0V2.88h0V2.81h0v-.1h0l-.33-.25v.08h0v0M11,2.44h0a.06.06,0,0,1,0,.06v.08h0v0h0v.07h0a0,0,0,0,1,0,0h0v0h0v0h0a0,0,0,0,1,0,0v.05h0V3h0V3h0v.1h0v.05h0v.13h0v.14h0v.13h0v0h0v0h0v.09h0v0h0v0h0a0,0,0,0,1,0,.05h0v0h0a0,0,0,0,1,0,0v.2h0v0h0v0h0a0,0,0,0,1,0,0v0h0v0h0v.07h0v.1h0v0h0v0h0v.05h0a0,0,0,0,1,0,0h0v.16h0l.32-.31h0V4.44h0V4.39h0V4.32h0V4.27h0V4.21h0V4.13h0V4.07h0V4h0a0,0,0,0,1,0,0h0V3.88h0V3.82h0v0h0V3.69h0v0h0V3.59h0v0h0v0h0V3.41h0v-.1h0V3.26h0v-.1h0v0h0V3.07h0V3h0V2.94h0v0h0V2.81h0V2.76h0V2.69h0l-.34-.27h0m2.07,1h0v0h0v0h0v.09h0v0h0v0h0v.41h0c.12.25.24.49.37.73l0,.07.31-.28h0a1.55,1.55,0,0,1-.36-.45,3,3,0,0,1-.29-.82h0v.1h0m-.31-.79h0l-.35-.27c0,.2-.05.39-.06.59s-.08.67-.11,1v0h0a2.55,2.55,0,0,1,.26.3h0c.05-.32.09-.65.14-1s.07-.5.1-.73M4.56,6.08h0L4.74,7l.18.84L5.55,8h0v.06l-.43.72h0l.2.91c0,.26.11.51.16.77h0c.17-.21.34-.41.5-.62H6c-.06-.36-.14-.67-.21-1s-.13-.6-.2-.9-.11-.55-.16-.84-.12-.62-.17-.94l-.51-.09-.17,0m-1.78.38h0L3,7.37l.19.91.2.91.19.9c0,.24.1.47.16.73h0l.49-.6h0l-.11-.57Q4,9.18,3.9,8.72h0a.43.43,0,0,0-.07-.23c-.08-.36-.08-.67-.18-1l-.17-.93h0l-.72-.13M9,5.53H9v0H9v0H9v0H9v0H9v0H9v0H9V6H9v0H9v0H9v.05H9v0H9V6.3H9v0H9v0H9v0H9v0H9v0H9v.05H9v0H9v0H9v0H9v0H9v0H9v0H9V7H9v.07H9v.06H9v0H9v0H9V7.5H9v.06H9v.05H9v.13H9v.07H9v.05H9v0H9V8H9V8H9v.05H9v0H9v.05H9v0H9v.12H9v0H9l.47.49h0v0h0V8.75h0V8.68h0V8.62h0v0h0V8.46h0v0h0V8.37h0v0h0V8.27h0v0h0V8.16h0V8.11h0V8.05h0V8h0v0h0V7.86h0V7.8h0V7.74h0V7.68h0V7.61h0V7.55h0V7.49h0v0h0V7.39h0v0h0v0h0V7.23h0v0h0V7.13h0V7.07h0V7h0V6.94h0V6.89h0V6.82h0V6.76h0V6.7h0v0h0V6.59h0v0h0v0h0v0h0V6.39h0v0h0v0h0V6.2h0v0h0V6.1h0v0h0V6h0V5.94h0V5.89h0l-.61-.36h0m-2.13.72h0L6,5.84H6a0,0,0,0,1,0,0H6a0,0,0,0,1,0,0H6V6H6V6H6v0H6v0H6v0H6a0,0,0,0,1,0,0H6a0,0,0,0,1,0,.05H6v0H6v0H6v.05H6v0H6a0,0,0,0,1,0,0H6a0,0,0,0,1,0,0H6a0,0,0,0,1,0,0H6v0H6v0H6v0H6v0H6v0H6a0,0,0,0,1,0,0H6a0,0,0,0,1,0,0H6v0H6v0H6V7H6V7H6v.06H6a0,0,0,0,1,0,0H6a0,0,0,0,1,0,0H6v.11H6v.05H6v0H6a0,0,0,0,1,0,0H6a0,0,0,0,1,0,0H6a0,0,0,0,1,0,0H6v0H6v0H6v0H6v0H6a0,0,0,0,1,0,0H6a0,0,0,0,1,0,0H6a0,0,0,0,1,0,0H6v0H6v0H6v0H6V8H6V8H6a0,0,0,0,1,0,0H6a0,0,0,0,1,0,0H6v0H6v0H6v.05H6v0H6a0,0,0,0,1,0,0H6a0,0,0,0,1,0,0H6v.06H6v0H6v0H6v0H6v0H6a0,0,0,0,1,0,.05H6a0,0,0,0,1,0,0H6v.07H6v0H6v0H6V8.9H6v0H6A0,0,0,0,1,6,9h.65v.13h0v0h0v0h0v.15h0l.48-.63a.09.09,0,0,1,0-.05h0a4.2,4.2,0,0,0-.06-.61h0V8h0V8h0v0h0v0h0V7.81h0v0h0v0h0v.61h0V8.25h0V8.18h0V8.12h0v0h0V7.79h0a1.87,1.87,0,0,0,0-.53H7V7.17H7v0H7v0H7V7H7V7H7V6.89H7V6.83H7V6.76H7v0H7v0H7v0H7V6.49H7V6.42H7v-.2m3.55,1.32h0l-.3.61h0c.14.22.3.44.45.65l.45.66.28.41a.66.66,0,0,0,.06-.2c0-.23.1-.44.15-.66l-.16-.22-.46-.64-.47-.64h0m2,0h0l-.71.23h0v0h0a0,0,0,0,1,0,0v.06h0v0h0V8h0v.05h0v0h0v.14h0a0,0,0,0,1,0,0h0v0h0v.05h0v.08h0a2.19,2.19,0,0,0,.2.66h0a1.75,1.75,0,0,0,.5.61,1.57,1.57,0,0,0,.78.28h0l-.25-.59a1.09,1.09,0,0,1-.44-.29,1.33,1.33,0,0,1-.28-.79h0V8.29h0v0h0V8.19h0V8.12h0V8.05h0V8h0V8h0V7.89h0V7.57m1.8-1.44h0l-.33.52h0a.58.58,0,0,1,.4.44,2.2,2.2,0,0,1,.06.37v0h0v0h0v0h0v0h0a.08.08,0,0,1,0,.07h0v.1h0v0h0v0h0v.05h0l.54-.05h0A1.28,1.28,0,0,0,15,7.55h0v.11h0v0h0v0h0V7.52h0V7.38h0v0a1.6,1.6,0,0,0-.18-.68,1.31,1.31,0,0,0-.54-.53Z"/><path class="cls-59" d="M6.83,4.42h0Z"/><path class="cls-60" d="M7.79,4.93h0v0m0-.41h0v0l0,0Z"/><path class="cls-61" d="M7.79,4.86v0h0m0-.41h0v0Z"/><path class="cls-62" d="M7.78,4.77h0v0h0m0-.42h0v0h0M9.05,5.82h0v0Z"/><path class="cls-63" d="M7.77,4.68h0a0,0,0,0,0,0,0v.05Z"/><path class="cls-64" d="M7.76,4.6h0a0,0,0,0,0,0,0v.05Z"/><path class="cls-65" d="M8.08,4.5h0a0,0,0,0,0,0,0v0M8,3.41a0,0,0,0,0,0,0H8Z"/><path class="cls-66" d="M8.08,4.31h0a0,0,0,0,0,0,0v0m4.82-.83h0v0h0A0,0,0,0,0,12.9,3.48Z"/><path class="cls-67" d="M8.08,4.21h0v0m0-.08h0v0M8,3.09H8v0m3.1.84h0V4h0Z"/><path class="cls-68" d="M8.08,4.05h0a0,0,0,0,0,0,0v0h0M8,3H8V3m1.36.56h0V3.53h0v0m0-.35h0v.06h0V3.22m0-.29h0V3h0v0M9.58,7h0V6.94h0V7h0m2.83,1.32h0a0,0,0,0,0,0,0Z"/><path class="cls-69" d="M8.08,4a0,0,0,0,0,0,0V4h0M8,2.84H8v0H8M9.36,4.18h0v0h0m0-.29h0v0h0v.05h0M7,8.1H7a0,0,0,0,0,0,0v0m0,.07v0H7M6.9,6.54h0v0m0-.07h0v0Z"/><path class="cls-70" d="M8.08,3.88a0,0,0,0,0,0,0v.05h0m0-.08h0v0M8,2.77H8a0,0,0,0,0,0,0Z"/><path class="cls-71" d="M8.33,4V4h0m7.22,3.28h0v0Z"/><path class="cls-72" d="M8.32,4h0V4m1.83,5.7h0v0Z"/><path class="cls-73" d="M8.32,3.86h0v0m4.49.72h0v0h0Z"/><path class="cls-74" d="M7.47,3.83h0V3.9h0Z"/><path class="cls-75" d="M7.72,4.06v.05h0S7.73,4.07,7.72,4.06Z"/><path class="cls-76" d="M7.72,4a0,0,0,0,0,0,0V4h0Z"/><path class="cls-77" d="M7.71,3.94a0,0,0,0,0,0,0V4h0m0-.41h0v0a.05.05,0,0,0,0,0Z"/><path class="cls-78" d="M7.71,3.85h0v0h0m0-.42V3.38a0,0,0,0,0,0,.05Z"/><path class="cls-79" d="M7.71,3.78h0v0h0m0-.42h0a0,0,0,0,0,0,0v0Z"/><path class="cls-80" d="M7.7,3.69h0v0h0m3.09,0h0V3.59h0v.05h0M9.53,8.93V9h0Z"/><path class="cls-81" d="M7.69,3.61h0v0m-.6,5h0v0a0,0,0,0,0,0,.05h0m0-.06h0v0a0,0,0,0,0,0,0M6.93,6.88h0v0m0,0v0h0Z"/><path class="cls-82" d="M7.47,3.7h0v0Z"/><path class="cls-83" d="M7.66,3.28h0a0,0,0,0,0,0,0v0Z"/><path class="cls-84" d="M8.31,3.71h0v0h0v0M9.68,4h0a0,0,0,0,0,0,.05h0Z"/><path class="cls-85" d="M8.31,3.7a0,0,0,0,0,0,0v0Z"/><path class="cls-86" d="M8.3,3.59h0a0,0,0,0,0,0,0Z"/><path class="cls-87" d="M8,3.54H8a0,0,0,0,0,0,0v0H8m3.1.11h0v0h0V3.65M9.61,6.3h0v0h0Z"/><path class="cls-88" d="M8,3.33a0,0,0,0,0,0,0,0,0,0,0,0,0,0H8M9.55,9.11h0v0Z"/><path class="cls-89" d="M6.79,3.2H6.73a.11.11,0,0,0-.08,0,.77.77,0,0,0-.22.54v0h0V3.9h0V4h0a.45.45,0,0,0,.34.43h.09A.41.41,0,0,0,7.17,4h0V4h0V3.91a1.67,1.67,0,0,0-.11-.44.41.41,0,0,0-.27-.27m3-.17H9.68a0,0,0,0,1,0,0v.07h0v0h0a0,0,0,0,1,0,0v0h0v0h0v.11h0a0,0,0,0,1,0,0h0v0h0v.14h0V3.7h0a0,0,0,0,1,0,0h0v0h0v0h0a0,0,0,0,1,0,0h0v.19h0v.07h0a.74.74,0,0,0,.5-.6h0V3.41h0a.38.38,0,0,0-.37-.34m.9,3.23h-.15a2.76,2.76,0,0,0-.4.06h0V6.5h0a0,0,0,0,1,0,0v.09h0v0h0v0h0a.06.06,0,0,1,0,.06h0v0h0v0h0V7h0V7.1h0v0h0v0h0a2.27,2.27,0,0,0,.66-.45.55.55,0,0,0,.12-.24h0V6.43h0a.21.21,0,0,0-.24-.17Z"/><path class="cls-90" d="M8,3.18H8v0m7,4.43h0v0h0Z"/><path class="cls-91" d="M7.66,3.19h0s0,0,0,0v0Z"/><path class="cls-92" d="M7.66,3.11v0h0Z"/><path class="cls-93" d="M7.64,3h0V3Z"/><path class="cls-94" d="M7.63,2.78h0a0,0,0,0,0,0,0Z"/><path class="cls-95" d="M7.63,2.87h0a0,0,0,0,0,0,0Z"/><path class="cls-96" d="M8.3,2.49h0v0m0-.08Z"/><path class="cls-97" d="M8.29,2.41h0L8,2.69H8v0H8v0H8v0H8v0H8v.05H8V3H8v.17H8v0H8v.1H8v0H8v.1H8v0H8v0H8v0H8v0H8v0H8v0H8v.05H8v0H8l.11.37h0v0h0v0h0a0,0,0,0,1,0,0h0V4.4h0a0,0,0,0,1,0,0h0c.08-.13.16-.26.23-.39h0v.08h0V4.05h0V4h0V3.9h0v0h0V3.76h0v0h0v0h0V3.61h0V3.54h0V3.45h0v0h0V3.35h0V3.3h0v0h0V3.18h0V3.13h0V3.06h0V3h0V2.82h0V2.69h0V2.61h0V2.55h0v0h0a.11.11,0,0,0,0-.08M5.24,6.21h0c0,.32.11.64.17.94s.1.57.16.84.13.61.2.91.14.59.21.88l.66.13h0V9.78h0v0h0v0q-.1-.33-.18-.66c0-.23-.14-.61-.2-.91s-.11-.62-.16-.95-.14-.65-.18-1h0v0h0a.33.33,0,0,1,0-.14h0a0,0,0,0,1,0,0h0a0,0,0,0,1,0-.05h0v0h0V5.77h0v0h0V5.66h0a0,0,0,0,1,0,0l0,0-.57.54m-1.15-.1V6h0l-.55.56h0l.17.93c.07.3.13.61.18.92A.48.48,0,0,0,4,8.64H4l.44-.59h0l-.25-1-.13-1m2.8.11h0v.2h0v0h0v0h0v0h0v0h0v0h0v0h0v0h0v0h0v0h0V7h0v0h0v.05h0v0h0a5,5,0,0,0,0,.53h0V8h0V8h0v.05h0v0h0v0h0v0h0v.05h0a0,0,0,0,1,0,0h0v0h0v0h0v0h0v0h0v.05h0c0,.2,0,.4.06.6H7l.43-.67.06-.09h0V8.27h0v0h0v.24h0V8.37h0V8.28h0V8.2h0C7.43,8,7.23,7.89,7,7.74H7l.53-.49h0v0h0v0h0v0h0V7h0V6.94h0V6.89h0V6.76h0V6.64h0Z"/><path class="cls-98" d="M9.37,4.37h0v0A0,0,0,0,0,9.37,4.37Z"/><path class="cls-99" d="M9.37,4.23h0v.06h0V4.23m0-.3h0V4h0V3.93m0-.29v0h0v0h0m0-.3h0a.06.06,0,0,0,0,.06h0V3.34m0-.3h0a0,0,0,0,0,0,0h0Z"/><path class="cls-100" d="M9.36,4.06v.07h0v0m0-.23h0v0h0m0-.31h0v0m0-.29h0v0h0m0-.3h0a0,0,0,0,0,0-.05V3h0m1.75,1.13h0v0h0A0,0,0,0,0,11.11,4.08Z"/><path class="cls-101" d="M9.68,4V4Z"/><path class="cls-102" d="M9.66,3.84h0a0,0,0,0,0,0,0v0h0M10.12,9h0m0-.29h0v.06h0Z"/><path class="cls-103" d="M9.67,3.41h0v0h0A0,0,0,0,0,9.67,3.41Z"/><path class="cls-104" d="M9.68,3.22h0v0h0Z"/><path class="cls-105" d="M10.17,3.48h0a.11.11,0,0,0,0-.08Z"/><path class="cls-106" d="M9,4v0H9V4H9Z"/><path class="cls-107" d="M9,3.76v0H9A0,0,0,0,0,9,3.76Z"/><path class="cls-108" d="M9,3.14H9a0,0,0,0,0,0-.05v.05Z"/><path class="cls-109" d="M9,3H9A.06.06,0,0,0,9,3H9Z"/><path class="cls-110" d="M9,2.86H9v0Z"/><path class="cls-111" d="M9,2.73H9v0H9Z"/><path class="cls-112" d="M9,2.63H9a0,0,0,0,0,0,0Z"/><path class="cls-113" d="M9.68,3.05h0v0h0S9.69,3.07,9.68,3.05Z"/><path class="cls-114" d="M12.8,4.76h0v0h0Z"/><path class="cls-115" d="M12.8,4.7h0v0h0v0M10.12,8.85h0v0h0v0Z"/><path class="cls-116" d="M12.81,4.6h0v0h0v0M10.14,9.43h0a0,0,0,0,0,0,0v0h0m0-2.44h0V7h0V7Z"/><path class="cls-117" d="M13.58,4.55v0h0a0,0,0,0,0,0,0h0M6.64,9.76h0a0,0,0,0,0,0,0v0M15,7.52h0v0h0Z"/><path class="cls-118" d="M13.59,4.46h0v0h0v0m0-.06h0v.05h0a0,0,0,0,0,0-.05M7.07,8.46h0a0,0,0,0,0,0,0v.05m2.46,0v0h0v0h0M6.93,6.81h0v0Z"/><path class="cls-119" d="M13.92,4.79h0l-.34-.19h0a4,4,0,0,1-.3.28,1.8,1.8,0,0,0,.51,0h.14M12.16,5h0a2.18,2.18,0,0,0,.63-.09h0l-.31-.21h0Z"/><path class="cls-120" d="M13.93,4.52h0v0h0A0,0,0,0,0,13.93,4.52Z"/><path class="cls-121" d="M10.76,4.69h0v0h0V4.68Z"/><path class="cls-122" d="M11.09,4.44h0v0h0v0M12.41,8h0v.05h0Z"/><path class="cls-123" d="M11.44,4.48h0m.88-.09Z"/><path class="cls-124" d="M12,4.42h0m-.8-1.73Z"/><path class="cls-125" d="M11.43,4h0v0h0Z"/><path class="cls-126" d="M11.44,3.94h0V4h0v0h0m0-.09h0v0h0Z"/><path class="cls-127" d="M12.07,3.66h0v0S12.06,3.65,12.07,3.66Z"/><path class="cls-128" d="M12.06,3.61h0a0,0,0,0,0,0,0v0Z"/><path class="cls-129" d="M12.05,3.54h0a0,0,0,0,0,0,0Z"/><path class="cls-130" d="M12,3.27h0c-.06.08-.12.17-.19.25h0l.22.2h0v0h0a0,0,0,0,1,0-.05h0v0h0V3.53h0V3.41h0V3.33h0Z"/><path class="cls-131" d="M11.09,4.39h0v0h0v0M9.65,5.89h0v0h0Z"/><path class="cls-132" d="M11.1,4.33h0v0h0Z"/><path class="cls-133" d="M11.1,4.21h0v0h0v0m.06-1h0v.05h0V3.17M7.09,8.71h0v0m0,.06h0a0,0,0,0,0,0,0v0M7,7.1v.05H7a0,0,0,0,0,0,0m0,0a0,0,0,0,0,0-.05v.05H7m2.64-.26h0V6.76h0v0h0Z"/><path class="cls-134" d="M11.11,4h0v0h0V4m.06-1.2h0V2.76h0v.05h0M9.53,8h0V8h0Z"/><path class="cls-135" d="M11.11,3.88h0v.05h0V3.88M9.53,9h0a0,0,0,0,0,0,0h0Z"/><path class="cls-136" d="M11.12,3.82h0v.05h0a0,0,0,0,0,0-.05h0M9.6,6.65h0v0h0v0h0m0-.15h0v0h0v0m0-.15h0v0h0a.2.2,0,0,0,0-.05Z"/><path class="cls-137" d="M10.77,4.23h0v0h0Z"/><path class="cls-138" d="M10.77,4.13v0h0Z"/><path class="cls-139" d="M10.78,3.9h0v0h0a0,0,0,0,0,0,0m0-.2h0v0M9.53,8.27v0h0v0h0m0-.59h0v.06h0Z"/><path class="cls-140" d="M10.49,3.48h0a.9.9,0,0,0-.09-.33.78.78,0,0,0-.68-.46H9.37L9.71,3h.13a.38.38,0,0,1,.37.34h0l.3.12h0m1.18-.77h-.53l.32.29h.72L12,2.69h-.27M5.56,8H5.48l-.78.33-.79.31h0L4.54,9h0l.58-.24h0L5.54,8V7.94m7.77-1.8a1.65,1.65,0,0,0-.59.52,1.94,1.94,0,0,0-.31.87h0l.57.32h0a4,4,0,0,1,.3-.81.9.9,0,0,1,.46-.42h.14l.33-.52h0a.46.46,0,0,0-.2,0h-.26a1.11,1.11,0,0,0-.43.15Z"/><path class="cls-141" d="M11.13,3.7h0v0h0A0,0,0,0,0,11.13,3.7Z"/><path class="cls-142" d="M11.13,3.41v.07h0v0h0m0-.49h0V3h0s0,0,0,0Z"/><path class="cls-143" d="M11.15,3.31h0v0h0v0h0m0-.19a0,0,0,0,0,0-.05h0v.05h0m0-.31h0v0h0Z"/><path class="cls-144" d="M10.81,2.87h0v0h0Z"/><path class="cls-145" d="M10.82,2.69h0v0h0Z"/><path class="cls-146" d="M10.82,2.44h0V2.5h0a0,0,0,0,0,0,0Z"/><path class="cls-147" d="M12.25,2.89v0h0m0-.08v0a0,0,0,0,0,0,0h0m0-.06h0v0a0,0,0,0,0,0,0Z"/><path class="cls-148" d="M12.22,2.69h0a0,0,0,0,0,0,0V2.7Z"/><path class="cls-149" d="M13.93,4.4h0v0h0A0,0,0,0,0,13.93,4.4Z"/><path class="cls-150" d="M12.82,4.39h0v0h0Z"/><path class="cls-151" d="M12.51,4.37h0l-.33.31h0a.67.67,0,0,1,0,.2v0h0l.33-.3h0a1.07,1.07,0,0,0,0-.25h0m1-1.83h0a.8.8,0,0,1,0,.26c0,.34-.07.67-.11,1h0c.06.25.13.5.2.72h0a0,0,0,0,1,0,0h0v0h0V4.39h0c0-.32.09-.65.14-1a7.11,7.11,0,0,1,.14-.72h0l-.37-.17Z"/><path class="cls-152" d="M12.88,3.73h0v0h0Z"/><path class="cls-153" d="M13.13,2.63h0v0Z"/><path class="cls-154" d="M13.13,2.69h0a0,0,0,0,0,0,0Z"/><path class="cls-155" d="M13.13,2.52v0h0A0,0,0,0,0,13.13,2.52Z"/><path class="cls-156" d="M13.13,2.5h0a0,0,0,0,0,0,0Z"/><path class="cls-157" d="M9,9.78H9v0H9Z"/><path class="cls-158" d="M9,9.55H9v0H9A0,0,0,0,0,9,9.55Z"/><path class="cls-159" d="M10.16,9.68h0l-.58-.26h0L9,10H9l.89-.22Z"/><path class="cls-160" d="M10.15,9.57h0v0Z"/><path class="cls-161" d="M10.15,9.43h0a0,0,0,0,0,0,.05h0Z"/><path class="cls-162" d="M6.58,9.53v0h0Z"/><path class="cls-163" d="M6.57,9.42h0v0A0,0,0,0,0,6.57,9.42Z"/><path class="cls-164" d="M6.56,9.37h0a0,0,0,0,0,0,0Z"/><path class="cls-165" d="M7.68,8.67h0a0,0,0,0,0,0-.05v.05Z"/><path class="cls-166" d="M7.67,8.59h0a0,0,0,0,0,0-.05v.05Z"/><path class="cls-167" d="M7.11,8.85h0v0M7,7.22H7v0Z"/><path class="cls-168" d="M6.54,9.19h0v0Z"/><path class="cls-169" d="M6.55,9.26h0v0M9,5.58H9v0A0,0,0,0,0,9,5.58Z"/><path class="cls-170" d="M6.52,9h0a0,0,0,0,0,0,0Z"/><path class="cls-171" d="M6.52,9h0V9Z"/><path class="cls-172" d="M6.51,8.86h0v0Z"/><path class="cls-173" d="M6.49,8.75h0v0Z"/><path class="cls-174" d="M6.48,8.64h0a0,0,0,0,0,0-.05Z"/><path class="cls-175" d="M6.48,8.64v0h0a0,0,0,0,0,0,0m-.2-1.88v0a.06.06,0,0,0,0,.06h0Z"/><path class="cls-176" d="M6.47,8.52h0v0Z"/><path class="cls-177" d="M6.45,8.36h0v0Z"/><path class="cls-178" d="M6.44,8.29a0,0,0,0,0,0,0V8.3h0Z"/><path class="cls-179" d="M6.44,8.25h0v0Z"/><path class="cls-180" d="M6.43,8.18h0a0,0,0,0,0,0,0Z"/><path class="cls-181" d="M7.09,8.63h0v0h0M6.94,7h0a0,0,0,0,0,0,0Z"/><path class="cls-182" d="M7.06,8.37h0v0m0-.08a0,0,0,0,0,0-.05V8.3h0M6.92,6.76h0v0h0m0-.07h0a0,0,0,0,0,0,0v0Z"/><path class="cls-183" d="M7.05,8.23h0v0M6.91,6.62h0v0Z"/><path class="cls-184" d="M6.41,8h0v0a0,0,0,0,0,0,0Z"/><path class="cls-185" d="M6.4,7.91h0a0,0,0,0,0,0,0Z"/><path class="cls-186" d="M6.39,7.79h0v0Z"/><path class="cls-187" d="M6.39,7.84h0a0,0,0,0,0,0,0Z"/><path class="cls-188" d="M6.36,7.51h0a0,0,0,0,0,0,0,0,0,0,0,0,0,0Z"/><path class="cls-189" d="M7.55,7.09h0v0h0Z"/><path class="cls-190" d="M7.55,7h0m8,.38h0v0Z"/><path class="cls-191" d="M7.54,7h0a0,0,0,0,0,0,0Z"/><path class="cls-192" d="M10.12,8.85h0v0h0v0M15.54,7.4h0v0h0Z"/><path class="cls-193" d="M10.12,8.73h0v0Z"/><path class="cls-194" d="M9.53,9.19v0h0a0,0,0,0,0,0,0h0m0-1.87h0v0h0V7.29m2.8.72h0V8h0V8Z"/><path class="cls-195" d="M9.53,8.88h0l-.48.63h0a.06.06,0,0,1,0,.06v0h0v.05h0v.05h0a0,0,0,0,1,0,0v.05h0v.1h0v0h0l.53-.54h0V9.36h0v0h0V9.26h0V9.19h0V9.13h0v0h0V9h0V9h0V9Z"/><path class="cls-196" d="M9.53,8.57h0v.07h0Z"/><path class="cls-197" d="M9.53,8.52h0v0h0v0M9.6,6.2h0v0h0Z"/><path class="cls-198" d="M9.53,8.16h0v.06h0Z"/><path class="cls-199" d="M9.06,8.33h0v0h0A0,0,0,0,0,9.06,8.33Z"/><path class="cls-200" d="M9.06,7.6h0a0,0,0,0,0,0,0h0v0Z"/><path class="cls-201" d="M9.06,7.28h0a0,0,0,0,0,0,0h0Z"/><path class="cls-202" d="M9.06,6.88h0a0,0,0,0,0,0,0Z"/><path class="cls-203" d="M9.06,6.93h0V7h0A.07.07,0,0,0,9.06,6.93Z"/><path class="cls-204" d="M9.06,6.93h0a0,0,0,0,0,0,0h0Z"/><path class="cls-205" d="M9.56,7.86h0v.06h0A.06.06,0,0,0,9.56,7.86Z"/><path class="cls-206" d="M9.57,7.61h0v0h0V7.6h0m0-.61h0V7h0a0,0,0,0,0,0,0Z"/><path class="cls-207" d="M9.57,7.55h0v0h0v0m0-1.5h0v0h0A.07.07,0,0,0,9.62,6.05Z"/><path class="cls-208" d="M9.58,7.4h0v0h0v0m0-.21h0v0h0Z"/><path class="cls-209" d="M10.13,6.87h0v0h0A0,0,0,0,0,10.13,6.87Z"/><path class="cls-210" d="M6.34,7.4v0h0A0,0,0,0,0,6.34,7.4Z"/><path class="cls-211" d="M6.33,7.28h0v0Z"/><path class="cls-212" d="M6.31,7.11h0a0,0,0,0,0,0-.05v.05Z"/><path class="cls-213" d="M6.32,7.16v0h0Z"/><path class="cls-214" d="M6.31,7.06h0v0Z"/><path class="cls-215" d="M6.27,6.72h0a0,0,0,0,0,0,0Z"/><path class="cls-216" d="M6.26,6.67h0a0,0,0,0,0,0,0Z"/><path class="cls-217" d="M6.26,6.6h0v0Z"/><path class="cls-218" d="M6.24,6.44h0a0,0,0,0,0,0-.05v.05Z"/><path class="cls-219" d="M6.22,6.3h0a0,0,0,0,0,0,0Z"/><path class="cls-220" d="M6.23,6.3h0a0,0,0,0,0,0,0,0,0,0,0,0,0,0Z"/><path class="cls-221" d="M6.23,6.38h0v0Z"/><path class="cls-222" d="M6.2,6.1h0v0Z"/><path class="cls-223" d="M6.19,6h0V6Z"/><path class="cls-224" d="M5.92,6h0v0A0,0,0,0,0,5.92,6Z"/><path class="cls-225" d="M5.92,5.92a0,0,0,0,0,0,0,0,0,0,0,0,0,0h0Z"/><path class="cls-226" d="M5.92,5.87v0Z"/><path class="cls-227" d="M6.18,5.92h0a0,0,0,0,0,0,0Z"/><path class="cls-228" d="M6.18,5.87h0a0,0,0,0,0,0,0Z"/><path class="cls-229" d="M10.14,6.72h0v.06h0A.06.06,0,0,0,10.14,6.72Z"/><path class="cls-230" d="M10.15,6.47h0v0h0Z"/><path class="cls-231" d="M9.59,6.82h0v0h0A0,0,0,0,0,9.59,6.82Z"/><path class="cls-232" d="M9.63,5.94h0V6h0Z"/><path class="cls-233" d="M9.06,6.58h0v0Z"/><path class="cls-234" d="M9.05,6.33v0h0Z"/><path class="cls-235" d="M9,6.09H9v0H9Z"/><path class="cls-236" d="M9,6.08H9A0,0,0,0,0,9,6Z"/><path class="cls-237" d="M9,6H9V6Z"/><path class="cls-238" d="M9,6H9V6H9Z"/><path class="cls-239" d="M9,5.9H9a0,0,0,0,0,0,0v0Z"/><path class="cls-240" d="M14.37,7.74h0a.06.06,0,0,0,0-.06Z"/><path class="cls-241" d="M14.37,7.62h0v0Z"/><path class="cls-242" d="M14.37,7.52h0v0Z"/><path class="cls-243" d="M15,7.38h0a0,0,0,0,0,0,0Z"/><path class="cls-244" d="M11.89,8.32v0h0S11.9,8.33,11.89,8.32Z"/><path class="cls-245" d="M11.89,8.3a0,0,0,0,0,0-.05V8.3Z"/><path class="cls-246" d="M10.42,7.55h0a4.7,4.7,0,0,1-.82.29h0l.55.31h0Z"/><path class="cls-247" d="M11.89,7.84h0v0h0A0,0,0,0,0,11.89,7.84Z"/><path class="cls-248" d="M12.41,8.18a.06.06,0,0,0,0-.06v.06Z"/><path class="cls-249" d="M13,8.21h0v0Z"/><path class="cls-250" d="M13,8.06h0V8h0Z"/><path class="cls-251" d="M12.41,7.89h0v.05h0A0,0,0,0,0,12.41,7.89Z"/><path class="cls-89" d="M13.86,6.66H13.8a.86.86,0,0,0-.46.42,4,4,0,0,0-.3.81V8h0v.09h0v0h0v.05h0v0h0a.65.65,0,0,0,.46.64h.23a.64.64,0,0,0,.49-.33,1.21,1.21,0,0,0,.15-.44h0V8h0V7.92h0V7.86h0V7.74h0v0h0V7.62h0v0h0V7.52h0v0a1.65,1.65,0,0,0,0-.38.58.58,0,0,0-.41-.43h-.05m-.08.72h.05a.21.21,0,0,1,.16.21h0v0h0v0h0v.06h0v0h0v0h0v0h0v0h0V8a.37.37,0,0,1-.16.24h-.05c-.18,0-.28,0-.3-.2h0V7.91h0v0h0V7.81a.48.48,0,0,1,.3-.44Z"/><path class="cls-252" d="M14,7.91h0V8h0A0,0,0,0,0,14,7.91Z"/><path class="cls-253" d="M14,7.79h0a0,0,0,0,0,0,0Z"/><path class="cls-19" d="M14,7.61v0h0Z"/><path class="cls-254" d="M11.53,6.39h0a.17.17,0,0,0,0-.1Z"/><path class="cls-255" d="M12.11,6.21h0a.11.11,0,0,0,0-.08Z"/><path class="cls-256" d="M10.91,6.44h0v0h0A0,0,0,0,0,10.91,6.44Z"/><path class="cls-257" d="M10.83,5.79h0Z"/><path class="cls-258" d="M11.08,5.2h0Z"/></g></svg>