<svg id="Layer_1" data-name="Layer 1" xmlns="http://www.w3.org/2000/svg" viewBox="0 0 79.34 22.59">
  <defs>
    <style>
      .cls-1 {
        fill: #fff;
      }

      .cls-2 {
        fill: #808184;
      }
    </style>
  </defs>
  <title>Hack_2x</title>
  <g id="Layer_2" data-name="Layer 2">
    <g id="Layer_1-2" data-name="Layer 1-2">
      <path class="cls-1" d="M5.25,9.1H7.52V11l3.59.09V.66c0-.12-.06-.2-.16-.2H7.68c-.1,0-.16.08-.16.2V5.6H5.25V.66c0-.12-.06-.2-.16-.2H1.86c-.1,0-.16.08-.16.2V10.8l3.55.09Z" transform="translate(0 0.05)"/>
      <path class="cls-1" d="M19.43.6a.15.15,0,0,0-.17-.16H15.71c-.07,0-.13,0-.16.16l-3,10.46,9.88.26ZM16.54,9.4l.93-5.91.91,5.91Z" transform="translate(0 0.05)"/>
      <path class="cls-1" d="M36.33,11.19,37.9,8.9l1.18,2.87,3.7.09L40,5.8,43.52.7c.1-.14,0-.24-.08-.24h-3.7a.18.18,0,0,0-.18.12L36.33,5.77V.66c0-.12-.06-.2-.15-.2h-3c-.09,0-.15.08-.15.2V11.6l3.33.08Z" transform="translate(0 0.05)"/>
      <path class="cls-1" d="M53.77,9.92c0-5.44-6.13-3.51-6.13-5.66,0-.61.52-.89,1.24-.89A3.44,3.44,0,0,1,51.33,4.6a.12.12,0,0,0,.17,0h0a.06.06,0,0,0,0-.06l1.67-2.31a.24.24,0,0,0,0-.28,5.28,5.28,0,0,0-4.23-2c-2.26,0-4.69,1.12-4.69,4.68,0,5.72,6.2,3.45,6.2,5.79,0,.72-.58,1.08-1.42,1.08a3.9,3.9,0,0,1-3-1.9c-.06-.08-.15-.1-.21,0l-1.62,2.3,9.2.23A5.74,5.74,0,0,0,53.77,9.92Z" transform="translate(0 0.05)"/>
      <path class="cls-1" d="M61.33.6a.15.15,0,0,0-.17-.16H57.62c-.08,0-.14,0-.17.16L54.14,12.15l10.5.27ZM58.44,9.4l.94-5.91.9,5.91Z" transform="translate(0 0.05)"/>
      <path class="cls-1" d="M71.21,6.71l.93,5.89,3.83.1L79.34.7c0-.14,0-.22-.12-.22H76.05c-.08,0-.15.06-.16.19l-1.67,7-1.37-7a.19.19,0,0,0-.17-.19h-3c-.09,0-.15.08-.17.19l-1.36,7-1.68-7a.17.17,0,0,0-.17-.19H63.19c-.1,0-.15.08-.12.22l3.26,11.78,4,.12Z" transform="translate(0 0.05)"/>
      <path class="cls-1" d="M31.46,10.46a.06.06,0,0,0-.05-.06h0a2.37,2.37,0,0,1-2,1c-1.74,0-2.56-1.73-2.56-4,0-2.09.68-3.95,2.6-3.95a2.28,2.28,0,0,1,2,1m.07,0h0V.6a.22.22,0,0,0-.14-.2A6.4,6.4,0,0,0,29.3.05C25.45.05,23,3.43,23,7.7a9.07,9.07,0,0,0,.72,3.67l7.82.2Z" transform="translate(0 0.05)"/>
      <path class="cls-1" d="M5.82,14.87c0,.12.06.19.16.19H9.25c.09,0,.15-.08.15-.19V11.6l-3.59-.1Z" transform="translate(0 0.05)"/>
      <path class="cls-1" d="M.16,15.07H3.4c.1,0,.16-.08.16-.19V11.45L0,11.36v3.51C0,15,.07,15.07.16,15.07Z" transform="translate(0 0.05)"/>
      <path class="cls-1" d="M10.05,15.07h3.28a.2.2,0,0,0,.18-.16l.42-1.81H17.6L18,14.91a.2.2,0,0,0,.18.16h3.27c.1,0,.15-.1.12-.24l-.83-2.94-9.9-.29-.92,3.19C9.88,15,9.94,15.07,10.05,15.07Z" transform="translate(0 0.05)"/>
      <path class="cls-1" d="M38.45,14.93a.19.19,0,0,0,.18.14h3.42c.12,0,.16-.1.1-.24l-1.08-2.41-3.7-.1Z" transform="translate(0 0.05)"/>
      <path class="cls-1" d="M31.45,15.07h3c.09,0,.15-.08.15-.19V12.25l-3.27-.09v2.71C31.33,15,31.33,15.07,31.45,15.07Z" transform="translate(0 0.05)"/>
      <path class="cls-1" d="M42.2,13.1a6.18,6.18,0,0,0,4.91,2.43,4.75,4.75,0,0,0,4.56-2.83l-9.21-.25-.26.38A.23.23,0,0,0,42.2,13.1Z" transform="translate(0 0.05)"/>
      <path class="cls-1" d="M52,15.07h3.26a.18.18,0,0,0,.18-.16l.42-1.81h3.67l.42,1.81a.2.2,0,0,0,.18.16h3.25c.11,0,.15-.1.12-.24L62.93,13l-10.5-.27-.61,2.12C51.78,15,51.84,15.07,52,15.07Z" transform="translate(0 0.05)"/>
      <path class="cls-1" d="M70.71,14.89a.17.17,0,0,0,.16.18h2.79c.08,0,.14-.06.16-.18l.45-1.61-3.83-.1Z" transform="translate(0 0.05)"/>
      <path class="cls-1" d="M65.33,15.07h2.78c.09,0,.15-.08.16-.18l.28-1.76L64.64,13l.52,1.86C65.21,15,65.27,15.07,65.33,15.07Z" transform="translate(0 0.05)"/>
      <path class="cls-1" d="M27.61,15.6a6.48,6.48,0,0,0,2-.31.22.22,0,0,0,.14-.2v-3l-7.82-.2A6,6,0,0,0,27.61,15.6Z" transform="translate(0 0.05)"/>
      <path class="cls-2" d="M4.91,19.6H3.68V19q0-.15-.18-.15H3.25q-.18,0-.18.15V21.6q0,.15.18.15H3.5q.18,0,.18-.15v-.73H3.33v-.76H4.91v1.58c0,.57-.34.85-1,.85h-1c-.7,0-1-.28-1-.85V19c0-.56.34-.84,1-.84h1c.69,0,1,.28,1,.84Z" transform="translate(0 0.05)"/>
      <path class="cls-2" d="M18.11,22.49,18,21.84H16.88l-.15.65H15.51l1.17-4.39h1.51l1.14,4.39Zm-1-1.51h.71l-.39-1.58Z" transform="translate(0 0.05)"/>
      <path class="cls-2" d="M31.13,22.49H30V18.11h1.31l.75,2.34.74-2.34h1.34v4.38h-1.1V19.71l-.53,1.89h-.85l-.56-1.83Z" transform="translate(0 0.05)"/>
      <path class="cls-2" d="M45.15,18.11h1.24v4.38H45.15Z" transform="translate(0 0.05)"/>
      <path class="cls-2" d="M59.41,18.11h1.14v4.38H59.49l-1-2.3v2.3H57.33V18.11h1.05l1,2.34Z" transform="translate(0 0.05)"/>
      <path class="cls-2" d="M74.55,19.6H73.33V19q0-.15-.18-.15H72.9q-.18,0-.18.15V21.6q0,.15.18.15h.24q.18,0,.18-.15v-.73H73v-.76h1.6v1.58c0,.57-.35.85-1,.85h-1c-.7,0-1-.28-1-.85V19c0-.56.33-.84,1-.84h1c.69,0,1,.28,1,.84Z" transform="translate(0 0.05)"/>
    </g>
  </g>
</svg>
