<svg id="Layer_1" data-name="Layer 1" xmlns="http://www.w3.org/2000/svg" xmlns:xlink="http://www.w3.org/1999/xlink" viewBox="0 0 42.74 9.83"><defs><style>.cls-1{fill:#f5f5f5;}.cls-2{fill:url(#linear-gradient);}.cls-3{fill:url(#linear-gradient-2);}.cls-4{fill:url(#linear-gradient-3);}.cls-5{fill:url(#linear-gradient-4);}.cls-6{fill:url(#linear-gradient-5);}.cls-7{fill:url(#linear-gradient-6);}.cls-8{fill:url(#linear-gradient-7);}</style><linearGradient id="linear-gradient" x1="15.2" y1="5.98" x2="17.35" y2="3.83" gradientUnits="userSpaceOnUse"><stop offset="0" stop-opacity="0"/><stop offset="1" stop-opacity="0.5"/></linearGradient><linearGradient id="linear-gradient-2" x1="7.33" y1="7.27" x2="5.52" y2="4.69" xlink:href="#linear-gradient"/><linearGradient id="linear-gradient-3" x1="38.09" y1="2.5" x2="33.19" y2="6.7" xlink:href="#linear-gradient"/><linearGradient id="linear-gradient-4" x1="31.02" y1="6.07" x2="34" y2="3.09" xlink:href="#linear-gradient"/><linearGradient id="linear-gradient-5" x1="31.28" y1="4.86" x2="24.8" y2="4.86" xlink:href="#linear-gradient"/><linearGradient id="linear-gradient-6" x1="25.25" y1="7.84" x2="28.35" y2="5.44" xlink:href="#linear-gradient"/><linearGradient id="linear-gradient-7" x1="4.01" y1="3.66" x2="4.01" y2="1.7" xlink:href="#linear-gradient"/></defs><path class="cls-1" d="M4.91.94V8.78H3.1V.94Z"/><path class="cls-1" d="M2.56.93V8.78H.75V.93Z"/><path class="cls-1" d="M19.63.93V5.66s-3-3.37-3.41-3.75a4.33,4.33,0,0,0-3-1.14,4.26,4.26,0,0,0-3.07,1.15,4.42,4.42,0,0,0-1.21,3A4,4,0,0,0,10.13,7.8a4.29,4.29,0,0,0,3,1.15,4.16,4.16,0,0,0,3-1.15,3.93,3.93,0,0,0,1.1-1.94l2.55,2.92h1.53V.93ZM14.89,6.62a2.36,2.36,0,0,1-1.73.67,2.31,2.31,0,0,1-1.68-.65,2.34,2.34,0,0,1-.72-1.76,2.34,2.34,0,0,1,2.41-2.44,2.46,2.46,0,0,1,1.72.67,2.43,2.43,0,0,1,.69,1.76A2.35,2.35,0,0,1,14.89,6.62Z"/><path class="cls-1" d="M7.11,5.57A2.41,2.41,0,0,0,8.2,5a2.15,2.15,0,0,0,.61-1.59,2.43,2.43,0,0,0-.68-1.76,2.83,2.83,0,0,0-2-.69h-3v1.4H5.61a1.74,1.74,0,0,1,1,.22A1,1,0,0,1,7,3.37a1,1,0,0,1-.3.76,1.48,1.48,0,0,1-1.08.32H5.2V5.7L7.3,8.78H9.51Z"/><path class="cls-1" d="M38,4.48V6h2a1.85,1.85,0,0,1-.57.93,2,2,0,0,1-1.37.42,2.14,2.14,0,0,1-1.6-.62,3.35,3.35,0,0,1-.9-1.86A3.35,3.35,0,0,1,36.47,3a2.13,2.13,0,0,1,1.6-.61,2,2,0,0,1,1.37.43,1.67,1.67,0,0,1,.52.77l1.54-.75a3.88,3.88,0,0,0-.7-1A3.63,3.63,0,0,0,38,.72a3.73,3.73,0,0,0-2.89,1.11,4.4,4.4,0,0,0-.4.48h0a2.87,2.87,0,0,0-.37-.45A4.21,4.21,0,0,0,31.25.72a4.24,4.24,0,0,0-3.1,1.17,2.39,2.39,0,0,0-.36.49l0,0h0c-.1-.12-.21-.23-.33-.35A4.16,4.16,0,0,0,24.32.93H21.79V8.81h2.59A4.25,4.25,0,0,0,27.5,7.62a2.16,2.16,0,0,0,.25-.27,4.63,4.63,0,0,0,.4.48A4.28,4.28,0,0,0,31.25,9a4.24,4.24,0,0,0,3.06-1.15,3.42,3.42,0,0,0,.37-.45h0a4.61,4.61,0,0,0,.4.49A3.72,3.72,0,0,0,38,9a3.58,3.58,0,0,0,2.81-1.08A5.1,5.1,0,0,0,42,4.58v-.1ZM26.7,5.39a3.11,3.11,0,0,1-.77,1.34,2.8,2.8,0,0,1-1.8.52h-.51V2.44h.51A2.57,2.57,0,0,1,26,3.12a3.12,3.12,0,0,1,.69,1.7h0a.69.69,0,0,1,.05.24C26.74,5.2,26.73,5.31,26.7,5.39Zm6.66.73a2.12,2.12,0,0,1-.38.51,2.53,2.53,0,0,1-1.74.68,2.44,2.44,0,0,1-1.74-.68,2.49,2.49,0,0,1-.25-.29h0a4.88,4.88,0,0,1-.61-1.48,4.73,4.73,0,0,1,.61-1.48h0a1.87,1.87,0,0,1,.25-.29,2.44,2.44,0,0,1,1.74-.68A2.57,2.57,0,0,1,33,3.08a2.41,2.41,0,0,1,.38.52,3.47,3.47,0,0,1,.41,1l.06.26-.06.25A3.44,3.44,0,0,1,33.36,6.12Z"/><path class="cls-2" d="M17.31,5.89l-2.25-2.6a2.75,2.75,0,0,1,.1,3L16,8A3.79,3.79,0,0,0,17.31,5.89Z"/><path class="cls-3" d="M5.22,5.75a4.66,4.66,0,0,0,1.9-.15L9.51,8.81H7.31Z"/><path class="cls-4" d="M35.53,4.58c0,.09,0,.18,0,.28A3.35,3.35,0,0,1,36.47,3a2.13,2.13,0,0,1,1.6-.61,2,2,0,0,1,1.37.43,1.67,1.67,0,0,1,.52.77l1.54-.75a3.88,3.88,0,0,0-.7-1A3.63,3.63,0,0,0,38,.72a3.73,3.73,0,0,0-2.89,1.11,4.4,4.4,0,0,0-.4.48h0A6.26,6.26,0,0,1,35.53,4.58Z"/><path class="cls-5" d="M34,5.67c-.06-.27-.11-.54-.16-.81l-.06.25a3.44,3.44,0,0,1-.41,1,2.12,2.12,0,0,1-.38.51,2.53,2.53,0,0,1-1.74.68,2.44,2.44,0,0,1-1.74-.68,2.49,2.49,0,0,1-.25-.29h0a4.88,4.88,0,0,1-.61-1.48c-.07-.32-.11-.84-.22-1.26L26.88,5.4a6.15,6.15,0,0,0,1.27,2.43A4.28,4.28,0,0,0,31.25,9a4.24,4.24,0,0,0,3.06-1.15,3.42,3.42,0,0,0,.37-.45A4.77,4.77,0,0,1,34,5.67Z"/><path class="cls-6" d="M38,4.48V6h2a1.85,1.85,0,0,1-.57.93,2,2,0,0,1-1.37.42,2.14,2.14,0,0,1-1.6-.62,3.49,3.49,0,0,1-.94-2.13,5.4,5.4,0,0,0-1.22-2.71A4.21,4.21,0,0,0,31.25.72a4.24,4.24,0,0,0-3.1,1.17,3.3,3.3,0,0,0-.37.49,5,5,0,0,1,.42.83,14.28,14.28,0,0,1,.45,1.65,4.73,4.73,0,0,1,.61-1.48h0a2.65,2.65,0,0,1,.25-.3,2.48,2.48,0,0,1,1.74-.67A2.57,2.57,0,0,1,33,3.08a2.41,2.41,0,0,1,.38.52,3.47,3.47,0,0,1,.41,1c.09.36.15.72.22,1.07a4.08,4.08,0,0,0,.7,1.73h0a4.61,4.61,0,0,0,.4.49A3.72,3.72,0,0,0,38,9a3.58,3.58,0,0,0,2.81-1.08A5.1,5.1,0,0,0,42,4.58v-.1Z"/><path class="cls-7" d="M26.7,5.39a3.11,3.11,0,0,1-.77,1.34,2.82,2.82,0,0,1-1.8.53h-.05a5.87,5.87,0,0,0-.27,1.56h.57A4.29,4.29,0,0,0,27.5,7.63l.25-.27a5.38,5.38,0,0,1-.95-2.3C26.76,5.2,26.73,5.31,26.7,5.39Z"/><path class="cls-1" d="M38,4.48V6h2a1.85,1.85,0,0,1-.57.93,2,2,0,0,1-1.37.42,2.14,2.14,0,0,1-1.6-.62,3.35,3.35,0,0,1-.9-1.86c0,.1,0,.19,0,.27a6.24,6.24,0,0,1-.85,2.26h0a4.61,4.61,0,0,0,.4.49A3.72,3.72,0,0,0,38,9a3.58,3.58,0,0,0,2.81-1.08A5.1,5.1,0,0,0,42,4.58v-.1Z"/><rect class="cls-8" x="3.1" y="2.32" width="1.81" height="1.4"/></svg>