<?xml version="1.0" encoding="utf-8"?>
<!-- Generator: Adobe Illustrator 23.0.2, SVG Export Plug-In . SVG Version: 6.00 Build 0)  -->
<svg version="1.1" id="NL_YELLOW" xmlns="http://www.w3.org/2000/svg" xmlns:xlink="http://www.w3.org/1999/xlink" x="0px" y="0px"
	 width="104px" height="30px" viewBox="0 0 104 30" style="enable-background:new 0 0 104 30;" xml:space="preserve">
<style type="text/css">
	.st0{display:none;}
	.st1{fill:#FFFFFF;}
	.st2{fill:#FFFC00;}
</style>
<rect y="-3" class="st0" width="800" height="362"/>
<g>
	<g id="City_Baked_2_">
		<path class="st1" d="M25.9,24c-0.4,0-0.8,0.2-1,0.5c-0.2,0.3-0.4,0.8-0.4,1.4c0,1.2,0.5,1.8,1.4,1.8c0.4,0,0.8-0.1,1.4-0.3v1
			c-0.4,0.2-0.9,0.3-1.5,0.3c-0.8,0-1.4-0.2-1.8-0.7c-0.4-0.5-0.6-1.2-0.6-2.1c0-0.6,0.1-1.1,0.3-1.5c0.2-0.4,0.5-0.8,0.9-1
			c0.4-0.2,0.8-0.3,1.4-0.3c0.5,0,1.1,0.1,1.6,0.4l-0.4,0.9c-0.2-0.1-0.4-0.2-0.6-0.3C26.3,24,26.1,24,25.9,24z"/>
		<path class="st1" d="M41.8,28.6v-5.4h1.2v5.4H41.8z"/>
		<path class="st1" d="M59.7,28.6h-1.2v-4.5h-1.5v-1h4.1v1h-1.5V28.6z"/>
		<path class="st1" d="M77.1,25.4l1.1-2.2h1.2l-1.8,3.3v2.1h-1.1v-2.1l-1.8-3.4H76L77.1,25.4z"/>
	</g>
	<g>
		<path class="st2" d="M79.8,8.6c-0.4,0-0.8,0-1.3,0c-0.2,0-0.3,0-0.3-0.2c-0.1-0.5-0.2-1-0.4-1.5c-0.5-1.1-1.4-1.7-2.5-1.8
			c-0.7-0.1-1.3,0-2,0.2c-0.9,0.3-1.6,0.9-1.9,1.8c-0.2,0.4-0.3,0.8-0.3,1.3c0,0,0,0.1,0,0.1c0,0.1,0,0.1-0.1,0.1
			c-0.1,0-0.1,0-0.2,0c-0.8,0-1.6,0-2.5,0c-0.1,0-0.1,0-0.2,0c-0.1,0-0.1,0-0.1-0.1c0-0.2,0-0.3-0.1-0.5c-0.1-0.6-0.3-1.1-0.7-1.6
			c-0.6-0.9-1.4-1.3-2.5-1.4c-0.4,0-0.9,0-1.3,0.1c-1.1,0.3-1.9,1-2.3,2c-0.2,0.4-0.3,0.8-0.3,1.2c0,0.3,0,0.3-0.3,0.3
			c-0.8,0-1.6,0-2.3,0c-0.1,0-0.2,0-0.3,0c-0.2,0-0.2,0-0.2-0.2c0-0.2,0-0.4,0.1-0.5c0.2-1.1,0.6-2.2,1.2-3.2c0.9-1.4,2.3-2.3,4-2.6
			C63.4,2,63.9,2,64.5,2c1.3,0,2.5,0.4,3.5,1.2c0.5,0.4,0.9,0.8,1.3,1.3c0.1,0.1,0.1,0.2,0.2,0.3c0,0.1,0.1,0.1,0.1,0
			c0.1-0.1,0.2-0.2,0.2-0.3c0.4-0.5,0.8-0.9,1.3-1.3c1-0.8,2.2-1.2,3.5-1.2c0.8,0,1.6,0.1,2.4,0.3c1.3,0.4,2.3,1.3,3,2.4
			c0.6,0.9,1,1.9,1.2,3c0,0.2,0.1,0.4,0.1,0.6c0,0.2,0,0.2-0.2,0.2c-0.2,0-0.5,0-0.7,0C80.1,8.6,79.9,8.6,79.8,8.6z"/>
		<path class="st2" d="M19.2,9.5c0.4,0,0.9,0,1.3,0c0.2,0,0.2,0,0.2,0.2c0,0.2,0,0.5,0,0.7c0,0.6,0.1,1.1,0.3,1.6
			c0.4,0.9,1,1.6,1.8,2.1c0.5,0.3,1.1,0.5,1.7,0.5c0.7,0.1,1.4,0.1,2.1-0.1c1.7-0.4,2.7-1.4,3.2-3.1c0.1-0.3,0.1-0.6,0.1-1
			c0-0.3,0-0.5,0-0.8c0-0.1,0-0.2,0.1-0.2c0.9,0,1.9,0,2.8,0c0.1,0,0.1,0,0.1,0.2c0,0.9,0,1.8-0.2,2.7c-0.3,1-0.7,1.9-1.3,2.8
			c-0.8,1.1-1.9,1.8-3.2,2.2c-0.8,0.3-1.7,0.4-2.6,0.4c-0.9,0-1.8,0-2.7-0.3c-2.2-0.6-3.8-1.9-4.7-4.1c-0.3-0.8-0.6-1.6-0.6-2.4
			c0-0.5,0-0.9,0-1.4c0-0.1,0.1-0.1,0.1-0.1c0.2,0,0.4,0,0.6,0C18.7,9.5,19,9.5,19.2,9.5C19.2,9.5,19.2,9.5,19.2,9.5z"/>
		<path class="st2" d="M30.2,8.6c-0.1-0.1-0.1-0.2-0.1-0.3C29.8,6.9,29,6,27.6,5.4c-0.5-0.2-1.1-0.3-1.7-0.3c-0.8,0-1.5,0-2.3,0.2
			c-1,0.3-1.8,0.8-2.3,1.7c-0.3,0.4-0.4,0.9-0.5,1.4c0,0.2,0,0.2-0.2,0.2c-0.9,0-1.8,0-2.7,0c-0.2,0-0.2,0-0.2-0.2
			c0-0.2,0.1-0.4,0.1-0.7c0.2-1.1,0.7-2.1,1.3-2.9c0.9-1.2,2.1-2.1,3.6-2.5C23.5,2.2,24.2,2,24.9,2c1,0,2,0,3,0.3
			c1.3,0.3,2.4,1,3.3,1.9C32,5.1,32.5,6,32.9,7.1c0.1,0.3,0.2,0.7,0.3,1.1c0,0.1,0,0.2,0,0.3c0,0.1,0,0.2-0.2,0.2
			c-0.4,0-0.8,0-1.1,0c-0.5,0-1,0-1.5,0C30.3,8.6,30.2,8.6,30.2,8.6z"/>
		<path class="st2" d="M5.3,2.1c0.8,0,1.7,0,2.5,0c0.6,0,1.1,0.1,1.7,0.2c1,0.3,1.9,0.7,2.7,1.3c1.2,0.9,1.9,2.1,2.2,3.6
			c0.1,0.3,0.1,0.7,0.1,1c0,0.1,0,0.2,0,0.2c0,0.2,0,0.2-0.2,0.2c0,0-0.1,0-0.1,0c-0.8,0-1.6,0-2.5,0c-0.1,0-0.1,0-0.2,0
			c-0.1,0-0.1,0-0.1-0.1c0-0.2,0-0.5-0.1-0.7c-0.1-0.5-0.3-1-0.6-1.5c-0.5-0.7-1.2-1-2-1.2C8.5,5.1,8.2,5.1,8,5.1
			c-0.9,0-1.7,0-2.6,0c-0.1,0-0.1,0-0.2,0c-0.1,0-0.1,0.1-0.1,0.1c0,0.1,0,0.2,0,0.3c0,0.9,0,1.9,0,2.8c0,0.3,0,0.3-0.3,0.3
			c-0.8,0-1.6,0-2.5,0c-0.1,0-0.1,0-0.2,0C2,8.6,2,8.6,2,8.5c0-0.1,0-0.2,0-0.2c0-2,0-3.9,0-5.9C2,2,2,2.1,2.4,2.1
			C3.4,2.1,4.3,2.1,5.3,2.1z"/>
		<path class="st2" d="M41.4,17.8c-1.4,0-2.9,0-4.3,0c-0.1,0-0.2,0-0.3,0c-0.1,0-0.1,0-0.1-0.1c0-0.1,0-0.2,0-0.2c0-2.5,0-5,0-7.5
			c0-0.4,0-0.4,0.4-0.4c0.8,0,1.5,0,2.3,0c0.1,0,0.2,0,0.2,0c0.1,0,0.1,0,0.1,0.1c0,0.1,0,0.2,0,0.4c0,1.4,0,2.9,0,4.3
			c0,0.4,0,0.4,0.4,0.4c1.9,0,3.8,0,5.7,0c0.4,0,0.4,0,0.4,0.4c0,0.8,0,1.5,0,2.3c0,0.1,0,0.2,0,0.3c0,0.1,0,0.1-0.1,0.1
			c-0.1,0-0.2,0-0.3,0C44.4,17.8,42.9,17.8,41.4,17.8z"/>
		<path class="st2" d="M96.9,2c1.6,0,3.1,0,4.7,0c0.1,0,0.2,0,0.3,0c0.1,0,0.1,0,0.1,0.1c0,0.1,0,0.1,0,0.2c0,0.8,0,1.6,0,2.4
			c0,0.1,0,0.1,0,0.2c0,0.1,0,0.1-0.1,0.1c-0.1,0-0.2,0-0.3,0c-0.9,0-1.9,0-2.8,0c-0.3,0-0.3,0-0.3,0.3c0,0.9,0,1.9,0,2.8
			c0,0.1,0,0.2,0,0.3c0,0.1,0,0.2-0.2,0.2c-0.6,0-1.2,0-1.8,0c-0.3,0-0.7,0-1,0c-0.1,0-0.1,0-0.1-0.1c0-0.1,0-0.2,0-0.3
			c0-0.9,0-1.7,0-2.6c0-0.1,0-0.2,0-0.2c0-0.2,0-0.2-0.2-0.2c-1,0-1.9,0-2.9,0c-0.6,0-0.5,0.1-0.5-0.5c0-0.7,0-1.5,0-2.2
			c0-0.1,0-0.2,0-0.3c0-0.1,0-0.1,0.1-0.1c0.1,0,0.2,0,0.3,0C93.7,2,95.3,2,96.9,2z"/>
		<path class="st2" d="M85.1,13.6c0-1.3,0-2.6,0-3.9c0-0.3,0-0.3,0.3-0.3c0.8,0,1.6,0,2.5,0c0.1,0,0.1,0,0.2,0
			c0.1,0,0.1,0.1,0.1,0.1c0,0.1,0,0.1,0,0.2c0,2.5,0,5.1,0,7.6c0,0,0,0,0,0c0,0.3,0,0.3-0.3,0.3c-0.8,0-1.7,0-2.5,0c0,0-0.1,0-0.1,0
			c-0.1,0-0.2,0-0.2-0.2c0-0.1,0-0.2,0-0.3C85.1,16.1,85.1,14.9,85.1,13.6C85.1,13.6,85.1,13.6,85.1,13.6z"/>
		<path class="st2" d="M78.2,13.6c0-1.3,0-2.5,0-3.8c0-0.3,0-0.3,0.3-0.3c0.8,0,1.6,0,2.4,0c0.1,0,0.2,0,0.2,0c0.1,0,0.1,0,0.1,0.1
			c0,0.1,0,0.2,0,0.3c0,2,0,4,0,6c0,0.5,0,1,0,1.5c0,0.1,0,0.1,0,0.2c0,0.1,0,0.1-0.2,0.1c0,0-0.1,0-0.1,0c-0.8,0-1.6,0-2.5,0
			c-0.1,0-0.1,0-0.2,0c-0.1,0-0.1,0-0.1-0.1c0-0.1,0-0.2,0-0.3C78.2,16.1,78.2,14.9,78.2,13.6C78.2,13.6,78.2,13.6,78.2,13.6z"/>
		<path class="st2" d="M71,13.6c0,1.3,0,2.5,0,3.8c0,0.4,0,0.4-0.3,0.4c-0.8,0-1.6,0-2.4,0c-0.1,0-0.1,0-0.2,0c-0.1,0-0.1,0-0.1-0.1
			c0-0.1,0-0.1,0-0.2c0-2.5,0-5.1,0-7.6c0-0.4,0-0.4,0.3-0.4c0.8,0,1.6,0,2.4,0c0.1,0,0.1,0,0.2,0c0.1,0,0.1,0,0.1,0.1
			c0,0.1,0,0.2,0,0.3C71,11.1,71,12.4,71,13.6C71,13.6,71,13.6,71,13.6z"/>
		<path class="st2" d="M50.3,13.6c0-1.2,0-2.5,0-3.7c0-0.1,0-0.1,0-0.2c0-0.3,0-0.3,0.3-0.3c0.8,0,1.7,0,2.5,0c0,0,0.1,0,0.1,0
			c0.1,0,0.1,0.1,0.1,0.1c0,0.1,0,0.1,0,0.2c0,2.6,0,5.1,0,7.7c0,0,0,0.1,0,0.1c0,0.2,0,0.2-0.2,0.2c-0.9,0-1.8,0-2.7,0c0,0,0,0,0,0
			c-0.1,0-0.2,0-0.2-0.2c0-0.1,0-0.2,0-0.3C50.3,16.1,50.3,14.9,50.3,13.6C50.3,13.6,50.3,13.6,50.3,13.6z"/>
		<path class="st2" d="M5.1,17.6c-0.1,0.1-0.2,0-0.2,0c-0.8,0-1.7,0-2.5,0c0,0-0.1,0-0.1,0c-0.1,0-0.1,0-0.1-0.1c0-0.1,0-0.2,0-0.2
			c0-2.4,0-4.9,0-7.3c0-0.1,0-0.2,0-0.3c0-0.1,0-0.2,0.2-0.2c0.1,0,0.1,0,0.2,0c0.8,0,1.6,0,2.4,0c0.1,0,0.2,0,0.2,0
			c0.1,0,0.1,0,0.1,0.1c0,0.1,0,0.2,0,0.3c0,2.5,0,4.9,0,7.4C5.1,17.4,5.1,17.5,5.1,17.6z"/>
		<path class="st2" d="M14.6,13.7c0,1.2,0,2.4,0,3.6c0,0.1,0,0.2,0,0.2c0,0.2,0,0.2-0.2,0.2c-0.9,0-1.8,0-2.7,0c0,0-0.1,0-0.1,0
			c-0.1,0-0.1,0-0.1-0.1c0-0.1,0-0.2,0-0.2c0-2.5,0-5,0-7.5c0,0,0,0,0-0.1c0-0.3,0-0.3,0.3-0.3c0.8,0,1.6,0,2.5,0c0,0,0.1,0,0.1,0
			c0.1,0,0.2,0,0.2,0.2c0,0.1,0,0.2,0,0.3C14.6,11.3,14.6,12.5,14.6,13.7z"/>
		<path class="st2" d="M57.6,13.6c0-1.2,0-2.5,0-3.7c0-0.1,0-0.2,0-0.3c0-0.1,0-0.1,0.1-0.1c0.1,0,0.1,0,0.2,0c0.8,0,1.6,0,2.5,0
			c0,0,0.1,0,0.1,0c0.1,0,0.1,0,0.2,0.1c0,0.1,0,0.2,0,0.2c0,2.5,0,5,0,7.6c0,0.1,0,0.1,0,0.2c0,0.1,0,0.1-0.1,0.1c0,0-0.1,0-0.1,0
			c-0.8,0-1.7,0-2.5,0c0,0,0,0-0.1,0c-0.2,0-0.2,0-0.2-0.2c0-0.1,0-0.2,0-0.3C57.6,16.1,57.6,14.9,57.6,13.6
			C57.6,13.6,57.6,13.6,57.6,13.6z"/>
		<path class="st2" d="M98.5,13.7c0,1.2,0,2.5,0,3.7c0,0.4,0,0.4-0.3,0.4c-0.8,0-1.6,0-2.4,0c-0.1,0-0.1,0-0.2,0
			c-0.1,0-0.1,0-0.1-0.1c0-0.1,0-0.2,0-0.2c0-2.5,0-5,0-7.5c0-0.5,0-0.4,0.4-0.4c0.7,0,1.5,0,2.2,0c0.1,0,0.2,0,0.3,0
			c0.1,0,0.1,0,0.1,0.1c0,0.1,0,0.2,0,0.3C98.5,11.2,98.5,12.4,98.5,13.7C98.5,13.7,98.5,13.7,98.5,13.7z"/>
		<path class="st2" d="M88.2,5.3c0,1,0,1.9,0,2.9c0,0.1,0,0.2,0,0.2c0,0.2,0,0.2-0.2,0.2c-0.9,0-1.8,0-2.7,0c-0.2,0-0.2,0-0.2-0.2
			c0-0.1,0-0.1,0-0.2c0-1.9,0-3.9,0-5.8c0-0.1,0-0.2,0-0.2c0-0.1,0-0.2,0.2-0.2c0,0,0,0,0,0c0.9,0,1.8,0,2.7,0c0.2,0,0.2,0,0.2,0.2
			c0,0.1,0,0.2,0,0.2C88.2,3.4,88.2,4.4,88.2,5.3z"/>
		<path class="st2" d="M50.3,5.3c0-1,0-2,0-3c0-0.3,0-0.3,0.3-0.3c0.8,0,1.7,0,2.5,0c0.1,0,0.1,0,0.2,0c0.1,0,0.1,0,0.1,0.1
			c0,0.1,0,0.2,0,0.2c0,2,0,4,0,5.9c0,0.4,0,0.4-0.3,0.4c-0.8,0-1.6,0-2.4,0c-0.1,0-0.2,0-0.2,0c-0.1,0-0.1,0-0.1-0.1
			c0-0.1,0-0.2,0-0.3C50.3,7.3,50.3,6.3,50.3,5.3z"/>
		<path class="st2" d="M39.8,5.3c0,1,0,2,0,3c0,0.3,0,0.3-0.3,0.3c-0.8,0-1.6,0-2.5,0c-0.1,0-0.1,0-0.2,0c-0.1,0-0.1-0.1-0.1-0.1
			c0-0.1,0-0.2,0-0.3c0-1.9,0-3.9,0-5.8c0-0.4,0-0.4,0.4-0.4c0.8,0,1.6,0,2.3,0c0.1,0,0.1,0,0.2,0c0.1,0,0.1,0.1,0.1,0.1
			c0,0.1,0,0.2,0,0.3C39.8,3.4,39.8,4.4,39.8,5.3z"/>
	</g>
</g>
</svg>
