<svg id="Layer_1" data-name="Layer 1" xmlns="http://www.w3.org/2000/svg" viewBox="0 0 359.18 176.89"><defs><style>.cls-1{fill:#ff002a;}.cls-2{fill:#fff;}</style></defs><path class="cls-1" d="M146.73,91.14V23.06L204.2,51.79,171.65,68.07V51.79a6.56,6.56,0,0,0-13.11,0V78.68A6.55,6.55,0,0,0,168,84.54L221.8,57.66a6.56,6.56,0,0,0,0-11.73L143.11,6.58a6.56,6.56,0,0,0-9.49,5.87V91.14a6.56,6.56,0,1,0,13.11,0Z"/><path class="cls-2" d="M46.16,133.33a9.74,9.74,0,0,0-3.52-4.27,9.78,9.78,0,0,0-5.44-1.66H10.47a4,4,0,0,0-4.05,4v32.4a4,4,0,1,0,8.1,0V154.4H37.2a9.74,9.74,0,0,0,8.06-4.28,9.57,9.57,0,0,0,1.66-5.44v-7.56A9.82,9.82,0,0,0,46.16,133.33Zm-7.34,11.35a1.61,1.61,0,0,1-.12.63,1.63,1.63,0,0,1-.59.71,1.65,1.65,0,0,1-.42.21,1.87,1.87,0,0,1-.49.07H14.52V135.5H37.2a1.57,1.57,0,0,1,.63.12,1.66,1.66,0,0,1,.72.59,1.6,1.6,0,0,1,.2.42,1.53,1.53,0,0,1,.07.49Z"/><path class="cls-2" d="M240,145.26a9.71,9.71,0,0,0-5.43-1.66H210.82a1.56,1.56,0,0,1-.62-.13,1.6,1.6,0,0,1-.72-.59,1.35,1.35,0,0,1-.2-.42,1.51,1.51,0,0,1-.08-.48v-4.86a1.77,1.77,0,0,1,.13-.63,1.66,1.66,0,0,1,.59-.72,1.62,1.62,0,0,1,.42-.2,1.51,1.51,0,0,1,.48-.07h28.09a4,4,0,1,0,0-8.1H210.82a9.72,9.72,0,0,0-9.72,9.72V142a9.75,9.75,0,0,0,4.29,8.06,9.78,9.78,0,0,0,5.43,1.66h23.77a1.55,1.55,0,0,1,1.34.72,1.35,1.35,0,0,1,.2.42,1.46,1.46,0,0,1,.08.48v4.86a1.61,1.61,0,0,1-.13.63,1.71,1.71,0,0,1-.59.72,2,2,0,0,1-.42.2,1.85,1.85,0,0,1-.48.07H206.5a4.05,4.05,0,0,0,0,8.1h28.09a9.74,9.74,0,0,0,8-4.28,9.68,9.68,0,0,0,1.67-5.44v-4.86a9.72,9.72,0,0,0-4.29-8.06Z"/><path class="cls-2" d="M191.35,128.4a4,4,0,0,0-5.71.38h0L169.78,146.9l-15.85-18.12a4.05,4.05,0,0,0-6.1,5.33l17.9,20.46v9.28a4.05,4.05,0,0,0,8.1,0v-9.28l17.9-20.46A4,4,0,0,0,191.35,128.4Z"/><path class="cls-2" d="M297.42,133.33a9.71,9.71,0,0,0-6.07-5.49,9.54,9.54,0,0,0-2.89-.44H264.7a9.69,9.69,0,0,0-9.28,6.83,9.54,9.54,0,0,0-.44,2.89v21.06a9.57,9.57,0,0,0,.77,3.78,9.65,9.65,0,0,0,6.06,5.5,9.59,9.59,0,0,0,2.89.44h23.76a9.74,9.74,0,0,0,8.06-4.28,10.18,10.18,0,0,0,1.23-2.55,9.91,9.91,0,0,0,.43-2.89V137.12A9.82,9.82,0,0,0,297.42,133.33Zm-7.34,24.85a1.61,1.61,0,0,1-.12.63,1.71,1.71,0,0,1-.59.72,2.3,2.3,0,0,1-.42.2,1.87,1.87,0,0,1-.49.07H264.7a1.61,1.61,0,0,1-.63-.13,1.71,1.71,0,0,1-.72-.59,2,2,0,0,1-.2-.42,1.79,1.79,0,0,1-.07-.48V137.12a1.57,1.57,0,0,1,.13-.63,1.66,1.66,0,0,1,.59-.72,1.62,1.62,0,0,1,.42-.2,1.47,1.47,0,0,1,.48-.07h23.76a1.57,1.57,0,0,1,.63.12,1.66,1.66,0,0,1,.72.59,2,2,0,0,1,.2.42,1.53,1.53,0,0,1,.07.49Z"/><path class="cls-2" d="M348.57,127.4a4,4,0,0,0-4.05,4V154.6l-28.31-26.13a4.06,4.06,0,0,0-6.8,3v32.4a4,4,0,0,0,8.1,0V140.7l28.31,26.13a4.06,4.06,0,0,0,6.8-3v-32.4A4.05,4.05,0,0,0,348.57,127.4Z"/><path class="cls-2" d="M89.86,159.8H65.56V131.45a4,4,0,0,0-8.1,0v32.4a4,4,0,0,0,4,4.05H89.86a4,4,0,0,0,0-8.1Z"/><path class="cls-2" d="M144.94,167.9a4,4,0,0,1-3.5-2L126,139.49l-15.4,26.4a4.05,4.05,0,1,1-7-4.08l18.9-32.4a4.05,4.05,0,0,1,7,0l18.9,32.4a4,4,0,0,1-3.5,6.09Z"/></svg>