<?xml version="1.0" encoding="utf-8"?>
<!-- Generator: Adobe Illustrator 21.1.0, SVG Export Plug-In . SVG Version: 6.00 Build 0)  -->
<svg version="1.1" id="Layer_1" xmlns="http://www.w3.org/2000/svg" xmlns:xlink="http://www.w3.org/1999/xlink" x="0px" y="0px"
	 viewBox="0 0 258.2 91.2" style="enable-background:new 0 0 258.2 91.2;" xml:space="preserve">
<style type="text/css">
	.st0{fill:#2284C7;}
	.st1{fill:#050608;}
	.st2{fill:#FEFEFE;}
	.st3{fill:#EC1E24;}
	.st4{fill:#EB2B30;}
	.st5{fill:#E83439;}
	.st6{fill:#D4494A;}
	.st7{fill:#E23D3F;}
	.st8{fill:#E5353A;}
	.st9{fill:#CB474D;}
	.st10{fill:#D34548;}
	.st11{fill:#D14648;}
	.st12{fill:#2285C7;}
	.st13{fill:#D3484B;}
</style>
<g>
	<path class="st0" d="M128.5,64.6c-0.4,0-0.7,0-1.1,0c-38.8,0-77.7,0-116.5,0c-3.8,0-6.9-1.4-8.8-4.8c-1.3-2.3-1.6-4.8-0.9-7.3
		c1.4-5.5,2.9-11,4.4-16.5c1.6-6,7.3-10.3,13.4-10.4c0.4,0,0.8,0,1.1,0c39.5,0,79,0,118.5,0c0.4,0,0.8,0,1.2,0
		c0.2,0.4,0,0.8-0.1,1.2c-2.5,7.3-4.7,14.6-7,21.9c-0.6,1.8-1.1,3.6-1.7,5.5c-1,3-1.9,6.1-2.1,9.3C128.8,63.9,128.8,64.3,128.5,64.6
		z"/>
	<path class="st1" d="M128.5,64.6c-0.1-4.8,1.8-9.2,3.2-13.7c2.3-7.4,4.6-14.7,7-22c0.3-1.1,0.8-2.1,1.1-3.2
		c1.4-2.4,2.8-4.8,4.7-6.8c5.6-5.9,12.2-9.2,20.4-9.2c19.7,0,39.3,0,59,0c6.3,0,11.6,2.4,15.1,7.9c1.6,2.5,2.2,5.2,2.4,8.1
		c0.5,1.1,0.3,2.2,0.2,3.3c-0.2,2.1-0.9,4.2-1.5,6.2c-2.8,8.9-5.5,17.8-8.3,26.6c-0.3,1-0.6,2-1.4,2.8c-1.3,2-2.5,4.1-4.2,6
		c-4.6,5.1-10.2,8.5-17.1,9.5c-2.6,0.4-5.3,0.3-8,0.3c-18.3,0-36.6,0-54.9,0c-4.3,0-8.3-1-11.7-3.8c-3.6-2.9-5.4-6.7-5.7-11.2
		C128.6,65.1,128.7,64.8,128.5,64.6z"/>
	<path class="st0" d="M230.2,64.6c3.9-10.6,6.8-21.5,10.3-32.3c0.7-2.2,0.9-4.4,0.8-6.7c2.7,0.1,5.3-0.2,8,0.2
		c5.9,0.9,9.6,6.3,8.1,12.1c-1.4,5.5-3,10.9-4.5,16.3c-1.7,5.8-7.9,10.7-14.1,10.4C235.9,64.6,233.1,64.6,230.2,64.6z"/>
	<path class="st2" d="M69.4,55.9c-0.8-0.1-2.1,0.5-2.6-0.2c-0.4-0.6,0.4-1.7,0.6-2.6c0.2-0.8,0.4-1.5,0.7-2.2c0.2-0.6,0-0.8-0.6-0.8
		c-1.4,0-2.8,0-4.2,0c-0.6,0-0.9,0.2-1,0.7c-0.4,1.5-0.9,2.9-1.4,4.4c-0.1,0.5-0.3,0.8-0.9,0.8c-1.5,0-3,0-4.5,0
		c-0.7,0-0.7-0.3-0.5-0.8c1.8-5.7,3.5-11.3,5.4-17c1.1-3.3,4.5-5.6,8-5.6c1.7,0,3.5,0,5.2,0c3.5,0,5.4,2.4,4.4,5.7
		c-1.7,5.7-3.5,11.3-5.3,17c-0.2,0.6-0.5,0.8-1,0.7C71,55.8,70.3,55.9,69.4,55.9z"/>
	<path class="st2" d="M28.5,32.4c1.7,0,3.4,0,5.1,0c3.3,0,5.1,2.4,4.3,5.5c-0.6,2.2-1.3,4.4-2.1,6.5c-1.2,3.3-4.5,5.5-8,5.5
		c-1.4,0-2.9,0.1-4.3,0c-1-0.1-1.3,0.3-1.5,1.2c-0.3,1.3-0.8,2.6-1.2,3.9c-0.2,0.6-0.4,0.9-1.2,0.9c-1.4-0.1-2.8,0-4.2,0
		c-0.6,0-0.9-0.1-0.7-0.8c2.3-7.3,4.6-14.7,6.9-22c0.2-0.5,0.5-0.6,1-0.6C24.6,32.5,26.5,32.4,28.5,32.4z"/>
	<path class="st2" d="M85.1,44.2c1.7,0,3.2-0.1,4.7,0c0.8,0,1.1-0.2,1.3-1c1-3.3,2.1-6.6,3.1-9.9c0.2-0.7,0.5-0.9,1.2-0.9
		c1.4,0.1,2.8,0,4.2,0c0.6,0,0.9,0.1,0.6,0.8c-1.2,3.7-2.2,7.4-3.5,11.1c-1.1,3.2-3.6,5-6.9,5.6c-0.6,0.1-0.9,0.4-1,0.9
		c-0.4,1.4-0.9,2.8-1.3,4.2c-0.2,0.6-0.4,0.9-1.1,0.8c-1.4-0.1-2.8-0.1-4.2,0c-0.9,0-0.9-0.2-0.7-1c0.5-1.4,0.9-2.8,1.3-4.2
		c0.2-0.5,0.1-0.7-0.5-0.8c-3-0.7-4.2-2.8-3.3-5.7c1.1-3.7,2.3-7.3,3.4-11c0.2-0.5,0.4-0.8,1-0.8c1.4,0.1,2.9,0,4.3,0
		c0.8,0,0.9,0.2,0.6,0.9c-1.1,3.3-2.1,6.5-3.1,9.8C85.3,43.4,85.2,43.7,85.1,44.2z"/>
	<path class="st2" d="M34.7,55.9c1-3.2,2-6.2,2.9-9.3c1.4-4.4,2.8-8.8,4.1-13.2c0.2-0.7,0.5-1,1.3-1c1.6,0.1,3.2,0,4.9,0
		c-1.1,3.5-2.2,6.9-3.2,10.3c-0.7,2.1-1.3,4.3-2,6.4c-0.2,0.7-0.1,0.8,0.6,0.8c1.4,0,2.8,0,4.2,0c0.6,0,0.8-0.2,1-0.8
		c0.4-1.4,0.9-2.8,1.3-4.3c0.2-0.5,0.4-0.9,1.1-0.8c1.5,0.1,2.9,0,4.4,0c0.6,0,0.7,0.2,0.6,0.7c-1.1,3.5-2.2,7-3.3,10.5
		c-0.1,0.4-0.3,0.5-0.7,0.5C46.2,55.9,40.5,55.9,34.7,55.9z"/>
	<path class="st2" d="M119.9,45.2c-1.8,0-3.5,0-5.1,0c-0.7,0-0.8,0.4-0.9,0.9c-0.9,2.9-1.7,5.8-2.5,8.7c-0.2,0.7-0.5,1.1-1.3,1.1
		c-1.4-0.1-2.8-0.1-4.2,0c-0.6,0-0.7-0.2-0.6-0.7c1-3.4,1.9-6.9,3.1-10.3c1.1-3.2,4.3-5.4,7.7-5.5c2.1,0,4.1,0,6.2,0
		c2.6,0.1,4.4,2.3,3.8,4.8c-0.8,3.7-2.1,7.3-3.1,11c-0.1,0.5-0.4,0.6-0.9,0.6c-1.4,0-2.9-0.1-4.3,0c-0.8,0-0.9-0.3-0.7-1
		c0.8-2.8,1.7-5.7,2.5-8.5C119.7,46.1,119.7,45.7,119.9,45.2z"/>
	<path class="st2" d="M111.6,33.1c-0.7,2.2-1.4,4.2-2.1,6.2c-0.1,0.3-0.2,0.6-0.7,0.6c-2.4,0-4.8,0-7.3,0c0.8-2.2,1.5-4.3,2.2-6.4
		c0.1-0.4,0.4-0.4,0.7-0.4C106.7,33.1,109.1,33.1,111.6,33.1z"/>
	<path class="st3" d="M226.3,15.3c4.2,0.3,8.2,3.7,9,8.3c0.5,3.1-0.3,5.8-1.2,8.7c-2.8,8.9-5.5,17.7-8.3,26.6
		c-1,3.1-2.6,5.7-4.9,8.1c-2,2-4.1,3.8-6.6,5c-2.1,1-4.3,1.9-6.7,2c-0.4,0.2-0.7,0.1-1.1,0.1c-4.9,0-9.7,0-14.6,0
		c-0.4,0-0.8,0.1-1.1-0.1c-4.6-0.2-8.9-4.1-9.1-8.3c-0.3-0.5,0-1.1-0.2-1.6c0-0.2,0-0.5,0-0.7c0.2-0.6-0.1-1.2,0.2-1.8
		c0.1-1.8,0.8-3.5,1.4-5.2c2.7-8.7,5.3-17.4,8.2-26c2.7-8,8.5-12.8,16.7-14.9c0.3-0.1,0.7,0,1-0.1c0.2-0.1,0.4-0.1,0.7-0.1
		c5.4,0,10.8,0,16.2,0C225.9,15.2,226.1,15.2,226.3,15.3z"/>
	<path class="st3" d="M191.1,16.3c-1.1,3.6-2.2,7.2-3.3,10.7c-0.3,1.1-0.7,2.1-1,3.2c-0.4,0.2-0.8,0.1-1.2,0.1c-8.3,0-16.7,0-25,0
		c-0.4,0-0.8-0.2-1.2,0.1c-1.4,4.3-2.7,8.7-4.1,13c-1.7,5.3-3.3,10.5-5,15.8c-0.1,0.9,0.5,0.6,0.9,0.6c3.5,0,6.9,0,10.4,0
		c1.1,0,2.2,0.2,3.2-0.1c0.7-2.2,1.3-4.4,2.1-6.6c0.2-0.6,0.1-0.8-0.6-0.8c-1.8,0-3.7,0-5.5,0c-0.6,0-1,0-0.7-0.8
		c1.4-4.3,2.7-8.5,4-12.8c0.2-0.6,0.5-0.7,1-0.7c6.4,0,12.8,0,19.1,0c0.8,0,1,0.2,0.7,1c-2.3,7.1-4.4,14.3-6.8,21.3
		c-1.8,5.3-5.3,9.3-10.3,12c-1.7,0.9-3.5,1.7-5.5,1.7c-0.4,0.2-0.9,0.1-1.3,0.1c-5.4,0-10.8,0-16.2,0c-0.4,0-0.9,0.1-1.3-0.1
		c-4.1-0.3-7.9-3.9-8.5-8c-0.5-2.9,0.3-5.6,1.2-8.3c2.8-9,5.5-18,8.6-27c2.6-7.7,8.3-12.3,16.1-14.3c0.3-0.1,0.6,0,0.9-0.1
		c0.5-0.2,1,0,1.5-0.1c8.9,0,17.8,0,26.7,0C190.3,16.1,190.8,16,191.1,16.3z"/>
	<path class="st4" d="M191.1,16.3c-8.9,0-17.8,0-26.6,0c-0.4,0-0.9,0-1.3,0c-0.1,0-0.1-0.1-0.1-0.1c0,0,0.1-0.1,0.1-0.1
		c9.2,0,18.3,0,27.5,0c0.2,0,0.4,0,0.5,0.1c0,0,0,0.1,0,0.1C191.2,16.2,191.2,16.2,191.1,16.3z"/>
	<path class="st5" d="M159.3,30.5c0.3-0.5,0.8-0.3,1.3-0.3c8.7,0,17.5,0,26.2,0c-0.3,0.5-0.7,0.2-1.1,0.2c-8.3,0-16.6,0-25,0
		C160.2,30.4,159.8,30.4,159.3,30.5z"/>
	<path class="st5" d="M226.3,15.3c-5.8,0-11.6,0-17.5,0c0.3-0.2,0.6-0.2,1-0.2c5.2,0,10.4,0,15.6,0
		C225.8,15.1,226.1,15.1,226.3,15.3z"/>
	<path class="st6" d="M190.8,73.9c5.6,0,11.2,0,16.8,0c-0.3,0.3-0.7,0.2-1.1,0.2c-4.9,0-9.8,0-14.7,0
		C191.5,74.1,191.1,74.2,190.8,73.9z"/>
	<path class="st4" d="M144.7,73.9c5.5,0,11,0,16.5,0c0.1,0,0.1,0.1,0.1,0.1c0,0-0.1,0.1-0.1,0.1c-5.5,0-11,0-16.4,0
		C144.6,74,144.6,74,144.7,73.9C144.6,73.9,144.7,73.9,144.7,73.9z"/>
	<path class="st7" d="M164.7,59.7c-0.2,0.4-0.6,0.3-0.9,0.3c-4.3,0-8.5,0-12.8,0c-0.4,0-1.1,0.2-0.7-0.7c0,0.5,0.4,0.5,0.7,0.5
		C155.6,59.7,160.1,59.7,164.7,59.7z"/>
	<path class="st8" d="M181.6,61.5c-0.1,0.6,0.2,1.2-0.2,1.8C181.4,62.7,181.3,62.1,181.6,61.5z"/>
	<path class="st8" d="M181.4,64c0.4,0.5,0.1,1.1,0.2,1.6C181.3,65.1,181.4,64.5,181.4,64z"/>
	<path class="st9" d="M163.2,16c0,0.1,0,0.1,0,0.2c-0.5,0-0.9,0-1.4,0C162.2,15.9,162.7,16,163.2,16z"/>
	<path class="st10" d="M144.7,73.9c0,0.1,0,0.1,0,0.2c-0.4,0-0.8,0.1-1.2-0.2C143.9,73.9,144.3,73.9,144.7,73.9z"/>
	<path class="st11" d="M161.1,74.1c0-0.1,0-0.1,0-0.2c0.4,0,0.8,0,1.2,0C161.9,74.2,161.5,74.1,161.1,74.1z"/>
	<path class="st12" d="M72.1,38.3c-0.6,1.9-1.1,3.6-1.6,5.3c-0.1,0.4-0.3,0.6-0.8,0.6c-1.7,0-3.4,0-5.2,0c0.6-1.9,1.2-3.7,1.7-5.5
		c0.1-0.4,0.4-0.4,0.7-0.4C68.6,38.3,70.3,38.3,72.1,38.3z"/>
	<path class="st12" d="M24.2,44.2c0.6-1.9,1.2-3.6,1.7-5.4c0.1-0.4,0.4-0.5,0.7-0.5c1.7,0,3.4,0,5.2,0c-0.6,1.9-1.2,3.6-1.7,5.4
		c-0.1,0.4-0.4,0.5-0.7,0.5C27.7,44.2,26,44.2,24.2,44.2z"/>
	<path class="st1" d="M197.2,59.7c2.9-9.4,5.9-18.8,8.8-28.2c0.2-0.8,0.6-1.1,1.5-1.1c3.8,0.1,7.6,0,11.4,0c0.7,0,0.9,0.1,0.6,0.8
		c-3,9.5-6,19-9,28.5c-0.2,0.2-0.4,0.1-0.6,0.1c-4,0-8,0-12,0C197.6,59.8,197.4,59.9,197.2,59.7z"/>
	<path class="st13" d="M197.2,59.7c4.4,0,8.9,0,13.3,0c-0.2,0.4-0.6,0.3-0.9,0.3c-3.8,0-7.6,0-11.5,0
		C197.8,59.9,197.4,60,197.2,59.7z"/>
</g>
</svg>
