<?xml version="1.0" encoding="utf-8"?>
<!-- Generator: Adobe Illustrator 21.1.0, SVG Export Plug-In . SVG Version: 6.00 Build 0)  -->
<svg version="1.1" id="Layer_1" xmlns="http://www.w3.org/2000/svg" xmlns:xlink="http://www.w3.org/1999/xlink" x="0px" y="0px"
	 viewBox="0 0 1163 520.8" style="enable-background:new 0 0 1163 520.8;" xml:space="preserve">
<style type="text/css">
	.st0{fill-rule:evenodd;clip-rule:evenodd;fill:#F79339;}
	.st1{fill:#FFFFFF;}
</style>
<g>
	<g>
		<path class="st0" d="M825.7,172.7c23.9-14,51.2-22.8,80.3-25.1c-5-26.1-9.9-73.4,11.4-105.8c-19.6,3.3-42.7,42.4-39.9,78.9
			c-14.6-50.2-45.2-100-54.3-113.9l-0.5,0.1c-0.7,16.3-1.3,74,12.1,124.5c-16.6-33-57-56.1-75.7-49.8
			C796.6,101,817.3,148.7,825.7,172.7z M921.3,161c-96.9,0-175.5,78.6-175.5,175.5S824.4,512,921.3,512
			c96.9,0,175.5-78.6,175.5-175.5S1018.2,161,921.3,161z M921.3,492.6c-86.2,0-156.1-69.9-156.1-156.1
			c0-86.2,69.9-156.1,156.1-156.1s156.1,69.9,156.1,156.1C1077.4,422.7,1007.5,492.6,921.3,492.6z M979.4,201.9
			c-28-11.9-57.3-5.8-65.5,13.5s7.8,44.6,35.8,56.5c28,11.9,57.3,5.8,65.5-13.5C1023.4,239.1,1007.4,213.8,979.4,201.9z"/>
	</g>
</g>
<g>
	<g>
		<path class="st1" d="M53.5,296.9c-4.3-1.8-11.4-2.7-21.2-2.7H14.2V384h17.1v-38c8.7,0,14.7-0.5,18-1.4c5.6-1.6,10.1-4.5,13.3-8.7
			c3.3-4.2,4.9-9.4,4.9-15.6c0-5.7-1.3-10.5-3.8-14.6C61.3,301.7,57.8,298.8,53.5,296.9z M49.5,325.4c-1,1.4-2.3,2.4-3.9,3
			c-1.7,0.6-4.6,0.9-8.9,0.9h-5.4v-18.4h4.8c5.3,0,8.9,0.6,10.9,1.8c2.7,1.6,4,4.1,4,7.6C51,322.3,50.5,324,49.5,325.4z
			 M134.4,335.1c2.8-4,4.2-8.9,4.2-14.8c0-5.6-1.3-10.5-3.8-14.6c-2.6-4.1-5.9-7-10.2-8.8c-4.2-1.8-11.3-2.7-21.2-2.7H85.4V384h17.1
			v-38h1.6l20.2,38h18.7l-21.3-39.9C127.4,342.1,131.6,339.1,134.4,335.1z M119.1,327.2c-2,1.4-5.8,2.1-11.2,2.1h-5.4v-18.4h4.7
			c4.5,0,7.7,0.3,9.4,0.9c1.7,0.6,3.1,1.7,4.1,3.1c1,1.4,1.5,3.2,1.5,5.1C122.1,323.4,121.1,325.7,119.1,327.2z M184.1,294.2
			L149.5,384h17.8l7.3-18.5h36.6l7,18.5H236l-34.5-89.8H184.1z M180.9,348.8l12-30.8l12,30.8H180.9z M293.2,338.5v16.1h26
			c-2.5,5.3-5.8,9.2-9.8,11.7c-4.1,2.5-9,3.7-14.9,3.7c-9.1,0-16.7-3-22.9-9c-6.2-6-9.3-13.4-9.3-22c0-8.4,3-15.5,8.9-21.4
			c6-5.9,13.4-8.8,22.2-8.8c10.1,0,19,4,26.6,12.1l12-11.9c-5.5-5.9-11.1-10.1-16.8-12.6c-6.8-2.9-14.1-4.3-21.9-4.3
			c-14.9,0-27.1,5.2-36.4,15.7c-7.9,8.8-11.8,19.1-11.8,31c0,8.7,2.1,16.7,6.4,24.2c4.3,7.5,10,13.3,17.3,17.3
			c7.3,4,15.6,6.1,24.9,6.1c8.7,0,16.3-1.9,22.8-5.6c6.5-3.7,11.7-9.1,15.8-16.1c4.1-7,6.1-14.5,6.1-22.3l-0.1-3.8H293.2z
			 M421.4,294.2l-21,62.6l-20.8-62.6h-16.7L347.4,384H364l9.9-56.7l18.9,56.7h15.1l19.1-56.7l9.6,56.7h16.5L438,294.2H421.4z
			 M494.1,294.2L459.5,384h17.8l7.3-18.5h36.6l7,18.5h17.8l-34.5-89.8H494.1z M490.8,348.8l12-30.8l12,30.8H490.8z M550.3,311.1
			h15.9V384h17.3v-72.9h16.4v-16.8h-49.6V311.1z M610.4,384h17v-89.8h-17V384z M689.7,308.5c10.2,0,19.3,4.3,27.4,12.9l12-11.4
			c-5-5.8-10.9-10.2-17.7-13.3c-6.9-3.1-14-4.7-21.4-4.7c-8.7,0-16.8,2.1-24.4,6.3c-7.5,4.2-13.3,9.8-17.4,16.8
			c-4,7-6.1,14.9-6.1,23.9c0,13.8,4.4,25.2,13.3,34c8.9,8.9,20.3,13.3,34.3,13.3c7.6,0,14.3-1.3,20.2-3.8c5.9-2.5,12.2-7,18.8-13.5
			L717.2,357c-4.9,4.9-9.4,8.3-13.5,10.1c-4.1,1.9-8.6,2.8-13.6,2.8c-5.8,0-11.1-1.3-15.9-4s-8.4-6.3-11-10.9
			c-2.6-4.6-3.9-10-3.9-15.9c0-8.6,2.9-15.8,8.8-21.7C673.9,311.4,681.2,308.5,689.7,308.5z M829.4,296.9
			c-4.3-1.8-11.4-2.7-21.2-2.7H790V384h17.1v-38c8.7,0,14.7-0.5,18-1.4c5.6-1.6,10.1-4.5,13.3-8.7c3.3-4.2,4.9-9.4,4.9-15.6
			c0-5.7-1.3-10.5-3.8-14.6C837.1,301.7,833.7,298.8,829.4,296.9z M825.4,325.4c-1,1.4-2.3,2.4-3.9,3c-1.7,0.6-4.6,0.9-8.9,0.9h-5.4
			v-18.4h4.8c5.3,0,8.9,0.6,10.9,1.8c2.7,1.6,4,4.1,4,7.6C826.8,322.3,826.4,324,825.4,325.4z M877.2,294.2h-17.1V384h42v-16.3
			h-24.9V294.2z M948.7,294.2L914.1,384h17.8l7.3-18.5h36.6l7,18.5h17.8l-34.5-89.8H948.7z M945.5,348.8l12-30.8l12,30.8H945.5z
			 M1023.8,326.5l-16.7-32.3h-18.3l26.4,50.9V384h17.2v-38.9l26.3-50.9h-18.1L1023.8,326.5z M1098,299.2h5.1v23.1h5.5v-23.1h5.2
			v-5.3H1098V299.2z M1144.1,293.8h-5.3l-6.7,19.9l-6.6-19.9h-5.3l-4.9,28.5h5.3l3.1-18l6,18h4.8l6.1-18l3.1,18h5.2L1144.1,293.8z"
			/>
	</g>
</g>
</svg>
