<svg id="Layer_1" data-name="Layer 1" xmlns="http://www.w3.org/2000/svg" viewBox="0 0 153 42.33">
  <defs>
    <style>
      .cls-1 {
        fill: #fff;
      }
    </style>
  </defs>
  <title>Push gaming</title>
  <path class="cls-1" d="M41.14,3.46c0,1.22,0,2.44-.14,3.64s-.25,2.44-.44,3.64-.44,2.45-.73,3.65-.66,2.45-1.06,3.64H14.84c-.48-1.19-.91-2.4-1.28-3.64H36.13c.32-1.2.58-2.41.8-3.65s.37-2.41.47-3.64H8.5c.11,1.23.27,2.45.48,3.64s.48,2.45.8,3.65.71,2.45,1.15,3.64c.34.93.72,1.85,1.12,2.74l.42.9c.6,1.25,1.26,2.47,2,3.65.4.66.82,1.3,1.26,1.94s.8,1.14,1.22,1.7c.31.4.62.8.94,1.19.48.59,1,1.16,1.48,1.72.22.24.45.49.69.73a3.31,3.31,0,0,0,.26.27c.85.88,1.74,1.72,2.66,2.52l0,0v-.06c.92-.79,1.79-1.62,2.64-2.48l.26-.28c.25-.26.5-.53.74-.8.49-.53,1-1.08,1.42-1.64.32-.4.64-.79.94-1.2.45-.58.88-1.18,1.29-1.79s.81-1.22,1.19-1.85H18.78a36.6,36.6,0,0,1-2.22-3.65H37.37c-.54,1.25-1.13,2.46-1.77,3.65-.53,1-1.09,1.92-1.69,2.84-.17.27-.34.54-.52.8-.78,1.16-1.61,2.29-2.49,3.37l-.23.27-.4.48c-.58.69-1.18,1.35-1.8,2-.38.39-.76.79-1.15,1.17l-.7.66-.81.75c-.88.77-1.78,1.52-2.71,2.23L23,40l-.14-.11c-.93-.71-1.84-1.46-2.71-2.24-.26-.22-.51-.46-.76-.69s-.5-.47-.75-.71-.78-.78-1.16-1.17c-.59-.63-1.17-1.27-1.73-1.93l-.47-.55L15,32.33c-.88-1.09-1.71-2.21-2.49-3.37l-.47-.7c-.61-1-1.2-1.94-1.74-2.94-.64-1.19-1.24-2.4-1.78-3.65l-.12-.28c-.47-1.1-.9-2.22-1.28-3.36s-.75-2.41-1-3.64S5.54,12,5.34,10.74,5,8.33,4.91,7.1s-.14-2.42-.14-3.64Z"/>
  <path class="cls-1" d="M54.37,13.71a3.42,3.42,0,0,1,2.5,1,3.46,3.46,0,0,1,0,4.89,3.42,3.42,0,0,1-2.5,1h-1.8V24h-2V13.71Zm0,5a1.4,1.4,0,0,0,1.07-.45,1.53,1.53,0,0,0,.43-1.11A1.52,1.52,0,0,0,55.44,16a1.43,1.43,0,0,0-1.07-.44h-1.8v3.11Z"/>
  <path class="cls-1" d="M63,24.18a4.08,4.08,0,0,1-2.82-1,3.28,3.28,0,0,1-1.1-2.59V13.71h2v6.74a1.73,1.73,0,0,0,.46,1.28,2.46,2.46,0,0,0,2.89,0,1.73,1.73,0,0,0,.46-1.28V13.71h2v6.91a3.28,3.28,0,0,1-1.1,2.59,4.12,4.12,0,0,1-2.83,1"/>
  <path class="cls-1" d="M72.28,24.18a4.64,4.64,0,0,1-2.57-.68,3.64,3.64,0,0,1-1.46-1.86l1.73-1a2.3,2.3,0,0,0,2.36,1.57,2,2,0,0,0,1.25-.31,1,1,0,0,0-.09-1.62,7.26,7.26,0,0,0-1.73-.65,11,11,0,0,1-1.17-.41,5.17,5.17,0,0,1-.95-.55,2.27,2.27,0,0,1-.73-.87,3,3,0,0,1-.25-1.24,2.74,2.74,0,0,1,1-2.22,3.62,3.62,0,0,1,2.39-.83,4,4,0,0,1,2.19.61,4.08,4.08,0,0,1,1.47,1.7l-1.7,1a2,2,0,0,0-2-1.32,1.55,1.55,0,0,0-1,.28.9.9,0,0,0-.36.74.93.93,0,0,0,.4.79,5.6,5.6,0,0,0,1.55.65l.71.23c.16.05.38.14.66.25a4.29,4.29,0,0,1,.64.31,4.6,4.6,0,0,1,.53.4,2.22,2.22,0,0,1,.44.51,2.93,2.93,0,0,1,.27.64,3,3,0,0,1,.11.82,2.74,2.74,0,0,1-1,2.25,4.12,4.12,0,0,1-2.69.84"/>
  <polygon class="cls-1" points="83.09 13.71 85.1 13.71 85.1 23.97 83.09 23.97 83.09 19.72 79.28 19.72 79.28 23.97 77.25 23.97 77.25 13.71 79.28 13.71 79.28 17.79 83.09 17.79 83.09 13.71"/>
  <path class="cls-1" d="M100.75,18.46v.79a4.74,4.74,0,0,1-1.41,3.57,5,5,0,0,1-3.64,1.36,5.36,5.36,0,0,1-3.93-1.55,5.08,5.08,0,0,1-1.57-3.77,5.31,5.31,0,0,1,5.39-5.36,5.31,5.31,0,0,1,2.62.66,4.83,4.83,0,0,1,1.85,1.73l-1.73,1a2.78,2.78,0,0,0-1.11-1,3.46,3.46,0,0,0-1.65-.39,3.23,3.23,0,0,0-2.41,1,3.32,3.32,0,0,0-1,2.43,3.22,3.22,0,0,0,1,2.39,3.48,3.48,0,0,0,2.55.95,3.36,3.36,0,0,0,1.94-.52,2.58,2.58,0,0,0,1-1.43H95.6V18.46Z"/>
  <path class="cls-1" d="M108.57,24l-.66-1.84H103.7L103.08,24H100.9l3.59-10.26H107L110.62,24Zm-4.21-3.74h2.89L105.76,16Z"/>
  <polygon class="cls-1" points="121.66 13.71 121.66 23.97 119.65 23.97 119.65 17.32 116.76 22.08 116.52 22.09 113.64 17.34 113.64 23.97 111.62 23.97 111.62 13.71 113.7 13.71 116.64 18.56 119.57 13.71 121.66 13.71"/>
  <rect class="cls-1" x="123.57" y="13.71" width="2.02" height="10.27"/>
  <polygon class="cls-1" points="133.44 13.71 135.46 13.71 135.46 23.97 133.92 23.97 129.52 17.7 129.52 23.97 127.5 23.97 127.5 13.71 129.04 13.71 133.44 19.96 133.44 13.71"/>
  <path class="cls-1" d="M147.45,18.46v.79A4.74,4.74,0,0,1,146,22.82a5,5,0,0,1-3.64,1.36,5.38,5.38,0,0,1-3.94-1.55,5.11,5.11,0,0,1-1.56-3.77,5.31,5.31,0,0,1,5.38-5.36,5.32,5.32,0,0,1,2.63.66,4.83,4.83,0,0,1,1.85,1.73l-1.73,1a2.85,2.85,0,0,0-1.11-1,3.52,3.52,0,0,0-1.65-.39,3.23,3.23,0,0,0-2.41,1,3.29,3.29,0,0,0-1,2.43,3.22,3.22,0,0,0,1,2.39,3.47,3.47,0,0,0,2.54.95,3.39,3.39,0,0,0,2-.52,2.62,2.62,0,0,0,1-1.43H142.3V18.46Z"/>
</svg>
