<?xml version="1.0" encoding="utf-8"?>
<!-- Generator: Adobe Illustrator 21.1.0, SVG Export Plug-In . SVG Version: 6.00 Build 0)  -->
<svg version="1.1" id="Layer_1" xmlns="http://www.w3.org/2000/svg" xmlns:xlink="http://www.w3.org/1999/xlink" x="0px" y="0px"
	 viewBox="0 0 258.2 91.2" style="enable-background:new 0 0 258.2 91.2;" xml:space="preserve">
<style type="text/css">
	.st0{fill:#FF6900;}
</style>
<g>
	<path class="st0" d="M257.3,70c0,0.1-0.1,0.1-0.1,0.2c-0.3,1.8-1.4,3-3.3,3.3c-1.6,0.3-3.3-0.6-4-2.1c-0.5-1-1-2-1.5-3
		c-7-14.5-13.9-29-20.9-43.5c-0.5-1.1-0.7-2.2-0.2-3.3c0.6-1.5,1.8-2.4,3.5-2.5c1.6-0.1,2.8,0.7,3.6,2.1c0.7,1.3,1.3,2.6,1.9,3.9
		c3.4,7.1,6.8,14.2,10.2,21.2c3.3,7,6.7,13.9,10,20.9c0.3,0.7,0.6,1.3,0.7,2.1C257.3,69.5,257.3,69.7,257.3,70z"/>
	<path class="st0" d="M1,59.4c0.2-0.1,0.2-0.3,0.2-0.5c0.5-1.7,2.1-2.8,3.8-2.8c1.8,0,3.3,1.3,3.7,3c0.1,0.4,0.1,0.8,0.1,1.2
		c0.1,2.4,2,5.1,5.1,5.3c2.9,0.3,5.5-1.7,6.1-4.5c0.1-0.4,0.1-0.8,0.1-1.1c0-2.1,1.6-3.7,3.7-3.9c2-0.1,3.7,1.3,4.1,3.2
		c0.1,0.6,0.1,1.2,0,1.9c-0.3,2.9-1.4,5.5-3.3,7.7c-0.2,0.2-0.2,0.4,0,0.6c1,1.8,2,3.6,2.9,5.3c0.8,1.4,0.6,3.1-0.4,4.3
		c-0.5,0.6-1.1,1-1.9,1.2c-0.2,0.1-0.4,0.1-0.5,0.2c-0.4,0-0.8,0-1.1,0c-1.6-0.2-2.6-1.2-3.3-2.6c-0.7-1.4-1.5-2.7-2.2-4.1
		c-0.4-0.7-0.4-0.7-1.2-0.6c-4.8,0.7-8.9-0.7-12.3-4.2c-1.7-1.8-2.8-4-3.3-6.5c-0.1-0.5,0-1-0.2-1.5C1,60.6,1,60,1,59.4z"/>
	<path class="st0" d="M141.7,18.9c0.1,0.2,0.4,0.1,0.5,0.2c2.5,0.8,3.5,3.7,2.1,5.9c-0.7,1.1-1.5,2.2-2.3,3.3
		c-6.2,8.8-12.4,17.7-18.6,26.5c-0.5,0.7-1.1,1.3-2,1.6c-1.6,0.6-3.4,0.1-4.4-1.3c-1-1.3-1.1-3.2-0.1-4.6c1.7-2.5,3.4-4.9,5.2-7.4
		c5.2-7.4,10.5-14.9,15.7-22.3c0.7-1,1.5-1.6,2.7-1.8c0,0,0.1,0,0.1-0.1C140.8,18.9,141.3,18.9,141.7,18.9z"/>
	<path class="st0" d="M1,31.4c0.1-0.2,0.2-0.4,0.2-0.6C2,25.1,6.1,20.6,11.6,19.4c7.5-1.6,14.5,3.3,16,10.3c0.2,0.9,0.3,1.8,0.3,2.7
		c0.1,2.2-1.7,4-3.8,4c-2.2,0-3.9-1.7-4-3.9c0-1.5-0.5-2.8-1.6-3.9c-1.7-1.7-3.8-2.2-6-1.4c-2.3,0.8-3.5,2.6-3.7,5
		c0,0.4,0,0.9-0.2,1.3c-0.5,1.7-2,2.9-3.7,2.9c-1.8,0-3.3-1.1-3.8-2.8c-0.1-0.2-0.1-0.4-0.2-0.6C1,32.5,1,32,1,31.4z"/>
	<path class="st0" d="M257.3,63.6c-1.6-3.3-3.2-6.7-4.8-10c-0.9-1.9-1.8-3.8-2.8-5.7c-0.1-0.3-0.2-0.5-0.2-0.8c0-8,0-16,0-24
		c0-1.6,0.7-2.9,2.1-3.7c2-1.1,4.5-0.1,5.4,1.9c0.1,0.2,0.1,0.5,0.2,0.7C257.3,36,257.3,49.8,257.3,63.6z"/>
	<path class="st0" d="M1,37.2c0.2,0,0.3,0.1,0.4,0.2c2.2,1.6,4.9,1.5,7.1,0c0.1-0.1,0.2-0.1,0.3-0.2c0,6,0,12,0,18
		c-0.1,0.1-0.2-0.1-0.3-0.1c-2.3-1.6-4.9-1.6-7.2,0c-0.1,0.1-0.2,0.2-0.4,0.1C1,49.3,1,43.3,1,37.2z"/>
	<path class="st0" d="M190.2,50.9c-1.8,0-3.6,0-5.4,0c-1.6,0-2.8-0.8-3.5-2.2c-1.2-2.5,0.5-5.4,3.3-5.5c1,0,2,0,3.1,0
		c2.3,0,4.6,0,6.9,0c1.7,0,3.1-0.6,4.3-1.9c0.9-1,1.4-2.2,1.5-3.6c0.1-1.5,0.1-2.9,0-4.4c0-0.7,0-1.5-0.2-2.2
		c-0.7-2.4-2.8-4.1-5.3-4.2c-0.6,0-1.2,0-1.9,0c-2.7,0-5.3,0-8,0c-1.9,0-3.8-1.4-4-3.5c-0.2-1.9,1.1-3.9,3.2-4.2
		c0.3-0.1,0.6-0.1,0.9-0.1c3.1,0,6.2,0,9.4,0c2.6,0,5,0.6,7.2,2c3.5,2.2,5.6,5.4,6.3,9.5c0.1,0.9,0.2,1.8,0.2,2.6c0,1.7,0.1,3.3,0,5
		c-0.4,6.1-4.6,11.1-10.6,12.5c-0.9,0.2-1.9,0.3-2.8,0.3C193.1,50.9,191.7,50.9,190.2,50.9z"/>
	<path class="st0" d="M69.1,46.3c0-7.8,0-15.6,0-23.3c0-1.8,1.2-3.3,3-3.8c2.3-0.6,4.7,1.1,4.8,3.5c0,0.2,0,0.5,0,0.7
		c0,15.3,0,30.6,0,45.8c0,0.8-0.1,1.5-0.4,2.2c-0.8,1.6-2.6,2.4-4.4,2c-1.7-0.4-2.9-2-2.9-3.7C69.1,61.9,69.1,54.1,69.1,46.3z"/>
	<path class="st0" d="M220.9,46.3c0,7.7,0,15.3,0,23c0,0.8-0.1,1.5-0.5,2.2c-0.8,1.4-2.4,2.3-3.9,2c-1.7-0.2-3-1.5-3.4-3.1
		c-0.1-0.3-0.1-0.6-0.1-0.8c0-15.5,0-31,0-46.5c0-1.9,1.4-3.9,3.8-4c2.4-0.1,3.8,1.8,4,3.4c0,0.3,0,0.6,0,0.9
		C220.9,31.1,220.9,38.7,220.9,46.3z"/>
	<path class="st0" d="M97.5,19c7,0.1,12.1,5.1,13.2,10.8c0.2,0.8,0.3,1.6,0.3,2.5c0.1,2.4-1.8,4.2-4.2,4.1c-1.9-0.1-3.6-1.7-3.6-3.7
		c0-0.6-0.1-1.2-0.3-1.8c-0.7-2.4-3-4.2-5.7-4c-2.8,0.1-4.9,2.1-5.3,4.8c0,0.3-0.1,0.6-0.1,0.9c-0.1,2-1.6,3.6-3.5,3.8
		c-2.1,0.1-3.9-1.2-4.2-3.3c-0.2-1,0-2,0.2-3c1.2-5.5,4.5-9,9.8-10.6c0.4-0.1,0.8-0.2,1.3-0.3C96.1,19.1,96.8,19.1,97.5,19z"/>
	<path class="st0" d="M160.8,19c6.9,0.1,12.2,4.9,13.3,11.1c0.2,1,0.3,2.1,0.1,3.2c-0.3,1.9-2.1,3.3-4.2,3.1
		c-1.9-0.1-3.5-1.8-3.5-3.7c0-1.1-0.3-2.2-0.9-3.2c-1.3-2-3.7-3.1-6-2.6c-2.4,0.5-4.1,2.4-4.5,4.8c0,0.3-0.1,0.6-0.1,0.9
		c-0.1,2-1.7,3.6-3.6,3.7c-2.1,0.1-3.8-1.3-4.1-3.3c-0.1-1,0-2,0.2-2.9c1.2-5.5,4.5-9.1,9.9-10.7c0.4-0.1,0.9-0.2,1.3-0.3
		C159.5,19.1,160.2,19.1,160.8,19z"/>
	<path class="st0" d="M48.4,73.5c-6.5,0-12.1-4.7-13.3-11.2c-0.2-0.9-0.2-1.8-0.2-2.7c0.2-2,1.9-3.5,3.9-3.5c2,0,3.7,1.6,3.8,3.7
		c0,1.1,0.2,2.1,0.8,3.1c1.2,2,3.4,3.1,5.7,2.7c2.5-0.4,4.3-2.2,4.7-4.7c0.1-0.3,0.1-0.7,0.1-1c0.1-2.1,1.8-3.8,3.9-3.8
		c2.1,0,3.8,1.7,3.9,3.9c0.1,6.1-4.2,11.6-10.1,13.1C50.6,73.4,49.5,73.5,48.4,73.5z"/>
	<path class="st0" d="M97.6,73.5c-6.6,0-12.1-4.6-13.3-11.1c-0.2-1-0.3-2.1-0.2-3.1c0.3-1.8,1.9-3.1,3.7-3.2
		c1.8-0.1,3.5,1.2,3.9,2.9c0.1,0.3,0.1,0.6,0.1,1c0.1,2.9,2.1,5.3,4.9,5.6c3.1,0.4,5.8-1.7,6.3-4.6c0.1-0.4,0.1-0.8,0.1-1.1
		c0-2,1.6-3.7,3.7-3.8c2.2-0.1,3.8,1.5,4,3.3c0.1,1,0,2-0.2,3.1c-1.1,5.5-5.2,9.6-10.6,10.8C99.3,73.4,98.4,73.5,97.6,73.5z"/>
	<path class="st0" d="M160.9,73.5c-6.5,0-12.2-4.7-13.3-11.1c-0.2-1-0.3-2-0.2-3c0.3-1.8,1.8-3.2,3.7-3.3c1.8-0.1,3.5,1.2,3.9,3
		c0.1,0.6,0.1,1.2,0.2,1.8c0.4,2.7,2.8,4.8,5.5,4.8c2.9,0,5.2-2,5.7-4.8c0-0.3,0.1-0.6,0.1-0.9c0-2,1.6-3.7,3.7-3.8
		c2.2-0.1,3.8,1.5,4.1,3.3c0.1,1,0,2-0.2,3c-1.2,5.4-4.4,9-9.7,10.6C163.3,73.4,162.1,73.5,160.9,73.5z"/>
	<path class="st0" d="M227.2,29.1c0.2,0.5,0.4,0.9,0.7,1.4c2.3,4.8,4.6,9.5,6.8,14.3c0.1,0.3,0.2,0.5,0.2,0.8c0,8,0,16,0,24
		c0,1.8-1.1,3.3-2.8,3.8c-2.4,0.7-4.9-1-5-3.6c0-0.2,0-0.4,0-0.6c0-13.1,0-26.2,0-39.4c0-0.2,0-0.4,0-0.6
		C227.2,29.1,227.2,29.1,227.2,29.1z"/>
	<path class="st0" d="M61.8,55.3c-2.6-1.8-5.2-1.8-7.8,0c0-0.2,0-0.4,0-0.6c0-10.5,0-21,0-31.5c0-1.2,0.3-2.2,1.2-3.1
		c1.2-1.2,2.6-1.5,4.2-0.9c1.6,0.6,2.4,1.8,2.5,3.5c0,0.1,0,0.2,0,0.4c0,10.5,0,21,0,31.6C61.8,54.9,61.8,55.1,61.8,55.3z"/>
	<path class="st0" d="M42.7,55.3c-2.6-1.8-5.2-1.8-7.7,0c-0.1-0.1-0.1-0.3-0.1-0.4c0-10.6,0-21.3,0-31.9c0-2.2,1.7-3.9,3.8-3.9
		c2.5,0,3.9,2,3.9,3.7c0,0.2,0,0.4,0,0.6c0,10.5,0,20.9,0,31.4C42.7,54.8,42.7,55,42.7,55.3z"/>
	<path class="st0" d="M133.4,44.4c0.4,0.8,0.7,1.5,1,2.2c3.3,7,6.7,14.1,10,21.1c0.8,1.7,0.5,3.4-0.5,4.5c-1.8,2-5.2,1.6-6.4-0.9
		c-0.8-1.7-1.6-3.4-2.5-5.2c-2.2-4.7-4.4-9.3-6.6-13.9c-0.2-0.4-0.2-0.6,0.1-1c1.5-2.1,3-4.3,4.5-6.4
		C133.1,44.7,133.2,44.5,133.4,44.4z"/>
	<path class="st0" d="M171,53.9c-3.2,0-5.3,1.5-6.4,4.5c-4.6-6.6-9.2-13.1-13.9-19.8c1.5,0.1,2.9-0.2,4.1-1c1.2-0.8,2-1.9,2.5-3.3
		C161.8,40.9,166.4,47.4,171,53.9z"/>
	<path class="st0" d="M116.2,47.5c-0.1-0.2-0.1-0.4-0.1-0.5c0-8,0-15.9,0-23.9c0-1.8,1.1-3.3,2.6-3.8c2.5-0.9,5.2,1,5.2,3.6
		c0,4.4,0,8.9,0,13.3c0,0.2,0,0.4-0.2,0.6c-2.5,3.5-5,7-7.4,10.6C116.3,47.3,116.3,47.4,116.2,47.5z"/>
	<path class="st0" d="M181,51.8c0.6,0.4,1.2,0.8,1.9,1c0.6,0.2,1.3,0.3,2,0.3c1.1,0,2.2,0,3.3,0c0.6,0,0.5,0,0.5,0.5
		c0,3.7,0,7.4,0,11c0,1.6,0,3.3,0,4.9c0,2-1.5,3.7-3.5,3.9c-1.9,0.2-3.7-1-4.2-2.9c-0.1-0.4-0.1-0.7-0.1-1.1c0-5.8,0-11.5,0-17.3
		C180.9,52.1,180.9,52,181,51.8z"/>
	<path class="st0" d="M84.1,55.3c0-6,0-12,0-18c2.6,1.8,5.1,1.8,7.7,0c0.1,0.4,0.2,16.7,0.1,18C89.3,53.5,86.7,53.5,84.1,55.3z"/>
	<path class="st0" d="M20.2,55.3c0-6.1,0-12,0-18.1c1.2,0.9,2.4,1.4,3.8,1.4c1.4,0,2.7-0.5,3.9-1.4c0,6,0,12,0,18.1
		c-1.2-0.9-2.4-1.4-3.9-1.4C22.7,53.9,21.4,54.4,20.2,55.3z"/>
	<path class="st0" d="M123.9,57.4c0.1,0.1,0.1,0.3,0.1,0.4c0,3.9,0,7.9,0,11.8c0,1.7-1.1,3.2-2.8,3.7c-2.4,0.7-5-1.1-5-3.6
		c0-4,0-8.1,0-12.1c0,0,0-0.1,0-0.2C118.7,59.2,121.3,59.2,123.9,57.4z"/>
	<path class="st0" d="M180.9,27.7c0.5,0.4,1,0.7,1.5,0.9c0.8,0.3,1.6,0.5,2.4,0.5c1.1,0,2.3,0,3.4,0c0.4,0,0.4,0,0.4,0.5
		c0,3.6,0,7.3,0,10.9c0,0.5,0,0.5-0.5,0.5c-1.1,0-2.2,0-3.2,0c-1.4,0-2.7,0.4-3.8,1.2c-0.1,0-0.1,0.1-0.3,0.1
		C180.9,37.4,180.9,32.6,180.9,27.7z"/>
</g>
</svg>
