<?xml version="1.0" encoding="utf-8"?>
<!-- Generator: Adobe Illustrator 23.0.1, SVG Export Plug-In . SVG Version: 6.00 Build 0)  -->
<svg version="1.1" id="Layer_1" xmlns="http://www.w3.org/2000/svg" xmlns:xlink="http://www.w3.org/1999/xlink" x="0px" y="0px"
	 width="153px" height="36px" viewBox="0 0 153 36" enable-background="new 0 0 153 36" xml:space="preserve">
<g id="Tiger" transform="translate(-47 -38)">
	<g id="Logo" transform="translate(-27 108)">
		<path id="Logo_Type_White" fill-rule="evenodd" clip-rule="evenodd" fill="#F6F6F6" d="M218.6-50.3l4,6.5l-4.6,0l-3.8-6.1h0v6.1
			H210v-15.9h6.2c1.4-0.1,2.9,0.3,4,1.2c1.1,0.9,1.6,2.3,1.5,3.7c0,1.1-0.3,2.1-0.9,3C220.4-51,219.5-50.4,218.6-50.3z M217.2-55.5
			c-0.2-0.3-0.4-0.5-0.7-0.6c-0.3-0.1-0.6-0.2-0.9-0.3c-0.4-0.1-0.7-0.1-1.1-0.1h-0.4v4h0.4c0.4,0,0.7,0,1.1-0.1
			c0.3,0,0.6-0.1,0.9-0.3c0.3-0.1,0.5-0.4,0.7-0.6C217.5-54.1,217.5-54.9,217.2-55.5L217.2-55.5z M198.4-59.6h9.1v3.5h-4.9v2.6h4.9
			v3.6h-4.9v2.6h4.9v3.6h-9.1V-59.6z M138.6-56.1h-4.9v2.6h4.9v3.6h-4.9v2.6h4.9v3.6h-9.1v-15.9h9.1V-56.1z M123.2-43.7l-3.8-6.1h0
			v6.1h-4.1v-15.9h6.2c1.4-0.1,2.9,0.3,4,1.2c1.1,0.9,1.6,2.3,1.5,3.7c0,1.1-0.3,2.1-0.9,3c-0.6,0.8-1.5,1.4-2.6,1.5l4.3,6.5
			L123.2-43.7z M122.4-55.5c-0.2-0.3-0.4-0.5-0.7-0.6c-0.3-0.1-0.6-0.2-0.9-0.3c-0.4-0.1-0.7-0.1-1.1-0.1h-0.4v4h0.4
			c0.4,0,0.7,0,1.1-0.1c0.3,0,0.6-0.1,0.9-0.3c0.3-0.1,0.5-0.4,0.7-0.6C122.7-54.1,122.7-54.9,122.4-55.5L122.4-55.5z M149.4-59
			c0.9,0.4,1.7,1,2.4,1.7c0.7,0.7,1.2,1.6,1.6,2.5c0.8,2,0.8,4.2,0,6.2c-0.4,0.9-0.9,1.8-1.6,2.5c-0.7,0.7-1.5,1.3-2.4,1.7
			c-0.9,0.4-1.9,0.6-2.9,0.6h-5.4v-15.9h5.4C147.5-59.6,148.5-59.4,149.4-59L149.4-59z M145-56.1v8.9h0.9c0.6,0,1.1-0.1,1.6-0.3
			c1.1-0.4,1.9-1.2,2.3-2.2c0.2-0.6,0.3-1.3,0.3-2c0.1-1.2-0.3-2.4-1.1-3.3c-0.8-0.8-1.9-1.2-3-1.2L145-56.1z M171.3-56.1h-3.4v12.4
			h-4.1v-12.4h-3.4v-3.5h11V-56.1z M177.9-43.7h-4.1v-15.9h4.1V-43.7z M182.7-57.4c0.7-0.7,1.6-1.3,2.5-1.6c1-0.4,2.1-0.6,3.2-0.6
			c1.4,0,2.8,0.3,4,1c1.2,0.7,2.1,1.8,2.6,3.1l-3.6,1.5c-0.2-0.7-0.7-1.3-1.2-1.7c-0.6-0.4-1.3-0.6-2-0.6c-0.6,0-1.1,0.1-1.6,0.4
			c-0.5,0.3-0.9,0.6-1.2,1.1c-0.3,0.5-0.6,1-0.7,1.5c-0.3,1.1-0.3,2.3,0,3.4c0.2,0.5,0.4,1.1,0.8,1.5c0.3,0.4,0.7,0.8,1.2,1.1
			c0.5,0.3,1.1,0.4,1.7,0.4c0.8,0,1.5-0.2,2.1-0.7c0.6-0.5,0.9-1.2,1-1.9h-3.1v-3h7.6c0,1.1-0.1,2.2-0.3,3.3
			c-0.2,0.9-0.6,1.8-1.2,2.6c-0.7,1-1.6,1.7-2.6,2.2c-1.1,0.5-2.3,0.7-3.5,0.7c-1.1,0-2.2-0.2-3.2-0.6c-0.9-0.4-1.8-0.9-2.5-1.6
			c-0.7-0.7-1.3-1.6-1.6-2.5c-0.4-1-0.6-2.1-0.6-3.2c0-1.1,0.2-2.2,0.6-3.3C181.4-55.8,181.9-56.7,182.7-57.4L182.7-57.4z"/>
		<path id="Logo_Symbol_Red_on_Black" fill-rule="evenodd" clip-rule="evenodd" fill="#D71920" d="M98.1-56.2c0,0.4,0,0.9-0.7,1.1
			c-0.4,0.1-0.9-0.4-0.9-0.8c0.2-0.3,0.5-0.5,0.8-0.6C97.9-56.6,98.1-56.7,98.1-56.2z M86.5-55c-0.7-0.2-0.6-0.7-0.7-1.1
			c0-0.5,0.2-0.5,0.8-0.2c0.3,0.1,0.6,0.3,0.8,0.6C87.4-55.4,86.9-54.9,86.5-55L86.5-55z M101.8-42.4c0.4-0.2,0.8-0.5,1.1-0.8
			c1.6-1.7,1.9-3.6,2.1-5.9c0-0.6,0-1.2,0.1-1.8c0-0.1,0-0.5,0.1-0.5c0.1,0.1,0.2,0.3,0.3,0.5c0.2,0.5,0.3,1.1,0.4,1.6
			c0.2,1.1,0.2,2.2,0.1,3.3c-0.1,0.4-0.2,0.8-0.4,1.1c-1,1.7-2.1,3.2-3.1,4.8c-0.1,0.1-0.1-0.1-0.2-0.2l-0.1-0.1
			c-0.2-0.1-0.3-0.1-0.4-0.1c0,0.1-0.1,0.1-0.1,0.2c-0.2,0.5-0.7,1.4-1,2c0,0.1-0.2,0.1-0.2,0.1c-0.1,0-0.1-0.1-0.1-0.2
			c0-0.6,0-1.2,0-1.9c0-0.4,0-0.9-0.5-0.9c-0.5,0-0.5,0.5-0.5,0.9c0,0.4,0,0.7,0,1.1c0,0.1-0.1,0.2-0.2,0.2c0,0-0.1,0-0.1,0
			c-0.4-0.3-0.9-0.6-1.4-0.8c-0.8-0.3-1.8-0.2-2.5,0.3l0.1-0.1c0.6-0.6,1.5-0.8,2.3-0.6c0.2,0,0.5,0.1,0.7,0.1
			c0.1,0,0.2-0.1,0.2-0.2c0,0,0,0,0-0.1c-0.3-0.9-1.3-4,0.7-5.1c0.1,0,0.1-0.1,0.1-0.1c0.1-0.6,1.1-3.1-1.7-4.7
			c-0.4,0.4-1,1.3-1.7,1.9c1.2,0.3,1.9-0.5,2.5-1c-0.2,1.5-1.4,1.6-2.3,2.1c0.8-0.3,1.6,0.1,2.5-0.4c-0.7,1.3-2,0.6-2.8,1.3
			c0.8,0.5,1.5,0.2,2.2,0.2c0.2,0,0.4,0,0.6,0c-0.2,0.2-0.4,0.5-0.6,0.7c-0.3,0.2-0.6,0.4-0.9,0.5c-0.3,0.1-0.7,0.1-1,0
			c-1-0.3-2-0.7-3-1.1c-0.2-0.1-0.3-0.3-0.4-0.5c-0.1-0.3,0-0.7,0-1c-0.1-0.4,0.2-0.8,0.6-0.9c0.9-0.3,1.8-0.8,2.3-1.6
			c0.2-0.3,0.3-0.6,0.4-0.9c0,0,0,0,0,0c0-0.3-0.1-0.6-0.2-0.9c-0.1-0.2-0.1-0.5,0-0.7l0-0.1c0,0,0,0,0,0h0l0.2-0.9
			c0.1-0.3,0.2-0.5,0.5-0.7l0.1,0c0,0,0.1,0,0.1-0.1c0.4-0.2,0.8-0.4,1.2-0.5c1.5-0.6,2.6-1.8,3-3.3c0.2-0.5,0.2-1,0.1-1.5
			c-0.1,0.3-0.4,0.8-0.5,1.1c-0.2,0.5-0.6,0.7-1.1,0.7c-1.3,0-2.6,0.2-3.3,1.6c-0.3,0.7-0.9,1.3-1.6,1.7c0-0.4,0-0.8,0.2-1.2
			c-0.6-0.3-0.4-0.6,0-1c0.4-0.5,0.9-1,1.4-1.5c-0.4-0.1-0.8-0.3-1.1-0.6h2.6c0,0,0-0.1,0-0.1c-0.8-0.1-1.6-0.4-2.3-0.8
			c1.2-0.7,3.7-0.4,4.1-0.5c0-0.1-0.3-0.2-0.7-0.3c-0.8-0.2-1.1-0.3-2-0.5c-0.8-0.2-1.6-0.5-2.4-1h3.4c-1.2-0.7-2.4-1.1-3.8-1.2
			c-0.7,0-1.3,0-1.7,0l0-0.2v0.2c-0.5,0-1,0-1.7,0c-1.3,0.2-2.6,0.6-3.8,1.2h3.4c-0.7,0.4-1.5,0.7-2.4,1c-0.8,0.2-1.1,0.3-2,0.5
			c-0.4,0.1-0.7,0.2-0.7,0.3c0.4,0.1,2.9-0.2,4.1,0.5c-0.7,0.4-1.5,0.7-2.3,0.8c0,0,0,0.1,0,0.1h2.6c-0.3,0.3-0.7,0.5-1.1,0.6
			c0.5,0.5,0.9,1,1.4,1.5c0.3,0.4,0.6,0.7,0,1c0.1,0.4,0.2,0.8,0.2,1.2c-0.7-0.4-1.3-1-1.6-1.7c-0.7-1.4-2-1.6-3.3-1.6
			c-0.5,0.1-0.9-0.2-1.1-0.7c-0.1-0.3-0.3-0.9-0.5-1.1c-0.1,0.5-0.1,1,0.1,1.5c0.5,1.5,1.6,2.7,3,3.3c0.4,0.1,0.8,0.3,1.2,0.5
			c0,0,0.1,0,0.1,0.1c0,0,0,0,0.1,0c0.2,0.2,0.4,0.4,0.5,0.7l0.2,0.9h0c0,0,0,0,0,0l0,0.1c0.1,0.2,0.1,0.5,0,0.7
			c-0.1,0.3-0.2,0.6-0.2,0.9c0,0,0,0,0,0c0.1,0.3,0.2,0.6,0.4,0.9c0.6,0.8,1.4,1.4,2.3,1.6c0.4,0.1,0.7,0.5,0.6,0.9c0,0.3,0,0.7,0,1
			c-0.1,0.2-0.2,0.4-0.4,0.5c-1,0.4-2,0.8-3,1.1c-0.3,0.1-0.7,0.1-1,0c-0.3-0.1-0.6-0.2-0.9-0.5c-0.2-0.2-0.4-0.4-0.6-0.7
			c0.2,0,0.4-0.1,0.6,0c0.7,0.1,1.4,0.4,2.2-0.2c-0.8-0.7-2.1,0-2.8-1.3c0.9,0.5,1.7,0,2.5,0.4c-0.9-0.5-2-0.6-2.3-2.1
			c0.6,0.5,1.3,1.3,2.5,1c-0.7-0.6-1.3-1.5-1.7-1.9c-2.9,1.6-1.8,4.1-1.7,4.7c0,0.1,0,0.1,0.1,0.1c2.1,1.1,1.1,4.2,0.7,5.1
			c0,0.1,0,0.1,0,0.2c0,0,0.1,0.1,0.1,0.1c0.2,0,0.5,0,0.7-0.1c0.8-0.2,1.7,0.1,2.3,0.6l0.1,0.1c-0.7-0.5-1.7-0.6-2.5-0.3
			c-0.5,0.2-1,0.5-1.4,0.8c-0.1,0.1-0.2,0-0.2-0.1c0,0,0-0.1,0-0.1c0-0.4,0-0.8,0-1.1c0-0.4,0-0.9-0.5-0.9c-0.5,0-0.5,0.5-0.5,0.9
			c0,0.6,0,1.2,0,1.9c0,0.1-0.1,0.2-0.2,0.2c-0.1,0-0.1,0-0.2-0.1c-0.3-0.6-0.7-1.4-1-2c0-0.1-0.1-0.1-0.1-0.2
			c-0.1-0.1-0.2-0.1-0.4,0.1l-0.1,0.1c-0.1,0-0.1,0.3-0.2,0.2c-1-1.6-2.1-3.2-3.1-4.8c-0.2-0.3-0.3-0.7-0.4-1.1
			C78-47,78-48.1,78.2-49.2c0-0.6,0.2-1.1,0.4-1.6c0.1-0.2,0.2-0.3,0.3-0.5c0,0,0.1,0.4,0.1,0.5c0,0.6,0,1.2,0.1,1.8
			c0.2,2.2,0.5,4.2,2.1,5.9c0.3,0.3,0.7,0.6,1.1,0.8c0.1,0,0.2,0,0.2-0.1c0,0,0-0.1,0-0.1c-0.5-1-1-1.9-1.4-3c-0.4-1-0.7-2.1-1-3.2
			c0-0.1,0-0.2,0.1-0.2c0,0,0.1,0,0.1,0c0.2,0.1,0.5,0.2,0.8,0.3c0.1,0,0.2,0,0.2-0.1c0,0,0-0.1,0-0.1C80.9-49.9,80-53,80-53
			c0.1,0.1,0.6,0.9,0.7,1c0.5,0.7,0.9,1.5,1.2,2.3c0.2,0.4,0.3,0.7,0.4,0.9c0,0.1,0,0.2,0,0.2c-0.8,0.7-0.2,2,0.2,2.4
			c0.5,0.6,0.8,1.2,1,2c0,0.1,0.1,0.4,0.2,0.6c0,0.1,0.1,0.1,0.2,0.1c0.1,0,0.1-0.1,0.1-0.2c-0.1-0.9-0.2-2.2-0.5-2.5
			c-0.5-0.4-0.4-2,0.2-2.2c0.5-0.3,0.6-0.5,0.4-1c-0.1-0.1,0-0.2,0.1-0.3c0,0,0,0,0,0l2.3-1.3c0.1,0,0.1-0.2,0.1-0.2
			c0,0-0.1-0.1-0.1-0.1c-0.8-0.1-1.6,0.2-2.2,0.6c-0.5,0.3-1.1,0.1-1.4-0.3c0-0.1-0.1-0.1-0.1-0.2c0-0.1-0.1-0.2-0.1-0.4
			c0-0.1,0.1-0.2,0.2-0.2c1.1-0.3,1.3-0.3,1.3-0.7c0-0.1-0.1-0.2-0.2-0.2c0,0,0,0,0,0c-0.4,0.1-0.8,0-1.1-0.1
			c-0.2-0.2-0.4-0.5-0.4-0.8c0-0.1,0-0.2,0.1-0.2c0,0,0.1,0,0.1,0c0.4,0.2,0.5,0.2,0.7,0c0.1-0.1,0.1-0.2,0-0.3c0,0,0,0,0,0
			c0-0.1-0.1-0.1-0.2-0.2c-0.8-0.6-2.1-4.1-2-5.2c-0.3,0.3-0.6,0.6-0.7,1.1c-0.9-0.4-1.5-0.5-1.4-1.7l1,0.5c0,0,0-0.4-0.5-0.8
			c-1.1-0.9-1.3-2.1-1.3-3.5c-0.1-0.6,0.4-1.2,1.1-1.3c0.2,0,0.5,0,0.7,0.2c2.1,1,5.1,2,7.5,1.7l0.1,0l0,0l0,0
			c1.5-0.3,3-0.5,4.6-0.5h0c1.5,0,3.1,0.2,4.6,0.5l0,0l0,0l0.1,0c2.4,0.3,5.3-0.7,7.5-1.7c0.5-0.3,1.3-0.2,1.6,0.4
			c0.1,0.2,0.2,0.5,0.2,0.7c0,1.3-0.2,2.5-1.3,3.5c-0.5,0.4-0.5,0.8-0.5,0.8l1-0.5c0.1,1.2-0.5,1.3-1.4,1.7
			c-0.1-0.4-0.4-0.8-0.7-1.1c0,1-1.2,4.5-2,5.2c-0.1,0-0.1,0.1-0.2,0.2c0,0,0,0.1,0,0.1c0,0,0,0.1,0.1,0.1c0.2,0.2,0.3,0.2,0.7,0
			c0.1,0,0.2,0,0.2,0.1c0,0,0,0.1,0,0.1c0,0.3-0.2,0.6-0.4,0.8c-0.4,0.1-0.8,0.2-1.1,0.1c-0.1,0-0.2,0.1-0.2,0.2c0,0,0,0,0,0
			c0.1,0.3,0.2,0.4,1.3,0.7c0.1,0,0.2,0.1,0.2,0.2c0,0.1-0.1,0.2-0.1,0.4c-0.2,0.5-0.7,0.8-1.2,0.6c-0.1,0-0.1-0.1-0.2-0.1
			c-0.6-0.5-1.4-0.7-2.2-0.6c-0.1,0-0.2,0.1-0.1,0.2c0,0.1,0,0.1,0.1,0.1l2.3,1.3c0.1,0.1,0.1,0.2,0.1,0.3c0,0,0,0,0,0
			c-0.2,0.4-0.1,0.7,0.4,1c0.5,0.3,0.6,1.8,0.2,2.2c-0.3,0.3-0.5,1.5-0.5,2.5c0,0.1,0.1,0.2,0.2,0.2c0.1,0,0.1,0,0.2-0.1
			c0.1-0.2,0.1-0.4,0.2-0.6c0.2-0.7,0.5-1.4,1-2c0.3-0.4,1-1.7,0.2-2.4c-0.1-0.1-0.1-0.1,0-0.2c0.1-0.2,0.2-0.5,0.4-0.9
			c0.3-0.8,0.7-1.6,1.2-2.3c0-0.1,0.6-0.9,0.7-1c0,0-1,3-1.3,4.1c0,0.1,0,0.2,0.1,0.2c0,0,0.1,0,0.1,0c0.2-0.1,0.5-0.2,0.8-0.3
			c0.1,0,0.2,0,0.2,0.1c0,0,0,0.1,0,0.1c-0.3,1.1-0.6,2.2-1,3.2c-0.4,1-0.9,2-1.4,3c0,0.1,0,0.2,0.1,0.2
			C101.7-42.3,101.7-42.3,101.8-42.4L101.8-42.4z M86.9-50.3L86.9-50.3C86.9-50.3,86.9-50.3,86.9-50.3L86.9-50.3z M82.9-63.6
			c0.2,0,0.4,0.1,0.5,0.1C83.2-63.5,83.1-63.5,82.9-63.6L82.9-63.6z M82.6-63.3c-2.5-0.2-2,1.7-1.6,2.7l0.4,0.7c0,0,0,0.1,0.1,0.1
			c0,0,0,0,0,0l0,0c0.6,1.5,1.1,4.6,4.1,5.8c-0.1-0.1-0.2-0.1-0.3-0.2c-0.9-0.7-1.6-1.6-2.1-2.6c-1.3-2.7-1-4.4-1.2-5.1
			c0.3,0.1,1.2,0.3,1.4,0.4c0,0-1.6-0.7-2.1-1c0.2-0.1,0.4-0.2,0.7-0.2c1.1-0.1,1.5,0.2,2.1,0.3c0.5,0,0.9,0,1.4-0.1L82.6-63.3z
			 M96.9-50.3C97-50.3,97-50.3,96.9-50.3L96.9-50.3z M100.5-63.4c0.2,0,0.4-0.1,0.5-0.1C100.8-63.5,100.6-63.5,100.5-63.4
			L100.5-63.4z M102.3-59.8L102.3-59.8C102.3-59.8,102.3-59.8,102.3-59.8c0-0.1,0-0.1,0.1-0.1l0.4-0.7c0.5-1.1,0.9-2.9-1.6-2.7
			l-2.9,0.7c0.4,0.1,0.9,0.1,1.4,0.1c0.7-0.1,1.1-0.4,2.1-0.3c0.2,0,0.5,0.1,0.7,0.2c-0.5,0.2-2.1,1-2.1,1c0.2-0.1,1.1-0.3,1.4-0.4
			c-0.2,0.7,0.2,2.4-1.2,5.1c-0.5,1-1.2,1.9-2.1,2.6c-0.1,0.1-0.2,0.2-0.3,0.2C101.2-55.2,101.7-58.3,102.3-59.8L102.3-59.8z
			 M91.9-50.2c-0.4,0-0.7,0-1.2,0c-0.5,0-0.9-0.1-1.3-0.3c-0.2-0.2-0.4-0.4-0.3-0.7c0-0.4,0.5-0.6,0.5-0.6c0,0.9,0.7,1.1,2.3,1.1h0
			c1.6,0,2.4-0.3,2.3-1.1c0,0,0.5,0.3,0.5,0.6c0.1,0.3-0.1,0.6-0.3,0.7c-0.4,0.2-0.9,0.3-1.3,0.3C92.7-50.2,92.3-50.2,91.9-50.2
			L91.9-50.2L91.9-50.2z M91.9-40.7c0,1.2-2,1.3-3.6,0.3c-0.1-0.4,0.1-1-0.1-1.1c-0.3-0.2-0.8,0.1-1.1,0.3c-0.3,0.2-0.5,0.5-0.8,0.8
			c0.1-1.8,1.9-3.4,4.7-3.6c0.3,0,0.6,0,0.9,0s0.6,0,0.9,0c2.8,0.2,4.6,1.8,4.7,3.6c-0.3-0.2-0.5-0.6-0.8-0.8
			c-0.3-0.2-0.8-0.5-1.1-0.3c-0.2,0.1,0,0.8-0.1,1.1C93.9-39.4,91.9-39.5,91.9-40.7z"/>
	</g>
</g>
</svg>
