<?xml version="1.0" encoding="utf-8"?>
<!-- Generator: Adobe Illustrator 22.1.0, SVG Export Plug-In . SVG Version: 6.00 Build 0)  -->
<svg version="1.1" id="Layer_1" xmlns="http://www.w3.org/2000/svg" xmlns:xlink="http://www.w3.org/1999/xlink" x="0px" y="0px"
	 viewBox="0 0 134 25" style="enable-background:new 0 0 134 25;" xml:space="preserve">
<style type="text/css">
	.st0{fill:#FFFFFF;}
</style>
<g>
	<path class="st0" d="M40.6,20.9c0,0.7-0.2,1.3-0.6,1.7c-0.3,0.2-0.7,0.3-1.2,0.3c-0.6,0-1.1-0.2-1.4-0.7c-0.3-0.4-0.4-0.9-0.4-1.4
		c0-0.6,0.2-1.2,0.5-1.6c0.2-0.2,0.4-0.4,0.6-0.5c0.2-0.1,0.5-0.2,0.8-0.2c0.3,0,0.6,0,0.9,0.1c0.3,0.1,0.5,0.2,0.6,0.4
		c0,0,0.1,0.1,0.1,0.2c0,0.1,0,0.1-0.1,0.2c-0.1,0-0.1,0.1-0.2,0.1c-0.1,0-0.1,0-0.2-0.1c-0.2-0.1-0.3-0.2-0.5-0.3
		C39.2,19.1,39,19,38.8,19c-0.5,0-0.8,0.2-1.1,0.6c-0.2,0.3-0.3,0.7-0.3,1.1c0,0.6,0.2,1.1,0.5,1.4c0.2,0.2,0.5,0.3,0.8,0.3
		c0.2,0,0.4,0,0.7-0.1c0.5-0.2,0.7-0.6,0.7-1.2v-0.2h-0.8c-0.1,0-0.2-0.1-0.2-0.2c0-0.2,0.1-0.3,0.2-0.3h1
		C40.5,20.4,40.6,20.6,40.6,20.9L40.6,20.9z"/>
	<path class="st0" d="M53.4,22.7c0,0.1-0.1,0.2-0.2,0.2c-0.1,0-0.1,0-0.2-0.1c0,0-0.1-0.1-0.1-0.1L52.6,22h-2l-0.3,0.8
		c0,0.1-0.1,0.2-0.3,0.2c-0.2,0-0.2-0.1-0.2-0.2c0,0,0,0,0-0.1l0-0.1l1.4-3.7c0-0.1,0.1-0.2,0.2-0.2c0.1-0.1,0.1-0.1,0.2-0.1
		c0.1,0,0.2,0,0.2,0.1c0.1,0.1,0.1,0.1,0.1,0.2l1.4,3.7C53.4,22.6,53.4,22.7,53.4,22.7 M52.5,21.5l-0.8-2.3h0l-0.8,2.3H52.5z"/>
	<path class="st0" d="M67.4,22.6c0,0.2-0.1,0.4-0.3,0.4c-0.2,0-0.2-0.1-0.3-0.2l-0.5-3.5l-1.1,3.5c0,0.1-0.1,0.2-0.3,0.2
		c-0.1,0-0.2-0.1-0.3-0.2l-1-3.5l-0.5,3.5c0,0.2-0.1,0.3-0.3,0.3c-0.2,0-0.2-0.1-0.2-0.3c0,0,0-0.1,0-0.1l0.6-3.6
		c0-0.1,0.1-0.2,0.1-0.3c0.1-0.1,0.2-0.1,0.3-0.1c0.1,0,0.2,0,0.3,0.1c0.1,0,0.1,0.1,0.1,0.2L65,22h0l0.9-3.2c0-0.1,0.1-0.2,0.1-0.2
		c0.1,0,0.1-0.1,0.2-0.1c0.1,0,0.2,0,0.3,0.1c0.1,0.1,0.1,0.1,0.1,0.3L67.4,22.6z"/>
	<path class="st0" d="M77.5,22.6c0,0.2-0.1,0.3-0.3,0.3c-0.2,0-0.3-0.1-0.3-0.3v-3.8c0-0.2,0.1-0.3,0.3-0.3c0.2,0,0.3,0.1,0.3,0.3
		V22.6z"/>
	<path class="st0" d="M90.6,22.7c0,0.2-0.1,0.3-0.2,0.3c-0.1,0-0.2-0.1-0.3-0.2l-2.3-3.3v3.2c0,0.2-0.1,0.3-0.3,0.3
		c-0.2,0-0.3-0.1-0.3-0.3v-3.8c0-0.2,0.1-0.3,0.2-0.3c0.1,0,0.2,0.1,0.3,0.2L90,22h0v-3.1c0-0.1,0-0.1,0.1-0.2
		c0-0.1,0.1-0.1,0.2-0.1c0.2,0,0.3,0.1,0.3,0.3V22.7z"/>
	<path class="st0" d="M103.9,20.9c0,0.7-0.2,1.3-0.6,1.7c-0.3,0.2-0.7,0.3-1.2,0.3c-0.6,0-1.1-0.2-1.4-0.7c-0.3-0.4-0.4-0.9-0.4-1.4
		c0-0.6,0.2-1.2,0.5-1.6c0.2-0.2,0.4-0.4,0.6-0.5c0.2-0.1,0.5-0.2,0.8-0.2c0.3,0,0.6,0,0.9,0.1c0.3,0.1,0.5,0.2,0.6,0.4
		c0,0,0.1,0.1,0.1,0.2c0,0.1,0,0.1-0.1,0.2c-0.1,0-0.1,0.1-0.2,0.1c-0.1,0-0.1,0-0.2-0.1c-0.2-0.1-0.3-0.2-0.5-0.3
		c-0.2-0.1-0.3-0.1-0.6-0.1c-0.5,0-0.8,0.2-1.1,0.6c-0.2,0.3-0.3,0.7-0.3,1.1c0,0.6,0.2,1.1,0.5,1.4c0.2,0.2,0.5,0.3,0.8,0.3
		c0.2,0,0.4,0,0.7-0.1c0.5-0.2,0.7-0.6,0.7-1.2v-0.2h-0.8c-0.1,0-0.2-0.1-0.2-0.2c0-0.2,0.1-0.3,0.2-0.3h1
		C103.7,20.4,103.9,20.6,103.9,20.9L103.9,20.9z"/>
	<path class="st0" d="M37,1.7c0.1,0,6,0,6,0c1.4,0,2.5,0.3,3.2,0.9c0.7,0.6,1,1.5,1,2.7c0,0.9-0.2,1.7-0.6,2.2c-0.4,0.6-1,1-1.8,1.1
		c0,0,2.6,4.5,2.7,4.7c0.1,0.1,0.1,0.3-0.1,0.3h-2.3c-0.1,0-0.2-0.1-0.3-0.2C44.7,13.3,42.3,9,42.3,9h-3v4.5c0,0.1-0.1,0.2-0.3,0.2
		h-2c-0.1,0-0.2-0.1-0.2-0.2c0-0.1,0-11.5,0-11.6S36.9,1.7,37,1.7 M42.4,3.8h-3.1v3h3.1c0.8,0,1.4-0.1,1.7-0.3
		c0.3-0.2,0.5-0.6,0.5-1.2c0-0.5-0.2-0.9-0.5-1.2C43.9,4,43.3,3.8,42.4,3.8"/>
	<path class="st0" d="M56.7,3.8c-0.9,0-1.6,0.2-2.1,0.7c-0.5,0.5-0.7,1.2-0.8,2.1c0,0,6.6,0,6.8,0c0.1,0,0.2,0,0.2,0.2v1.7
		c0,0.2-0.1,0.3-0.3,0.3h-6.7c0.1,1,0.3,1.8,0.7,2.2c0.4,0.5,1.2,0.7,2,0.7h4.1c0.1,0,0.2,0.2,0.2,0.3v1.6c0,0.2-0.1,0.3-0.3,0.3
		h-3.9c-0.9,0-1.7-0.1-2.2-0.2c-0.5-0.2-1-0.4-1.5-0.8c-0.6-0.5-1.1-1.1-1.4-1.9C51.1,9.9,51,9,51,7.9c0-2.1,0.5-3.7,1.4-4.7
		c0.9-1,2.3-1.5,4.3-1.5h4c0.1,0,0.2,0,0.2,0.2v1.7c0,0.2-0.1,0.2-0.2,0.2H56.7z"/>
	<path class="st0" d="M69.9,13.7c-1.1,0-2-0.1-2.5-0.3c-0.5-0.2-1-0.5-1.5-1c-0.4-0.4-0.7-0.9-0.8-1.4c-0.2-0.5-0.2-1.3-0.2-2.2
		c0,0,0.1-6.9,0.1-6.9c0-0.1,0.1-0.2,0.2-0.2h2.1c0.1,0,0.2,0.1,0.2,0.2c0,0.1-0.1,6.8-0.1,6.8c0,0.7,0,1.2,0.1,1.5
		c0.1,0.3,0.2,0.5,0.3,0.7c0.2,0.3,0.5,0.5,0.9,0.6c0.3,0.1,0.8,0.2,1.4,0.2h2.8c0.1,0,0.2,0,0.2,0.2v1.6c0,0.1,0,0.2-0.2,0.2H69.9z
		"/>
	<path class="st0" d="M81.4,1.7h2.3c0.1,0,0.2,0.1,0.2,0.2c0,0.1,4.8,11.3,4.9,11.4c0.1,0.2,0,0.3-0.3,0.3h-2.1
		c-0.2,0-0.3-0.1-0.4-0.3c-0.1-0.2-1-2.6-1-2.6h-5.2c0,0-0.9,2.4-1,2.6c-0.1,0.2-0.1,0.3-0.3,0.3h-2.2c-0.1,0-0.2-0.1-0.2-0.3
		C76.2,13.3,81.1,2,81.1,2C81.1,1.9,81.2,1.7,81.4,1.7 M82.4,4.1l-1.8,4.6h3.6L82.4,4.1z"/>
	<path class="st0" d="M95.1,3.4c0,1-0.8,1.8-1.8,1.8c-1,0-1.8-0.8-1.8-1.8s0.8-1.8,1.8-1.8C94.3,1.7,95.1,2.5,95.1,3.4"/>
	<path class="st0" d="M104.2,3.4c0,1-0.8,1.8-1.8,1.8s-1.8-0.8-1.8-1.8s0.8-1.8,1.8-1.8S104.2,2.5,104.2,3.4"/>
	<path class="st0" d="M95.1,12c0,1-0.8,1.8-1.8,1.8c-1,0-1.8-0.8-1.8-1.8s0.8-1.8,1.8-1.8C94.3,10.2,95.1,11,95.1,12"/>
	<path class="st0" d="M104.2,12c0,1-0.8,1.8-1.8,1.8s-1.8-0.8-1.8-1.8s0.8-1.8,1.8-1.8S104.2,11,104.2,12"/>
	<path class="st0" d="M99.6,7.7c0,1-0.8,1.8-1.8,1.8c-1,0-1.8-0.8-1.8-1.8c0-1,0.8-1.8,1.8-1.8C98.8,5.9,99.6,6.7,99.6,7.7"/>
</g>
</svg>
