<svg id="Layer_1" data-name="Layer 1" xmlns="http://www.w3.org/2000/svg" xmlns:xlink="http://www.w3.org/1999/xlink" viewBox="0 0 122.25 33.28"><defs><style>.cls-1{fill:#d61f2b;}.cls-2{fill:#fff;}.cls-3{fill:url(#linear-gradient);}.cls-4{fill:url(#linear-gradient-2);}.cls-5{fill:url(#linear-gradient-3);}.cls-6{fill:url(#linear-gradient-4);}.cls-7{fill:url(#linear-gradient-5);}.cls-8{fill:url(#linear-gradient-6);}.cls-9{fill:#ed1b31;}.cls-10{fill:url(#linear-gradient-7);}.cls-11{fill:#c72031;}</style><linearGradient id="linear-gradient" x1="25.59" y1="514.58" x2="23.8" y2="525.82" gradientTransform="matrix(1, 0, 0, -1, 0, 531.89)" gradientUnits="userSpaceOnUse"><stop offset="0" stop-color="#ed1b34"/><stop offset="1" stop-color="#d4202a"/></linearGradient><linearGradient id="linear-gradient-2" x1="22.16" y1="504.89" x2="26.09" y2="517.01" gradientTransform="matrix(1, 0, 0, -1, 0, 531.89)" gradientUnits="userSpaceOnUse"><stop offset="0" stop-color="#cf2029"/><stop offset="1" stop-color="#aa1f23"/></linearGradient><linearGradient id="linear-gradient-3" x1="9.45" y1="502.43" x2="3.77" y2="515.83" gradientTransform="matrix(1, 0, 0, -1, 0, 531.89)" gradientUnits="userSpaceOnUse"><stop offset="0" stop-color="#951b1e"/><stop offset="1" stop-color="#cb2028"/></linearGradient><linearGradient id="linear-gradient-4" x1="3.58" y1="515.1" x2="9.48" y2="528.35" gradientTransform="matrix(1, 0, 0, -1, 0, 531.89)" gradientUnits="userSpaceOnUse"><stop offset="0" stop-color="#e11e2d"/><stop offset="1" stop-color="#b21f25"/></linearGradient><linearGradient id="linear-gradient-5" x1="5.64" y1="525.55" x2="19.71" y2="525.55" gradientTransform="matrix(1, 0, 0, -1, 0, 531.89)" gradientUnits="userSpaceOnUse"><stop offset="0" stop-color="#a31e22"/><stop offset="1" stop-color="#931a1d"/></linearGradient><linearGradient id="linear-gradient-6" x1="16.06" y1="517.26" x2="16.63" y2="525.39" gradientTransform="matrix(1, 0, 0, -1, 0, 531.89)" gradientUnits="userSpaceOnUse"><stop offset="0" stop-color="#dd1f2c"/><stop offset="1" stop-color="#aa1f23"/></linearGradient><linearGradient id="linear-gradient-7" x1="18.81" y1="505.32" x2="15.97" y2="512.34" gradientTransform="matrix(1, 0, 0, -1, 0, 531.89)" gradientUnits="userSpaceOnUse"><stop offset="0" stop-color="#ed1b35"/><stop offset="1" stop-color="#db1f2b"/></linearGradient></defs><path class="cls-1" d="M19.71,6.72h0A39.15,39.15,0,0,0,5.64,1.83h0A39.28,39.28,0,0,0,2.83,16.46h0a39.42,39.42,0,0,0,2.8,14.62h0A39,39,0,0,0,19.7,26.2h0a39.49,39.49,0,0,0,11.24-9.74A39.45,39.45,0,0,0,19.71,6.72Z"/><path class="cls-2" d="M10,12.87c0-2,1.45-2.87,3.22-1.84l6.1,3.56c1.77,1,1.77,2.71,0,3.74l-6.1,3.56c-1.77,1-3.22.2-3.22-1.85Z"/><path class="cls-3" d="M20.6,16.46H30.94A39.45,39.45,0,0,0,19.71,6.72v8.16A2,2,0,0,1,20.6,16.46Z"/><path class="cls-4" d="M20.6,16.46A2.07,2.07,0,0,1,19.71,18V26.2a39.45,39.45,0,0,0,11.23-9.74Z"/><path class="cls-1" d="M10.84,22.07l-5.2,9A39.14,39.14,0,0,0,19.71,26.2l-7-4.07A2,2,0,0,1,10.84,22.07Z"/><path class="cls-5" d="M10,20.6,2.83,16.46h0a39.42,39.42,0,0,0,2.8,14.62h0l5.2-9A2,2,0,0,1,10,20.6Z"/><path class="cls-6" d="M10.83,10.84l-5.19-9h0A39.28,39.28,0,0,0,2.83,16.46L10,12.32A2,2,0,0,1,10.83,10.84Z"/><path class="cls-7" d="M12.66,10.78l7.05-4.06A39.09,39.09,0,0,0,5.64,1.83l5.2,9A2,2,0,0,1,12.66,10.78Z"/><path class="cls-8" d="M13.17,11l6.1,3.56a4.78,4.78,0,0,1,.44.29V6.72l-7,4.06A4.77,4.77,0,0,1,13.17,11Z"/><path class="cls-9" d="M10,20V12.87a3.24,3.24,0,0,1,0-.55L2.83,16.46,10,20.6A3.43,3.43,0,0,1,10,20Z"/><path class="cls-10" d="M19.28,18.33l-6.11,3.56a4.66,4.66,0,0,1-.5.25l7,4.07V18A4.61,4.61,0,0,1,19.28,18.33Z"/><path class="cls-11" d="M39.66,17.62v4.3h-2v-11H41a6.8,6.8,0,0,1,1.92.24,3.62,3.62,0,0,1,1.32.65,2.54,2.54,0,0,1,.76,1,3.32,3.32,0,0,1,.24,1.28,3.19,3.19,0,0,1-.16,1,2.88,2.88,0,0,1-.48.9,3,3,0,0,1-.76.71,3.71,3.71,0,0,1-1,.49,2.22,2.22,0,0,1,.67.63l2.75,4.05H44.36a.78.78,0,0,1-.75-.41L41.28,18a.77.77,0,0,0-.29-.28.91.91,0,0,0-.46-.09Zm0-1.46h1.27a3.37,3.37,0,0,0,1-.14,1.94,1.94,0,0,0,.71-.4,1.57,1.57,0,0,0,.41-.61,1.89,1.89,0,0,0,.14-.77A1.58,1.58,0,0,0,42.64,13,2.63,2.63,0,0,0,41,12.51H39.65v3.65Z"/><path class="cls-11" d="M51.73,20.27a2.74,2.74,0,0,0,1.06-.2,2.09,2.09,0,0,0,.78-.55,2.48,2.48,0,0,0,.5-.87,3.69,3.69,0,0,0,.17-1.14V10.92h2v6.59A5.1,5.1,0,0,1,56,19.32a4,4,0,0,1-2.34,2.38,5,5,0,0,1-1.9.34,5,5,0,0,1-1.91-.34,4.33,4.33,0,0,1-1.44-.94,4.09,4.09,0,0,1-.9-1.44,5.06,5.06,0,0,1-.32-1.81V10.92h2.05v6.59a3.35,3.35,0,0,0,.17,1.13,2.63,2.63,0,0,0,.49.87,2.23,2.23,0,0,0,.79.56A2.79,2.79,0,0,0,51.73,20.27Z"/><path class="cls-11" d="M58.59,21.92v-11h3.79a7.09,7.09,0,0,1,1.85.21,3.37,3.37,0,0,1,1.25.58,2.21,2.21,0,0,1,.72.92,3,3,0,0,1,.23,1.22,2.29,2.29,0,0,1-.11.74,2.37,2.37,0,0,1-.36.66,2.77,2.77,0,0,1-.61.56,3.8,3.8,0,0,1-.88.42c1.51.34,2.27,1.16,2.27,2.45A3.2,3.2,0,0,1,66.48,20a2.91,2.91,0,0,1-.78,1,3.6,3.6,0,0,1-1.26.67,5.54,5.54,0,0,1-1.7.24H58.59Zm2-6.24h1.63a2.81,2.81,0,0,0,1.59-.38,1.37,1.37,0,0,0,.53-1.21,1.43,1.43,0,0,0-.48-1.22,2.51,2.51,0,0,0-1.52-.36H60.64v3.17Zm0,1.42v3.23h2.07a3,3,0,0,0,1-.14,1.9,1.9,0,0,0,.63-.36,1.48,1.48,0,0,0,.33-.53,2,2,0,0,0,.1-.65,1.62,1.62,0,0,0-.11-.64,1.33,1.33,0,0,0-.36-.49,1.68,1.68,0,0,0-.63-.3,3.18,3.18,0,0,0-.92-.11Z"/><path class="cls-11" d="M73.2,17.66v4.26h-2V17.66l-4-6.74H69a.66.66,0,0,1,.42.13,1.26,1.26,0,0,1,.27.33l2,3.67c.12.22.23.43.31.62s.17.38.24.57c.07-.19.14-.38.23-.58s.18-.4.3-.61l2-3.67a1,1,0,0,1,.25-.32.64.64,0,0,1,.42-.14h1.81Z"/><path class="cls-2" d="M83.69,18.05v3.87h-2v-11h3.57a6.39,6.39,0,0,1,1.91.26,3.68,3.68,0,0,1,1.33.72A2.88,2.88,0,0,1,89.24,13a4.19,4.19,0,0,1,0,2.88,3,3,0,0,1-.8,1.15,3.76,3.76,0,0,1-1.34.74,5.85,5.85,0,0,1-1.87.27Zm0-1.6h1.53a3.17,3.17,0,0,0,1-.14,1.8,1.8,0,0,0,.69-.4,1.56,1.56,0,0,0,.42-.64,2.47,2.47,0,0,0,.13-.84,2.28,2.28,0,0,0-.13-.8,1.52,1.52,0,0,0-.42-.61,1.94,1.94,0,0,0-.68-.38,3.28,3.28,0,0,0-1-.13H83.69v3.94Z"/><path class="cls-2" d="M93.27,20.23h4.31l-.73,1.69H91.22v-11h2v9.31Z"/><path class="cls-2" d="M108.63,21.92H107a.65.65,0,0,1-.43-.13.86.86,0,0,1-.25-.34l-.82-2.24H101l-.81,2.24a.8.8,0,0,1-.24.32.64.64,0,0,1-.43.14H97.91l4.32-11h2.09Zm-7.12-4.15H105l-1.33-3.66a5.91,5.91,0,0,1-.21-.57q-.1-.33-.21-.72-.12.39-.21.72c-.07.22-.14.42-.21.58Z"/><path class="cls-2" d="M112.86,17.66v4.26h-2V17.66l-4-6.74h1.8a.66.66,0,0,1,.42.13,1.09,1.09,0,0,1,.27.33l2,3.67c.11.22.22.43.3.62s.17.38.25.57c.06-.19.14-.38.22-.58s.19-.4.3-.61l2-3.67a1.21,1.21,0,0,1,.25-.32.65.65,0,0,1,.43-.14h1.81Z"/><path class="cls-2" d="M120.72,12h0a1.36,1.36,0,0,0-.17-.39,1.76,1.76,0,0,0-.25-.34,2.13,2.13,0,0,0-.34-.25,1.36,1.36,0,0,0-.39-.17,1.64,1.64,0,0,0-.88,0,1.55,1.55,0,0,0-.4.17,2,2,0,0,0-.33.25,2.18,2.18,0,0,0-.26.34,1.34,1.34,0,0,0-.16.39,1.62,1.62,0,0,0-.07.44,1.31,1.31,0,0,0,.07.44,1.34,1.34,0,0,0,.16.39,2.1,2.1,0,0,0,.26.33,2,2,0,0,0,.33.26,2,2,0,0,0,.4.17,2.12,2.12,0,0,0,.44.06,1.49,1.49,0,0,0,.43-.06,2,2,0,0,0,.4-.17,1.64,1.64,0,0,0,.33-.26,2.1,2.1,0,0,0,.26-.33,1.34,1.34,0,0,0,.16-.39,1.68,1.68,0,0,0,.07-.44A1.61,1.61,0,0,0,120.72,12Zm-2.85.08a1.13,1.13,0,0,1,.13-.32,1.05,1.05,0,0,1,.2-.27,1.39,1.39,0,0,1,.27-.21,1.26,1.26,0,0,1,.31-.13,1.25,1.25,0,0,1,.7,0,1.27,1.27,0,0,1,.32.13,1.33,1.33,0,0,1,.26.21,1.05,1.05,0,0,1,.2.27,1.27,1.27,0,0,1,.13.32,1.42,1.42,0,0,1,0,.36,1.3,1.3,0,0,1-.1.52,1.48,1.48,0,0,1-.27.43,1.54,1.54,0,0,1-.42.28,1.25,1.25,0,0,1-.51.1,1.22,1.22,0,0,1-.51-.1,1.54,1.54,0,0,1-.42-.28,1.26,1.26,0,0,1-.27-.43,1.3,1.3,0,0,1-.1-.52A1.1,1.1,0,0,1,117.87,12.11Z"/><path class="cls-2" d="M119.57,12.67l-.08-.07a.54.54,0,0,0,.31-.21.59.59,0,0,0,.1-.33.49.49,0,0,0-.19-.41.93.93,0,0,0-.59-.14h-.69v1.93h.46v-.7H119l.08,0a.08.08,0,0,1,0,.05l.31.56a.13.13,0,0,0,.13.08H120l-.38-.66Zm-.15-.43a.19.19,0,0,1,0,.09.23.23,0,0,1-.12.06l-.17,0h-.19v-.56h.22l.16,0a.19.19,0,0,1,.1.05.13.13,0,0,1,0,.09.37.37,0,0,1,0,.11A.25.25,0,0,1,119.42,12.24Z"/></svg>