<svg id="Layer_1" data-name="Layer 1" xmlns="http://www.w3.org/2000/svg" viewBox="0 0 134 25">
  <defs>
    <style>
      .cls-1 {
        fill: #fff;
      }
    </style>
  </defs>
  <title>Skywind-01</title>
  <g>
    <g>
      <path class="cls-1" d="M40.8,9.18C39.49,4.51,33.64,1.6,30.32,2.64,24.66,4.43,27.16,11.35,32,8.2c.22-.14.46-.3.72-.45,4.82-1,8.46,2.78,8.76,8.37A14.07,14.07,0,0,0,40.8,9.18Z"/>
      <path class="cls-1" d="M33.82,15.94c0,.26,0,.54,0,.84-1.48,4.62-6.55,5.95-11.65,3.5a14.68,14.68,0,0,0,6.45,2.83c4.77,1.13,10.18-2.51,10.86-5.89C40.7,11.46,33.36,10.27,33.82,15.94Z"/>
      <path class="cls-1" d="M25.94,13.81c-.24-.12-.49-.26-.75-.41C22,9.71,23.55,4.76,28.35,1.79a14.44,14.44,0,0,0-5.83,3.89C19,9.07,19.26,15.55,21.8,17.91,26.14,21.93,31.05,16.42,25.94,13.81Z"/>
    </g>
    <path class="cls-1" d="M76.3,17.24h3.11c.66,0,1.07.12,1.23.37a2.06,2.06,0,0,1,.24,1.11c0,.67-.18,1.07-.53,1.21a5,5,0,0,1-1.71.21H76.3Zm0,6.33V20.82h3c.37,0,.73,0,1.09-.08a1.89,1.89,0,0,0,1-.41,1.31,1.31,0,0,0,.39-.49,2.31,2.31,0,0,0,.16-.57,2.44,2.44,0,0,0,0-.27,2.35,2.35,0,0,0,0-.26,1.7,1.7,0,0,0,0-.22V18.3a3.21,3.21,0,0,0-.18-.77,1.5,1.5,0,0,0-.54-.65,1.3,1.3,0,0,0-.55-.24,3.4,3.4,0,0,0-.64-.09H75.34v7Zm-2.76-2.11c0,.64-.16,1.05-.46,1.21a3.71,3.71,0,0,1-1.64.26h-1A2.92,2.92,0,0,1,69,22.65c-.27-.19-.4-.58-.4-1.19V16.54h-1v4.92c0,1,.31,1.63.92,1.84a8.25,8.25,0,0,0,2.55.31h.49l.49,0a3.07,3.07,0,0,0,2-.54,2.11,2.11,0,0,0,.52-1.59V16.54h-1Zm-12.6-2.61c0-.77.17-1.25.43-1.44a3,3,0,0,1,1.57-.28h.32a6.13,6.13,0,0,1,2,.22c.38.15.58.65.58,1.52V20c0,.19,0,.39,0,.58s0,.39,0,.58c0,.85-.23,1.37-.65,1.53A6.15,6.15,0,0,1,63,23a2.83,2.83,0,0,1-1.71-.34,1.91,1.91,0,0,1-.4-1.36V20.14Zm-1,2c0,.23,0,.46,0,.7a1.87,1.87,0,0,0,.86,1.71,5.57,5.57,0,0,0,2.26.36h.78a3.76,3.76,0,0,0,2.29-.51,2.35,2.35,0,0,0,.67-1.8c0-.41,0-.83,0-1.25V18.83c0-1.1-.31-1.77-.91-2a7.69,7.69,0,0,0-2.69-.36h-.43c-1.43,0-2.26.31-2.5.94a6.62,6.62,0,0,0-.36,2.36v1.1Zm-6.53-3.64H56.6q1.08,0,1.32.39a2.21,2.21,0,0,1,.24,1.15,1.12,1.12,0,0,1-.45,1.06,3.07,3.07,0,0,1-1.45.26H53.39Zm0,6.35V20.73h3a2.31,2.31,0,0,1,1.26.27,1,1,0,0,1,.4,1v1.61h1V21.78a1.37,1.37,0,0,0-.33-1,1.55,1.55,0,0,0-1.09-.4q1.15-.16,1.35-.66a3.28,3.28,0,0,0,.19-1.2A1.84,1.84,0,0,0,58.57,17a3.4,3.4,0,0,0-2-.45H52.42v7Zm-5.54-2.8h2.8v.62q0,1-.39,1.26a3.24,3.24,0,0,1-1.65.27H47.05l-.35,0c-.64-.07-1-.29-1.13-.66A3.68,3.68,0,0,1,45.4,21l0-1,0-.92a2.44,2.44,0,0,1,.38-1.59,2.79,2.79,0,0,1,1.75-.34h.91l.9,0c.6,0,1,.15,1.1.39a2,2,0,0,1,.21,1h1v-.26A1.8,1.8,0,0,0,51.15,17a2.34,2.34,0,0,0-1.6-.5H47.44a3.58,3.58,0,0,0-2.4.6,2.59,2.59,0,0,0-.66,2v1c0,.16,0,.32,0,.48V21a2.38,2.38,0,0,0,.77,2.12,5.71,5.71,0,0,0,2.88.5h.91c.3,0,.6,0,.9,0,.83-.07,1.34-.32,1.53-.76a3.66,3.66,0,0,0,.29-1.46v-.89a2.43,2.43,0,0,0,0-.38H47.85Z"/>
    <path class="cls-1" d="M111.22,3.45h4.28a5.75,5.75,0,0,1,2,.31,1.63,1.63,0,0,1,1,1.43,7.34,7.34,0,0,1,.11,1.15c0,.39,0,.78,0,1.17V8c0,.15,0,.3,0,.45s0,.31,0,.47a4.48,4.48,0,0,1-.19,1,2.19,2.19,0,0,1-.47.81,1.62,1.62,0,0,1-.77.43,5,5,0,0,1-1,.16,4,4,0,0,1-.49,0h-4.48Zm4.65,8.82c1.92,0,3.09-.48,3.51-1.43A8.1,8.1,0,0,0,120,7.6V6.66a4.83,4.83,0,0,0-.87-3.12c-.57-.71-1.78-1.07-3.61-1.07h-5.66v9.8Zm-8.49-9.8v9l-6.89-8.95H98.26v9.8h1.33V3.41l6.89,8.86h2.24V2.47Zm-11.71,9.8h1.4V2.47h-1.4Zm-2.38-9.8-3.44,9L86.56,2.47h-2l-3.31,9L77.87,2.47H76.46l3.76,9.8h2l3.29-8.82,3.21,8.82h2.1l3.85-9.8Zm-19,0L70.64,7.05,67,2.47h-1.6l4.51,5.7v4.1h1.37V8.17l4.63-5.7Zm-19.5,0v9.8h1.4V7.73h1.22L63,12.27h1.88l-6.27-5L64.2,2.47H62.38l-5,4.28H56.17V2.47ZM53.49,5c0-1.26-.41-2-1.24-2.25a11.27,11.27,0,0,0-3.16-.37h-.34a8.75,8.75,0,0,0-3,.44q-1.14.45-1.14,2.22c0,1.3.47,2.08,1.42,2.32a15,15,0,0,0,3.34.43h.55l.55,0A2.7,2.7,0,0,1,52,8.21a1.77,1.77,0,0,1,.36,1.31c0,.82-.19,1.34-.58,1.54a5.2,5.2,0,0,1-2.12.3H48.47A3.65,3.65,0,0,1,46.32,11a2.38,2.38,0,0,1-.47-1.75H44.53a.49.49,0,0,1,0,.12.52.52,0,0,0,0,.11.49.49,0,0,0,0,.12v.12c0,1.24.41,2,1.25,2.25a10.75,10.75,0,0,0,3.16.39h1.17l.57,0,.59,0c1.12-.09,1.81-.4,2.09-.94a4.17,4.17,0,0,0,.41-1.91c0-1.29-.43-2-1.29-2.27a13.1,13.1,0,0,0-3.12-.38h-.77l-.79,0a2,2,0,0,1-1.49-.48A1.93,1.93,0,0,1,45.94,5a1.7,1.7,0,0,1,0-.22,1.64,1.64,0,0,1,0-.23,1.49,1.49,0,0,1,.19-.52,1,1,0,0,1,.43-.39,2.13,2.13,0,0,1,.6-.18l.75-.08.64,0h1.2a3.21,3.21,0,0,1,1.85.36,2,2,0,0,1,.51,1.44h1.35Z"/>
  </g>
</svg>
