<svg id="Layer_1" data-name="Layer 1" xmlns="http://www.w3.org/2000/svg" viewBox="0 0 110 28"><defs><style>.cls-1{fill:#e51f2d;}</style></defs><path class="cls-1" d="M10.36,15.58a.42.42,0,0,1-.21.13c-.07,0-.28,0-.56,0h-8a18.28,18.28,0,0,0-.22,2.09,1.6,1.6,0,0,0,.16.83,1.45,1.45,0,0,0,.64.4,16.06,16.06,0,0,0,2.4.09H9.93q1.2,0,2.4-.09a1.84,1.84,0,0,0,.83-.43,2.24,2.24,0,0,0,.34-.77,20.23,20.23,0,0,0,.4-2.12l.12-.89c.12-1,.18-1.6.18-1.91v-.15a1.54,1.54,0,0,0-.24-1,1.63,1.63,0,0,0-1.05-.4c-.64-.06-1.26-.06-1.9-.06H5.63a2.75,2.75,0,0,0,.06-.52c0-.09.06-.15.09-.22A.37.37,0,0,1,6,10.51a5,5,0,0,1,.67,0h4.8a14.89,14.89,0,0,0,1.63-.06,3.32,3.32,0,0,0,.77-.18,1.63,1.63,0,0,0,.73-1A13.17,13.17,0,0,0,15,7.07H6a12.17,12.17,0,0,0-1.82.06,1.89,1.89,0,0,0-1,.31,1.79,1.79,0,0,0-.55,1,14.75,14.75,0,0,0-.34,2.06l-.13.86c-.15,1-.24,1.6-.27,1.94v.28a1.19,1.19,0,0,0,.24.83,1.64,1.64,0,0,0,1,.33c.31,0,.77.06,1.44.06h6a1.91,1.91,0,0,1-.07.47,1.15,1.15,0,0,1-.15.33"/><path class="cls-1" d="M24.26,14.88a1.9,1.9,0,0,1-.07.46.64.64,0,0,1-.15.31.66.66,0,0,0-.15.09.56.56,0,0,0-.22,0H18.78l.62-4.31a3.17,3.17,0,0,1,.12-.49,1.07,1.07,0,0,1,.12-.27.46.46,0,0,1,.34-.13,3.32,3.32,0,0,1,.53,0h4.36ZM19.92,7.1c-.64,0-1.29,0-1.94.06a1.67,1.67,0,0,0-1.22.52,3,3,0,0,0-.44,1.11c-.06.28-.12.86-.24,1.72L16,11.4l-1.08,7.75-.43,3.44a1.76,1.76,0,0,1-.06.4.76.76,0,0,1-.16.31,1.63,1.63,0,0,1-.3.34l-.59.49h1.14a7.74,7.74,0,0,0,.86-.06,4.72,4.72,0,0,0,1-.19,2.68,2.68,0,0,0,.68-.33,2.37,2.37,0,0,0,.62-.77,3.24,3.24,0,0,0,.21-.77l.49-2.89H24c.61,0,1.23,0,1.84-.06a1.94,1.94,0,0,0,1-.4,2.12,2.12,0,0,0,.52-1.11c.06-.34.18-.95.28-1.87.4-2.89.64-4.61.73-5.2a9.45,9.45,0,0,0,.22-1.66,2.37,2.37,0,0,0,0-.46,1.42,1.42,0,0,0-.12-.71c-.16-.34-.62-.52-1.36-.55A15.54,15.54,0,0,0,25.39,7H19.92Z"/><path class="cls-1" d="M30.8,19.12a2,2,0,0,0,1.17-.4,2,2,0,0,0,.49-1.11,11.89,11.89,0,0,0,.34-1.84L34,7.1H30.56L29.11,17.4a1.41,1.41,0,0,1-.09.49,1.92,1.92,0,0,1-.15.37,3,3,0,0,1-.4.4l-.56.52H29c.86,0,1.48,0,1.78-.06"/><path class="cls-1" d="M31.45,2.67a2.49,2.49,0,0,0-.4,1.05c-.06.27-.18.89-.31,1.81l-.06.65h3.44l.56-4.09c-.74,0-1.48,0-2.22.06a1.83,1.83,0,0,0-1,.52"/><path class="cls-1" d="M38.64,7.1a13,13,0,0,0-1.53.06,1.43,1.43,0,0,0-1,.49,2.64,2.64,0,0,0-.4,1c-.06.31-.15.89-.27,1.84l-.13.86-.46,3.48-.12.89-.25,1.72a1.58,1.58,0,0,1-.09.52,1.13,1.13,0,0,1-.12.28,3,3,0,0,1-.4.4,7.76,7.76,0,0,1-.62.52h1.11c1,0,1.57,0,1.91-.06a1.81,1.81,0,0,0,1.1-.46,2.46,2.46,0,0,0,.46-1.11,14.51,14.51,0,0,0,.28-1.78l.12-.89.5-3.45a2.66,2.66,0,0,0,.06-.52.44.44,0,0,1,.18-.27.23.23,0,0,1,.25-.07,1.51,1.51,0,0,1,.52,0h4.46l-.13.86-.49,3.45-.12.89L43,19.21c.77,0,1.57,0,2.33-.09a1.73,1.73,0,0,0,.9-.46,2.25,2.25,0,0,0,.36-.86,13.26,13.26,0,0,0,.34-2l.13-.89.49-3.45.12-.86a19.56,19.56,0,0,0,.22-2.09,1.22,1.22,0,0,0-.37-1,2.2,2.2,0,0,0-1.08-.28,9.08,9.08,0,0,0-1,0H38.64Z"/><path class="cls-1" d="M53.4,7.1c-.37,0-.62,0-.77,0a11.32,11.32,0,0,0-1.44.06,1.63,1.63,0,0,0-.93.37,2.14,2.14,0,0,0-.52,1.08c-.06.3-.15.95-.31,1.93l-.12.89-.49,3.45-.12.86-.25,1.72a3.55,3.55,0,0,0-.06.43,2.68,2.68,0,0,1-.16.34,1.25,1.25,0,0,1-.36.4,6.42,6.42,0,0,1-.62.52h1.11c.92,0,1.53,0,1.84-.06a2.07,2.07,0,0,0,1-.34,1.37,1.37,0,0,0,.52-.89,17.32,17.32,0,0,0,.4-2.15l.12-.86.49-3.45a2.32,2.32,0,0,0,.06-.46,1.44,1.44,0,0,1,.13-.31.48.48,0,0,1,.27-.09,3.51,3.51,0,0,1,.56,0l-.13.89-.49,3.45-.12.86-.49,3.44a16.08,16.08,0,0,0,2.4-.12,1.81,1.81,0,0,0,.73-.37,1.75,1.75,0,0,0,.46-.92,14.58,14.58,0,0,0,.34-2l.13-.86.49-3.45a2,2,0,0,0,.06-.43,1.05,1.05,0,0,1,.12-.31.41.41,0,0,1,.28-.12,4.57,4.57,0,0,1,.64,0l-.12.89-.49,3.45-.12.86L57,19.12c.77,0,1.57,0,2.34-.09a1.66,1.66,0,0,0,.89-.46,2.49,2.49,0,0,0,.4-1.05,17.49,17.49,0,0,0,.28-1.84l.12-.86.49-3.45.13-.89a16,16,0,0,0,.21-2.06,1.51,1.51,0,0,0-.24-1,1,1,0,0,0-.74-.34,7.93,7.93,0,0,0-1.45-.06c-.15,0-.4,0-.73,0Z"/><path class="cls-1" d="M66,15.34a.84.84,0,0,1,.09-.37.2.2,0,0,1,.19-.09.86.86,0,0,1,.4,0h4.79a2.75,2.75,0,0,1-.06.52.57.57,0,0,1-.09.24.16.16,0,0,1-.15.1c-.07,0-.22,0-.4,0H65.91a1.94,1.94,0,0,0,.06-.4m7.1-8.24h-9.4v.4c0,.64,0,1.14,0,1.41A3,3,0,0,0,64,10.05a1.44,1.44,0,0,0,.9.43c.27,0,.89.06,1.78.06H72a2.86,2.86,0,0,1-.06.53.44.44,0,0,1-.07.21.48.48,0,0,1-.21.12c-.06,0-.22,0-.4,0H66.19a16.88,16.88,0,0,0-1.88.07,1.61,1.61,0,0,0-1,.4,2.23,2.23,0,0,0-.49,1.16c-.06.31-.16.89-.28,1.76l-.15.89c-.13,1-.19,1.63-.22,2v.16a1.38,1.38,0,0,0,.19.86,1.15,1.15,0,0,0,.73.37,19.06,19.06,0,0,0,2.28.09h5.29c.76,0,1.56,0,2.33-.09a2.51,2.51,0,0,0,.8-.31,1.59,1.59,0,0,0,.49-.8,13,13,0,0,0,.4-2.24l.34-2.49.4-2.74c.09-.58.15-1.17.19-1.75a1.31,1.31,0,0,0,0-.34,1.15,1.15,0,0,0-.37-1,1.45,1.45,0,0,0-.74-.25c-.49,0-1,0-1.51,0"/><path class="cls-1" d="M80.64,7.07h-.53a13,13,0,0,0-1.53.06,2.67,2.67,0,0,0-1,.28A1.91,1.91,0,0,0,77,8.61c-.06.27-.16.92-.28,1.87h3.44l-.12.89-.49,3.45-.12.86c-.16.89-.25,1.5-.28,1.84v.4a1.44,1.44,0,0,0,.15.71,1.23,1.23,0,0,0,.89.43,16.27,16.27,0,0,0,2.09.06h2.19c.67,0,1.35,0,2-.06a2,2,0,0,0,1-.4,1.75,1.75,0,0,0,.46-.92c.09-.34.18-1,.34-2.06H82.88l.12-.86.49-3.45.13-.89h1.9c1.08,0,1.76,0,2.09-.06a2,2,0,0,0,.86-.28,1.59,1.59,0,0,0,.65-1c.15-.68.28-1.38.37-2.09H84.14l.21-1.6a14.34,14.34,0,0,0,.19-2.06,1.52,1.52,0,0,0-.22-.92,1.29,1.29,0,0,0-.83-.34,2.75,2.75,0,0,0-.86-.06H81.5l-1.14,0a2.68,2.68,0,0,1,.49.4.83.83,0,0,1,.28.31.88.88,0,0,1,.06.27,2.32,2.32,0,0,1,0,.46Z"/><path class="cls-1" d="M92,2.67a2.49,2.49,0,0,0-.4,1.05c-.06.27-.18.89-.31,1.81l-.06.65h3.44l.56-4.09c-.74,0-1.51,0-2.25.06a2,2,0,0,0-1,.52"/><path class="cls-1" d="M89.55,19.15c.89,0,1.48,0,1.81-.06a2,2,0,0,0,1.17-.4A2,2,0,0,0,93,17.58a11.79,11.79,0,0,0,.31-1.84l1.23-8.67H91.12l-1.45,10.3a1.41,1.41,0,0,1-.09.49.85.85,0,0,1-.18.37,3.78,3.78,0,0,1-.4.4l-.56.52Z"/><path class="cls-1" d="M99.39,7.1a18.14,18.14,0,0,0-1.82.06,1.78,1.78,0,0,0-1,.37,2.06,2.06,0,0,0-.52,1.08c-.06.33-.16,1-.28,1.93-.06.59-.21,1.45-.37,2.62s-.27,2-.37,2.61c-.15.95-.21,1.6-.24,1.94v.18a1.84,1.84,0,0,0,.18.8,1.21,1.21,0,0,0,.74.4,14.28,14.28,0,0,0,2.27.09h5.41c1,0,1.66,0,2-.06a2.28,2.28,0,0,0,1.08-.34,1.71,1.71,0,0,0,.52-1,15.8,15.8,0,0,0,.34-2.06H98.5l.61-4.34a2.63,2.63,0,0,0,.06-.49.78.78,0,0,1,.16-.28.19.19,0,0,1,.21-.06,1.73,1.73,0,0,1,.68,0h4.36c.92,0,1.54-.06,1.85-.06a2.24,2.24,0,0,0,1.26-.4,1.8,1.8,0,0,0,.49-1c.09-.34.18-1,.34-2h-3.45v0Z"/><polygon class="cls-1" points="22.14 21.27 21.61 24.32 23.43 24.32 23.49 23.91 22.14 23.91 22.32 22.93 23.27 22.93 23.36 22.56 22.38 22.56 22.54 21.61 23.73 21.61 23.8 21.27 22.14 21.27"/><path class="cls-1" d="M28.56,24.31l.28-1.53c0-.22.09-.49.12-.77.15.24.37.55.55.8l1.17,1.6h.15l.56-3.11h-.46l-.28,1.48c0,.21-.09.49-.12.74-.16-.22-.37-.56-.53-.74l-1.07-1.45h-.31l-.55,3.05h.49Z"/><polygon class="cls-1" points="35.94 21.27 35.88 21.61 36.83 21.61 36.37 24.32 36.83 24.32 37.32 21.61 38.27 21.61 38.34 21.27 35.94 21.27"/><polygon class="cls-1" points="42.92 21.27 42.36 24.32 44.18 24.32 44.27 23.91 42.92 23.91 43.07 22.93 44.05 22.93 44.15 22.56 43.13 22.56 43.32 21.61 44.51 21.61 44.58 21.27 42.92 21.27"/><path class="cls-1" d="M50,22.59h-.43l.18-1h.43a.54.54,0,0,1,.31.09.51.51,0,0,1,.15.31.63.63,0,0,1-.64.58M51.15,22a.76.76,0,0,0-.24-.55.78.78,0,0,0-.55-.22h-1l-.52,3h.46L49.59,23h.46l.7,1.35.53,0-.8-1.42a.94.94,0,0,0,.67-.89"/><polygon class="cls-1" points="55.73 21.24 55.67 21.61 56.66 21.61 56.16 24.32 56.63 24.32 57.12 21.61 58.1 21.61 58.16 21.24 55.73 21.24"/><path class="cls-1" d="M63.51,22.41l.19.74h-.86l.43-.74a2.1,2.1,0,0,0,.18-.37,1.59,1.59,0,0,0,.06.37m.13-1.2h-.16l-1.84,3.1h.46l.49-.79h1.17l.18.79h.46Z"/><polygon class="cls-1" points="69.66 21.27 69.14 24.32 69.57 24.32 70.12 21.27 69.66 21.27"/><path class="cls-1" d="M75.93,22.78l1.17,1.6h.12l.53-3.11h-.47L77,22.75a5.39,5.39,0,0,0-.09.73c-.16-.21-.37-.55-.53-.73l-1-1.45H75l-.52,3.05H75l.28-1.54c0-.22.09-.49.12-.77a6.78,6.78,0,0,1,.55.74"/><path class="cls-1" d="M85.25,22.93l-.13,1.38h.43l.25-3h-.31l-1.07,1.57-.53.8a7.36,7.36,0,0,0-.24-.8l-.56-1.57h-.27l-.8,3h.43l.37-1.38c0-.18.12-.46.15-.68.06.22.16.5.22.71l.46,1.39h.18l1-1.39c.12-.18.33-.49.46-.71a5.08,5.08,0,0,1,0,.68"/><polygon class="cls-1" points="90.87 21.27 90.32 24.32 92.13 24.32 92.19 23.91 90.84 23.91 91.03 22.93 92.01 22.93 92.07 22.56 91.09 22.56 91.24 21.61 92.44 21.61 92.5 21.27 90.87 21.27"/><path class="cls-1" d="M98.22,22.78l1.17,1.6h.12l.55-3.11H99.6l-.24,1.48c0,.21-.1.49-.13.73-.15-.21-.37-.55-.52-.73L97.64,21.3h-.31l-.52,3.05h.46l.27-1.54c0-.22.1-.49.13-.77.15.18.36.49.55.74"/><polygon class="cls-1" points="104.64 21.24 104.58 21.61 105.57 21.61 105.11 24.32 105.57 24.32 106.03 21.61 107.01 21.61 107.07 21.24 104.64 21.24"/></svg>