<svg id="Layer_1" data-name="Layer 1" xmlns="http://www.w3.org/2000/svg" viewBox="0 0 126.19 30.12"><defs><style>.cls-1{fill:#00d45c;}.cls-2{fill:#fff;}</style></defs><g id="Layer_2" data-name="Layer 2"><g id="Layer_1-2" data-name="Layer 1-2"><path class="cls-1" d="M7,7.51l3.24,2.26c2,1.4,2.27,2.54,2.27,4.67,0,2.5-1.91,3.64-5.48,3.64s-5.48-1.14-5.48-3.64V12.81a.91.91,0,0,1,.93-.93.74.74,0,0,1,.21,0H4.51a1,1,0,0,1,1.14.76v1.8a1.12,1.12,0,0,0,1.18,1.08H7a1.23,1.23,0,0,0,1.38-.91.49.49,0,0,0,0-.17,2.56,2.56,0,0,0-1.33-2.57L3.82,9.59c-2-1.4-2.27-2.54-2.27-4.67C1.55,2.43,3.46,1.28,7,1.28s5.48,1.15,5.48,3.64V6.55a.91.91,0,0,1-.92.93h-2a1,1,0,0,1-1.14-.76.48.48,0,0,1,0-.17V4.92A1.13,1.13,0,0,0,7.24,3.84H7a1.21,1.21,0,0,0-1.38.9,1,1,0,0,0,0,.17A2.61,2.61,0,0,0,7,7.51Z"/><path class="cls-1" d="M21.76,4V17a.91.91,0,0,1-.93.93h-2a1,1,0,0,1-1.14-.76V4H15a1,1,0,0,1-1.13-.76.48.48,0,0,1,0-.17V2.34a.91.91,0,0,1,.92-.94.74.74,0,0,1,.21,0h9.34a1,1,0,0,1,1.15.75.6.6,0,0,1,0,.19V3a.91.91,0,0,1-.93.93H21.76Z"/><path class="cls-1" d="M33.19,17.14l-.34-2.29H29.53l-.33,2.29a1,1,0,0,1-1.06.83H26.4c-.83,0-1.24-.48-1.1-1.16L28,2.29c.1-.66.52-.89,1.17-.89h4.14a1,1,0,0,1,1.16.89L37.1,16.8c.14.68-.28,1.16-1.11,1.16H34.32a1,1,0,0,1-1.13-.75Zm-3.3-4.85h2.58l-.36-2.61-.76-6.09h-.28l-.79,6.09Z"/><path class="cls-1" d="M43.15,8.37h.28l3.18-6.45a1.1,1.1,0,0,1,1-.52h1.89c1.18,0,1.24.94,1.05,1.33L47,9.68l3.56,7c.19.39.13,1.32-1.05,1.32H47.66a1.1,1.1,0,0,1-1-.52L43.43,11h-.28v6a.91.91,0,0,1-.93.93h-2a1,1,0,0,1-1.14-.76V2.34A.91.91,0,0,1,40,1.4a.81.81,0,0,1,.22,0H42a1,1,0,0,1,1.12.77.48.48,0,0,1,0,.17Z"/><path class="cls-1" d="M60.92,1.4a1,1,0,0,1,1.13.77V3a.92.92,0,0,1-.94.93h-4.2V8.4h3A1,1,0,0,1,61,9.17a.48.48,0,0,1,0,.17V10a.91.91,0,0,1-.92.94H56.91V15.4h4a1,1,0,0,1,1.13.77V17a.91.91,0,0,1-.93.93H53.94a1,1,0,0,1-1.14-.76V2.34a.93.93,0,0,1,.93-.94.74.74,0,0,1,.21,0Z"/><path class="cls-2" d="M68.38,15.4h4a1,1,0,0,1,1.14.77V17a.91.91,0,0,1-.93.93H65.42a1,1,0,0,1-1.15-.75.54.54,0,0,1,0-.18V2.34a.92.92,0,0,1,.93-.94.67.67,0,0,1,.2,0h1.83a1,1,0,0,1,1.14.76V15.4Z"/><path class="cls-2" d="M86,4.92v9.52c0,2.5-1.9,3.64-5.48,3.64S75,16.94,75,14.44V4.92c0-2.49,1.91-3.64,5.48-3.64S86,2.43,86,4.92Zm-6.86,0v9.52a1.33,1.33,0,0,0,1.49,1.05,1.29,1.29,0,0,0,1.28-1.05V4.92a1.33,1.33,0,0,0-1.5-1A1.27,1.27,0,0,0,79.13,4.92Z"/><path class="cls-2" d="M98.29,9.16a1,1,0,0,1,1.12.77.43.43,0,0,1,0,.16v4.35c0,2.5-1.91,3.64-5.48,3.64s-5.48-1.14-5.48-3.64V4.92c0-2.49,1.91-3.64,5.48-3.64s5.48,1.15,5.48,3.64v1.4a.91.91,0,0,1-.91.94h-2a1,1,0,0,1-1.13-.76.54.54,0,0,1,0-.18V4.93a1.33,1.33,0,0,0-1.49-1,1.29,1.29,0,0,0-1.28,1v9.51a1.33,1.33,0,0,0,1.5,1.05,1.27,1.27,0,0,0,1.27-1.05V11.72h-.25A1,1,0,0,1,94,11a.49.49,0,0,1,0-.17v-.69a.9.9,0,0,1,.91-.93h3.43Z"/><path class="cls-2" d="M106,17a.91.91,0,0,1-.93.93h-2a1,1,0,0,1-1.13-.76.48.48,0,0,1,0-.17V2.34a.91.91,0,0,1,.92-.94.74.74,0,0,1,.21,0h1.83a1,1,0,0,1,1.14.77V17Z"/><path class="cls-2" d="M119.42,7.23a.91.91,0,0,1-.92.94h-2a1,1,0,0,1-1.13-.76.54.54,0,0,1,0-.18V4.92a1.32,1.32,0,0,0-1.47-1.08,1.28,1.28,0,0,0-1.3,1.08v9.52A1.32,1.32,0,0,0,114,15.52a1.28,1.28,0,0,0,1.31-1.08V12.13a.91.91,0,0,1,.92-.94h2a1,1,0,0,1,1.13.77.49.49,0,0,1,0,.17v2.31c0,2.5-1.91,3.64-5.48,3.64s-5.48-1.14-5.48-3.64V4.92c0-2.49,1.91-3.64,5.48-3.64s5.48,1.15,5.48,3.64Z"/><path class="cls-2" d="M121.91,1.38a1.8,1.8,0,0,1,2.22,0,1.2,1.2,0,0,1,.45.92,1.19,1.19,0,0,1-.45.91,1.77,1.77,0,0,1-2.19,0l0,0a1.13,1.13,0,0,1-.45-.91A1.14,1.14,0,0,1,121.91,1.38Zm.18,1.71a1.47,1.47,0,0,0,1.78,0l0,0a1,1,0,0,0,.36-.78,1,1,0,0,0-.36-.79,1.46,1.46,0,0,0-1.79,0h0a1,1,0,0,0-.36.79A1,1,0,0,0,122.09,3.09Zm.31-1.54h.7q.63,0,.63.42a.36.36,0,0,1-.13.3.47.47,0,0,1-.35.12l.53.67h-.32L123,2.39h-.25v.67h-.31Zm.3.65h.35a.64.64,0,0,0,.28-.05.2.2,0,0,0,.1-.19.19.19,0,0,0-.11-.18.84.84,0,0,0-.27,0h-.35Z"/><path class="cls-2" d="M42,22l-.14.56a.5.5,0,0,1-.18.3,1,1,0,0,1-.45.07H39.54L38.2,28.07a.44.44,0,0,1-.17.31,1,1,0,0,1-.44.07h-1c-.25,0-.37-.09-.37-.26a.17.17,0,0,1,0-.1l0-.14,1.3-5.05H35.8c-.25,0-.38-.08-.38-.25v-.11l0-.14.15-.56a.44.44,0,0,1,.17-.29.88.88,0,0,1,.45-.08h5.45c.26,0,.38.09.38.26v.11S42,21.93,42,22Z"/><path class="cls-2" d="M50.13,22l-1.57,6.1a.46.46,0,0,1-.17.3.88.88,0,0,1-.45.08H47c-.26,0-.38-.09-.38-.26a.17.17,0,0,1,0-.1.22.22,0,0,1,0-.14l.61-2.42H44.74l-.65,2.54a.42.42,0,0,1-.18.31.93.93,0,0,1-.44.07h-.92c-.25,0-.38-.09-.38-.26v-.1a.22.22,0,0,1,0-.14l1.61-6.11a.39.39,0,0,1,.18-.29.83.83,0,0,1,.44-.08h1c.25,0,.38.09.38.26v.11a.17.17,0,0,1,0,.13l-.6,2.17h2.49l.6-2.3a.42.42,0,0,1,.18-.29.83.83,0,0,1,.44-.08h1c.26,0,.38.09.38.26a.2.2,0,0,1,0,.11A.83.83,0,0,1,50.13,22Z"/><path class="cls-2" d="M50.9,28l1.56-6.11a.45.45,0,0,1,.18-.29.86.86,0,0,1,.45-.08H54c.25,0,.38.09.38.26v.11a.65.65,0,0,1,0,.13l-1.56,6.11a.5.5,0,0,1-.18.3,1,1,0,0,1-.45.07h-1c-.25,0-.38-.08-.38-.25v-.11Z"/><path class="cls-2" d="M62.73,22l-1.57,6.11a.5.5,0,0,1-.18.3,1,1,0,0,1-.45.07h-.77a.94.94,0,0,1-.44-.06.52.52,0,0,1-.19-.3l-1.3-3.68-.93,3.68a.51.51,0,0,1-.17.29.74.74,0,0,1-.41.08h-.89c-.26,0-.38-.08-.38-.25a.21.21,0,0,1,0-.11.24.24,0,0,1,0-.14l1.63-6.12a.39.39,0,0,1,.18-.29.83.83,0,0,1,.44-.08h.77a1.12,1.12,0,0,1,.45.06.6.6,0,0,1,.19.31L60,25.51,61,21.84a.44.44,0,0,1,.18-.3.93.93,0,0,1,.44-.08h.86c.26,0,.39.09.39.26v.11Z"/><path class="cls-2" d="M63.5,28l1.57-6.11a.45.45,0,0,1,.18-.29.83.83,0,0,1,.44-.08h.94c.25,0,.38.09.38.26v.15l-.57,2.21L69,21.84l.3-.25a.51.51,0,0,1,.21-.1l.25,0h1.48c.14,0,.21.05.21.14a.3.3,0,0,1-.12.2l-3,2.5,1.43,3.54c0,.1.08.18.09.22a.29.29,0,0,1,0,.09.25.25,0,0,1-.12.21.65.65,0,0,1-.31.08H68.27a.77.77,0,0,1-.37-.07.65.65,0,0,1-.18-.31l-1-2.61-.85.66-.49,1.95a.47.47,0,0,1-.18.3.86.86,0,0,1-.45.08h-.93c-.25,0-.38-.09-.38-.26v-.1A.18.18,0,0,0,63.5,28Z"/><path class="cls-2" d="M76.28,28l1.56-6.11a.45.45,0,0,1,.18-.29.86.86,0,0,1,.45-.08h2.15a3.58,3.58,0,0,1,1.87.42,1.33,1.33,0,0,1,.7,1.15v.19a1.91,1.91,0,0,1,0,.21l0,.14a1.63,1.63,0,0,1-.44.73,1.93,1.93,0,0,1-.8.49,1.47,1.47,0,0,1,.64.51,1.27,1.27,0,0,1,.25.74,2,2,0,0,1-.05.34l0,.18a2.23,2.23,0,0,1-1,1.4,4,4,0,0,1-2,.49h-3c-.25,0-.38-.09-.38-.26v-.1A.17.17,0,0,0,76.28,28Zm2.5-2.44-.4,1.6h1.05c.78,0,1.22-.24,1.34-.74l0-.12v-.14c0-.41-.34-.61-1-.61Zm.7-2.7-.38,1.47H80c.7,0,1.1-.22,1.19-.65l0-.11v-.15c0-.37-.31-.54-.92-.54Z"/><path class="cls-2" d="M84.25,28l1.56-6.11a.42.42,0,0,1,.18-.29.85.85,0,0,1,.42-.08h1c.25,0,.38.09.38.26v.11a.65.65,0,0,1,0,.13l-1.59,6.11a.44.44,0,0,1-.17.3,1,1,0,0,1-.45.07h-1c-.26,0-.38-.08-.38-.25a.2.2,0,0,1,0-.11A.23.23,0,0,0,84.25,28Z"/><path class="cls-2" d="M95.34,25.16l-.25,1A3.09,3.09,0,0,1,93.92,28a4.22,4.22,0,0,1-4.4.06,1.93,1.93,0,0,1-.79-1.64,2.31,2.31,0,0,1,0-.37,1.72,1.72,0,0,1,.07-.37l.37-1.47A3.49,3.49,0,0,1,93,21.31a3.31,3.31,0,0,1,1.94.51,1.55,1.55,0,0,1,.72,1.36v.13a.59.59,0,0,1,0,.13c0,.19-.2.29-.51.29h-.94c-.29,0-.44-.1-.44-.3a.76.76,0,0,0-.79-.74,1,1,0,0,0-.17,0c-.81,0-1.33.49-1.57,1.47l-.39,1.53c0,.1-.05.2-.06.29a1.22,1.22,0,0,0,0,.27c0,.65.36,1,1.09,1a1.49,1.49,0,0,0,.93-.29,1.45,1.45,0,0,0,.5-.84h-.83c-.23,0-.34-.09-.34-.26v-.16l.15-.61a.48.48,0,0,1,.18-.29.83.83,0,0,1,.42-.08H95c.27,0,.4.08.4.24A.91.91,0,0,1,95.34,25.16Z"/><path class="cls-2" d="M103.56,25.16l-.25,1A3.13,3.13,0,0,1,102.14,28a4.22,4.22,0,0,1-4.4.06A1.88,1.88,0,0,1,97,26.38c0-.12,0-.25,0-.37s0-.24.07-.37l.37-1.47a3.51,3.51,0,0,1,3.77-2.86,3.31,3.31,0,0,1,1.94.51,1.58,1.58,0,0,1,.72,1.37v.25c0,.19-.2.29-.51.29h-.94c-.29,0-.44-.1-.44-.3a.75.75,0,0,0-.78-.74,1.08,1.08,0,0,0-.18,0c-.8,0-1.32.49-1.57,1.47l-.39,1.53L99,26a2.45,2.45,0,0,0,0,.27c0,.65.36,1,1.09,1a1.49,1.49,0,0,0,.93-.29,1.45,1.45,0,0,0,.5-.84h-.83c-.22,0-.34-.09-.34-.26v-.16l.16-.61a.42.42,0,0,1,.17-.29.93.93,0,0,1,.44-.08h2.15q.39,0,.39.24A1,1,0,0,1,103.56,25.16Z"/><path class="cls-2" d="M107.09,21.47h4.28c.25,0,.39.09.39.26v.16l-.15.56a.54.54,0,0,1-.16.35.69.69,0,0,1-.38.08h-2.9l-.36,1.29h2.57c.26,0,.39.09.39.26v.17l-.13.52a.6.6,0,0,1-.16.34.65.65,0,0,1-.39.09h-2.6l-.4,1.48h3c.27,0,.4.09.4.26v.17l-.15.56a.58.58,0,0,1-.17.36.59.59,0,0,1-.37.08h-4.5c-.25,0-.38-.08-.38-.25v-.1a.8.8,0,0,0,0-.15l1.57-6.1a.44.44,0,0,1,.18-.3A.9.9,0,0,1,107.09,21.47Z"/><path class="cls-2" d="M113.68,28.45h-1c-.25,0-.38-.08-.38-.25a.2.2,0,0,1,0-.11.7.7,0,0,1,0-.14l1.56-6.11a.45.45,0,0,1,.18-.29.86.86,0,0,1,.45-.08h2.22a3.43,3.43,0,0,1,1.95.5,1.52,1.52,0,0,1,.68,1.34v.22a1.45,1.45,0,0,1,0,.28l0,.15a2.37,2.37,0,0,1-1.69,1.84l.95,2.27a.22.22,0,0,1,0,.11c0,.18-.14.27-.44.27h-1.1a.77.77,0,0,1-.37-.07.67.67,0,0,1-.19-.31l-.77-2h-.92l-.52,2a.47.47,0,0,1-.18.3A.86.86,0,0,1,113.68,28.45Zm1.94-5.61-.47,1.83h1a1.14,1.14,0,0,0,1.3-.84h0l0-.11a.25.25,0,0,1,0-.12s0-.07,0-.12c0-.44-.32-.66-1-.66Z"/></g></g></svg>