<?xml version="1.0" encoding="utf-8"?>
<!-- Generator: Adobe Illustrator 24.1.3, SVG Export Plug-In . SVG Version: 6.00 Build 0)  -->
<svg version="1.1" id="Layer_1" xmlns="http://www.w3.org/2000/svg" xmlns:xlink="http://www.w3.org/1999/xlink" x="0px" y="0px"
	 viewBox="0 0 58.9 41.3" style="enable-background:new 0 0 58.9 41.3;" xml:space="preserve">
<style type="text/css">
	.st0{fill:#DC4F23;}
	.st1{fill:#FFFFFF;}
</style>
<g>
	<polygon class="st0" points="18.8,10.2 10.1,10.2 5.8,17.7 5.9,17.7 8,21.4 8,21.4 8,21.4 8,21.4 10.1,25.1 10.1,25.1 9.8,24.7 
		9.8,24.7 7.8,21.7 7.6,21.4 7.6,21.4 3.7,21.4 1.5,25.2 5.8,32.7 5.8,32.7 14.5,32.7 18.8,25.2 18.8,25.2 18.8,25.1 18.8,25.1 
		16.7,21.4 16.7,21.4 16.7,21.4 14.5,17.6 14.5,17.6 17.1,21.4 17.1,21.4 21,21.4 21,21.4 21,21.4 21,21.4 23.1,17.7 	"/>
</g>
<g>
	<path class="st1" d="M30.1,21c-0.7-0.2-1.4-0.4-1.4-1.1c0-0.6,0.5-0.8,1.1-0.8c0.5,0,1.1,0.2,1.4,0.7L32,19c-0.5-0.7-1.4-1-2.2-1
		c-1.2,0-2.3,0.7-2.3,2.1c0,1.3,1.1,1.7,2,2c0.8,0.2,1.5,0.4,1.5,1c0,0.5-0.4,0.8-1.1,0.8c-0.6,0-1.3-0.3-1.7-0.9L27.3,24
		c0.7,0.8,1.6,1.2,2.5,1.2c1.3,0,2.4-0.7,2.4-2.1C32.2,21.6,31,21.3,30.1,21z"/>
	<polygon class="st1" points="37.9,23.4 36.8,20 35.6,20 34.5,23.4 33.4,20 32.1,20 34,25 35.1,25 36.2,21.7 37.4,25 38.5,25 
		40.3,20 39,20 	"/>
	<rect x="40.9" y="20" class="st1" width="1.2" height="4.9"/>
	<path class="st1" d="M41.5,17.7c-0.4,0-0.8,0.3-0.8,0.8c0,0.4,0.4,0.8,0.8,0.8c0.4,0,0.8-0.3,0.8-0.8C42.3,18.1,42,17.7,41.5,17.7z
		"/>
	<path class="st1" d="M45.8,19.9c-0.7,0-1.3,0.3-1.6,0.8V20h-1.1V25h1.2v-2.7c0-0.9,0.6-1.4,1.2-1.4c0.5,0,1,0.4,1,1v3h1.2v-3.2
		C47.6,20.5,46.8,19.9,45.8,19.9z"/>
	<path class="st1" d="M50.9,24c-0.4,0-0.8-0.3-0.8-0.8v-2.1h1.7L51.2,20h-1.1v-2h-1.2v2h-1.4l0.6,1.1h0.8v2.3c0,1.1,0.8,1.7,1.7,1.7
		c0.4,0,0.9-0.1,1.4-0.4l-0.3-0.9C51.4,23.9,51.1,24,50.9,24z"/>
	<path class="st1" d="M55.2,24c-0.4,0-0.8-0.3-0.8-0.8v-2.1h1.7L55.4,20h-1.1v-2h-1.2v2h-1.4l0.6,1.1h0.8v2.3c0,1.1,0.8,1.7,1.7,1.7
		c0.4,0,0.9-0.1,1.4-0.4l-0.3-0.9C55.7,23.9,55.4,24,55.2,24z"/>
	<path class="st1" d="M57,20c-0.3,0-0.5,0.2-0.5,0.5c0,0.3,0.2,0.5,0.5,0.5s0.5-0.2,0.5-0.5C57.5,20.2,57.3,20,57,20z M57,21
		c-0.2,0-0.4-0.2-0.4-0.4c0-0.3,0.2-0.4,0.4-0.4c0.2,0,0.4,0.2,0.4,0.4C57.4,20.8,57.2,21,57,21z"/>
	<path class="st1" d="M57.2,20.4c0-0.1-0.1-0.2-0.2-0.2h-0.2v0.6h0.1v-0.2H57l0.1,0.2h0.1l-0.1-0.2C57.2,20.6,57.2,20.5,57.2,20.4z
		 M57,20.5h-0.1v-0.2H57C57.1,20.4,57.1,20.4,57,20.5C57.1,20.5,57.1,20.5,57,20.5z"/>
</g>
</svg>
