<?xml version="1.0" encoding="utf-8"?>
<!-- Generator: Adobe Illustrator 22.1.0, SVG Export Plug-In . SVG Version: 6.00 Build 0)  -->
<svg version="1.1" id="Layer_1" xmlns="http://www.w3.org/2000/svg" xmlns:xlink="http://www.w3.org/1999/xlink" x="0px" y="0px"
	 viewBox="0 0 155 110" style="enable-background:new 0 0 155 110;" xml:space="preserve">
<style type="text/css">
	.st0{fill:#FFFFFF;}
</style>
<g transform="translate(27.000000, 29.000000)">
	<path class="st0" d="M81,33.2l-20,0.5l-0.7,21.7l-1.1,12.9l-17.4-0.1V55.9l-1.5-21.5l-20.8,0.8l-0.7-20.8l30.7-0.1l31.8-0.8
		l0.5,2.8L81,33.2z M96.3,46.1l3.5-23.2L85.3-6.3L75.5-3L62.7-16.3L40.2-28.1l-5,17.6l-3.5-9.3L14.4-3.5L4.7,12.9L4.3,29.8l-6.8-3.1
		l4.7,27.1l10.6,17.4l25,8.2l20.4,0.7l35.2-12.5l10.2-24.2L96.3,46.1L96.3,46.1z"/>
</g>
</svg>
