<svg xmlns="http://www.w3.org/2000/svg" viewBox="0 0 493.13557 154.80887"><defs><style>.f912d498-416f-4de7-ac34-88e518195916{fill:#ffa700;}.e9dc796d-fabf-4dc5-a6ea-f8755753eca9{fill:#fff;}</style></defs><g id="b233bf84-456a-453d-b288-943e0f8fbfd1" data-name="Layer 2"><g id="a235c56b-efc5-4e36-8132-c73de0d66557" data-name="Logo"><path class="f912d498-416f-4de7-ac34-88e518195916" d="M70.42556,154.78q-4.95-.27-9.88-.54c-3.87-.2-7.74-.4-11.61-.63a1.51408,1.51408,0,0,1-.75-.39q-12.015-9.975-24.01-19.96-5.16-4.305-10.33-8.62a2.16684,2.16684,0,0,1-.61-.94c-2.39-7.19-4.81-14.37-7.12-21.62-.86-2.7-1.44-5.56-2.12-8.37-1.32-5.46-2.6-10.93-3.92-16.39a2.50735,2.50735,0,0,1,.04-1.36c.87-2.95,1.74-5.9,2.58-8.87q5.1-17.925,10.19-35.84a10.6982,10.6982,0,0,0,.3-1.11,2.419,2.419,0,0,1,1.16-1.7,5.82932,5.82932,0,0,0,.55-.46c5.58-5.02,11.12-10.13,16.75-15.06,2.32-2.04,4.8-3.71,7.21-5.55q4.68-3.54,9.38-7.03a1.235,1.235,0,0,1,.74-.26q21.315-.06,42.64-.08a.9661.9661,0,0,1,.61.23c5.92,4.43,11.86,8.82,17.74,13.35,1.96,1.51,3.77,3.39,5.63,5.12q5.67,5.25,11.34,10.53a2.19483,2.19483,0,0,1,.55.93q6.42,22.35,12.82,44.73c.02.06.02.12.04.17.68,1.14.37,2.27.07,3.49-1.87,7.53-3.64,15.1-5.56,22.62-.69,2.71-1.67,5.31-2.53,7.94-1.61,4.89-3.24,9.77-4.84,14.66a2.21708,2.21708,0,0,1-.69,1.07q-16.605,13.815-33.21,27.67a4.71037,4.71037,0,0,1-2.98,1.24c-3.24.12-6.47.32-9.71.5-3.13.18-6.26.37-9.4.55-.35.02-.69,0-1.04,0C70.42556,154.8,70.42556,154.79,70.42556,154.78Zm21.23-45.71c4.28,6.75,8.53,13.44,12.79,20.15a1.86051,1.86051,0,0,0,.14-.2q2.01-3.885,4-7.77a1.401,1.401,0,0,0,.15-.54c.07-1.17.12-2.33.18-3.5.19-3.59.38-7.2.57-10.8.1-1.75.18-3.51.27-5.32-.18.05-.32.07-.46.11q-6.48,2.055-12.95,4.11a.85284.85284,0,0,0-.36.17C94.54557,106.66,93.13557,107.85,91.65555,109.07Zm-60.63-8c.1,1.83.17,3.55.27,5.26.25,4.7.49,9.42.75,14.12a2.67436,2.67436,0,0,0,.25.98q1.86,3.66,3.75,7.3c.09.17.18.33.29.52,4.28-6.74,8.53-13.44,12.8-20.16-1.48-1.23-2.91-2.42-4.34-3.61a1.10816,1.10816,0,0,0-.37-.15c-3.2-1.02-6.41-2.05-9.61-3.06C33.55556,101.86,32.31556,101.48,31.02556,101.07Zm-4.89-17.24c.16-.21.27-.37.38-.52,2.53-3.64,5.06-7.3,7.61-10.91a8.32858,8.32858,0,0,0,1.35-2.9c.36-1.42.78-2.8,1.19-4.26-6.93-2.58-13.82-5.14-20.76-7.72.24,2.96.47,5.82.73,8.67a3.57029,3.57029,0,0,0,.4,1.32c2.1,3.81,4.22,7.59,6.33,11.39C24.28556,80.52,25.20557,82.15,26.13557,83.83Zm88.44.04a1.26284,1.26284,0,0,0,.16-.24q4.59-8.25,9.19-16.49a1.62489,1.62489,0,0,0,.17-.58c.11-1.15.21-2.32.3-3.48.16-1.82.3-3.65.46-5.58-6.95,2.58-13.84,5.14-20.76,7.72.56,1.95,1.08,3.84,1.62,5.71a1.60811,1.60811,0,0,0,.29.51q4.14,5.97,8.29,11.93C114.38557,83.52,114.47556,83.68,114.57557,83.87Zm-11.26,46.21c-4.28-6.75-8.5-13.41-12.75-20.1-1.53,1.27-3.04,2.52-4.54,3.79a1.8396,1.8396,0,0,0-.27.38q-3.63,6.285-7.27,12.59a2.95607,2.95607,0,0,0-.16.35,2.28018,2.28018,0,0,0,.33.12q8.145,2.43,16.3,4.83a1.26247,1.26247,0,0,0,.64.01c1.83-.45,3.66-.93,5.49-1.39C101.81556,130.47,102.53556,130.28,103.31556,130.08Zm-40.85-2.99c-.06-.13-.09-.19-.12-.25q-3.69-6.39-7.38-12.77a1.16513,1.16513,0,0,0-.24-.32c-1.49-1.25-2.98-2.49-4.5-3.76-4.24,6.69-8.47,13.36-12.73,20.08.15.06.22.1.29.12,2.23.57,4.46,1.14,6.69,1.69a2.88151,2.88151,0,0,0,1.44.14c4.61-1.32,9.21-2.7,13.81-4.07C60.60557,127.65,61.51557,127.38,62.46557,127.09Zm27.31-96.3c-.13-.19-.22-.33-.3-.45q-5.25-7.305-10.51-14.62a1.47365,1.47365,0,0,0-.5-.44c-2.33-1.17-4.67-2.32-7-3.49a1.78233,1.78233,0,0,0-.37-.14V36.42h.49c1.54,0,3.1.01,4.64-.01a2.10121,2.10121,0,0,0,.81-.17c2.03-.86,4.05-1.73,6.07-2.59C85.30558,32.7,87.50556,31.76,89.77558,30.79Zm-20.09,5.63V11.64c-.17.07-.31.13-.44.19-2.26,1.12-4.5,2.24-6.75,3.38a2.3797,2.3797,0,0,0-.82.71q-5.085,7.035-10.15,14.09a3.64993,3.64993,0,0,1-.61.57,1.32186,1.32186,0,0,0,.5.37c3.87,1.67,7.74,3.32,11.61,4.99a3.40325,3.40325,0,0,0,1.16.45C66.00556,36.44,67.83556,36.42,69.68557,36.42Zm54.72,19.41c-.21-.23-.34-.35-.45-.49-1.54-1.99-3.06-3.99-4.61-5.95a2.34393,2.34393,0,0,0-.83-.69q-6.06-2.745-12.13-5.48c-1.26-.56-2.52-1.13-3.81-1.7-.02.29-.04.52-.05.76q-.27,7.125-.56,14.25a6.29666,6.29666,0,0,0,.26,2.13c.41,1.36.78,2.73,1.17,4.09l.24.81C110.54557,61,117.39558,58.44,124.40555,55.83Zm-87.26,7.74c.56-1.96,1.1-3.86,1.63-5.76a2.3091,2.3091,0,0,0,.03-.7q-.24-6.225-.47-12.47c-.03-1.02-.09-2.05-.13-3.09a2.6264,2.6264,0,0,0-.3.12q-7.935,3.57-15.87,7.15a1.37383,1.37383,0,0,0-.5.44q-2.385,3.075-4.76,6.17c-.1.13-.19.27-.32.46C23.38557,58.45,30.24557,61,37.14556,63.57Zm33.96,15.77v26.39h16.74C82.25556,96.91,76.70557,88.17,71.10557,79.34Zm-18.18,26.4h16.73V79.36C64.05556,88.18,58.51557,96.92,52.92556,105.74Zm18.16-64.1V74.33c4.56-7.18,9.05-14.26,13.57-21.39C80.11556,49.17,75.62557,45.42,71.08556,41.64Zm-1.38,32.71V41.63c-4.55,3.79-9.05,7.52-13.59,11.31C60.63557,60.07,65.13557,67.15,69.70557,74.35Zm19.36,30.6c1.74-6.14,3.45-12.19,5.18-18.26-7.31-2.71-14.56-5.42-21.94-8.17C77.92556,87.4,83.46555,96.12,89.06556,104.95Zm-37.36,0c5.6-8.82,11.13-17.54,16.67-26.28a.41746.41746,0,0,1-.04-.1q-10.875,4.05-21.81,8.12C48.25556,92.78,49.96557,98.81,51.70557,104.95Zm-10.28-39.79c9.02,3.36,17.93,6.67,26.84,9.99.02-.05.04-.08.06-.13q-6.69-10.545-13.39-21.1C50.44556,57.66,45.97556,61.38,41.42556,65.16Zm44.41-11.25q-6.705,10.575-13.38,21.1c.02.05.04.08.06.13,8.91-3.32,17.82-6.63,26.83-9.99C94.79557,61.38,90.33558,57.66,85.83558,53.91Zm-18.13,22.98c0-.04.01-.07.01-.12-8.92-3.32-17.83-6.63-26.84-9.99,1.74,6.14,3.44,12.14,5.15,18.16C53.29557,82.26,60.50556,79.58,67.70557,76.89Zm5.35-.12a.52874.52874,0,0,1-.01.12q10.83,4.035,21.68,8.07c1.72-6.05,3.42-12.05,5.15-18.16C90.86558,70.14,81.96555,73.46,73.05556,76.77Zm55.52-15.05c-1.05,1.89-2.07,3.71-3.08,5.55a1.73525,1.73525,0,0,0-.17.65q-.33,3.81-.63,7.62c-.3,3.64-.61,7.28-.91,10.93-.21,2.51-.42,5.03-.63,7.62.12-.11.21-.17.29-.25q4.62-5.01,9.24-10.05a1.10161,1.10161,0,0,0,.19-.64c-.04-1.4-.12-2.81-.18-4.21q-.285-5.91-.59-11.81a1.29507,1.29507,0,0,0-.14-.6C130.85557,64.94,129.73557,63.37,128.57557,61.72Zm-110.95,32.43c-.1-1.2-.18-2.26-.27-3.32q-.915-10.89-1.8-21.79a6.27148,6.27148,0,0,0-.82-2.79c-.82-1.33-1.55-2.76-2.33-4.14-.07-.12-.14-.23-.23-.36-1.14,1.62-2.26,3.2-3.36,4.8a1.13408,1.13408,0,0,0-.13.54c-.27,5.36-.53,10.71-.77,16.08a1.14029,1.14029,0,0,0,.26.71c2.04,2.24,4.1,4.46,6.14,6.69C15.39556,91.73,16.46557,92.9,17.62557,94.15Zm92.09,34.01c1.79-.56,3.51-1.08,5.24-1.64a1.01641,1.01641,0,0,0,.41-.39c2.92-4.08,5.81-8.18,8.74-12.25a1.37729,1.37729,0,0,0,.23-1.14c-.53-3.14-1.03-6.3-1.54-9.45-.26-1.59-.52-3.19-.8-4.87a2.06226,2.06226,0,0,0-.17.3l-11.61,22.53a1.29724,1.29724,0,0,0-.16.48C109.93555,123.83,109.82557,125.95,109.71555,128.16Zm-90.91-29.73c-.04.17-.07.27-.09.38-.76,4.74-1.54,9.47-2.29,14.21a1.29485,1.29485,0,0,0,.19.75q4.38,6.195,8.78,12.35a1.29811,1.29811,0,0,0,.62.48c.89.31,1.77.56,2.66.83.78.24,1.56.48,2.38.71-.11-2.07-.21-4.05-.33-6.01a2.91171,2.91171,0,0,0-.27-1.08q-5.655-11.04-11.35-22.06C19.02556,98.82,18.92556,98.66,18.80556,98.43Zm85.68-70.96c-.03.07-.07.14-.1.2a.87642.87642,0,0,1,.27.19q7.38,9.555,14.76,19.12a1.53136,1.53136,0,0,0,.59.46c1.6.74,3.2,1.45,4.81,2.18a3.395,3.395,0,0,0,.42.15c.02-.26.04-.45.05-.65.07-1.64.15-3.29.19-4.93a2.11562,2.11562,0,0,0-.23-1.01c-2.39-4.3-4.82-8.56-7.21-12.88a1.71424,1.71424,0,0,0-1.39-1.02c-3.36-.48-6.72-1-10.08-1.5C105.87556,27.66,105.17557,27.57,104.48557,27.47Zm-88.96,22.31c.2-.08.36-.13.49-.2,1.56-.7,3.13-1.39,4.69-2.12a1.9588,1.9588,0,0,0,.73-.6q7.335-9.465,14.63-18.95c.09-.12.16-.25.28-.4-.18,0-.31-.01-.44,0q-6.18.93-12.36,1.88a.7779.7779,0,0,0-.49.38q-3.81,6.75-7.6,13.51a1.43312,1.43312,0,0,0-.16.69c.03,1.11.08,2.21.12,3.32C15.43557,48.12,15.48557,48.92,15.52556,49.78Zm60.44-40.96c-.04.08-.08.18-.12.26q1.695,2.22,3.4,4.42a2.32389,2.32389,0,0,0,.71.63q10.275,5.145,20.58,10.25c.13.06.26.11.45.19-.07-.19-.1-.3-.14-.39q-2.655-6.39-5.33-12.8a.95979.95979,0,0,0-.57-.5q-6.81-2.085-13.61-4.13a.75561.75561,0,0,0-.51-.04C79.19556,7.39,77.58556,8.1,75.96557,8.82Zm-36.2,15.75c.19-.1.28-.12.36-.17q10.41-5.175,20.82-10.37a1.45842,1.45842,0,0,0,.49-.44c1.05-1.44,2.09-2.9,3.14-4.36.09-.12.16-.25.27-.42-1.67-.73-3.29-1.44-4.91-2.14a.7597.7597,0,0,0-.47.02q-6.84,2.07-13.69,4.14a.86974.86974,0,0,0-.58.61q-2.58,6.255-5.19,12.5C39.94556,24.11,39.88557,24.28,39.76557,24.57Zm32.78,115.16c.17.12.23.17.29.21,3.64,2.26,7.28,4.53,10.92,6.78a.74146.74146,0,0,0,.65.04q6.615-2.91,13.22-5.87a1.39229,1.39229,0,0,0,.57-.56c.8-1.36,1.57-2.74,2.35-4.12a6.25025,6.25025,0,0,0,.3-.55c-1.55-.46-3.05-.84-4.51-1.36a4.09309,4.09309,0,0,0-2.52-.02c-5.67,1.48-11.35,2.9-17.03,4.34C75.42556,139,74.03556,139.35,72.54557,139.73Zm-4.31.03c-.23-.07-.34-.12-.45-.14q-10.485-2.655-20.95-5.34a3.90352,3.90352,0,0,0-2.39.06c-1.12.39-2.26.68-3.38,1.01-.37.11-.74.24-1.15.37.91,1.61,1.78,3.14,2.66,4.67a1.38714,1.38714,0,0,0,.58.55c4.37,1.96,8.76,3.89,13.13,5.84a.78368.78368,0,0,0,.82-.06c2.28-1.44,4.57-2.86,6.85-4.27C65.34557,141.55,66.74557,140.69,68.23557,139.76Zm-22.66-100.59c-.08.26-.14.43-.19.61-1.5,5.27-2.97,10.56-4.5,15.81a12.53144,12.53144,0,0,0-.62,5c.1.95.08,1.94.11,2.9,0,.11.02.23.04.43,4.57-3.81,9.09-7.57,13.65-11.37C51.24557,48.09,48.42556,43.65,45.57557,39.17Zm54.8,24.77c.07-2,.15-3.87.21-5.75a1.77468,1.77468,0,0,0-.1-.51q-2.55-9-5.1-17.97c-.04-.15-.1-.31-.18-.52-2.85,4.49-5.66,8.92-8.49,13.38C91.25556,56.34,95.76557,60.1,100.37556,63.94Zm-4.37,21.49c4.59,1.71,9.15,3.4,13.77,5.13-.08-.3-.12-.5-.18-.7-1.37-4.83-2.8-9.63-4.09-14.51a16.28067,16.28067,0,0,0-2.98-6.39c-.46-.55-.85-1.21-1.31-1.87C99.46555,73.24,97.74555,79.3,96.00556,85.43Zm-65.03,5.13c4.64-1.73,9.19-3.43,13.79-5.13-1.74-6.13-3.46-12.2-5.21-18.34-1.09,1.57-2.13,3.07-3.18,4.58a1.795,1.795,0,0,0-.19.52q-1.56,5.505-3.12,11.01C32.37557,85.62,31.69556,88.04,30.97556,90.56Zm78.24,1.69c-4.6-1.71-9.13-3.39-13.69-5.09-1.72,6.07-3.43,12.09-5.16,18.2a2.80914,2.80914,0,0,0,.47-.12c1.08-.33,2.16-.71,3.25-1.01a6.44394,6.44394,0,0,0,2.39-1.32c4.09-3.44,8.19-6.83,12.3-10.25C108.88557,92.56,109.01557,92.43,109.21555,92.25Zm-77.66.02c.22.19.36.31.49.43,4.1,3.42,8.2,6.81,12.29,10.25a5.88832,5.88832,0,0,0,2.39,1.31c.61.15,1.21.38,1.81.57s1.2.37,1.87.57c-.07-.27-.1-.44-.15-.61-1.61-5.7-3.24-11.39-4.84-17.1-.11-.39-.23-.5-.53-.38-2.86,1.08-5.74,2.14-8.61,3.21C34.71557,91.09,33.17556,91.66,31.55556,92.27Zm39.55,15.29v16.41c.17-.13.31-.23.44-.34,3.84-3.19,7.65-6.45,11.52-9.56a13.08757,13.08757,0,0,0,3.8-4.63c.3-.63.69-1.2,1.08-1.88Zm-18.29,0c.87,1.5,1.67,2.9,2.48,4.3a1.96018,1.96018,0,0,0,.48.58q6.765,5.64,13.55,11.28c.1.08.22.15.33.24V107.57C64.05556,107.56,58.48557,107.56,52.81556,107.56Zm32.7-55.98c2.8-4.42,5.58-8.8,8.44-13.31h-.62c-5.14,0-10.27.01-15.4-.01a5.7845,5.7845,0,0,0-2.59.55c-1.09.52-2.21.96-3.4,1.48C76.49557,44.07,80.97556,47.8,85.51557,51.58Zm-38.7-13.31c2.87,4.52,5.65,8.9,8.44,13.31,4.52-3.76,9.01-7.5,13.55-11.28-.16-.08-.27-.14-.37-.19-1.29-.56-2.59-1.12-3.89-1.65a2.10191,2.10191,0,0,0-.81-.17q-8.175-.015-16.36-.01C47.24557,38.27,47.08556,38.27,46.81556,38.27Zm74.99,55.91c.67-7.96,1.32-15.78,1.97-23.59a.23558.23558,0,0,1-.1-.05c-2.71,4.86-5.42,9.71-8.14,14.6C117.60557,88.14,119.66556,91.1,121.80558,94.18Zm-102.83,0c2.13-3.06,4.19-6.02,6.27-9.02q-4.08-7.335-8.15-14.63a.87941.87941,0,0,1-.1.06C17.65557,78.4,18.30556,86.21,18.97556,94.18Zm1.02,3.39c3.51,6.82,6.96,13.51,10.41,20.21.03-.02.07-.04.1-.06q-.45-8.55-.9-17.1C26.40557,99.61,23.25556,98.61,19.99557,97.57Zm90.27,20.16a.48694.48694,0,0,1,.11.04c3.44-6.69,6.89-13.38,10.4-20.19-3.26,1.04-6.42,2.04-9.61,3.05Q110.71559,109.18,110.26557,117.73Zm-72.56-89.45c-4.54,5.89-9,11.68-13.47,17.46a.27268.27268,0,0,0,.25.04q6.66-3,13.33-6c.27-.12.32-.3.3-.64-.11-2.74-.21-5.46-.31-8.2C37.78556,30.09,37.74557,29.25,37.70557,28.28Zm78.76,17.58.06-.12c-4.46-5.78-8.93-11.57-13.45-17.44-.03.3-.04.45-.05.61-.13,3.37-.24,6.74-.39,10.09-.02.5.1.68.43.82q4.965,2.22,9.92,4.45Q114.7256,45.065,116.46555,45.86Zm-57.53-28.75a.75444.75444,0,0,0-.06-.13c-6.15,3.06-12.3,6.12-18.55,9.22,3.02,1.3,5.91,2.52,8.8,3.79.32.14.51.08.75-.25,2.04-2.87,4.1-5.71,6.14-8.57C56.99557,19.83,57.96557,18.47,58.93557,17.11Zm41.38,9.15v-.12q-9.21-4.59-18.44-9.17c-.03.06-.07.13-.1.19.24.3.5.58.74.9,2.81,3.9,5.62,7.83,8.44,11.72.11.15.36.3.5.24C94.42557,28.8,97.36558,27.53,100.31556,26.26Zm-28.37,111.82c6.66-1.7,13.19-3.36,19.71-5.02a.48359.48359,0,0,0-.3-.2c-4.56-1.36-9.11-2.7-13.67-4.07-.27-.08-.42.04-.58.31q-1.92,3.345-3.84,6.67C72.85557,136.5,72.43557,137.22,71.94556,138.08Zm-22.84-5.13v.11c6.53,1.67,13.07,3.33,19.68,5.01-.09-.18-.11-.25-.14-.31-1.67-2.89-3.34-5.77-5-8.68-.21-.36-.4-.35-.67-.26q-4.74,1.41-9.48,2.81C52.03556,132.07,50.57557,132.51,49.10557,132.95Zm-5.45-121.41a.80509.80509,0,0,0-.27.04c-3.03.92-6.07,1.81-9.08,2.79a10.2419,10.2419,0,0,0-1.95,1.18c2,3.14,3.9,6.13,5.84,9.19C40.02556,20.3,41.82557,15.96,43.65557,11.54Zm53.44-.03c1.86,4.46,3.66,8.82,5.49,13.24,1.95-3.08,3.85-6.07,5.83-9.19a9.562,9.562,0,0,0-1.81-1.14c-2.14-.73-4.3-1.34-6.46-2C99.15555,12.11,98.16556,11.83,97.09556,11.51Zm26.1,85.95c.79,4.82,1.56,9.56,2.36,14.49.18-.31.27-.49.38-.64,1.89-2.67,3.78-5.36,5.7-7.99a7.82085,7.82085,0,0,0,.93-2.37C129.43555,99.78,126.34556,98.62,123.19556,97.46Zm-108.12,14.43.18-.18c.77-4.73,1.54-9.46,2.33-14.26-3.18,1.18-6.26,2.33-9.35,3.48a6.99266,6.99266,0,0,0,1.05,2.57c1.88,2.57,3.72,5.2,5.58,7.82A4.22191,4.22191,0,0,1,15.07557,111.89Zm117.93-26.21c-3.12,3.39-6.18,6.7-9.28,10.07,3.16,1.18,6.24,2.32,9.3,3.46a5.93809,5.93809,0,0,0,.47-3.44c-.05-.83-.08-1.65-.12-2.49C133.25556,90.8,133.13557,88.31,133.00556,85.68Zm-125.23.02c-.02.21-.03.31-.03.4-.16,3.4-.31,6.8-.51,10.2a7.79576,7.79576,0,0,0,.51,2.93c3.09-1.15,6.16-2.3,9.31-3.48C13.93557,92.37,10.89556,89.08,7.77556,85.7Zm108.65-58.25c-1.76-3.13-3.44-6.09-5.1-9.08-.49-.88-1.21-1.21-1.83-1.81-1.91,3.01-3.78,5.96-5.71,9.01C108.00556,26.21,112.15555,26.82,116.42557,27.45Zm-79.42-1.88c-1.94-3.07-3.83-6.03-5.75-9.07a9.03779,9.03779,0,0,0-1.65,1.68c-1.71,2.89-3.34,5.87-5,8.82-.06.12-.11.24-.21.45C28.61556,26.82,32.75556,26.21,37.00556,25.57Zm45.24,122.17c-3.77-2.36-7.44-4.64-11.14-6.95v11.05a5.12859,5.12859,0,0,0,1.92-.04C76.07557,150.53,79.09557,149.15,82.24555,147.74Zm-12.57-6.95c-3.72,2.32-7.39,4.61-11.13,6.95.21.1.33.15.45.21,2.77,1.23,5.54,2.44,8.31,3.7a5.97,5.97,0,0,0,2.37.25C69.67556,148.2,69.67556,144.53,69.67556,140.79Zm69.49-64.03c-1.87-2.65-3.71-5.26-5.61-7.96.22,4.53.43,8.88.65,13.35C135.90555,80.3,137.50556,78.55,139.16556,76.76Zm-131.96-7.79c-.03-.01-.06-.04-.09-.05q-2.745,3.885-5.51,7.83c1.67,1.81,3.28,3.56,4.96,5.38C6.78556,77.66,6.99557,73.32,7.20557,68.97Zm7.92-28.17c2.11-3.75,4.14-7.36,6.25-11.11-2.32.35-4.49.68-6.7,1.01C14.83556,34.07,14.97556,37.35,15.12557,40.8Zm110.96-10.1c-2.22-.33-4.39-.65-6.7-1,2.12,3.75,4.15,7.37,6.25,11.11C125.79557,37.33,125.94556,34.06,126.08558,30.7Zm-103,95a.56313.56313,0,0,0,.04-.12c-2.36-3.32-4.72-6.63-7.13-10.02-.42,2.58-.82,5.05-1.23,7.57C17.55556,123.99,20.32557,124.84,23.08556,125.7Zm94.54-.11c.02.04.03.07.05.11,2.77-.86,5.54-1.71,8.32-2.58-.42-2.54-.82-5-1.23-7.57C122.34556,118.98,119.98557,122.28,117.62556,125.59Zm-31.76,22.48c1.92,1.2,3.72,2.31,5.52,3.45.28.18.42.13.61-.2,1.41-2.5,2.82-4.98,4.23-7.46.07-.12.12-.25.24-.49C92.91556,144.93,89.44556,146.47,85.86558,148.07Zm-30.96-.02c-3.58-1.59-7.05-3.13-10.52-4.67,1.48,2.76,2.99,5.44,4.52,8.09a.28932.28932,0,0,0,.32.1C51.09557,150.45,52.94556,149.28,54.90557,148.05Zm2.27-142.51a1.37046,1.37046,0,0,0-.21-.17c-2.52-1.1-5.03-2.19-7.54-3.3-.24-.11-.34.01-.44.26-.51,1.26-1.04,2.51-1.56,3.77-.36.87-.72,1.75-1.13,2.73C49.94556,7.73,53.52556,6.65,57.17556,5.54Zm26.38-.01c3.69,1.12,7.26,2.2,10.91,3.31-.1-.26-.16-.42-.22-.57-.8-1.93-1.61-3.84-2.39-5.78-.16-.4-.3-.5-.63-.36-2.39,1.06-4.78,2.09-7.17,3.14A4.9948,4.9948,0,0,0,83.55558,5.53Zm-56.62,79.74c.89,1.61,1.77,3.18,2.69,4.82,1.39-4.88,2.73-9.63,4.08-14.38-.03-.02-.05-.05-.08-.07C31.40557,78.84,29.17556,82.04,26.93557,85.27Zm86.9,0c-2.25-3.24-4.47-6.43-6.69-9.63-.03.02-.05.05-.08.07,1.35,4.76,2.7,9.51,4.08,14.37C112.06556,88.42,112.93555,86.87,113.83558,85.27Zm-69.7-46.33a.5541.5541,0,0,0-.17-.01c-1.4.63-2.79,1.26-4.19,1.88-.25.11-.23.33-.22.6.1,2.77.21,5.53.31,8.31.04,1.15.1,2.31.15,3.46.03,0,.06.01.09.01C41.43557,48.46,42.77556,43.73,44.13557,38.94Zm56.54,14.25c.03,0,.06-.01.09-.01.02-.19.03-.39.04-.58.15-3.76.29-7.51.43-11.27.02-.35-.1-.44-.3-.52-1.33-.58-2.66-1.19-3.98-1.79a1.64637,1.64637,0,0,0-.32-.08C97.99555,43.73,99.33558,48.45,100.67557,53.19Zm-42.63,63.31a1.11287,1.11287,0,0,0,.08.24q2.775,4.8,5.54,9.61a.41028.41028,0,0,0,.56.24c.99-.31,1.97-.59,2.96-.89.43-.13.87-.26,1.41-.42C65.02556,122.31,61.56556,119.44,58.04557,116.5Zm24.67.14a.5568.5568,0,0,1-.05-.08q-5.19,4.32-10.4,8.65c.05.06.07.1.1.11,1.44.43,2.87.88,4.31,1.27.14.04.37-.15.48-.33,1.67-2.84,3.31-5.71,4.96-8.57C82.30558,117.34,82.51557,116.99,82.71555,116.64Zm-51.8-17.42c3.35,1.06,6.66,2.11,9.97,3.17a.61068.61068,0,0,0,.03-.13c-3.41-2.83-6.82-5.68-10.3-8.57C30.72556,95.61,30.82557,97.38,30.91556,99.22Zm79.23-5.54c-3.5,2.9-6.89,5.74-10.29,8.57a.64776.64776,0,0,1,.04.13c3.31-1.05,6.63-2.11,9.95-3.15C109.95557,97.4,110.03556,95.62,110.14558,93.68Zm-50.44-57.27c-.17-.1-.23-.13-.29-.17-3.05-1.31-6.12-2.63-9.18-3.92-.14-.06-.39.07-.5.23-.86,1.15-1.69,2.33-2.53,3.51a3.28593,3.28593,0,0,0-.19.35Zm34.01,0c.03-.07.08-.14.11-.2-.97-1.27-1.93-2.56-2.92-3.81a.44055.44055,0,0,0-.46-.04q-3.45,1.47-6.91,2.95c-.79.33-1.58.68-2.37,1.01.01.02.01.06.02.08Q87.4556,36.415,93.71555,36.41Zm7.99-7.4a.68973.68973,0,0,1-.1-.04c-1.66,2.62-3.32,5.25-5.02,7.93,1.61.73,3.14,1.42,4.73,2.13C101.44556,35.63,101.57557,32.32,101.70557,29.01Zm-62.55-.04-.09.06c.13,3.31.25,6.62.38,10.01,1.61-.73,3.14-1.42,4.73-2.13C42.47556,34.2,40.81556,31.59,39.15557,28.97Zm31.94,107.79c1.67-2.88,3.25-5.64,4.89-8.47-1.67-.5-3.26-.96-4.89-1.45Zm-1.42-.03v-9.9c-1.63.49-3.22.96-4.88,1.45C66.42556,131.13,68.01557,133.88,69.67556,136.73Zm-21.13-105.14c-2.76-1.18-5.45-2.33-8.13-3.49a.29951.29951,0,0,0-.04.08c1.65,2.61,3.31,5.2,4.89,7.7C46.35557,34.44,47.42556,33.05,48.54557,31.59Zm43.7-.02c1.11,1.46,2.18,2.88,3.26,4.32,1.6-2.51,3.25-5.11,4.89-7.7a.30019.30019,0,0,1-.04-.08C97.67557,29.25,94.98557,30.41,92.24555,31.57Zm22.49,55.01c-.9,1.62-1.78,3.19-2.69,4.83,2.71,1.01,5.36,2,8.01,2.99a.69241.69241,0,0,0,.04-.1C118.33558,91.73,116.55558,89.17,114.73557,86.58Zm-86.01,4.83c-.92-1.65-1.8-3.23-2.7-4.83-1.82,2.62-3.59,5.18-5.36,7.72a.48752.48752,0,0,1,.04.11C23.36556,93.41,26.00556,92.42,28.72556,91.41Zm90.73,4.76v-.11c-2.61-.98-5.23-1.94-7.89-2.93-.1,1.93-.2,3.75-.29,5.64C114.03556,97.88,116.74555,97.03,119.45557,96.17Zm-89.95,2.59c-.1-1.93-.2-3.75-.3-5.64-2.67.99-5.28,1.96-7.88,2.93v.12C24.03556,97.03,26.73557,97.9,29.50556,98.76Zm109.04-18.92c-.02-.04-.04-.06-.06-.1-1.35,1.46-2.7,2.92-4.03,4.39a1.11442,1.11442,0,0,0-.12.63c.09,2.07.2,4.15.3,6.23.03.64.06,1.3.1,1.94.03.01.06.01.1.02C136.06556,88.59,137.30558,84.21,138.54557,79.84ZM5.98557,93.07a3.26672,3.26672,0,0,0,.07-.36c.13-2.7.27-5.42.38-8.12a1.004,1.004,0,0,0-.24-.61c-1.25-1.38-2.51-2.74-3.77-4.11a.98493.98493,0,0,0-.23-.15C3.46557,84.22,4.70557,88.59,5.98557,93.07Zm124.77,14.24c-.03-.01-.05-.04-.08-.05-1.28,1.8-2.52,3.67-3.85,5.37a3.33361,3.33361,0,0,0-.66,3.17c.35,1.52.54,3.11.82,4.84C128.26557,116.08,129.50556,111.69,130.75556,107.31Zm-116.97,13.27c.06-.26.1-.42.12-.56.3-1.86.59-3.71.91-5.56a.97071.97071,0,0,0-.18-.83c-1.41-1.98-2.83-3.96-4.24-5.95-.09-.12-.17-.21-.27-.33-.03.02-.05.05-.08.07C11.28556,111.77,12.51557,116.12,13.78556,120.58Zm33.13-116.91c-.02-.02-.04-.05-.06-.07-3.12,2.61-6.26,5.2-9.38,7.81,2.29-.58,4.55-1.26,6.79-1.96a.87386.87386,0,0,0,.44-.48c.62-1.43,1.21-2.88,1.8-4.33C46.65557,4.3,46.78556,3.98,46.91556,3.67Zm47.01-.07-.06.06c.06.15.11.31.17.45.66,1.58,1.32,3.17,1.96,4.76a.91149.91149,0,0,0,.62.62c1.17.35,2.34.7,3.51,1.06,1.04.31,2.08.62,3.13.93.01-.04.02-.06.03-.1C100.16556,8.8,97.03556,6.21,93.92557,3.6Zm29.8,24.95a.50142.50142,0,0,0,.02-.12q-4.665-3.87-9.32-7.76c1.21,2.34,2.46,4.59,3.73,6.82a.56035.56035,0,0,0,.36.25C120.25556,28.03,121.99555,28.29,123.72556,28.55Zm-97.33-7.76c-.03-.04-.05-.07-.07-.1-3.11,2.58-6.21,5.18-9.33,7.76,1.77-.15,3.51-.42,5.24-.69a.53718.53718,0,0,0,.36-.25C23.88557,25.26,25.13557,23.03,26.39556,20.79Zm-16.69,33.55c.89,1.61,1.74,3.13,2.51,4.5.72-.89,1.43-1.79,2.14-2.68a.46971.46971,0,0,0,.08-.26c-.04-1.18-.09-2.36-.14-3.62C12.73557,52.97,11.24557,53.64,9.70557,54.34Zm118.86,4.5c.77-1.38,1.62-2.92,2.51-4.5-1.55-.7-3.05-1.37-4.59-2.06-.05,1.26-.11,2.4-.14,3.56a.5487.5487,0,0,0,.09.32C127.13557,57.06,127.84556,57.94,128.56556,58.84Zm-55.09-50.8c-1.08-1.43-2.12-2.79-3.06-4.02-.99,1.29-2.02,2.63-3.1,4.04,1.03.45,2,.88,2.98,1.3a.36171.36171,0,0,0,.25-.02C71.48557,8.9,72.43557,8.49,73.47556,8.04Zm34.74,122.42c-1.08.33-2.11.64-3.13.96a.59841.59841,0,0,0-.29.24c-.53.92-1.05,1.83-1.61,2.83,1.61.48,3.17.94,4.75,1.42C108.02558,134.07,108.11558,132.32,108.21555,130.46Zm-70.62,4.04c-.57-1.01-1.08-1.92-1.61-2.81a.52385.52385,0,0,0-.24-.23c-1.05-.33-2.1-.65-3.19-.99.1,1.84.19,3.62.29,5.44C34.43557,135.44,35.97556,134.97,37.59557,134.5Zm14.5,17.26c0,.04.01.08.01.12h11.22c-.09-.08-.11-.13-.15-.14-2.08-.93-4.17-1.86-6.26-2.77a.35108.35108,0,0,0-.33.01C55.07557,149.9,53.58556,150.83,52.09557,151.76Zm36.58.11c0-.03.01-.07.01-.12-1.49-.93-2.98-1.87-4.49-2.79a.57564.57564,0,0,0-.49.05c-1.51.65-3.02,1.33-4.53,2.01-.56.25-1.11.5-1.67.75a.63393.63393,0,0,0,.02.09Q83.09055,151.875,88.67557,151.87Zm-85.64-79.74a1.18379,1.18379,0,0,0,.17-.14c1.33-1.88,2.66-3.76,3.97-5.65a1.60032,1.60032,0,0,0,.19-.75c.08-1.2.13-2.42.18-3.62.04-.96.08-1.94.12-2.9-.03-.01-.06-.01-.1-.02C6.07557,63.37,4.57557,67.69,3.03556,72.13Zm134.59-.06a.43625.43625,0,0,0,.07-.06q-2.265-6.495-4.52-13c.01,2.3.11,4.56.23,6.81a1.04543,1.04543,0,0,0,.15.48C134.91556,68.22,136.27558,70.15,137.62556,72.07Zm-10.3-36.68a.27686.27686,0,0,0-.09.01c-.11,2.44-.23,4.89-.32,7.33a1.42662,1.42662,0,0,0,.18.63c1,1.8,2,3.58,3.01,5.37.05.1.1.19.16.29.03-.02.04-.05.07-.08Q128.83558,42.175,127.32557,35.39Zm-113.79.03a.35516.35516,0,0,1-.09-.04c-1.01,4.52-2.01,9.05-3.03,13.62.07-.04.1-.05.11-.07,1.08-1.9,2.16-3.82,3.23-5.74a1.13093,1.13093,0,0,0,.1-.49C13.76557,40.29,13.65557,37.85,13.53556,35.42Zm90.8,104.53c-.13.01-.17,0-.22.01-1.74.77-3.49,1.54-5.22,2.33a1.02987,1.02987,0,0,0-.39.43c-1.02,1.79-2.05,3.58-3.07,5.39-.07.13-.13.26-.2.39.02.02.03.04.05.06C98.28556,145.7,101.28556,142.85,104.33558,139.95Zm-58.85,8.6c.02-.02.03-.06.06-.08-.71-1.26-1.49-2.45-2.13-3.78-.82-1.74-1.88-2.87-3.38-3.21a3.21582,3.21582,0,0,1-.66-.3c-.93-.4-1.86-.82-2.79-1.23a.42332.42332,0,0,0-.04.12Q41.01556,144.3,45.48557,148.55Zm76.37-22.17c0-.04-.01-.06-.01-.1a.56473.56473,0,0,0-.13,0q-2.805.87-5.61,1.75a1.25123,1.25123,0,0,0-.5.4c-.96,1.33-1.92,2.69-2.88,4.04a5.98292,5.98292,0,0,1-.58.65,1.99189,1.99189,0,0,1,.12.19Q117.06554,129.86,121.85557,126.38Zm-93.37,6.94c.03-.04.04-.07.07-.11-1.18-1.65-2.36-3.32-3.54-4.96a.7986.7986,0,0,0-.38-.23c-1.27-.39-2.53-.79-3.8-1.18-.63-.19-1.27-.39-1.9-.58l-.03.12Q23.70556,129.845,28.48557,133.32ZM86.56556,2.3V2.18l-10.98.81a.54.54,0,0,0,.32.2c1.21.37,2.44.65,3.63,1.12a3.28528,3.28528,0,0,0,2.85-.17C83.75556,3.47,85.16556,2.92,86.56556,2.3Zm-21.35.8c0-.04-.01-.06-.01-.1-3.66-.27-7.32-.54-11.12-.82a1.92961,1.92961,0,0,0,.26.19c1.74.76,3.49,1.52,5.23,2.27a.661.661,0,0,0,.46.01c1.02-.3,2.03-.6,3.05-.9C63.78556,3.54,64.49557,3.32,65.21557,3.1Zm64.11,57.29c.89,1.11,1.78,2.2,2.59,3.21-.1-2.19-.23-4.62-.34-7.05a.689.689,0,0,1-.1-.04C130.78556,57.77,130.08558,59.03,129.32557,60.39Zm-120.03-3.86a.487.487,0,0,0-.11.04c-.11,2.42-.23,4.83-.34,7,.81-1,1.69-2.1,2.58-3.2C10.69556,59.03,9.98557,57.78,9.29557,56.53Zm117.47-10.7c-.07,1.58-.13,2.98-.17,4.37a.39068.39068,0,0,0,.16.27c1.13.52,2.26,1.04,3.52,1.6C129.08558,49.94,127.96555,47.96,126.76557,45.83Zm-112.76,0c-1.2,2.13-2.32,4.11-3.51,6.24,1.26-.57,2.39-1.07,3.51-1.6a.48391.48391,0,0,0,.17-.33C14.13557,48.76,14.06556,47.39,14.00556,45.83Zm95.37,88.73c1.38-1.94,2.67-3.75,3.96-5.56a33.67053,33.67053,0,0,0-3.51.99.39525.39525,0,0,0-.22.29C109.52558,131.63,109.45557,133,109.37556,134.56Zm-78-.49c-.06-1.12-.13-2.49-.21-3.86a.34829.34829,0,0,0-.2-.24c-1.16-.37-2.33-.73-3.49-1.08-.03.05-.04.08-.07.13C28.74557,130.74,30.09557,132.45,31.37557,134.07Zm74.44,3.21c0-.05-.01-.1-.01-.13-1.12-.33-2.24-.67-3.36-.99a.24919.24919,0,0,0-.26.11c-.65,1.12-1.29,2.25-1.93,3.38l.05.1C102.13557,138.91,103.97556,138.1,105.81556,137.28Zm-27.5-131.37V5.8c-1.93-.58-3.84-1.17-5.77-1.75-.03.06-.07.11-.1.17.77,1.01,1.54,2.02,2.31,3.02a.29273.29273,0,0,0,.3.08C76.15557,6.87,77.23557,6.39,78.31556,5.91Zm-37.71,133.88c-.43-.76-.79-1.39-1.15-2.01-.31-.55-.56-1.35-.96-1.55-.43-.2-1,.17-1.5.31-.68.19-1.35.4-2.03.62v.13C36.80556,138.1,38.65557,138.92,40.60557,139.79Zm21.85-133.97v.11c1.08.48,2.16.96,3.25,1.42a.283.283,0,0,0,.3-.08c.77-1,1.54-2.01,2.31-3.02a.78284.78284,0,0,0-.1-.15C66.29557,4.65,64.37557,5.23,62.45557,5.82Zm63.22,58.01c.03.01.05.04.08.05.64-1.14,1.28-2.3,1.94-3.48-.54-.68-1.04-1.31-1.56-1.98C125.97556,60.21,125.82557,62.02,125.67557,63.83Zm-110.66.04c.03-.01.05-.04.09-.05-.16-1.81-.3-3.62-.45-5.34-.52.64-1.03,1.27-1.56,1.93C13.74557,61.59,14.38557,62.73,15.01557,63.87Zm17.36,60.88a.487.487,0,0,0-.11.04c.06,1.19.13,2.38.2,3.57.01.09.07.24.13.26.67.23,1.34.43,2.13.67C33.88557,127.68,33.13557,126.21,32.37557,124.75Zm76.13.05a.48669.48669,0,0,1-.11-.04c-.76,1.48-1.52,2.94-2.34,4.55.76-.24,1.41-.43,2.05-.64a.38513.38513,0,0,0,.21-.28C108.38557,127.18,108.44556,125.99,108.50556,124.8Zm-92.79-70.5c1.05-1.37,2.02-2.62,2.98-3.88a23.883,23.883,0,0,0-2.92,1.2.56336.56336,0,0,0-.16.39C15.64556,52.72,15.68557,53.44,15.71557,54.3Zm109.33,0c.03-.83.05-1.52.1-2.21a.47486.47486,0,0,0-.29-.55c-.77-.33-1.54-.69-2.31-1.04-.15-.07-.3-.12-.45-.19-.01.04-.02.07-.03.11C123.03556,51.68,123.99555,52.93,125.04557,54.3Zm-56.67-43.94c-.73-.32-1.34-.6-1.95-.85a.243.243,0,0,0-.23.1c-.67.86-1.33,1.73-2,2.59.03.06.07.12.1.18C65.61556,11.74,66.92556,11.09,68.37557,10.36Zm8.09,2.03c.03-.07.07-.13.1-.2-.65-.85-1.29-1.69-1.94-2.52-.07-.1-.22-.17-.3-.13-.6.24-1.2.51-1.92.83C73.83556,11.09,75.14556,11.73,76.46557,12.39Zm26.51,119.6c-1.48.38-2.86.73-4.24,1.08a24.337,24.337,0,0,0,2.85.94.36229.36229,0,0,0,.32-.17C102.25556,133.27,102.57557,132.69,102.97556,131.99Zm-65.18,0c.4.7.74,1.31,1.09,1.9a.31276.31276,0,0,0,.25.13c.97-.27,1.93-.56,2.9-.85a.40994.40994,0,0,0-.01-.11C40.65557,132.71,39.27556,132.37,37.79557,131.99Zm64.48-67.92c-.16-.57-.3-1.07-.44-1.56a.355.355,0,0,1-.1.02v1.74C101.90555,64.2,102.06556,64.14,102.27558,64.07Zm-63.24.2V62.53c-.03-.01-.06-.01-.1-.02-.15.51-.29,1.02-.44,1.56C38.71557,64.15,38.86556,64.2,39.03556,64.27Zm-1.01,1.45c-.16.54-.29,1.02-.43,1.51.03.02.04.04.07.06.3-.43.59-.86.93-1.35C38.38557,65.87,38.23557,65.81,38.02556,65.72Zm64.15.22c.35.5.64.93.94,1.36.02-.01.04-.04.06-.05-.14-.5-.29-1-.43-1.51C102.54557,65.81,102.40555,65.85,102.17557,65.94Zm-50,43.5c.03-.04.04-.06.07-.1-.25-.44-.51-.87-.79-1.36-.12.21-.22.37-.33.56C51.50556,108.88,51.83556,109.16,52.17556,109.44Zm37.14-1.44c-.29.49-.54.93-.79,1.36.02.04.04.06.06.1.36-.3.7-.58,1.13-.93C89.54557,108.3,89.44556,108.17,89.31556,108Zm-39.05-.83c-.37-.11-.7-.21-1.09-.33C49.82557,107.66,49.99557,107.7,50.26557,107.17Zm41.37-.35c-.43.13-.76.24-1.1.35C90.76557,107.73,90.86558,107.69,91.63557,106.82Zm-20.52-68.03c.29-.13.58-.25.98-.43C71.15557,38.17,71.05556,38.21,71.11556,38.79Zm-1.44.01c.01-.57-.23-.67-.93-.4C69.08556,38.54,69.36556,38.66,69.67556,38.8Z"/><path class="e9dc796d-fabf-4dc5-a6ea-f8755753eca9" d="M187.60557,41.72h-12.67V32.17h31.37a3.53158,3.53158,0,0,1,3.52,3.52v6.03h-12.67V72.38h-9.55V41.72Z"/><path class="e9dc796d-fabf-4dc5-a6ea-f8755753eca9" d="M253.80558,52.28a20.11,20.11,0,1,1-20.11-20.11A20.10545,20.10545,0,0,1,253.80558,52.28Zm-9.6,0a10.51,10.51,0,1,0-10.51,10.51A10.54156,10.54156,0,0,0,244.20557,52.28Z"/><path class="e9dc796d-fabf-4dc5-a6ea-f8755753eca9" d="M260.08558,32.17h8.6a1.26624,1.26624,0,0,1,.96.45l10.86,12.62,10.86-12.62a1.26492,1.26492,0,0,1,1.01-.45h8.54V72.38h-9.55V47.25l-4.52,5.33-3.67,4.22a3.54464,3.54464,0,0,1-5.33,0l-8.19-9.55V72.38h-9.55V32.17Z"/><path class="e9dc796d-fabf-4dc5-a6ea-f8755753eca9" d="M326.02558,32.17h6.08a3.49977,3.49977,0,0,1,3.52,3.52V47.5h15.58V32.17h6.08a3.53162,3.53162,0,0,1,3.52,3.52v36.7h-9.6V57.06h-15.58V72.39h-9.6V32.17Z"/><path class="e9dc796d-fabf-4dc5-a6ea-f8755753eca9" d="M407.29554,52.28a20.11,20.11,0,1,1-20.11-20.11A20.10545,20.10545,0,0,1,407.29554,52.28Zm-9.6,0a10.51,10.51,0,1,0-10.51,10.51A10.54154,10.54154,0,0,0,397.69556,52.28Z"/><path class="e9dc796d-fabf-4dc5-a6ea-f8755753eca9" d="M413.57557,55.45a3.56451,3.56451,0,0,1,3.52-3.52h11.46a5.01809,5.01809,0,0,0,5.08-5.28,5.14981,5.14981,0,0,0-5.18-4.88h-14.88V32.22h14.83a14.77262,14.77262,0,0,1,14.83,14.58,14.41952,14.41952,0,0,1-8.4,13.12l12.47,12.47h-13.27l-10.91-10.91V72.39h-9.55V55.45Z"/><path class="e9dc796d-fabf-4dc5-a6ea-f8755753eca9" d="M452.32557,32.17h7.54a3.5428,3.5428,0,0,1,2.66,1.21l21.06,24.48V32.17h6.03a3.49978,3.49978,0,0,1,3.52,3.52v36.7h-9.65l-21.61-25.13V72.39h-9.55Z"/><path class="f912d498-416f-4de7-ac34-88e518195916" d="M182.72556,121.98a4.96935,4.96935,0,0,1-.61-.22c-.19-.06-.38-.16-.58-.22l-.42-.22-.8-.42c-.13-.1-.29-.16-.41-.26-.26-.16-.51-.35-.74-.51a16.682,16.682,0,0,1-1.41-1.22,12.81952,12.81952,0,0,1,0-18.1,12.49749,12.49749,0,0,1,1.41-1.21,5.689,5.689,0,0,1,.74-.51,14.67215,14.67215,0,0,1,1.63-.9c.19-.1.38-.16.58-.26l.61-.19a12.81844,12.81844,0,0,1,8.18,0l.61.19c.19.1.38.16.58.26a9.546,9.546,0,0,1,1.63.9c.26.16.51.32.77.51a13.27687,13.27687,0,0,1,1.38,1.21l-4.29,4.29a7.38155,7.38155,0,0,0-.99-.8h-.03a1.46045,1.46045,0,0,0-.26-.19l-.19-.1-.26-.16a3.06494,3.06494,0,0,0-.54-.22l-.26-.1a.46747.46747,0,0,0-.19-.06c-.06-.03-.1-.03-.13-.06a.60409.60409,0,0,1-.22-.06,7.298,7.298,0,0,0-1.69-.19,6.808,6.808,0,0,0-1.66.19.81734.81734,0,0,1-.26.06l-.1.06a.60386.60386,0,0,0-.22.06l-.26.1a2.61414,2.61414,0,0,0-.51.22l-.22.1-.1.1-.19.1a1.01866,1.01866,0,0,0-.22.16l-.29.19a.02938.02938,0,0,0-.03.03h-.03v.03a2.95423,2.95423,0,0,0-.32.22v.03a6.694,6.694,0,0,0,0,10.1c.1.06.19.16.32.26l.06.06.29.19a5.27334,5.27334,0,0,0,.74.42,2.71414,2.71414,0,0,0,.51.26,6.71483,6.71483,0,0,0,.83.26,6.85783,6.85783,0,0,0,1.66.22,7.821,7.821,0,0,0,1.69-.22,6.20508,6.20508,0,0,0,.8-.26,3.3275,3.3275,0,0,0,.54-.26,4.80424,4.80424,0,0,0,.7-.42h.03l.51-.38.48-.45v-4.7h3.84a2.2173,2.2173,0,0,1,2.24,2.21v2.43a6.124,6.124,0,0,1-1.76,4.35l-.03.03a18.185,18.185,0,0,1-1.38,1.22l-.77.51-.38.22a7.31509,7.31509,0,0,1-.83.45,2.36616,2.36616,0,0,1-.41.22l-.51.19v.03h-.06a2.745,2.745,0,0,1-.61.22,12.94023,12.94023,0,0,1-8.18988.01Z"/><path class="f912d498-416f-4de7-ac34-88e518195916" d="M210.51557,98.5l.03-.03a2.21472,2.21472,0,0,1,2.05-1.38,2.24264,2.24264,0,0,1,2.05,1.31l11.32,24.21-.06.03h-6.27l-2.46-5.28h-9.12l-2.46,5.28h-6.33Zm3.97,13.15-1.86-4.06-1.89,4.06Z"/><path class="f912d498-416f-4de7-ac34-88e518195916" d="M229.16556,97.06h5.47a.80676.80676,0,0,1,.61.29l6.91,8.03,6.91-8.03a.80785.80785,0,0,1,.64-.29h5.44v25.59h-6.08V106.66l-2.88,3.39-2.33,2.69a2.26032,2.26032,0,0,1-3.39,0l-5.21-6.08v15.99h-6.08V97.06Z"/><path class="f912d498-416f-4de7-ac34-88e518195916" d="M259.93555,97.06h3.87a2.2491,2.2491,0,0,1,2.24,2.24v23.35h-6.11Z"/><path class="f912d498-416f-4de7-ac34-88e518195916" d="M270.83558,97.06h4.8a2.29786,2.29786,0,0,1,1.7.77l13.4,15.58V97.07h3.84a2.22369,2.22369,0,0,1,2.24,2.24v23.35h-6.14l-13.75-15.99v15.99h-6.08V97.06Z"/><path class="f912d498-416f-4de7-ac34-88e518195916" d="M309.50556,121.98a5.64544,5.64544,0,0,1-.61-.22c-.19-.06-.38-.16-.58-.22l-.41-.22-.8-.42c-.13-.1-.29-.16-.42-.26-.26-.16-.51-.35-.74-.51a16.68039,16.68039,0,0,1-1.41-1.22,12.81952,12.81952,0,0,1,0-18.1,12.49661,12.49661,0,0,1,1.41-1.21,5.68815,5.68815,0,0,1,.74-.51,14.67316,14.67316,0,0,1,1.63-.9c.19-.1.38-.16.58-.26l.61-.19a12.81844,12.81844,0,0,1,8.18,0l.61.19c.19.1.38.16.58.26a9.546,9.546,0,0,1,1.63.9c.26.16.51.32.77.51a12.21127,12.21127,0,0,1,1.37,1.21l-4.29,4.29a7.38155,7.38155,0,0,0-.99-.8h-.03a1.46045,1.46045,0,0,0-.26-.19l-.19-.1-.26-.16a3.06454,3.06454,0,0,0-.54-.22l-.26-.1a.46747.46747,0,0,0-.19-.06c-.06-.03-.1-.03-.13-.06a.60409.60409,0,0,1-.22-.06,7.32226,7.32226,0,0,0-1.7-.19,6.80784,6.80784,0,0,0-1.66.19.81734.81734,0,0,1-.26.06l-.1.06a.604.604,0,0,0-.22.06l-.26.1a2.61414,2.61414,0,0,0-.51.22l-.22.1-.1.1-.19.1a1.019,1.019,0,0,0-.22.16l-.29.19a.02938.02938,0,0,0-.03.03h-.03v.03a2.95423,2.95423,0,0,0-.32.22v.03a6.694,6.694,0,0,0,0,10.1c.1.06.19.16.32.26l.06.06.29.19a5.27448,5.27448,0,0,0,.74.42,2.71475,2.71475,0,0,0,.51.26,6.71553,6.71553,0,0,0,.83.26,6.85782,6.85782,0,0,0,1.66.22,8.08021,8.08021,0,0,0,1.7-.22,6.20444,6.20444,0,0,0,.8-.26,3.32719,3.32719,0,0,0,.54-.26,4.80477,4.80477,0,0,0,.7-.42h.03l.51-.38.48-.45v-4.7h3.84a2.2173,2.2173,0,0,1,2.24,2.21v2.43a6.124,6.124,0,0,1-1.76,4.35l-.03.03a16.27893,16.27893,0,0,1-1.37,1.22l-.77.51-.38.22a7.315,7.315,0,0,1-.83.45,2.11974,2.11974,0,0,1-.42.22l-.51.19v.03h-.06a2.74518,2.74518,0,0,1-.61.22,12.90956,12.90956,0,0,1-8.17987.01Z"/></g></g></svg>