<?xml version="1.0" encoding="utf-8"?>
<!-- Generator: Adobe Illustrator 25.3.1, SVG Export Plug-In . SVG Version: 6.00 Build 0)  -->
<svg version="1.1" id="Layer_2" xmlns="http://www.w3.org/2000/svg" xmlns:xlink="http://www.w3.org/1999/xlink" x="0px" y="0px"
	 viewBox="0 0 88.5 28.5" style="enable-background:new 0 0 88.5 28.5;" xml:space="preserve">
<style type="text/css">
	.st0{fill:#FFFFFF;}
</style>
<g>
	<path class="st0" d="M9.1,19l-8.8-8.8c-0.2-0.2-0.2-0.5,0-0.7c0.1-0.1,0.2-0.2,0.4-0.2h8.8c0.3,0,0.5,0.2,0.5,0.5v8.8
		C10,19.1,9.5,19.4,9.1,19"/>
	<path class="st0" d="M11.1,18.7V9.9c0-0.3,0.2-0.5,0.5-0.5h8.8c0.3,0,0.5,0.2,0.5,0.5c0,0.1-0.1,0.3-0.2,0.4L12,19
		C11.7,19.4,11.1,19.1,11.1,18.7"/>
	<path class="st0" d="M21.9,18.7V9.9c0-0.3,0.2-0.5,0.5-0.5h8.8c0.3,0,0.5,0.2,0.5,0.5c0,0.1-0.1,0.3-0.2,0.4L22.8,19
		C22.4,19.4,21.9,19.1,21.9,18.7"/>
	<polygon class="st0" points="43.7,9.3 43.7,15.4 41.6,11.1 40.4,11.1 38.3,15.5 38.3,9.3 36.4,9.3 36.4,19.2 38.3,19.2 41,13.8 
		43.8,19.2 45.6,19.2 45.6,9.3 	"/>
	<path class="st0" d="M50.9,12.2l1.1,3.5h-2.2L50.9,12.2z M50,9.3l-3.4,9.8h2.1l0.6-1.9h3.3l0.6,1.9h2.1l-3.4-9.8H50z"/>
	<polygon class="st0" points="55.7,9.3 55.7,11.1 59.7,11.1 55.7,17.9 55.7,19.2 62.3,19.2 62.3,17.5 58.2,17.5 62.2,10.7 62.2,9.3 
			"/>
	<path class="st0" d="M68.9,14.9v-1.3c0-1.7-0.5-2.6-1.8-2.6h-1.5v6.4h1.5C68.5,17.5,68.9,16.6,68.9,14.9 M63.6,19.2V9.4h3.5
		c2.2,0,3.8,1.1,3.8,4.3v1.3c0,3.1-1.6,4.3-3.8,4.3L63.6,19.2L63.6,19.2z"/>
	<path class="st0" d="M75.6,12.2l1.1,3.5h-2.2L75.6,12.2z M74.7,9.3l-3.4,9.8h2.1l0.6-1.9h3.3l0.6,1.9H80l-3.4-9.8H74.7z"/>
	<polygon class="st0" points="86.5,9.3 86.5,15.5 82.6,9.3 80.9,9.3 80.9,19.2 82.8,19.2 82.8,13.1 86.7,19.2 88.3,19.2 88.3,9.3 	
		"/>
</g>
</svg>
