<svg height="512" viewBox="0 0 100 100" width="512" xmlns="http://www.w3.org/2000/svg" fill='white'><path d="m96.63 23.5h-93.26c-.83 0-1.5.67-1.5 1.5v2.15c0 .77.58 1.41 1.34 1.49 1.34.14 2.35 1.25 2.35 2.59s-1.01 2.44-2.35 2.59c-.76.08-1.34.72-1.34 1.49v4.36c0 .77.58 1.41 1.34 1.49 1.34.14 2.35 1.25 2.35 2.59s-1.01 2.44-2.35 2.59c-.76.08-1.34.72-1.34 1.49v4.36c0 .77.58 1.41 1.34 1.49 1.34.14 2.35 1.25 2.35 2.59s-1.01 2.44-2.35 2.59c-.76.08-1.34.72-1.34 1.49v4.36c0 .77.58 1.41 1.34 1.49 1.34.14 2.35 1.25 2.35 2.59s-1.01 2.44-2.35 2.59c-.76.08-1.34.72-1.34 1.49v2.15c0 .83.67 1.5 1.5 1.5h93.26c.83 0 1.5-.67 1.5-1.5v-2.13c0-.78-.6-1.44-1.39-1.5-1.36-.1-2.42-1.24-2.42-2.59s1.06-2.49 2.42-2.59c.78-.06 1.39-.71 1.39-1.5v-4.34c0-.78-.6-1.44-1.39-1.5-1.36-.1-2.42-1.24-2.42-2.59s1.06-2.49 2.42-2.59c.78-.06 1.39-.71 1.39-1.5v-4.34c0-.78-.6-1.44-1.39-1.5-1.36-.1-2.42-1.24-2.42-2.59s1.06-2.49 2.42-2.59c.78-.06 1.39-.71 1.39-1.5v-4.34c0-.78-.6-1.44-1.39-1.5-1.36-.1-2.42-1.24-2.42-2.59s1.06-2.49 2.42-2.59c.78-.06 1.39-.71 1.39-1.5v-2.13c0-.83-.67-1.5-1.5-1.5zm-67.19 18.17c-.83 0-1.5-.67-1.5-1.5v-4.68c0-.83.67-1.5 1.5-1.5s1.5.67 1.5 1.5v4.68c0 .83-.67 1.5-1.5 1.5zm1.5 5.99v4.68c0 .83-.67 1.5-1.5 1.5s-1.5-.67-1.5-1.5v-4.68c0-.83.67-1.5 1.5-1.5s1.5.67 1.5 1.5zm-3 12.17c0-.83.67-1.5 1.5-1.5s1.5.67 1.5 1.5v4.68c0 .83-.67 1.5-1.5 1.5s-1.5-.67-1.5-1.5zm1.5-35.83c.65 0 1.2.42 1.41 1 .06.16.09.32.09.5v2.5c0 .83-.67 1.5-1.5 1.5s-1.5-.67-1.5-1.5v-2.5c0-.18.04-.34.09-.5.21-.58.76-1 1.41-1zm0 52c-.65 0-1.2-.42-1.41-1-.06-.16-.09-.32-.09-.5v-2.5c0-.83.67-1.5 1.5-1.5s1.5.67 1.5 1.5v2.5c0 .18-.04.34-.09.5-.21.58-.76 1-1.41 1z"/></svg>