<svg width="16" height="16" viewBox="0 0 16 16" fill="none" xmlns="http://www.w3.org/2000/svg">
<path fill-rule="evenodd" clip-rule="evenodd" d="M2.31322 8.35356C2.21959 8.25981 2.16699 8.13272 2.16699 8.00022C2.16699 7.86772 2.21959 7.74064 2.31322 7.64689L6.31322 3.64689C6.35899 3.59776 6.41419 3.55836 6.47553 3.53104C6.53686 3.50371 6.60307 3.48901 6.6702 3.48783C6.73734 3.48665 6.80402 3.49899 6.86628 3.52414C6.92854 3.54929 6.9851 3.58672 7.03258 3.6342C7.08006 3.68168 7.11749 3.73823 7.14263 3.80049C7.16778 3.86275 7.18013 3.92944 7.17895 3.99657C7.17776 4.06371 7.16307 4.12992 7.13574 4.19125C7.10841 4.25258 7.06901 4.30778 7.01988 4.35356L3.87322 7.50022L13.3332 7.50022C13.4658 7.50022 13.593 7.5529 13.6868 7.64667C13.7805 7.74044 13.8332 7.86761 13.8332 8.00022C13.8332 8.13283 13.7805 8.26001 13.6868 8.35378C13.593 8.44754 13.4658 8.50022 13.3332 8.50022L3.87322 8.50022L7.01989 11.6469C7.06901 11.6927 7.10841 11.7479 7.13574 11.8092C7.16307 11.8705 7.17776 11.9367 7.17895 12.0039C7.18013 12.071 7.16778 12.1377 7.14263 12.2C7.11749 12.2622 7.08006 12.3188 7.03258 12.3662C6.9851 12.4137 6.92854 12.4512 6.86628 12.4763C6.80403 12.5015 6.73734 12.5138 6.6702 12.5126C6.60307 12.5114 6.53686 12.4967 6.47553 12.4694C6.41419 12.4421 6.35899 12.4027 6.31322 12.3536L2.31322 8.35356Z" fill="#FCFCFC"/>
</svg>
