<svg width="22" height="25" viewBox="0 0 22 25" fill="none" xmlns="http://www.w3.org/2000/svg">
<path d="M15.6371 11.1064C16.8232 8.91849 16.8788 4.00014 16.8519 2.06651V1.26321C12.9859 0.657054 9.04843 0.657054 5.18236 1.26321C5.18236 1.26321 4.88397 8.3501 6.37684 11.1064C7.34521 12.8935 9.00303 14.1832 10.0502 14.8695C9.94545 14.9009 9.86761 14.9967 9.86761 15.1118V15.4738C9.86761 15.6139 9.98252 15.7281 10.1243 15.7281H10.3513V19.1329L9.71564 20.2163H8.99932L7.69457 21.529V23.6671H7.05053V24.1747H14.9643V23.6671H14.3203V21.5078L12.9664 20.2163H12.2992L11.6654 19.1283H11.6626V15.7272H11.7942C11.9359 15.7272 12.0509 15.6139 12.0509 15.4729V15.1109C12.0509 15.0188 12.0008 14.9386 11.9258 14.8944C12.9701 14.2146 14.6576 12.9147 15.6371 11.1064Z" fill="url(#paint0_linear_469_5997)"/>
<path d="M14.9634 24.276H7.04962C6.99309 24.276 6.94676 24.2308 6.94676 24.1747V23.6671C6.94676 23.6109 6.99309 23.5657 7.04962 23.5657H7.5908V21.5289C7.5908 21.5022 7.60099 21.4764 7.62045 21.4571L8.9252 20.1443C8.94466 20.125 8.97061 20.1139 8.99841 20.1139H9.65542L10.2476 19.1052V15.8294H10.1234C9.92508 15.8294 9.76384 15.67 9.76384 15.4738V15.1118C9.76384 15.0187 9.79998 14.9321 9.86114 14.8686C8.70929 14.0947 7.19974 12.8456 6.28419 11.1551C5.65776 9.99902 5.26392 7.98065 5.11473 5.15713C5.00353 3.06045 5.07673 1.27698 5.07766 1.25947C5.07951 1.21157 5.11565 1.17104 5.16477 1.16275C9.04752 0.553824 12.984 0.553824 16.8668 1.16275C16.9168 1.17104 16.9539 1.21341 16.9539 1.26316V2.06646C16.9817 4.06549 16.9187 8.95529 15.727 11.1542C14.753 12.9506 13.073 14.2541 12.0889 14.9091C12.1296 14.9671 12.1528 15.0371 12.1528 15.1108V15.4729C12.1528 15.6691 11.9916 15.8285 11.7933 15.8285H11.7645V19.096L12.3576 20.1139H12.9655C12.9924 20.1139 13.0174 20.1241 13.0368 20.1425L14.3907 21.434C14.4111 21.4534 14.4222 21.4792 14.4222 21.5077V23.5657H14.9634C15.0199 23.5657 15.0663 23.6109 15.0663 23.6671V24.1747C15.0663 24.2308 15.0199 24.276 14.9634 24.276ZM7.15341 24.0724H14.8615V23.7684H14.3203C14.2638 23.7684 14.2174 23.7233 14.2174 23.6671V21.551L12.9247 20.3185H12.2992C12.2622 20.3185 12.2288 20.2991 12.2103 20.2678L11.5848 19.1937C11.5699 19.1761 11.5607 19.154 11.5607 19.1292V15.729C11.5607 15.6728 11.607 15.6276 11.6635 15.6276H11.7951C11.8804 15.6276 11.9489 15.5595 11.9489 15.4756V15.1136C11.9489 15.0602 11.9211 15.0123 11.8739 14.9837C11.8433 14.9653 11.8248 14.933 11.8238 14.899C11.8238 14.864 11.8405 14.8308 11.8702 14.8124C12.8191 14.1942 14.5584 12.8852 15.5472 11.0612C16.7167 8.9037 16.7778 4.05536 16.75 2.07106V1.35344C12.9451 0.765703 9.0883 0.765703 5.28338 1.35344C5.25651 2.15674 5.09249 8.5214 6.46952 11.0612C7.3999 12.7783 8.96227 14.0358 10.1095 14.7875C10.1429 14.8096 10.1605 14.8483 10.1549 14.887C10.1493 14.9257 10.1215 14.9579 10.0835 14.9699C10.0187 14.9892 9.9742 15.0473 9.9742 15.1145V15.4766C9.9742 15.5604 10.0428 15.6286 10.128 15.6286H10.3551C10.4116 15.6286 10.4579 15.6737 10.4579 15.7299V19.1347C10.4579 19.1531 10.4533 19.1706 10.444 19.1863L9.80832 20.2696C9.78979 20.301 9.75643 20.3203 9.71936 20.3203H9.0466L7.80115 21.5731V23.6698C7.80115 23.726 7.75482 23.7712 7.69829 23.7712H7.15711V24.0752L7.15341 24.0724Z" fill="url(#paint1_linear_469_5997)"/>
<path d="M20.1083 1.85821C18.8944 1.39116 17.6684 1.88677 17.193 3.03737C16.9715 3.57351 16.9715 4.15572 17.193 4.63383C17.396 5.07141 17.775 5.4012 18.2596 5.56241C18.407 5.61124 18.5654 5.53293 18.6145 5.38738C18.6636 5.24183 18.5849 5.0843 18.4375 5.03548C18.1382 4.93599 17.9065 4.75635 17.7601 4.51131C17.7082 4.32522 17.6879 4.1419 17.7018 3.92542C17.7073 3.83606 17.7157 3.74578 17.7407 3.66011C17.8936 3.12764 18.4477 2.76561 18.9917 2.77758C19.7052 2.79324 20.1074 3.35058 20.2798 3.98253C20.4688 4.67713 20.4317 5.45647 20.2158 6.17041C19.8081 6.98476 19.1298 7.77793 18.1419 8.60518C17.9974 8.72586 17.8509 8.8447 17.7027 8.96077C17.5887 9.05013 17.4692 9.13672 17.3487 9.22331C16.8696 9.56969 16.3275 9.96121 16.0578 10.6061C15.8614 11.075 15.8957 11.6304 16.1496 12.0938C16.4165 12.5811 16.8909 12.8603 17.3932 12.8603C17.5451 12.8603 17.6999 12.8345 17.8519 12.781C18.4718 12.5636 19.0139 11.9759 18.7962 11.3145C18.748 11.1689 18.5895 11.0888 18.4422 11.1367C18.2948 11.1846 18.2142 11.3412 18.2624 11.4867C18.3875 11.8672 17.914 12.1703 17.6647 12.2578C17.2755 12.3932 16.8557 12.2173 16.6426 11.8285C16.4693 11.5116 16.4443 11.1339 16.5758 10.8189C16.7853 10.3177 17.2199 10.0036 17.6795 9.67194C17.8055 9.58074 17.9306 9.48954 18.0511 9.3965C18.204 9.27674 18.356 9.15422 18.5043 9.02986C20.0268 7.7549 20.8673 6.53613 21.1499 5.19393C21.2833 4.55737 21.6049 2.43397 20.1074 1.85821H20.1083Z" fill="url(#paint2_linear_469_5997)"/>
<path d="M17.3931 12.963C16.839 12.963 16.3404 12.6562 16.0596 12.1431C15.7918 11.6539 15.7557 11.0644 15.9633 10.5678C16.244 9.89718 16.7991 9.49553 17.2884 9.14178C17.4089 9.05427 17.5265 8.96952 17.6396 8.88108C17.8008 8.75395 17.9436 8.6388 18.0761 8.52826C19.0519 7.71114 19.7209 6.92719 20.1203 6.1331C20.3362 5.41364 20.3575 4.66008 20.1805 4.00971C20.0675 3.59516 19.7626 2.89688 18.9898 2.87938C18.4699 2.86556 17.9751 3.2147 17.8398 3.6882C17.8185 3.7619 17.8101 3.83836 17.8046 3.93232C17.7916 4.12578 17.8083 4.29344 17.8555 4.47123C17.9899 4.68864 18.2021 4.85077 18.4708 4.93921C18.671 5.00554 18.7794 5.2211 18.7127 5.42008C18.6803 5.51589 18.6117 5.59419 18.5199 5.63933C18.4282 5.68447 18.3244 5.69184 18.2271 5.6596C17.7147 5.48917 17.3143 5.14003 17.0994 4.67666C16.8658 4.17276 16.8658 3.562 17.0975 3.00006C17.5942 1.79603 18.8758 1.27554 20.1453 1.76471C21.717 2.36902 21.3889 4.55875 21.2508 5.21557C20.9636 6.58081 20.112 7.81708 18.5709 9.1077C18.4263 9.22838 18.2772 9.34906 18.115 9.47618C17.9964 9.56923 17.875 9.65674 17.7406 9.75439C17.293 10.0787 16.8695 10.3836 16.6712 10.8589C16.5508 11.1463 16.5739 11.4909 16.7333 11.7811C16.9214 12.1247 17.2912 12.2813 17.6313 12.1624C17.8407 12.0887 18.267 11.8253 18.166 11.5185C18.1344 11.4218 18.1428 11.3195 18.1891 11.2293C18.2355 11.139 18.3151 11.0717 18.4124 11.0404C18.5088 11.0091 18.6126 11.0165 18.7034 11.0625C18.7952 11.1086 18.8637 11.1869 18.8952 11.2836C19.1334 12.0068 18.5533 12.6452 17.887 12.8773C17.7267 12.9335 17.5608 12.9621 17.394 12.9621L17.3931 12.963ZM18.9647 2.67579C18.9749 2.67579 18.9851 2.67579 18.9944 2.67579C19.657 2.69053 20.162 3.15758 20.3788 3.95628C20.566 4.64534 20.5429 5.44127 20.314 6.19943C20.3121 6.20496 20.3103 6.21048 20.3075 6.21509C19.896 7.03681 19.2094 7.84472 18.2077 8.68302C18.0733 8.79541 17.9287 8.9124 17.7656 9.04045C17.6507 9.12981 17.5312 9.21732 17.4098 9.30484C16.94 9.64477 16.4099 10.028 16.1514 10.6461C15.967 11.0865 15.9994 11.6106 16.2385 12.0464C16.4831 12.4932 16.9149 12.7594 17.3913 12.7594C17.5349 12.7594 17.6776 12.7345 17.8157 12.6866C18.3902 12.4858 18.8943 11.9478 18.6969 11.3472C18.6821 11.302 18.6506 11.2661 18.608 11.244C18.5653 11.2228 18.5181 11.2191 18.4736 11.2339C18.4282 11.2486 18.3911 11.2799 18.3698 11.3214C18.3485 11.3628 18.3448 11.4107 18.3596 11.4559C18.5033 11.8916 18.0297 12.238 17.698 12.355C17.2597 12.5079 16.7889 12.3117 16.5517 11.8787C16.3636 11.5351 16.3367 11.1242 16.4803 10.7815C16.7009 10.2546 17.1466 9.93219 17.6183 9.59134C17.7434 9.50106 17.8676 9.41078 17.9862 9.31774C18.1474 9.19153 18.2948 9.07269 18.4375 8.95294C19.9415 7.69272 20.7708 6.49238 21.0488 5.17412C21.1786 4.55691 21.4918 2.50076 20.0703 1.95448C18.911 1.50861 17.7397 1.98027 17.2875 3.07744C17.0771 3.58779 17.0762 4.14052 17.2856 4.59283C17.4765 5.00462 17.8333 5.31506 18.292 5.46706C18.3374 5.48272 18.3856 5.47904 18.4282 5.45785C18.4708 5.43667 18.5023 5.40074 18.5172 5.35652C18.5487 5.2644 18.4977 5.16491 18.405 5.13359C18.0844 5.02765 17.8305 4.83051 17.6711 4.56428C17.6665 4.55691 17.6628 4.54769 17.6609 4.5394C17.6044 4.33582 17.5849 4.1396 17.5988 3.92035C17.6044 3.82823 17.6137 3.72966 17.6415 3.63385C17.799 3.08389 18.3643 2.67671 18.9638 2.67671L18.9647 2.67579Z" fill="url(#paint3_linear_469_5997)"/>
<path d="M5.94138 10.6061C5.67172 9.96121 5.12869 9.56877 4.65053 9.22331C4.53006 9.13672 4.41052 9.05013 4.29654 8.96077C4.14827 8.8447 4.00186 8.72678 3.8573 8.60518C2.86946 7.77793 2.19114 6.98476 1.7834 6.17041C1.56749 5.45647 1.53042 4.67713 1.71946 3.98253C1.89183 3.35058 2.294 2.79324 3.00754 2.77758C3.55149 2.76561 4.10564 3.12672 4.25854 3.66011C4.28357 3.7467 4.29191 3.83606 4.29747 3.92542C4.31137 4.1419 4.29098 4.32522 4.23909 4.51131C4.09267 4.75635 3.86008 4.93691 3.56169 5.03548C3.41435 5.0843 3.33558 5.24183 3.38469 5.38738C3.43381 5.53293 3.59227 5.61124 3.73961 5.56241C4.22519 5.4012 4.60419 5.07141 4.80621 4.63383C5.02768 4.15572 5.02768 3.57351 4.80621 3.03737C4.33083 1.88677 3.10484 1.39116 1.8909 1.85821C0.394322 2.43397 0.714951 4.55645 0.848391 5.19393C1.13103 6.53521 1.97152 7.75398 3.49404 9.02986C3.64323 9.15422 3.79428 9.27674 3.94718 9.3965C4.06672 9.49047 4.19183 9.58074 4.31878 9.67194C4.77841 10.0045 5.21302 10.3186 5.42244 10.8189C5.55496 11.1339 5.52994 11.5116 5.35572 11.8285C5.14259 12.2173 4.72281 12.3932 4.33361 12.2578C4.08433 12.1703 3.60987 11.8672 3.7359 11.4867C3.78409 11.3412 3.70347 11.1846 3.55613 11.1367C3.40971 11.0888 3.25033 11.1689 3.20214 11.3145C2.98437 11.9759 3.52647 12.5636 4.14642 12.781C4.29839 12.8345 4.45315 12.8603 4.60512 12.8603C5.10738 12.8603 5.58183 12.5802 5.84871 12.0938C6.10262 11.6314 6.13691 11.075 5.94046 10.6061H5.94138Z" fill="url(#paint4_linear_469_5997)"/>
<path d="M4.60696 12.9636C4.44016 12.9636 4.27429 12.9351 4.11397 12.8789C3.44769 12.6458 2.86852 12.0083 3.10575 11.2852C3.13726 11.1884 3.20583 11.1101 3.29757 11.0641C3.38931 11.018 3.49217 11.0106 3.58947 11.042C3.68678 11.0733 3.76554 11.1405 3.81188 11.2308C3.85821 11.3211 3.86655 11.4243 3.83504 11.5201C3.73404 11.8268 4.1603 12.0903 4.36973 12.164C4.70982 12.2828 5.07864 12.1253 5.26675 11.7826C5.42614 11.4924 5.44931 11.147 5.32884 10.8605C5.13053 10.3861 4.70704 10.0802 4.25946 9.75595C4.12509 9.65923 4.0037 9.57079 3.88508 9.47775C3.72199 9.35062 3.5728 9.22994 3.42916 9.10926C1.88811 7.81864 1.03649 6.58145 0.749225 5.21714C0.611151 4.56031 0.283108 2.37059 1.85474 1.76627C3.12336 1.27803 4.40495 1.79759 4.90257 3.00162C5.13424 3.56356 5.13424 4.17524 4.90072 4.67823C4.68573 5.1416 4.28541 5.49074 3.77296 5.66116C3.67566 5.6934 3.57187 5.68603 3.48013 5.64089C3.38839 5.59576 3.31981 5.51837 3.28738 5.42165C3.21973 5.22358 3.32815 5.00802 3.52924 4.94169C3.79798 4.85234 4.01018 4.69112 4.14455 4.47372C4.19274 4.29592 4.20849 4.12826 4.19552 3.93481C4.18903 3.84084 4.18069 3.76346 4.16031 3.69069C4.02501 3.2181 3.53017 2.86528 3.0103 2.88278C2.23653 2.90028 1.93259 3.59856 1.81953 4.01311C1.64254 4.66349 1.66385 5.41704 1.87976 6.13651C2.27916 6.93059 2.94822 7.71362 3.924 8.53166C4.05744 8.64405 4.20108 8.7592 4.36139 8.88449C4.47259 8.97108 4.58843 9.05583 4.70519 9.14058C5.20096 9.49894 5.75603 9.90059 6.03774 10.5712C6.24532 11.0678 6.2101 11.6564 5.94137 12.1465C5.65966 12.6596 5.16111 12.9664 4.60789 12.9664L4.60696 12.9636ZM3.46901 11.2262C3.44213 11.2262 3.41433 11.2327 3.38931 11.2456C3.34669 11.2667 3.31518 11.3036 3.30035 11.3487C3.10297 11.9494 3.60708 12.4874 4.18162 12.6882C4.31969 12.737 4.46333 12.761 4.60603 12.761C5.08327 12.761 5.51417 12.4947 5.75881 12.0479C5.9979 11.6122 6.03033 11.088 5.84592 10.6477C5.58645 10.0296 5.0564 9.64633 4.58935 9.30824C4.46333 9.21704 4.34564 9.13137 4.23259 9.04294C4.07042 8.91581 3.92586 8.79881 3.79056 8.6855C2.78976 7.8472 2.10309 7.04022 1.69072 6.21757C1.68794 6.21205 1.68609 6.20744 1.68424 6.20191C1.45535 5.44375 1.43218 4.64783 1.61937 3.95876C1.83714 3.16007 2.34125 2.69301 3.00382 2.67827C3.61728 2.66538 4.19552 3.07532 4.35583 3.63449C4.38363 3.7303 4.3929 3.82887 4.39846 3.92099C4.41236 4.14024 4.3929 4.33738 4.33637 4.54005C4.33359 4.54834 4.32989 4.55755 4.32618 4.56492C4.16679 4.83115 3.91381 5.02737 3.59225 5.13423C3.49959 5.16555 3.44955 5.26504 3.48013 5.35716C3.49495 5.40138 3.52739 5.43823 3.56909 5.45849C3.61079 5.47876 3.6599 5.48245 3.70531 5.46771C4.16401 5.31571 4.52078 5.00526 4.71168 4.59348C4.9211 4.14116 4.9211 3.58843 4.70982 3.07808C4.25668 1.98091 3.08629 1.50925 1.92702 1.95512C0.50551 2.5014 0.818725 4.55755 0.948459 5.17476C1.22553 6.49302 2.05583 7.69336 3.55982 8.95358C3.70253 9.07241 3.84987 9.19217 4.01111 9.31838C4.12695 9.40958 4.24649 9.49617 4.379 9.59198C4.85068 9.93375 5.29641 10.2553 5.51695 10.7831C5.66059 11.1267 5.63464 11.5367 5.4456 11.8803C5.20837 12.3132 4.73762 12.5095 4.29931 12.3565C3.96756 12.2405 3.49403 11.8941 3.63766 11.4574C3.65249 11.4132 3.64878 11.3653 3.62747 11.3229C3.60616 11.2806 3.56909 11.2502 3.52368 11.2354C3.50515 11.2299 3.48661 11.2262 3.46808 11.2262H3.46901Z" fill="url(#paint5_linear_469_5997)"/>
<defs>
<linearGradient id="paint0_linear_469_5997" x1="5.15734" y1="12.491" x2="16.8556" y2="12.491" gradientUnits="userSpaceOnUse">
<stop stop-color="#F09505"/>
<stop offset="0.21" stop-color="#E7C141"/>
<stop offset="0.33" stop-color="#F1DD80"/>
<stop offset="0.52" stop-color="#FBDFA8"/>
<stop offset="0.73" stop-color="#FFDB35"/>
<stop offset="1" stop-color="#C78600"/>
</linearGradient>
<linearGradient id="paint1_linear_469_5997" x1="5.05247" y1="12.4903" x2="16.9576" y2="12.4903" gradientUnits="userSpaceOnUse">
<stop stop-color="#F09505"/>
<stop offset="0.21" stop-color="#E7C141"/>
<stop offset="0.33" stop-color="#F1DD80"/>
<stop offset="0.52" stop-color="#FBDFA8"/>
<stop offset="0.73" stop-color="#FFDB35"/>
<stop offset="1" stop-color="#C78600"/>
</linearGradient>
<linearGradient id="paint2_linear_469_5997" x1="15.9312" y1="7.2716" x2="21.2732" y2="7.2716" gradientUnits="userSpaceOnUse">
<stop stop-color="#F09505"/>
<stop offset="0.21" stop-color="#E7C141"/>
<stop offset="0.33" stop-color="#F1DD80"/>
<stop offset="0.52" stop-color="#FBDFA8"/>
<stop offset="0.73" stop-color="#FFDB35"/>
<stop offset="1" stop-color="#C78600"/>
</linearGradient>
<linearGradient id="paint3_linear_469_5997" x1="15.5073" y1="4.31463" x2="21.099" y2="9.93943" gradientUnits="userSpaceOnUse">
<stop stop-color="#A57D24"/>
<stop offset="0.21" stop-color="#D8BD62"/>
<stop offset="0.33" stop-color="#F1DD80"/>
<stop offset="0.52" stop-color="#FBF2A8"/>
<stop offset="0.73" stop-color="#F1DD80"/>
<stop offset="1" stop-color="#A57D24"/>
</linearGradient>
<linearGradient id="paint4_linear_469_5997" x1="0.725144" y1="7.27218" x2="6.06741" y2="7.27218" gradientUnits="userSpaceOnUse">
<stop stop-color="#A57D24"/>
<stop offset="0.21" stop-color="#D8BD62"/>
<stop offset="0.33" stop-color="#F1DD80"/>
<stop offset="0.52" stop-color="#FBF2A8"/>
<stop offset="0.73" stop-color="#F1DD80"/>
<stop offset="1" stop-color="#A57D24"/>
</linearGradient>
<linearGradient id="paint5_linear_469_5997" x1="-0.0301065" y1="3.42261" x2="7.34684" y2="10.8433" gradientUnits="userSpaceOnUse">
<stop stop-color="#A57D24"/>
<stop offset="0.21" stop-color="#D8BD62"/>
<stop offset="0.33" stop-color="#F1DD80"/>
<stop offset="0.52" stop-color="#FBF2A8"/>
<stop offset="0.73" stop-color="#F1DD80"/>
<stop offset="1" stop-color="#A57D24"/>
</linearGradient>
</defs>
</svg>
