<svg width="46" height="40" viewBox="0 0 46 40" fill="none" xmlns="http://www.w3.org/2000/svg">
<path d="M36.0169 1.00252C37.0465 1.93571 37.2309 3.40044 37.2309 3.40044C37.2309 3.40044 35.7473 3.35161 34.7177 2.41843C33.6882 1.48524 33.5038 0.0205078 33.5038 0.0205078C33.5038 0.0205078 34.9874 0.0693322 36.0169 1.00252Z" fill="url(#paint0_linear_469_6006)"/>
<path d="M28.7786 35.392C27.8927 36.5223 27.8389 37.8572 27.851 37.8608C27.8473 37.8774 29.7099 37.3597 30.5467 36.1133C31.3825 34.8826 30.9757 33.6067 30.9878 33.6104C30.9831 33.6223 29.6635 34.2718 28.7786 35.3911V35.392Z" fill="url(#paint1_linear_469_6006)"/>
<path d="M30.0834 39.3063C28.4487 39.0299 27.8381 37.801 27.839 37.8121C27.8585 37.8176 29.6108 37.3156 31.1203 37.4915C32.6447 37.6758 33.5408 38.6172 33.5408 38.6274C33.5621 38.632 31.7366 39.5882 30.0843 39.3054L30.0834 39.3063Z" fill="url(#paint2_linear_469_6006)"/>
<path d="M32.0109 33.9817C31.402 35.2207 31.6207 36.5168 31.6319 36.5196C31.63 36.5371 33.2674 35.7283 33.8188 34.3833C34.372 33.0531 33.7428 31.8868 33.7539 31.8887C33.7512 31.9016 32.6197 32.7528 32.0109 33.9817Z" fill="url(#paint3_linear_469_6006)"/>
<path d="M34.0077 37.5432C32.4185 37.5478 31.6095 36.4626 31.6104 36.4737C31.628 36.4765 33.1644 35.7008 34.6295 35.6188C36.1094 35.5414 37.1464 36.3005 37.1473 36.3107C37.1677 36.3125 35.6136 37.5432 34.0077 37.5442V37.5432Z" fill="url(#paint4_linear_469_6006)"/>
<path d="M34.8011 32.0721C34.4555 33.3747 34.916 34.5907 34.9262 34.5907C34.9262 34.6073 36.3292 33.5506 36.61 32.1522C36.8936 30.7695 36.0744 29.7451 36.0846 29.7451C36.0846 29.758 35.1486 30.7787 34.8011 32.0712V32.0721Z" fill="url(#paint5_linear_469_6006)"/>
<path d="M37.3865 35.1816C35.8695 35.4552 34.8947 34.5404 34.8975 34.5505C34.9141 34.5505 36.2254 33.5418 37.62 33.212C39.0286 32.885 40.1712 33.4432 40.1739 33.4524C40.1925 33.4506 38.9202 34.9098 37.3874 35.1816H37.3865Z" fill="url(#paint6_linear_469_6006)"/>
<path d="M37.1308 29.7433C37.0344 31.0671 37.7044 32.1661 37.7146 32.1652C37.7173 32.1818 38.8748 30.9169 38.8988 29.5093C38.9276 28.1155 37.9509 27.2606 37.9611 27.2588C37.962 27.2717 37.2308 28.4287 37.1317 29.7433H37.1308Z" fill="url(#paint7_linear_469_6006)"/>
<path d="M40.198 32.3155C38.7802 32.8406 37.6756 32.1211 37.6783 32.1303C37.6932 32.1276 38.7709 30.9254 40.0682 30.3625C41.3776 29.8006 42.5906 30.1442 42.5943 30.1534C42.612 30.1488 41.6306 31.7876 40.198 32.3146V32.3155Z" fill="url(#paint8_linear_469_6006)"/>
<path d="M38.9785 27.0751C39.1157 28.3814 39.9645 29.333 39.9729 29.3303C39.9775 29.3459 40.881 27.9153 40.6632 26.5371C40.451 25.1728 39.352 24.5086 39.3613 24.5059C39.364 24.5188 38.846 25.7781 38.9785 27.0751Z" fill="url(#paint9_linear_469_6006)"/>
<path d="M42.4193 29.0444C41.1294 29.8025 39.9284 29.294 39.9331 29.3023C39.946 29.2977 40.7828 27.9407 41.9541 27.1642C43.1366 26.3867 44.3829 26.5083 44.3876 26.5165C44.4033 26.5092 43.7231 28.2816 42.4193 29.0434V29.0444Z" fill="url(#paint10_linear_469_6006)"/>
<path d="M40.3269 24.1454C40.6827 25.3992 41.6761 26.1776 41.6835 26.1739C41.69 26.1887 42.3303 24.6327 41.8855 23.3209C41.4491 22.022 40.2611 21.5642 40.2685 21.5596C40.2741 21.5715 39.9766 22.8999 40.326 24.1445L40.3269 24.1454Z" fill="url(#paint11_linear_469_6006)"/>
<path d="M44.028 25.4636C42.8947 26.4318 41.6344 26.1453 41.64 26.1536C41.652 26.1471 42.2386 24.675 43.2552 23.7068C44.2828 22.7359 45.5246 22.6336 45.5301 22.641C45.545 22.6318 45.1752 24.4898 44.028 25.4636Z" fill="url(#paint12_linear_469_6006)"/>
<path d="M41.1544 21.0332C41.7132 22.2013 42.8159 22.7881 42.8234 22.7826C42.8326 22.7964 43.1987 21.1567 42.5435 19.9444C41.8976 18.7431 40.6568 18.5036 40.6642 18.498C40.6716 18.5091 40.6031 19.8725 41.1544 21.0332Z" fill="url(#paint13_linear_469_6006)"/>
<path d="M45.0011 21.6696C44.0531 22.822 42.7697 22.764 42.7771 22.7704C42.7873 22.7622 43.1162 21.2145 43.9493 20.0796C44.7926 18.94 45.9908 18.6167 45.9982 18.6231C46.0112 18.6121 45.962 20.5089 45.0011 21.6687V21.6696Z" fill="url(#paint14_linear_469_6006)"/>
<path d="M41.4425 17.8222C42.1867 18.8761 43.3654 19.2556 43.3719 19.2501C43.383 19.2621 43.4664 17.5808 42.6166 16.4975C41.778 15.4234 40.5214 15.4068 40.5279 15.3994C40.5372 15.4095 40.7068 16.7748 41.4425 17.8222Z" fill="url(#paint15_linear_469_6006)"/>
<path d="M45.316 17.7634C44.583 19.0697 43.3163 19.241 43.3246 19.2466C43.333 19.2364 43.3951 17.6529 44.0159 16.3807C44.6461 15.102 45.7608 14.5668 45.7692 14.5723C45.7803 14.5594 46.0611 16.4479 45.316 17.7634Z" fill="url(#paint16_linear_469_6006)"/>
<path d="M41.172 14.5873C42.0848 15.5011 43.3034 15.666 43.3089 15.6586C43.3228 15.6688 43.1125 13.9876 42.0857 13.0599C41.0719 12.1396 39.8367 12.3441 39.8422 12.3368C39.8543 12.345 40.2694 13.678 41.172 14.5873Z" fill="url(#paint17_linear_469_6006)"/>
<path d="M44.9509 13.8386C44.4626 15.2664 43.2514 15.6607 43.2607 15.6653C43.2681 15.6543 43.054 14.0735 43.433 12.6953C43.8195 11.3098 44.8101 10.5765 44.8193 10.5811C44.8286 10.5664 45.4495 12.3996 44.95 13.8386H44.9509Z" fill="url(#paint18_linear_469_6006)"/>
<path d="M40.3214 11.4132C41.3852 12.1649 42.6056 12.1115 42.6102 12.1041C42.626 12.1124 42.1135 10.4726 40.9274 9.7237C39.7561 8.98028 38.5811 9.40035 38.5857 9.39206C38.5996 9.39851 39.2696 10.6652 40.3214 11.4132Z" fill="url(#paint19_linear_469_6006)"/>
<path d="M43.8835 9.99392C43.6713 11.5066 42.5547 12.1146 42.5658 12.1173C42.5713 12.1053 42.0746 10.5669 42.1794 9.11877C42.2915 7.66233 43.1162 6.75125 43.1273 6.75401C43.1357 6.73835 44.105 8.46839 43.8826 9.99392H43.8835Z" fill="url(#paint20_linear_469_6006)"/>
<path d="M38.872 8.3774C40.0684 8.94763 41.2536 8.67864 41.2573 8.67035C41.2758 8.6768 40.4502 7.12087 39.1232 6.56906C37.8119 6.02094 36.736 6.64644 36.7398 6.63723C36.7564 6.64184 37.6896 7.80809 38.872 8.37648V8.3774Z" fill="url(#paint21_linear_469_6006)"/>
<path d="M42.0885 6.32832C42.1839 7.88609 41.2035 8.69031 41.2156 8.69216C41.2193 8.67926 40.4307 7.2219 40.2314 5.74335C40.0378 4.25559 40.6549 3.19159 40.667 3.19251C40.6735 3.17593 42.0014 4.75673 42.0885 6.3274V6.32832Z" fill="url(#paint22_linear_469_6006)"/>
<path d="M36.8046 5.56256C38.1149 5.93565 39.226 5.45846 39.2278 5.45017C39.2482 5.45386 38.101 4.02414 36.6517 3.68697C35.22 3.35073 34.284 4.16416 34.2868 4.15495C34.3053 4.15679 35.51 5.18855 36.8046 5.56256Z" fill="url(#paint23_linear_469_6006)"/>
<path d="M39.5457 2.9397C39.9803 4.49931 39.1778 5.47949 39.1917 5.47949C39.1936 5.46659 38.1047 4.12991 37.5691 2.66242C37.0381 1.18479 37.4032 -0.000812283 37.4171 -0.000812283C37.4218 -0.0183153 39.1185 1.36535 39.5457 2.9397Z" fill="url(#paint24_linear_469_6006)"/>
<path d="M22.6108 38.2709L22.6367 37.9853C25.0192 38.2 27.3942 37.9356 29.6952 37.2014C31.9377 36.4856 34.0135 35.3553 35.8659 33.8427C39.7097 30.7032 42.1886 26.2224 42.8456 21.2257C43.384 17.1346 43.1078 13.4884 42.0245 10.3895C40.8616 7.06114 38.7914 4.45779 35.8696 2.64945L36.0225 2.40625C39.0008 4.2496 41.1118 6.90453 42.297 10.2955C43.3951 13.4369 43.6749 17.1272 43.131 21.2635C42.4638 26.332 39.9488 30.8782 36.0475 34.0647C34.1673 35.6012 32.0591 36.7482 29.7813 37.475C27.4424 38.2212 25.0294 38.4893 22.608 38.2718L22.6108 38.2709Z" fill="url(#paint25_linear_469_6006)"/>
<path d="M9.98305 1.00252C8.95351 1.93571 8.7691 3.40044 8.7691 3.40044C8.7691 3.40044 10.2527 3.35161 11.2822 2.41843C12.3108 1.48524 12.4962 0.0205078 12.4962 0.0205078C12.4962 0.0205078 11.0126 0.0693322 9.98305 1.00252Z" fill="url(#paint26_linear_469_6006)"/>
<path d="M17.2213 35.393C18.1072 36.5233 18.161 37.8581 18.1489 37.8618C18.1527 37.8784 16.29 37.3607 15.4533 36.1143C14.6174 34.8835 15.0242 33.6077 15.0122 33.6113C15.0168 33.6233 16.3364 34.2728 17.2213 35.392V35.393Z" fill="url(#paint27_linear_469_6006)"/>
<path d="M15.9166 39.3073C17.5512 39.0309 18.1619 37.802 18.161 37.8131C18.1415 37.8186 16.3892 37.3165 14.8796 37.4925C13.3553 37.6767 12.4592 38.6182 12.4592 38.6284C12.4379 38.633 14.2634 39.5892 15.9157 39.3064L15.9166 39.3073Z" fill="url(#paint28_linear_469_6006)"/>
<path d="M13.9889 33.9817C14.5978 35.2207 14.3791 36.5168 14.3679 36.5196C14.3698 36.5371 12.7324 35.7283 12.181 34.3833C11.6278 33.0531 12.257 31.8868 12.2459 31.8887C12.2486 31.9016 13.3801 32.7528 13.9889 33.9817Z" fill="url(#paint29_linear_469_6006)"/>
<path d="M11.992 37.5432C13.5812 37.5478 14.3902 36.4626 14.3893 36.4737C14.3717 36.4765 12.8353 35.7008 11.3702 35.6188C9.89031 35.5414 8.85336 36.3005 8.85243 36.3107C8.83205 36.3125 10.3861 37.5432 11.992 37.5442V37.5432Z" fill="url(#paint30_linear_469_6006)"/>
<path d="M11.1988 32.0721C11.5445 33.3747 11.0839 34.5907 11.0737 34.5907C11.0737 34.6073 9.67074 33.5506 9.38996 32.1522C9.1064 30.7695 9.92558 29.7451 9.91539 29.7451C9.91539 29.758 10.8513 30.7787 11.1988 32.0712V32.0721Z" fill="url(#paint31_linear_469_6006)"/>
<path d="M8.61344 35.1816C10.1304 35.4552 11.1053 34.5404 11.1025 34.5505C11.0858 34.5505 9.77456 33.5418 8.37991 33.212C6.97137 32.885 5.82879 33.4432 5.82601 33.4524C5.80747 33.4506 7.07979 34.9098 8.61251 35.1816H8.61344Z" fill="url(#paint32_linear_469_6006)"/>
<path d="M8.86924 29.7433C8.96561 31.0671 8.29563 32.1661 8.28543 32.1652C8.28265 32.1818 7.12524 30.9169 7.10115 29.5093C7.07242 28.1155 8.04913 27.2606 8.03894 27.2588C8.03801 27.2717 8.76916 28.4287 8.86831 29.7433H8.86924Z" fill="url(#paint33_linear_469_6006)"/>
<path d="M5.80194 32.3155C7.21975 32.8406 8.32434 32.1211 8.32156 32.1303C8.30674 32.1276 7.22902 30.9254 5.93168 30.3625C4.62229 29.8006 3.40927 30.1442 3.40557 30.1534C3.38796 30.1488 4.36931 31.7876 5.80194 32.3146V32.3155Z" fill="url(#paint34_linear_469_6006)"/>
<path d="M7.02044 27.0751C6.88329 28.3814 6.03446 29.333 6.02612 29.3303C6.02148 29.3459 5.11798 27.9153 5.33575 26.5371C5.54795 25.1728 6.64699 24.5086 6.63772 24.5059C6.63494 24.5188 7.15295 25.7781 7.02044 27.0751Z" fill="url(#paint35_linear_469_6006)"/>
<path d="M3.58064 29.0444C4.87057 29.8025 6.07153 29.294 6.0669 29.3023C6.053 29.2977 5.21714 27.9407 4.04583 27.1642C2.8634 26.3867 1.61702 26.5083 1.61239 26.5165C1.59664 26.5092 2.27681 28.2816 3.58064 29.0434V29.0444Z" fill="url(#paint36_linear_469_6006)"/>
<path d="M5.67311 24.1454C5.31726 25.3992 4.32387 26.1776 4.31646 26.1739C4.30997 26.1887 3.66964 24.6327 4.11444 23.3209C4.55091 22.022 5.7389 21.5642 5.73149 21.5596C5.72593 21.5715 6.02339 22.8999 5.67403 24.1445L5.67311 24.1454Z" fill="url(#paint37_linear_469_6006)"/>
<path d="M1.97198 25.4636C3.1053 26.4318 4.36558 26.1453 4.36002 26.1536C4.34797 26.1471 3.76139 24.675 2.74483 23.7068C1.71715 22.7359 0.475407 22.6336 0.469847 22.641C0.455021 22.6318 0.824763 24.4898 1.97198 25.4636Z" fill="url(#paint38_linear_469_6006)"/>
<path d="M4.8446 21.0332C4.28582 22.2013 3.18308 22.7881 3.17567 22.7826C3.1664 22.7964 2.80036 21.1567 3.45552 19.9444C4.10141 18.7431 5.34223 18.5036 5.33481 18.498C5.3274 18.5091 5.39597 19.8725 4.8446 21.0332Z" fill="url(#paint39_linear_469_6006)"/>
<path d="M0.998925 21.6687C1.94691 22.8211 3.22942 22.7631 3.22294 22.7695C3.21274 22.7612 2.88378 21.2136 2.0507 20.0787C1.2065 18.94 0.00831224 18.6167 0.00182553 18.6231C-0.0111479 18.6121 0.0379657 20.5089 0.998925 21.6687Z" fill="url(#paint40_linear_469_6006)"/>
<path d="M4.55645 17.8222C3.81233 18.8761 2.6336 19.2556 2.62711 19.2501C2.61599 19.2621 2.53259 17.5808 3.38235 16.4975C4.22099 15.4234 5.47756 15.4068 5.47107 15.3994C5.4618 15.4095 5.29222 16.7748 4.55645 17.8222Z" fill="url(#paint41_linear_469_6006)"/>
<path d="M0.683839 17.7634C1.41684 19.0697 2.6836 19.241 2.67526 19.2466C2.66692 19.2364 2.60483 17.6529 1.98396 16.3807C1.35382 15.102 0.239036 14.5668 0.230696 14.5723C0.219576 14.5594 -0.0612056 16.4479 0.683839 17.7634Z" fill="url(#paint42_linear_469_6006)"/>
<path d="M4.82803 14.5873C3.91525 15.5011 2.69668 15.666 2.69112 15.6586C2.67722 15.6688 2.88757 13.9876 3.91433 13.0599C4.92811 12.1396 6.16336 12.3441 6.1578 12.3368C6.14575 12.345 5.7306 13.678 4.82803 14.5873Z" fill="url(#paint43_linear_469_6006)"/>
<path d="M1.04808 13.8386C1.53644 15.2664 2.7476 15.6607 2.73833 15.6653C2.73092 15.6543 2.94498 14.0735 2.56597 12.6953C2.17955 11.3098 1.18893 10.5765 1.17967 10.5811C1.1704 10.5664 0.54953 12.3996 1.04901 13.8386H1.04808Z" fill="url(#paint44_linear_469_6006)"/>
<path d="M5.67864 11.4132C4.61482 12.1649 3.39439 12.1115 3.38976 12.1041C3.374 12.1124 3.88645 10.4726 5.07259 9.7237C6.24391 8.98028 7.41893 9.40035 7.41429 9.39206C7.40039 9.39851 6.73041 10.6652 5.67864 11.4132Z" fill="url(#paint45_linear_469_6006)"/>
<path d="M2.11651 9.99392C2.32872 11.5066 3.44536 12.1146 3.43424 12.1173C3.42868 12.1053 3.92537 10.5669 3.82066 9.11877C3.70853 7.66233 2.88379 6.75125 2.87267 6.75401C2.86433 6.73835 1.89503 8.46839 2.11744 9.99392H2.11651Z" fill="url(#paint46_linear_469_6006)"/>
<path d="M7.12714 8.3774C5.9308 8.94763 4.74559 8.67864 4.74188 8.67035C4.72335 8.6768 5.54901 7.12087 6.87601 6.56906C8.18725 6.02094 9.26312 6.64644 9.25941 6.63723C9.24273 6.64184 8.30957 7.80809 7.12714 8.37648V8.3774Z" fill="url(#paint47_linear_469_6006)"/>
<path d="M3.91151 6.32832C3.81607 7.88609 4.79648 8.69031 4.78444 8.69216C4.78073 8.67926 5.56933 7.2219 5.76856 5.74335C5.96224 4.25559 5.34507 3.19159 5.33303 3.19251C5.32654 3.17593 3.99862 4.75673 3.91151 6.3274V6.32832Z" fill="url(#paint48_linear_469_6006)"/>
<path d="M9.19543 5.56256C7.88511 5.93565 6.77403 5.45846 6.77218 5.45017C6.75179 5.45386 7.89901 4.02414 9.34833 3.68697C10.78 3.35073 11.716 4.16416 11.7132 4.15495C11.6947 4.15679 10.49 5.18855 9.19543 5.56256Z" fill="url(#paint49_linear_469_6006)"/>
<path d="M6.45432 2.9397C6.01971 4.49931 6.8222 5.47949 6.8083 5.47949C6.80645 5.46659 7.89529 4.12991 8.43091 2.66242C8.96189 1.18479 8.59585 -0.000812283 8.58288 -0.000812283C8.57825 -0.0183153 6.88151 1.36535 6.45432 2.9397Z" fill="url(#paint50_linear_469_6006)"/>
<path d="M23.3892 38.2709L23.3632 37.9853C20.9807 38.2 18.6057 37.9356 16.3048 37.2014C14.0622 36.4856 11.9865 35.3553 10.1341 33.8427C6.29022 30.7032 3.81137 26.2224 3.15436 21.2257C2.61596 17.1346 2.89211 13.4884 3.97539 10.3895C5.13836 7.06114 7.20855 4.45779 10.1303 2.64945L9.97745 2.40625C6.99912 4.2496 4.88816 6.90453 3.70295 10.2955C2.60484 13.4369 2.32499 17.1272 2.86894 21.2635C3.53615 26.332 6.05114 30.8782 9.95243 34.0647C11.8326 35.6012 13.9408 36.7482 16.2186 37.475C18.5575 38.2212 20.9706 38.4893 23.392 38.2718L23.3892 38.2709Z" fill="url(#paint51_linear_469_6006)"/>
<path d="M22.9147 36.8096L20.7324 38.4051L22.9147 39.9997L25.0961 38.4051L22.9147 36.8096Z" fill="url(#paint52_linear_469_6006)"/>
<defs>
<linearGradient id="paint0_linear_469_6006" x1="33.5036" y1="1.71037" x2="37.2306" y2="1.71037" gradientUnits="userSpaceOnUse">
<stop stop-color="#F09505"/>
<stop offset="0.21" stop-color="#E7C141"/>
<stop offset="0.33" stop-color="#F1DD80"/>
<stop offset="0.52" stop-color="#FBDFA8"/>
<stop offset="0.73" stop-color="#FFDB35"/>
<stop offset="1" stop-color="#C78600"/>
</linearGradient>
<linearGradient id="paint1_linear_469_6006" x1="27.8491" y1="35.7365" x2="31.0758" y2="35.7365" gradientUnits="userSpaceOnUse">
<stop stop-color="#A57D24"/>
<stop offset="0.21" stop-color="#D8BD62"/>
<stop offset="0.33" stop-color="#F1DD80"/>
<stop offset="0.52" stop-color="#FBF2A8"/>
<stop offset="0.73" stop-color="#F1DD80"/>
<stop offset="1" stop-color="#A57D24"/>
</linearGradient>
<linearGradient id="paint2_linear_469_6006" x1="27.839" y1="38.4063" x2="33.5399" y2="38.4063" gradientUnits="userSpaceOnUse">
<stop stop-color="#A57D24"/>
<stop offset="0.21" stop-color="#D8BD62"/>
<stop offset="0.33" stop-color="#F1DD80"/>
<stop offset="0.52" stop-color="#FBF2A8"/>
<stop offset="0.73" stop-color="#F1DD80"/>
<stop offset="1" stop-color="#A57D24"/>
</linearGradient>
<linearGradient id="paint3_linear_469_6006" x1="31.5846" y1="34.2037" x2="34.0468" y2="34.2037" gradientUnits="userSpaceOnUse">
<stop stop-color="#A57D24"/>
<stop offset="0.21" stop-color="#D8BD62"/>
<stop offset="0.33" stop-color="#F1DD80"/>
<stop offset="0.52" stop-color="#FBF2A8"/>
<stop offset="0.73" stop-color="#F1DD80"/>
<stop offset="1" stop-color="#A57D24"/>
</linearGradient>
<linearGradient id="paint4_linear_469_6006" x1="31.6104" y1="36.5778" x2="37.1473" y2="36.5778" gradientUnits="userSpaceOnUse">
<stop stop-color="#A57D24"/>
<stop offset="0.21" stop-color="#D8BD62"/>
<stop offset="0.33" stop-color="#F1DD80"/>
<stop offset="0.52" stop-color="#FBF2A8"/>
<stop offset="0.73" stop-color="#F1DD80"/>
<stop offset="1" stop-color="#A57D24"/>
</linearGradient>
<linearGradient id="paint5_linear_469_6006" x1="34.6732" y1="32.1688" x2="36.6693" y2="32.1688" gradientUnits="userSpaceOnUse">
<stop stop-color="#A57D24"/>
<stop offset="0.21" stop-color="#D8BD62"/>
<stop offset="0.33" stop-color="#F1DD80"/>
<stop offset="0.52" stop-color="#FBF2A8"/>
<stop offset="0.73" stop-color="#F1DD80"/>
<stop offset="1" stop-color="#A57D24"/>
</linearGradient>
<linearGradient id="paint6_linear_469_6006" x1="34.8975" y1="34.171" x2="40.173" y2="34.171" gradientUnits="userSpaceOnUse">
<stop stop-color="#A57D24"/>
<stop offset="0.21" stop-color="#D8BD62"/>
<stop offset="0.33" stop-color="#F1DD80"/>
<stop offset="0.52" stop-color="#FBF2A8"/>
<stop offset="0.73" stop-color="#F1DD80"/>
<stop offset="1" stop-color="#A57D24"/>
</linearGradient>
<linearGradient id="paint7_linear_469_6006" x1="37.1206" y1="29.712" x2="38.8988" y2="29.712" gradientUnits="userSpaceOnUse">
<stop stop-color="#A57D24"/>
<stop offset="0.21" stop-color="#D8BD62"/>
<stop offset="0.33" stop-color="#F1DD80"/>
<stop offset="0.52" stop-color="#FBF2A8"/>
<stop offset="0.73" stop-color="#F1DD80"/>
<stop offset="1" stop-color="#A57D24"/>
</linearGradient>
<linearGradient id="paint8_linear_469_6006" x1="37.6783" y1="31.2745" x2="42.5943" y2="31.2745" gradientUnits="userSpaceOnUse">
<stop stop-color="#A57D24"/>
<stop offset="0.21" stop-color="#D8BD62"/>
<stop offset="0.33" stop-color="#F1DD80"/>
<stop offset="0.52" stop-color="#FBF2A8"/>
<stop offset="0.73" stop-color="#F1DD80"/>
<stop offset="1" stop-color="#A57D24"/>
</linearGradient>
<linearGradient id="paint9_linear_469_6006" x1="38.9572" y1="26.9185" x2="40.6975" y2="26.9185" gradientUnits="userSpaceOnUse">
<stop stop-color="#A57D24"/>
<stop offset="0.21" stop-color="#D8BD62"/>
<stop offset="0.33" stop-color="#F1DD80"/>
<stop offset="0.52" stop-color="#FBF2A8"/>
<stop offset="0.73" stop-color="#F1DD80"/>
<stop offset="1" stop-color="#A57D24"/>
</linearGradient>
<linearGradient id="paint10_linear_469_6006" x1="39.9331" y1="27.984" x2="44.3876" y2="27.984" gradientUnits="userSpaceOnUse">
<stop stop-color="#A57D24"/>
<stop offset="0.21" stop-color="#D8BD62"/>
<stop offset="0.33" stop-color="#F1DD80"/>
<stop offset="0.52" stop-color="#FBF2A8"/>
<stop offset="0.73" stop-color="#F1DD80"/>
<stop offset="1" stop-color="#A57D24"/>
</linearGradient>
<linearGradient id="paint11_linear_469_6006" x1="40.1564" y1="23.8672" x2="42.0431" y2="23.8672" gradientUnits="userSpaceOnUse">
<stop stop-color="#A57D24"/>
<stop offset="0.21" stop-color="#D8BD62"/>
<stop offset="0.33" stop-color="#F1DD80"/>
<stop offset="0.52" stop-color="#FBF2A8"/>
<stop offset="0.73" stop-color="#F1DD80"/>
<stop offset="1" stop-color="#A57D24"/>
</linearGradient>
<linearGradient id="paint12_linear_469_6006" x1="41.639" y1="24.4143" x2="45.5301" y2="24.4143" gradientUnits="userSpaceOnUse">
<stop stop-color="#A57D24"/>
<stop offset="0.21" stop-color="#D8BD62"/>
<stop offset="0.33" stop-color="#F1DD80"/>
<stop offset="0.52" stop-color="#FBF2A8"/>
<stop offset="0.73" stop-color="#F1DD80"/>
<stop offset="1" stop-color="#A57D24"/>
</linearGradient>
<linearGradient id="paint13_linear_469_6006" x1="40.6651" y1="20.6399" x2="42.9336" y2="20.6399" gradientUnits="userSpaceOnUse">
<stop stop-color="#A57D24"/>
<stop offset="0.21" stop-color="#D8BD62"/>
<stop offset="0.33" stop-color="#F1DD80"/>
<stop offset="0.52" stop-color="#FBF2A8"/>
<stop offset="0.73" stop-color="#F1DD80"/>
<stop offset="1" stop-color="#A57D24"/>
</linearGradient>
<linearGradient id="paint14_linear_469_6006" x1="42.7771" y1="20.6977" x2="46" y2="20.6977" gradientUnits="userSpaceOnUse">
<stop stop-color="#A57D24"/>
<stop offset="0.21" stop-color="#D8BD62"/>
<stop offset="0.33" stop-color="#F1DD80"/>
<stop offset="0.52" stop-color="#FBF2A8"/>
<stop offset="0.73" stop-color="#F1DD80"/>
<stop offset="1" stop-color="#A57D24"/>
</linearGradient>
<linearGradient id="paint15_linear_469_6006" x1="40.5277" y1="17.3247" x2="43.379" y2="17.3247" gradientUnits="userSpaceOnUse">
<stop stop-color="#F09505"/>
<stop offset="0.21" stop-color="#E7C141"/>
<stop offset="0.33" stop-color="#F1DD80"/>
<stop offset="0.52" stop-color="#FBDFA8"/>
<stop offset="0.73" stop-color="#FFDB35"/>
<stop offset="1" stop-color="#C78600"/>
</linearGradient>
<linearGradient id="paint16_linear_469_6006" x1="43.3244" y1="16.9093" x2="45.83" y2="16.9093" gradientUnits="userSpaceOnUse">
<stop stop-color="#F09505"/>
<stop offset="0.21" stop-color="#E7C141"/>
<stop offset="0.33" stop-color="#F1DD80"/>
<stop offset="0.52" stop-color="#FBDFA8"/>
<stop offset="0.73" stop-color="#FFDB35"/>
<stop offset="1" stop-color="#C78600"/>
</linearGradient>
<linearGradient id="paint17_linear_469_6006" x1="39.8422" y1="13.9913" x2="43.3089" y2="13.9913" gradientUnits="userSpaceOnUse">
<stop stop-color="#A57D24"/>
<stop offset="0.21" stop-color="#D8BD62"/>
<stop offset="0.33" stop-color="#F1DD80"/>
<stop offset="0.52" stop-color="#FBF2A8"/>
<stop offset="0.73" stop-color="#F1DD80"/>
<stop offset="1" stop-color="#A57D24"/>
</linearGradient>
<linearGradient id="paint18_linear_469_6006" x1="43.2079" y1="13.1228" x2="45.1455" y2="13.1228" gradientUnits="userSpaceOnUse">
<stop stop-color="#A57D24"/>
<stop offset="0.21" stop-color="#D8BD62"/>
<stop offset="0.33" stop-color="#F1DD80"/>
<stop offset="0.52" stop-color="#FBF2A8"/>
<stop offset="0.73" stop-color="#F1DD80"/>
<stop offset="1" stop-color="#A57D24"/>
</linearGradient>
<linearGradient id="paint19_linear_469_6006" x1="38.5857" y1="10.6937" x2="42.6112" y2="10.6937" gradientUnits="userSpaceOnUse">
<stop stop-color="#A57D24"/>
<stop offset="0.21" stop-color="#D8BD62"/>
<stop offset="0.33" stop-color="#F1DD80"/>
<stop offset="0.52" stop-color="#FBF2A8"/>
<stop offset="0.73" stop-color="#F1DD80"/>
<stop offset="1" stop-color="#A57D24"/>
</linearGradient>
<linearGradient id="paint20_linear_469_6006" x1="42.1645" y1="9.43658" x2="43.9159" y2="9.43658" gradientUnits="userSpaceOnUse">
<stop stop-color="#A57D24"/>
<stop offset="0.21" stop-color="#D8BD62"/>
<stop offset="0.33" stop-color="#F1DD80"/>
<stop offset="0.52" stop-color="#FBF2A8"/>
<stop offset="0.73" stop-color="#F1DD80"/>
<stop offset="1" stop-color="#A57D24"/>
</linearGradient>
<linearGradient id="paint21_linear_469_6006" x1="36.7407" y1="7.54186" x2="41.2573" y2="7.54186" gradientUnits="userSpaceOnUse">
<stop stop-color="#A57D24"/>
<stop offset="0.21" stop-color="#D8BD62"/>
<stop offset="0.33" stop-color="#F1DD80"/>
<stop offset="0.52" stop-color="#FBF2A8"/>
<stop offset="0.73" stop-color="#F1DD80"/>
<stop offset="1" stop-color="#A57D24"/>
</linearGradient>
<linearGradient id="paint22_linear_469_6006" x1="40.1944" y1="5.94326" x2="42.095" y2="5.94326" gradientUnits="userSpaceOnUse">
<stop stop-color="#A57D24"/>
<stop offset="0.21" stop-color="#D8BD62"/>
<stop offset="0.33" stop-color="#F1DD80"/>
<stop offset="0.52" stop-color="#FBF2A8"/>
<stop offset="0.73" stop-color="#F1DD80"/>
<stop offset="1" stop-color="#A57D24"/>
</linearGradient>
<linearGradient id="paint23_linear_469_6006" x1="34.2868" y1="4.65517" x2="39.2278" y2="4.65517" gradientUnits="userSpaceOnUse">
<stop stop-color="#A57D24"/>
<stop offset="0.21" stop-color="#D8BD62"/>
<stop offset="0.33" stop-color="#F1DD80"/>
<stop offset="0.52" stop-color="#FBF2A8"/>
<stop offset="0.73" stop-color="#F1DD80"/>
<stop offset="1" stop-color="#A57D24"/>
</linearGradient>
<linearGradient id="paint24_linear_469_6006" x1="37.2818" y1="2.7398" x2="39.6745" y2="2.7398" gradientUnits="userSpaceOnUse">
<stop stop-color="#A57D24"/>
<stop offset="0.21" stop-color="#D8BD62"/>
<stop offset="0.33" stop-color="#F1DD80"/>
<stop offset="0.52" stop-color="#FBF2A8"/>
<stop offset="0.73" stop-color="#F1DD80"/>
<stop offset="1" stop-color="#A57D24"/>
</linearGradient>
<linearGradient id="paint25_linear_469_6006" x1="22.6108" y1="20.3745" x2="43.4025" y2="20.3745" gradientUnits="userSpaceOnUse">
<stop stop-color="#A57D24"/>
<stop offset="0.21" stop-color="#D8BD62"/>
<stop offset="0.33" stop-color="#F1DD80"/>
<stop offset="0.52" stop-color="#FBF2A8"/>
<stop offset="0.73" stop-color="#F1DD80"/>
<stop offset="1" stop-color="#A57D24"/>
</linearGradient>
<linearGradient id="paint26_linear_469_6006" x1="8.76818" y1="1.71093" x2="12.4962" y2="1.71093" gradientUnits="userSpaceOnUse">
<stop stop-color="#A57D24"/>
<stop offset="0.21" stop-color="#D8BD62"/>
<stop offset="0.33" stop-color="#F1DD80"/>
<stop offset="0.52" stop-color="#FBF2A8"/>
<stop offset="0.73" stop-color="#F1DD80"/>
<stop offset="1" stop-color="#A57D24"/>
</linearGradient>
<linearGradient id="paint27_linear_469_6006" x1="14.9241" y1="35.7375" x2="18.1499" y2="35.7375" gradientUnits="userSpaceOnUse">
<stop stop-color="#A57D24"/>
<stop offset="0.21" stop-color="#D8BD62"/>
<stop offset="0.33" stop-color="#F1DD80"/>
<stop offset="0.52" stop-color="#FBF2A8"/>
<stop offset="0.73" stop-color="#F1DD80"/>
<stop offset="1" stop-color="#A57D24"/>
</linearGradient>
<linearGradient id="paint28_linear_469_6006" x1="12.4592" y1="38.4073" x2="18.161" y2="38.4073" gradientUnits="userSpaceOnUse">
<stop stop-color="#A57D24"/>
<stop offset="0.21" stop-color="#D8BD62"/>
<stop offset="0.33" stop-color="#F1DD80"/>
<stop offset="0.52" stop-color="#FBF2A8"/>
<stop offset="0.73" stop-color="#F1DD80"/>
<stop offset="1" stop-color="#A57D24"/>
</linearGradient>
<linearGradient id="paint29_linear_469_6006" x1="11.953" y1="34.2037" x2="14.4152" y2="34.2037" gradientUnits="userSpaceOnUse">
<stop stop-color="#A57D24"/>
<stop offset="0.21" stop-color="#D8BD62"/>
<stop offset="0.33" stop-color="#F1DD80"/>
<stop offset="0.52" stop-color="#FBF2A8"/>
<stop offset="0.73" stop-color="#F1DD80"/>
<stop offset="1" stop-color="#A57D24"/>
</linearGradient>
<linearGradient id="paint30_linear_469_6006" x1="8.85151" y1="36.5778" x2="14.3893" y2="36.5778" gradientUnits="userSpaceOnUse">
<stop stop-color="#A57D24"/>
<stop offset="0.21" stop-color="#D8BD62"/>
<stop offset="0.33" stop-color="#F1DD80"/>
<stop offset="0.52" stop-color="#FBF2A8"/>
<stop offset="0.73" stop-color="#F1DD80"/>
<stop offset="1" stop-color="#A57D24"/>
</linearGradient>
<linearGradient id="paint31_linear_469_6006" x1="9.32973" y1="32.1688" x2="11.3267" y2="32.1688" gradientUnits="userSpaceOnUse">
<stop stop-color="#A57D24"/>
<stop offset="0.21" stop-color="#D8BD62"/>
<stop offset="0.33" stop-color="#F1DD80"/>
<stop offset="0.52" stop-color="#FBF2A8"/>
<stop offset="0.73" stop-color="#F1DD80"/>
<stop offset="1" stop-color="#A57D24"/>
</linearGradient>
<linearGradient id="paint32_linear_469_6006" x1="5.82601" y1="34.171" x2="11.1025" y2="34.171" gradientUnits="userSpaceOnUse">
<stop stop-color="#A57D24"/>
<stop offset="0.21" stop-color="#D8BD62"/>
<stop offset="0.33" stop-color="#F1DD80"/>
<stop offset="0.52" stop-color="#FBF2A8"/>
<stop offset="0.73" stop-color="#F1DD80"/>
<stop offset="1" stop-color="#A57D24"/>
</linearGradient>
<linearGradient id="paint33_linear_469_6006" x1="7.10115" y1="29.712" x2="8.8785" y2="29.712" gradientUnits="userSpaceOnUse">
<stop stop-color="#A57D24"/>
<stop offset="0.21" stop-color="#D8BD62"/>
<stop offset="0.33" stop-color="#F1DD80"/>
<stop offset="0.52" stop-color="#FBF2A8"/>
<stop offset="0.73" stop-color="#F1DD80"/>
<stop offset="1" stop-color="#A57D24"/>
</linearGradient>
<linearGradient id="paint34_linear_469_6006" x1="3.40557" y1="31.2745" x2="8.32156" y2="31.2745" gradientUnits="userSpaceOnUse">
<stop stop-color="#A57D24"/>
<stop offset="0.21" stop-color="#D8BD62"/>
<stop offset="0.33" stop-color="#F1DD80"/>
<stop offset="0.52" stop-color="#FBF2A8"/>
<stop offset="0.73" stop-color="#F1DD80"/>
<stop offset="1" stop-color="#A57D24"/>
</linearGradient>
<linearGradient id="paint35_linear_469_6006" x1="5.30178" y1="26.918" x2="7.04201" y2="26.918" gradientUnits="userSpaceOnUse">
<stop stop-color="#F09505"/>
<stop offset="0.21" stop-color="#E7C141"/>
<stop offset="0.33" stop-color="#F1DD80"/>
<stop offset="0.52" stop-color="#FBDFA8"/>
<stop offset="0.73" stop-color="#FFDB35"/>
<stop offset="1" stop-color="#C78600"/>
</linearGradient>
<linearGradient id="paint36_linear_469_6006" x1="1.61239" y1="27.984" x2="6.0669" y2="27.984" gradientUnits="userSpaceOnUse">
<stop stop-color="#A57D24"/>
<stop offset="0.21" stop-color="#D8BD62"/>
<stop offset="0.33" stop-color="#F1DD80"/>
<stop offset="0.52" stop-color="#FBF2A8"/>
<stop offset="0.73" stop-color="#F1DD80"/>
<stop offset="1" stop-color="#A57D24"/>
</linearGradient>
<linearGradient id="paint37_linear_469_6006" x1="3.95723" y1="23.8667" x2="5.84415" y2="23.8667" gradientUnits="userSpaceOnUse">
<stop stop-color="#F09505"/>
<stop offset="0.21" stop-color="#E7C141"/>
<stop offset="0.33" stop-color="#F1DD80"/>
<stop offset="0.52" stop-color="#FBDFA8"/>
<stop offset="0.73" stop-color="#FFDB35"/>
<stop offset="1" stop-color="#C78600"/>
</linearGradient>
<linearGradient id="paint38_linear_469_6006" x1="0.469847" y1="24.4143" x2="4.36002" y2="24.4143" gradientUnits="userSpaceOnUse">
<stop stop-color="#A57D24"/>
<stop offset="0.21" stop-color="#D8BD62"/>
<stop offset="0.33" stop-color="#F1DD80"/>
<stop offset="0.52" stop-color="#FBF2A8"/>
<stop offset="0.73" stop-color="#F1DD80"/>
<stop offset="1" stop-color="#A57D24"/>
</linearGradient>
<linearGradient id="paint39_linear_469_6006" x1="3.0653" y1="20.6402" x2="5.33468" y2="20.6402" gradientUnits="userSpaceOnUse">
<stop stop-color="#F09505"/>
<stop offset="0.21" stop-color="#E7C141"/>
<stop offset="0.33" stop-color="#F1DD80"/>
<stop offset="0.52" stop-color="#FBDFA8"/>
<stop offset="0.73" stop-color="#FFDB35"/>
<stop offset="1" stop-color="#C78600"/>
</linearGradient>
<linearGradient id="paint40_linear_469_6006" x1="-2.7814e-05" y1="20.6968" x2="3.22294" y2="20.6968" gradientUnits="userSpaceOnUse">
<stop stop-color="#A57D24"/>
<stop offset="0.21" stop-color="#D8BD62"/>
<stop offset="0.33" stop-color="#F1DD80"/>
<stop offset="0.52" stop-color="#FBF2A8"/>
<stop offset="0.73" stop-color="#F1DD80"/>
<stop offset="1" stop-color="#A57D24"/>
</linearGradient>
<linearGradient id="paint41_linear_469_6006" x1="2.6197" y1="17.3248" x2="5.47107" y2="17.3248" gradientUnits="userSpaceOnUse">
<stop stop-color="#A57D24"/>
<stop offset="0.21" stop-color="#D8BD62"/>
<stop offset="0.33" stop-color="#F1DD80"/>
<stop offset="0.52" stop-color="#FBF2A8"/>
<stop offset="0.73" stop-color="#F1DD80"/>
<stop offset="1" stop-color="#A57D24"/>
</linearGradient>
<linearGradient id="paint42_linear_469_6006" x1="0.169536" y1="16.9094" x2="2.67526" y2="16.9094" gradientUnits="userSpaceOnUse">
<stop stop-color="#A57D24"/>
<stop offset="0.21" stop-color="#D8BD62"/>
<stop offset="0.33" stop-color="#F1DD80"/>
<stop offset="0.52" stop-color="#FBF2A8"/>
<stop offset="0.73" stop-color="#F1DD80"/>
<stop offset="1" stop-color="#A57D24"/>
</linearGradient>
<linearGradient id="paint43_linear_469_6006" x1="2.69112" y1="13.9913" x2="6.1578" y2="13.9913" gradientUnits="userSpaceOnUse">
<stop stop-color="#A57D24"/>
<stop offset="0.21" stop-color="#D8BD62"/>
<stop offset="0.33" stop-color="#F1DD80"/>
<stop offset="0.52" stop-color="#FBF2A8"/>
<stop offset="0.73" stop-color="#F1DD80"/>
<stop offset="1" stop-color="#A57D24"/>
</linearGradient>
<linearGradient id="paint44_linear_469_6006" x1="0.854405" y1="13.1228" x2="2.79208" y2="13.1228" gradientUnits="userSpaceOnUse">
<stop stop-color="#A57D24"/>
<stop offset="0.21" stop-color="#D8BD62"/>
<stop offset="0.33" stop-color="#F1DD80"/>
<stop offset="0.52" stop-color="#FBF2A8"/>
<stop offset="0.73" stop-color="#F1DD80"/>
<stop offset="1" stop-color="#A57D24"/>
</linearGradient>
<linearGradient id="paint45_linear_469_6006" x1="3.38883" y1="10.6937" x2="7.41429" y2="10.6937" gradientUnits="userSpaceOnUse">
<stop stop-color="#A57D24"/>
<stop offset="0.21" stop-color="#D8BD62"/>
<stop offset="0.33" stop-color="#F1DD80"/>
<stop offset="0.52" stop-color="#FBF2A8"/>
<stop offset="0.73" stop-color="#F1DD80"/>
<stop offset="1" stop-color="#A57D24"/>
</linearGradient>
<linearGradient id="paint46_linear_469_6006" x1="2.08408" y1="9.43658" x2="3.83456" y2="9.43658" gradientUnits="userSpaceOnUse">
<stop stop-color="#A57D24"/>
<stop offset="0.21" stop-color="#D8BD62"/>
<stop offset="0.33" stop-color="#F1DD80"/>
<stop offset="0.52" stop-color="#FBF2A8"/>
<stop offset="0.73" stop-color="#F1DD80"/>
<stop offset="1" stop-color="#A57D24"/>
</linearGradient>
<linearGradient id="paint47_linear_469_6006" x1="4.74188" y1="7.54186" x2="9.25941" y2="7.54186" gradientUnits="userSpaceOnUse">
<stop stop-color="#A57D24"/>
<stop offset="0.21" stop-color="#D8BD62"/>
<stop offset="0.33" stop-color="#F1DD80"/>
<stop offset="0.52" stop-color="#FBF2A8"/>
<stop offset="0.73" stop-color="#F1DD80"/>
<stop offset="1" stop-color="#A57D24"/>
</linearGradient>
<linearGradient id="paint48_linear_469_6006" x1="3.90486" y1="5.94211" x2="5.80602" y2="5.94211" gradientUnits="userSpaceOnUse">
<stop stop-color="#F09505"/>
<stop offset="0.21" stop-color="#E7C141"/>
<stop offset="0.33" stop-color="#F1DD80"/>
<stop offset="0.52" stop-color="#FBDFA8"/>
<stop offset="0.73" stop-color="#FFDB35"/>
<stop offset="1" stop-color="#C78600"/>
</linearGradient>
<linearGradient id="paint49_linear_469_6006" x1="6.77162" y1="4.65514" x2="11.7128" y2="4.65514" gradientUnits="userSpaceOnUse">
<stop stop-color="#F09505"/>
<stop offset="0.21" stop-color="#E7C141"/>
<stop offset="0.33" stop-color="#F1DD80"/>
<stop offset="0.52" stop-color="#FBDFA8"/>
<stop offset="0.73" stop-color="#FFDB35"/>
<stop offset="1" stop-color="#C78600"/>
</linearGradient>
<linearGradient id="paint50_linear_469_6006" x1="6.32499" y1="2.73909" x2="8.7177" y2="2.73909" gradientUnits="userSpaceOnUse">
<stop stop-color="#F09505"/>
<stop offset="0.21" stop-color="#E7C141"/>
<stop offset="0.33" stop-color="#F1DD80"/>
<stop offset="0.52" stop-color="#FBDFA8"/>
<stop offset="0.73" stop-color="#FFDB35"/>
<stop offset="1" stop-color="#C78600"/>
</linearGradient>
<linearGradient id="paint51_linear_469_6006" x1="2.59743" y1="20.3745" x2="23.3892" y2="20.3745" gradientUnits="userSpaceOnUse">
<stop stop-color="#A57D24"/>
<stop offset="0.21" stop-color="#D8BD62"/>
<stop offset="0.33" stop-color="#F1DD80"/>
<stop offset="0.52" stop-color="#FBF2A8"/>
<stop offset="0.73" stop-color="#F1DD80"/>
<stop offset="1" stop-color="#A57D24"/>
</linearGradient>
<linearGradient id="paint52_linear_469_6006" x1="20.7322" y1="38.4046" x2="25.0958" y2="38.4046" gradientUnits="userSpaceOnUse">
<stop stop-color="#F09505"/>
<stop offset="0.21" stop-color="#E7C141"/>
<stop offset="0.33" stop-color="#F1DD80"/>
<stop offset="0.52" stop-color="#FBDFA8"/>
<stop offset="0.73" stop-color="#FFDB35"/>
<stop offset="1" stop-color="#C78600"/>
</linearGradient>
</defs>
</svg>
