<svg width="747" height="60" viewBox="0 0 747 60" fill="none" xmlns="http://www.w3.org/2000/svg">
<path d="M717.607 7.76934C729.966 7.76934 740.045 17.8251 740.045 30.2066C740.045 42.5882 729.989 52.6439 717.607 52.6439H29.3941C17.0354 52.6439 6.95684 42.5882 6.95684 30.2066C6.95684 17.8251 17.0126 7.76934 29.3941 7.76934H717.607ZM717.607 0.928711H29.3941C13.2274 0.928711 0.116211 14.0399 0.116211 30.2066C0.116211 46.3733 13.2274 59.4845 29.3941 59.4845H717.607C733.774 59.4845 746.885 46.3733 746.885 30.2066C746.885 14.0399 733.774 0.928711 717.607 0.928711Z" fill="url(#paint0_linear_474_2802)"/>
<defs>
<linearGradient id="paint0_linear_474_2802" x1="0.116211" y1="30.2066" x2="746.885" y2="30.2066" gradientUnits="userSpaceOnUse">
<stop stop-color="#ED9B5A"/>
<stop offset="1" stop-color="#F1CE5B"/>
</linearGradient>
</defs>
</svg>
