<svg id="Icon" enable-background="new 0 0 96 96" height="512" viewBox="0 0 96 96" width="512" fill='white' xmlns="http://www.w3.org/2000/svg"><path id="Gift_1_" d="m38 48v40h-21c-3.309 0-6-2.691-6-6v-34.202c.646.132 1.315.202 2 .202zm4 0v40h12v-40zm41 0h-25v40h21c3.309 0 6-2.691 6-6v-34.202c-.646.132-1.315.202-2 .202zm6-18v8c0 3.309-2.691 6-6 6h-70c-3.309 0-6-2.691-6-6v-8c0-3.309 2.691-6 6-6h19.019c-1.261-1.674-2.019-3.748-2.019-6 0-5.514 4.486-10 10-10 3.273 0 6.175 1.588 8 4.026 1.826-2.438 4.727-4.026 8-4.026 5.514 0 10 4.486 10 10 0 2.252-.758 4.326-2.019 6h19.019c3.309 0 6 2.691 6 6zm-39-12v6h6c3.309 0 6-2.691 6-6s-2.691-6-6-6-6 2.691-6 6zm-10 6h6v-6c0-3.309-2.691-6-6-6s-6 2.691-6 6 2.691 6 6 6z"/></svg>