<svg height="512" viewBox="0 0 24 24" width="512" xmlns="http://www.w3.org/2000/svg" fill="white"><g id="Layer_2" data-name="Layer 2"><path d="m21.47 10.33a1.79 1.79 0 0 0 1.28-1.68v-2.65a1.76 1.76 0 0 0 -1.75-1.75h-18a1.76 1.76 0 0 0 -1.75 1.75v2.65a1.79 1.79 0 0 0 1.28 1.68 1.75 1.75 0 0 1 0 3.34 1.79 1.79 0 0 0 -1.28 1.68v2.65a1.76 1.76 0 0 0 1.75 1.75h18a1.76 1.76 0 0 0 1.75-1.75v-2.65a1.79 1.79 0 0 0 -1.28-1.68 1.75 1.75 0 0 1 0-3.34zm-6.21 1.11-1.37 1.1a.36.36 0 0 0 -.12.39l.63 2.07a.37.37 0 0 1 -.57.4l-1.61-1.22a.39.39 0 0 0 -.44 0l-1.61 1.22a.37.37 0 0 1 -.57-.4l.63-2.1a.36.36 0 0 0 -.12-.39l-1.37-1.1a.36.36 0 0 1 .26-.62h1.58a.36.36 0 0 0 .33-.22l.8-1.85a.36.36 0 0 1 .66 0l.8 1.85a.36.36 0 0 0 .33.22h1.5a.36.36 0 0 1 .26.65z"/></g></svg>